# Exported using wow.export v0.1.9
o StormwindStreetlamp01
mtllib stormwindstreetlamp01.mtl
v 0.21719427406787872 4.9005584716796875 -9.66571107596792e-8
v 3.543564019992118e-8 4.9005584716796875 -0.21719439327716827
v -0.21719425916671753 4.9005584716796875 -1.5362029159859958e-7
v -0.5084083080291748 4.66075325012207 -1.4376755075318215e-7
v 4.7468006414419506e-8 4.66075325012207 -0.5084083676338196
v 1.03898090131338e-8 4.83470344543457 -1.1710668701425675e-7
v -4.142494347547654e-8 4.66075325012207 0.5084083080291748
v 0.5084083676338196 4.66075325012207 -1.04281312474086e-8
v 4.746801707256054e-8 4.66075325012207 -0.5084083676338196
v -0.5084083080291748 4.6607537269592285 -1.9591688271702878e-7
v 1.0389816118561157e-8 4.83470344543457 -1.6925601187267603e-7
v 0.5084083676338196 4.6607537269592285 -6.257746321125524e-8
v -4.14249328173355e-8 4.6607537269592285 0.50840824842453
v -0.21719425916671753 4.9005584716796875 -1.5362029159859958e-7
v 5.7035376421765704e-9 4.7274932861328125 -1.1832545254719662e-7
v -2.5398223524319974e-9 4.9005584716796875 0.21719415485858917
v 3.543564019992118e-8 4.9005584716796875 -0.21719439327716827
v 0.21719427406787872 4.9005584716796875 -9.66571107596792e-8
v 0.5846256613731384 1.0916730165481567 2.1540515149354178e-8
v -1.0125714311470801e-7 1.0179036855697632 0.40599003434181213
v 0.40598994493484497 1.0179036855697632 6.208780156669036e-9
v -4.888843108119545e-8 1.0916730165481567 -0.5846256613731384
v -1.5110761353298585e-7 1.0916731357574463 0.5846256613731384
v -0.4059901237487793 1.0179036855697632 -1.0026956687170241e-7
v -0.5846256613731384 1.0916730165481567 -1.3178826918647246e-7
v -3.027160033752807e-8 1.017903208732605 -0.40598997473716736
v -3.027160033752807e-8 1.017903208732605 -0.40598997473716736
v 0.40598994493484497 1.0179036855697632 6.208780156669036e-9
v 0.5225128531455994 2.3684758564530796e-15 1.5591501478567568e-14
v -1.7330935975223838e-7 2.2839765634330433e-8 0.5225128531455994
v -1.0125714311470801e-7 1.0179036855697632 0.40599003434181213
v -7.861742545856032e-8 7.894919345045068e-16 -4.5679534821374546e-8
v -0.5225130915641785 -3.157967738018027e-15 -1.4037152595847147e-7
v -5.577768646958248e-8 -2.2839765634330433e-8 -0.5225129127502441
v -0.4059901237487793 1.0179036855697632 -1.0026956687170241e-7
v 0.16701389849185944 1.1694198846817017 -3.993055486262165e-8
v -1.5110761353298585e-7 1.0916731357574463 0.5846256613731384
v 0.5846256613731384 1.0916730165481567 2.1540515149354178e-8
v -6.978658717571307e-8 1.1694198846817017 -0.167014017701149
v -4.888843108119545e-8 1.0916730165481567 -0.5846256613731384
v -0.16701406240463257 1.1694198846817017 -8.373304893893874e-8
v -0.5846256613731384 1.0916730165481567 -1.3178826918647246e-7
v -9.898823805087886e-8 1.1694200038909912 0.1670139580965042
v -0.34727340936660767 4.036195278167725 -1.0538576589169679e-7
v 7.356137476932645e-9 3.8645095825195312 -0.10524117946624756
v -0.10524112731218338 3.8645095825195312 -9.384319810123998e-8
v -4.7899899158210246e-8 4.036195278167725 0.34727346897125244
v -1.1044805070525854e-8 3.8645095825195312 0.10524104535579681
v 0.34727346897125244 4.036195278167725 -1.800556859166136e-8
v 0.10524112731218338 3.8645095825195312 -6.624178183756158e-8
v 2.3255774195263257e-8 4.036195278167725 -0.34727346897125244
v -0.0906524583697319 3.68001651763916 -0.585304319858551
v 0.004530128091573715 3.938800811767578 -0.659465491771698
v -0.239137202501297 3.6140518188476562 -0.6594654321670532
v 0.004530060570687056 3.8068716526031494 -0.5853043794631958
v -0.0906524509191513 3.6800167560577393 0.6146089434623718
v 0.0045300754718482494 3.8068716526031494 0.614608883857727
v -0.239137202501297 3.6140522956848145 0.6887698769569397
v 0.00453008571639657 3.9388017654418945 0.6887698173522949
v 0.004530050326138735 3.722301959991455 1.0258647203445435
v 0.24819734692573547 3.6140518188476562 -0.6594654321670532
v 0.004530130419880152 3.722301483154297 -0.9965599179267883
v 0.09971258044242859 3.68001651763916 -0.585304319858551
v 0.09971259534358978 3.6800167560577393 0.6146090030670166
v 0.24819731712341309 3.6140522956848145 0.6887698769569397
v -2.5398223524319974e-9 4.9005584716796875 0.21719415485858917
v 4.7468006414419506e-8 4.66075325012207 -0.5084083676338196
v 0.5084083676338196 4.66075325012207 -1.0428116148375466e-8
v 0.34727346897125244 4.036195278167725 -1.800556859166136e-8
v 2.3255774195263257e-8 4.036195278167725 -0.34727346897125244
v -0.34727340936660767 4.036195278167725 -1.0538576589169679e-7
v -0.5084083676338196 4.66075325012207 -1.4376755075318215e-7
v 4.7468006414419506e-8 4.66075325012207 -0.5084083676338196
v -0.34727340936660767 4.036195278167725 -1.0538576589169679e-7
v -4.7899899158210246e-8 4.036195278167725 0.34727346897125244
v -4.142494347547654e-8 4.66075325012207 0.5084083676338196
v -0.5084083676338196 4.66075325012207 -1.4376755075318215e-7
v -4.7899899158210246e-8 4.036195278167725 0.34727346897125244
v 0.34727346897125244 4.036195278167725 -1.800556859166136e-8
v 0.5084083676338196 4.66075325012207 -1.0428116148375466e-8
v -4.142494347547654e-8 4.66075325012207 0.5084083676338196
v 2.3255774195263257e-8 4.036195278167725 -0.34727346897125244
vn 9.55342838461471e-16 1 -4.371139183945161e-8
vn 9.55342838461471e-16 1 -4.371139183945161e-8
vn 9.55342838461471e-16 1 -4.371139183945161e-8
vn 0.3237224817276001 -0.9461520910263062 9.490312891102803e-8
vn -4.656573349137716e-9 -0.9461520314216614 0.3237225413322449
vn 1.1101027652671291e-8 -1 1.0524642135578688e-7
vn 1.3565353285116544e-8 -0.9461520910263062 -0.32372239232063293
vn -0.3237224519252777 -0.9461520910263062 1.2632637158560556e-8
vn 4.656572016870086e-9 0.9461520910263062 -0.3237225115299225
vn -0.3237224817276001 0.9461520910263062 -9.793335919994206e-8
vn -1.1101027652671291e-8 1 -1.0261614846740486e-7
vn 0.3237224519252777 0.9461520910263062 -2.829514400559674e-8
vn -3.2258085980174656e-8 0.9461520910263062 0.32372236251831055
vn -0.6231785416603088 -0.7820796370506287 -4.6271253495433484e-8
vn -4.638983597260449e-8 -1 2.9045885696632467e-8
vn -6.161559440442943e-8 -0.7820795774459839 0.6231785416603088
vn 6.570252963911116e-8 -0.7820796370506287 -0.6231784820556641
vn 0.6231785416603088 -0.7820796370506287 1.1663770749237301e-7
vn 0.38169369101524353 -0.9242888689041138 1.6339519959274185e-7
vn -1.5663715657865396e-7 -0.680761992931366 0.7325047254562378
vn 0.7325040102005005 -0.6807627081871033 2.1158006902055604e-8
vn 1.0987026399789102e-7 -0.9242882132530212 -0.3816952705383301
vn -1.0173605602403768e-7 -0.9242884516716003 0.3816946744918823
vn -0.7325041890144348 -0.680762529373169 3.9433379583897477e-7
vn -0.38169413805007935 -0.9242886900901794 2.8717104783027025e-7
vn 5.627218797599198e-7 -0.6807610988616943 -0.7325055599212646
vn 5.627218797599198e-7 -0.6807610988616943 -0.7325055599212646
vn 0.7325040102005005 -0.6807627081871033 2.1158006902055604e-8
vn 0.8448434472084045 -0.5350135564804077 8.752252256272186e-8
vn -8.439549503691524e-8 -0.5350135564804077 0.8448434472084045
vn -1.5663715657865396e-7 -0.680761992931366 0.7325047254562378
vn -9.55342838461471e-16 -1 4.371139183945161e-8
vn -0.8448434472084045 -0.5350135564804077 -1.9291998398784926e-7
vn 1.2087521383818967e-7 -0.5350136160850525 -0.8448434472084045
vn -0.7325041890144348 -0.680762529373169 3.9433379583897477e-7
vn 0.553508996963501 0.8328431844711304 -4.835860067942122e-7
vn -2.9906594978257317e-9 0.9831081628799438 0.18302547931671143
vn 0.18302558362483978 0.9831081628799438 -2.0086174856714933e-7
vn -1.539261802463443e-7 0.8328431844711304 -0.5535090565681458
vn 6.644352179563384e-9 0.9831081032752991 -0.18302568793296814
vn -0.5535088777542114 0.8328433036804199 -5.761572765550227e-7
vn -0.1830257773399353 0.9831081032752991 -2.877329166039999e-7
vn 5.03408500662772e-7 0.8328431248664856 0.5535091161727905
vn -0.5785687565803528 -0.8156335949897766 -1.1795412291348839e-7
vn 9.346557305889291e-8 -0.5648531913757324 -0.8251914381980896
vn -0.8251913785934448 -0.5648532509803772 -2.6799847319125547e-7
vn -6.988577183619782e-8 -0.8156337738037109 0.5785685777664185
vn -7.510927702014669e-8 -0.564853310585022 0.8251913189888
vn 0.5785686373710632 -0.8156337141990662 1.2374643176826794e-7
vn 0.8251913189888 -0.564853310585022 9.876492867988418e-8
vn 1.713208952480727e-8 -0.8156336545944214 -0.578568696975708
vn -0.5646929144859314 -0.3266678750514984 0.7578984498977661
vn 1.713665938041231e-7 0.982938289642334 0.18393565714359283
vn -0.8862859606742859 -0.43028393387794495 0.17132686078548431
vn -1.3814948829349305e-7 0.7440283894538879 0.6681480407714844
vn -0.5646919012069702 -0.32666823267936707 -0.7578989863395691
vn 1.8957545933062647e-7 0.7440274953842163 -0.6681490540504456
vn -0.8862858414649963 -0.4302840828895569 -0.1713273674249649
vn 1.4957709026930388e-7 0.9829380512237549 -0.18393686413764954
vn -8.122373884589251e-8 -0.005469066556543112 0.9999850392341614
vn 0.8862857818603516 -0.43028420209884644 0.1713271141052246
vn 5.155179394478182e-8 -0.005469628609716892 -0.9999850392341614
vn 0.5646926760673523 -0.3266679346561432 0.7578985691070557
vn 0.5646917819976807 -0.3266681432723999 -0.7578991651535034
vn 0.8862857222557068 -0.4302842319011688 -0.17132730782032013
vn 9.55342838461471e-16 1 -4.371139183945161e-8
vn 7.686382730298646e-8 -0.2498178333044052 -0.9682928323745728
vn 0.9682928323745728 -0.24981795251369476 -1.533804407927164e-7
vn 0.9682928323745728 -0.24981792271137238 2.4645686380608822e-8
vn 7.971148363594693e-8 -0.24981781840324402 -0.9682928323745728
vn -0.9682928323745728 -0.24981790781021118 -1.9607729484505398e-7
vn -0.9682928323745728 -0.2498178631067276 -3.5332794823261793e-7
vn 7.686382730298646e-8 -0.2498178333044052 -0.9682928323745728
vn -0.9682928323745728 -0.24981790781021118 -1.9607729484505398e-7
vn -1.338223398761329e-7 -0.2498178780078888 0.9682928323745728
vn -6.322878931541709e-8 -0.24981790781021118 0.9682928323745728
vn -0.9682928323745728 -0.2498178631067276 -3.5332794823261793e-7
vn -1.338223398761329e-7 -0.2498178780078888 0.9682928323745728
vn 0.9682928323745728 -0.24981792271137238 2.4645686380608822e-8
vn 0.9682928323745728 -0.24981795251369476 -1.533804407927164e-7
vn -6.322878931541709e-8 -0.24981790781021118 0.9682928323745728
vn 7.971148363594693e-8 -0.24981781840324402 -0.9682928323745728
vt 0.31903520226478577 0.054544806480407715
vt 0.8983559608459473 0.05212920904159546
vt 0.9297570586204529 0.4527015686035156
vt 0.9059826135635376 0.045189619064331055
vt 0.9056119322776794 0.453402042388916
vt 0.6135267019271851 0.2536231279373169
vt 0.3141949772834778 0.04418230056762695
vt 0.9056118130683899 0.0441821813583374
vt 0.9056119322776794 0.45340216159820557
vt 0.9059826731681824 0.045189619064331055
vt 0.6135267019271851 0.25362318754196167
vt 0.9056118726730347 0.0441821813583374
vt 0.31419500708580017 0.04418230056762695
vt 0.9297570586204529 0.4527015686035156
vt 0.6231884956359863 0.25362324714660645
vt 0.3190353810787201 0.4623635411262512
vt 0.8983559608459473 0.05212920904159546
vt 0.31903520226478577 0.054544806480407715
vt 0.12560392916202545 0.330632746219635
vt 0.005499634426087141 0.4875551462173462
vt 0.12560392916202545 0.4875551462173462
vt 0.24530920386314392 0.33063268661499023
vt 0.005898650735616684 0.33063292503356934
vt 0.12560392916202545 0.4875551462173462
vt 0.12560397386550903 0.330632746219635
vt 0.24570822715759277 0.48755478858947754
vt 0.9921875 0.016395628452301025
vt 0.9921875 0.48751068115234375
vt 0.2578125 0.48751068115234375
vt 0.2578125 0.016395628452301025
vt 0.9921875 0.016395628452301025
vt 0.2578125 0.48751068115234375
vt 0.2578125 0.48751068115234375
vt 0.2578125 0.016395628452301025
vt 0.9921875 0.48751068115234375
vt 0.12560392916202545 0.11325728893280029
vt 0.005898650735616684 0.33063292503356934
vt 0.12560392916202545 0.330632746219635
vt 0.24642518162727356 0.11325728893280029
vt 0.24530920386314392 0.33063268661499023
vt 0.12560392916202545 0.11325728893280029
vt 0.12560397386550903 0.330632746219635
vt 0.00478276377543807 0.11325740814208984
vt 0.12560422718524933 0.8906276226043701
vt 0.24682104587554932 0.9986271858215332
vt 0.12560419738292694 0.9986271858215332
vt 0.004544102121144533 0.8906277418136597
vt 0.004387304186820984 0.9986271858215332
vt 0.12560419738292694 0.8906276226043701
vt 0.12560419738292694 0.9986271858215332
vt 0.24666428565979004 0.8906276226043701
vt 0.23422949016094208 0.8035660982131958
vt 0.01590914838016033 0.8324108123779297
vt 0.23479938507080078 0.8324107527732849
vt 0.017049312591552734 0.8035660982131958
vt 0.23422881960868835 0.33686399459838867
vt 0.017048707231879234 0.33686399459838867
vt 0.2347990721464157 0.30801939964294434
vt 0.015908844769001007 0.30801939964294434
vt 0.118853859603405 0.17690753936767578
vt 0.1183246597647667 0.8275798559188843
vt 0.11885387450456619 0.9635224342346191
vt 0.11832485347986221 0.7818269729614258
vt 0.11832322925329208 0.3392794132232666
vt 0.11832346767187119 0.2959420680999756
vt 0.3190353810787201 0.4623635411262512
vt 1 1
vt 0 1
vt 0 0
vt 0 0
vt 1 0
vt 1 1
vt 0 1
vt 0 0
vt 1 0
vt 1 1
vt 0 1
vt 0 0
vt 1 0
vt 1 1
vt 0 1
vt 1 0
g Geoset0
s 1
usemtl 198317
f 1/1/1 2/2/2 3/3/3
f 4/4/4 5/5/5 6/6/6
f 7/7/7 4/4/4 6/6/6
f 8/8/8 7/7/7 6/6/6
f 5/5/5 8/8/8 6/6/6
f 9/9/9 10/10/10 11/11/11
f 12/12/12 9/9/9 11/11/11
f 13/13/13 12/12/12 11/11/11
f 10/10/10 13/13/13 11/11/11
f 14/14/14 15/15/15 16/16/16
f 17/17/17 15/15/15 14/14/14
f 18/18/18 15/15/15 17/17/17
f 16/16/16 15/15/15 18/18/18
f 19/19/19 20/20/20 21/21/21
f 22/22/22 19/19/19 21/21/21
f 19/19/19 23/23/23 20/20/20
f 23/23/23 24/24/24 20/20/20
f 23/23/23 25/25/25 24/24/24
f 25/25/25 26/26/26 24/24/24
f 25/25/25 22/22/22 26/26/26
f 22/22/22 21/21/21 26/26/26
f 27/27/27 28/28/28 29/29/29
f 28/28/28 30/30/30 29/29/29
f 28/28/28 31/31/31 30/30/30
f 32/32/32 33/33/33 34/34/34
f 35/35/35 34/34/34 33/33/33
f 31/31/31 35/35/35 33/33/33
f 35/35/35 27/27/27 34/34/34
f 27/27/27 29/29/29 34/34/34
f 32/32/32 34/34/34 29/29/29
f 32/32/32 29/29/29 30/30/30
f 32/32/32 30/30/30 33/33/33
f 31/31/31 33/33/33 30/30/30
f 36/36/36 37/37/37 38/38/38
f 39/39/39 36/36/36 38/38/38
f 39/39/39 38/38/38 40/40/40
f 41/41/41 39/39/39 40/40/40
f 41/41/41 40/40/40 42/42/42
f 43/43/43 41/41/41 42/42/42
f 43/43/43 42/42/42 37/37/37
f 36/36/36 43/43/43 37/37/37
f 44/44/44 45/45/45 46/46/46
f 47/47/47 44/44/44 46/46/46
f 47/47/47 46/46/46 48/48/48
f 49/49/49 47/47/47 48/48/48
f 49/49/49 48/48/48 50/50/50
f 51/51/51 49/49/49 50/50/50
f 51/51/51 50/50/50 45/45/45
f 44/44/44 51/51/51 45/45/45
f 50/50/50 43/43/43 36/36/36
f 45/45/45 50/50/50 36/36/36
f 50/50/50 48/48/48 43/43/43
f 48/48/48 41/41/41 43/43/43
f 48/48/48 46/46/46 41/41/41
f 46/46/46 39/39/39 41/41/41
f 46/46/46 45/45/45 39/39/39
f 45/45/45 36/36/36 39/39/39
f 52/52/52 53/53/53 54/54/54
f 52/52/52 55/55/55 53/53/53
f 56/56/56 55/55/55 52/52/52
f 56/56/56 57/57/57 55/55/55
f 58/58/58 57/57/57 56/56/56
f 58/58/58 59/59/59 57/57/57
f 60/60/60 59/59/59 58/58/58
f 61/61/61 54/54/54 62/62/62
f 63/63/63 54/54/54 61/61/61
f 63/63/63 52/52/52 54/54/54
f 64/64/64 52/52/52 63/63/63
f 64/64/64 56/56/56 52/52/52
f 65/65/65 56/56/56 64/64/64
f 65/65/65 58/58/58 56/56/56
f 54/54/54 53/53/53 62/62/62
f 53/53/53 61/61/61 62/62/62
f 55/55/55 61/61/61 53/53/53
f 55/55/55 63/63/63 61/61/61
f 57/57/57 63/63/63 55/55/55
f 57/57/57 64/64/64 63/63/63
f 59/59/59 64/64/64 57/57/57
f 59/59/59 65/65/65 64/64/64
f 60/60/60 65/65/65 59/59/59
f 60/60/60 58/58/58 65/65/65
f 1/1/1 3/3/3 66/66/66
g Geoset1
s 1
usemtl 127516
f 67/67/67 68/68/68 69/69/69
f 70/70/70 71/71/71 72/72/72
f 72/72/72 73/73/73 70/70/70
f 74/74/74 75/75/75 76/76/76
f 76/76/76 77/77/77 74/74/74
f 78/78/78 79/79/79 80/80/80
f 80/80/80 81/81/81 78/78/78
f 69/69/69 82/82/82 67/67/67