# Exported using wow.export v0.1.9
o DurotarRock07
mtllib durotarrock07.mtl
v -3.6275317668914795 12.4411039352417 -3.394164800643921
v -3.877033233642578 12.680355072021484 -1.2276476621627808
v -2.1225013732910156 15.861907958984375 -1.2279572486877441
v 4.056929111480713 2.9458165168762207 0.9252391457557678
v 4.4711594581604 -1.339646339416504 1.3566862344741821
v 5.159788608551025 4.682229518890381 -2.326183557510376
v 2.687495708465576 9.494046211242676 -4.803308963775635
v 0.4662880003452301 10.495774269104004 -4.271867275238037
v 2.170959711074829 12.52873706817627 -3.7981317043304443
v 4.288485050201416 11.29810905456543 -3.279097318649292
v 2.9734020233154297 5.765985012054443 -4.094436168670654
v 4.63035249710083 5.8070197105407715 -2.2211430072784424
v 3.2367305755615234 4.631235599517822 0.454251229763031
v 4.005630970001221 4.331363201141357 4.4149956703186035
v 4.367454528808594 -1.1336983442306519 5.811840534210205
v -0.03946973383426666 18.62751007080078 -1.0070929527282715
v -0.008127490989863873 17.41158676147461 0.8120869398117065
v 1.1099284887313843 17.32166290283203 0.45773157477378845
v -0.5456107258796692 17.5849552154541 0.5441309809684753
v 1.947396993637085 15.516934394836426 0.7136999368667603
v 2.0243918895721436 15.847052574157715 -0.8878805041313171
v 0.11154091358184814 15.874808311462402 1.0717180967330933
v -1.2837063074111938 15.501484870910645 1.067613124847412
v -1.2108691930770874 17.555421829223633 0.16890667378902435
v -1.3220869302749634 17.527570724487305 -0.18493254482746124
v -1.6159679889678955 17.975248336791992 -1.2051252126693726
v -2.1225013732910156 15.861907958984375 -1.2279572486877441
v -1.7414380311965942 15.52110481262207 0.6182355284690857
v -1.9606916904449463 15.800068855285645 0.18831630051136017
v -2.710263729095459 12.327681541442871 1.0303541421890259
v -3.877033233642578 12.680355072021484 -1.2276476621627808
v -4.306864261627197 11.09868335723877 -1.271034598350525
v 0.21280451118946075 12.888370513916016 3.1001131534576416
v 3.0318005084991455 10.26689338684082 2.338477373123169
v 2.608501672744751 14.202865600585938 1.5422011613845825
v -1.5212955474853516 12.883842468261719 2.919506788253784
v -2.806276559829712 13.966631889343262 1.8346996307373047
v -4.411965370178223 5.166003704071045 -0.27090194821357727
v -3.271563768386841 10.381731033325195 1.5033836364746094
v -3.383368730545044 11.28127670288086 2.4974498748779297
v -3.8419172763824463 5.495185852050781 4.257571220397949
v -1.8246285915374756 8.27677059173584 4.229700088500977
v -3.7075390815734863 5.199584484100342 2.637559413909912
v -4.318904876708984 3.620914936065674 3.1495015621185303
v -5.476532459259033 3.0746705532073975 0.05160154029726982
v -5.775454998016357 -1.4328975677490234 0.8278319835662842
v -4.720941066741943 -1.4222804307937622 4.175210952758789
v -2.130316734313965 6.277490139007568 5.07314920425415
v 0.563721776008606 8.356650352478027 3.9714512825012207
v 0.16333986818790436 7.069860935211182 4.812714576721191
v -2.1689789295196533 4.042323589324951 5.7093400955200195
v -4.43022346496582 3.777287483215332 4.6163482666015625
v -4.788311958312988 -1.0835238695144653 6.096395015716553
v -2.331376552581787 -0.8421410322189331 7.4653449058532715
v 0.41853731870651245 4.038402557373047 5.687102317810059
v 0.4914257824420929 -0.8464190363883972 7.4410834312438965
v 3.13000226020813 9.1719388961792 -0.11966601014137268
v 3.1059446334838867 5.958619594573975 3.328333854675293
v 2.460016965866089 13.048240661621094 -0.7684610486030579
v 3.7879269123077393 12.657147407531738 -2.794724702835083
v -0.03946973383426666 18.62751007080078 -1.0070929527282715
v 1.369130253791809 17.465702056884766 -0.9709873199462891
v 1.6978189945220947 17.71406364440918 -1.7698969841003418
v 1.0310792922973633 17.166004180908203 -2.308333158493042
v 2.249689817428589 15.598468780517578 -1.4495012760162354
v 0.08077595382928848 17.174800872802734 -2.196579933166504
v -1.11510169506073 15.925418853759766 -2.6825058460235596
v -0.6583245396614075 17.193044662475586 -2.423842668533325
v 0.2197999358177185 16.28230094909668 -2.3019254207611084
v -1.4532543420791626 13.333907127380371 -3.737993001937866
v 0.29407066106796265 13.69591999053955 -3.330784320831299
v 1.5959595441818237 15.91901683807373 -2.536104679107666
v -1.4428378343582153 17.378618240356445 -2.0776116847991943
v -1.7646301984786987 15.896641731262207 -2.0234529972076416
v -4.631475925445557 2.562955141067505 -2.8504879474639893
v -5.476532459259033 3.0746705532073975 0.05160154029726982
v -4.411965370178223 5.166003704071045 -0.27090194821357727
v -5.775454998016357 -1.4328975677490234 0.8278319835662842
v -5.0464911460876465 -1.446985125541687 -2.3156044483184814
v -2.384136915206909 -1.7056914567947388 -3.78279972076416
v -2.160346031188965 2.8735172748565674 -3.8241817951202393
v -4.306864261627197 11.09868335723877 -1.271034598350525
v -3.5516645908355713 9.507001876831055 -3.4574522972106934
v -3.889793872833252 4.699995517730713 -2.911736488342285
v -2.0668318271636963 5.003587245941162 -4.1760573387146
v 0.33171361684799194 2.7460720539093018 -3.81506085395813
v 0.33639398217201233 -1.6343427896499634 -3.378161907196045
v 3.3903605937957764 -1.746868371963501 -4.0163254737854
v 0.14157100021839142 5.404900074005127 -3.815542459487915
v -1.9528480768203735 10.785893440246582 -4.721359729766846
v 3.1522867679595947 2.3225581645965576 -3.6338303089141846
v 6.0074357986450195 -1.294897437095642 -1.4530709981918335
v -1.6159679889678955 17.975248336791992 -1.2051252126693726
vn -0.7787843346595764 0.3438085913658142 -0.5246813893318176
vn -0.9138969779014587 0.36753273010253906 0.1723717749118805
vn -0.934481143951416 0.3555053472518921 -0.018997661769390106
vn 0.9368686079978943 0.29405438899993896 0.18923327326774597
vn 0.9680209755897522 0.12400726228952408 0.21807707846164703
vn 0.9491534233093262 0.25473257899284363 -0.18498404324054718
vn 0.20978185534477234 0.10686512291431427 -0.9718906283378601
vn 0.020983794704079628 0.09107894450426102 -0.9956225752830505
vn 0.25468331575393677 0.3943377733230591 -0.8829689025878906
vn 0.963367760181427 0.20026206970214844 -0.17837509512901306
vn 0.32852408289909363 -0.03802502527832985 -0.943729817867279
vn 0.9675679802894592 0.2424180805683136 -0.07103278487920761
vn 0.9410312175750732 0.25016263127326965 0.2277694195508957
vn 0.8088400959968567 0.3793557286262512 0.4492959976196289
vn 0.8221330046653748 0.19146393239498138 0.5361332297325134
vn -0.006390318740159273 0.9967153072357178 -0.08073242753744125
vn 0.0353071428835392 0.5123125910758972 0.8580729961395264
vn 0.6185052990913391 0.5423898696899414 0.5685634016990662
vn -0.29411405324935913 0.6303795576095581 0.7184139490127563
vn 0.6414287090301514 0.5166316032409668 0.5671517252922058
vn 0.9131616950035095 0.3396727740764618 0.22529549896717072
vn 0.10890601575374603 0.4281143248081207 0.8971385955810547
vn -0.3464681804180145 0.4600614309310913 0.8174981474876404
vn -0.6422818303108215 0.5710943937301636 0.5111997723579407
vn -0.7889615893363953 0.5086230635643005 0.3447350263595581
vn -0.7740835547447205 0.6323578953742981 -0.030299661681056023
vn -0.934481143951416 0.3555053472518921 -0.018997661769390106
vn -0.814197838306427 0.417512446641922 0.4034416973590851
vn -0.8655571341514587 0.3363698124885559 0.3710339069366455
vn -0.9379941821098328 0.2969084680080414 0.1789197027683258
vn -0.9138969779014587 0.36753273010253906 0.1723717749118805
vn -0.9843712449073792 0.15275833010673523 0.08762502670288086
vn 0.17331446707248688 0.34869349002838135 0.9210727214813232
vn 0.8338466286659241 0.21607370674610138 0.5079488158226013
vn 0.7642459869384766 0.43558236956596375 0.4756006896495819
vn -0.2061188966035843 0.46337953209877014 0.8618552088737488
vn -0.8149799704551697 0.4559890329837799 0.35760536789894104
vn -0.9710802435874939 0.23873983323574066 -0.002543235896155238
vn -0.9866029024124146 0.15983788669109344 0.032658979296684265
vn -0.9269817471504211 0.2092364877462387 0.31132772564888
vn -0.803682267665863 0.32672250270843506 0.4973401427268982
vn -0.22851382195949554 0.3446710407733917 0.9104852080345154
vn -0.9801723957061768 0.197777658700943 0.012087018229067326
vn -0.966094434261322 0.2417505830526352 0.09065429121255875
vn -0.9641183614730835 0.26528066396713257 -0.01009916327893734
vn -0.99556565284729 0.08880997449159622 0.03101239539682865
vn -0.9863818287849426 0.10446924716234207 0.12703195214271545
vn -0.2755996584892273 0.3401719629764557 0.8990705609321594
vn 0.1980006843805313 0.36570605635643005 0.9094255566596985
vn 0.20367838442325592 0.4063865542411804 0.8907104134559631
vn -0.23715689778327942 0.3096241354942322 0.9208091497421265
vn -0.845852792263031 0.28948771953582764 0.44802889227867126
vn -0.8647253513336182 0.21290495991706848 0.4548862874507904
vn -0.2467779666185379 0.3351017236709595 0.909289538860321
vn 0.15380369126796722 0.31104838848114014 0.9378663897514343
vn 0.17776528000831604 0.3187764883041382 0.9310107827186584
vn 0.9679916501045227 0.1255500167608261 0.2173231840133667
vn 0.8503339886665344 0.3730739653110504 0.3711441159248352
vn 0.9633907079696655 0.15731506049633026 0.21709510684013367
vn 0.8996015191078186 0.4311065971851349 -0.06974385678768158
vn -0.006390318740159273 0.9967153072357178 -0.08073242753744125
vn 0.7535607814788818 0.5665628910064697 0.3333956301212311
vn 0.8171895742416382 0.5665631294250488 -0.10586494952440262
vn 0.29336655139923096 0.44335755705833435 -0.8469770550727844
vn 0.8559188842773438 0.37690436840057373 -0.3540423512458801
vn 0.07553938776254654 0.3016822636127472 -0.9504112601280212
vn -0.18905304372310638 0.25637730956077576 -0.9479080438613892
vn 0.023062538355588913 0.46975842118263245 -0.8824937343597412
vn 0.054951660335063934 0.2833995819091797 -0.9574262499809265
vn -0.16888470947742462 0.3505038022994995 -0.9212084412574768
vn 0.05814576521515846 0.3277657628059387 -0.9429680109024048
vn 0.32488787174224854 0.3138306736946106 -0.8921648859977722
vn -0.6025556325912476 0.4358275234699249 -0.6685664653778076
vn -0.7126796245574951 0.35849860310554504 -0.6029646992683411
vn -0.7633286714553833 0.10729019343852997 -0.6370385885238647
vn -0.9641183614730835 0.26528066396713257 -0.01009916327893734
vn -0.9710802435874939 0.23873983323574066 -0.002543235896155238
vn -0.99556565284729 0.08880997449159622 0.03101239539682865
vn -0.7991510629653931 0.0025257004890590906 -0.6011249423027039
vn -0.18219515681266785 -0.04242563620209694 -0.9823466539382935
vn -0.18287821114063263 -0.076578289270401 -0.9801486134529114
vn -0.9843712449073792 0.15275833010673523 0.08762502670288086
vn -0.7755480408668518 0.040266215801239014 -0.6300030946731567
vn -0.8212302327156067 0.13043224811553955 -0.5554892420768738
vn -0.2109495848417282 -0.056815437972545624 -0.9758443832397461
vn 0.015774289146065712 -0.04994457587599754 -0.9986274242401123
vn -0.029514409601688385 -0.09923479706048965 -0.9946262240409851
vn 0.2749701738357544 0.028331398963928223 -0.9610352516174316
vn 0.03855440020561218 -0.045049794018268585 -0.9982404708862305
vn -0.27372434735298157 0.1503835916519165 -0.9499788284301758
vn 0.305663526058197 0.0006653362652286887 -0.9521393775939941
vn 0.9815075397491455 0.11706918478012085 -0.15145215392112732
vn -0.7740835547447205 0.6323578953742981 -0.030299661681056023
vt 3.4140539169311523 0.7201268076896667
vt 3.8795089721679688 0.7264620661735535
vt 3.7985119819641113 0.8659142255783081
vt 0.9913326501846313 0.3045944571495056
vt 1.065718650817871 0.0004995465278625488
vt 1.49362313747406 0.4193861484527588
vt 2.010183334350586 0.5986657738685608
vt 2.4287383556365967 0.6437937617301941
vt 1.9699558019638062 0.7256101369857788
vt 1.5436910390853882 0.6749693155288696
vt 1.9596084356307983 0.48874378204345703
vt 1.4951146841049194 0.4743669033050537
vt 1.0464977025985718 0.39248597621917725
vt 0.25227847695350647 0.3428732752799988
vt 0.23208196461200714 0.0004995465278625488
vt -0.821839451789856 0.9959014654159546
vt -0.6324625015258789 0.9800668954849243
vt 0.13964779675006866 0.9769459366798401
vt -1.0233327150344849 0.9898499846458435
vt 0.36715513467788696 0.8527954816818237
vt 1.116541862487793 0.8659139275550842
vt -0.5552634596824646 0.8716267347335815
vt -1.2301512956619263 0.8527956008911133
vt -1.5087029933929443 0.9898499846458435
vt -1.735503077507019 0.9898499846458435
vt -2.1891794204711914 1.0000977516174316
vt -2.20757794380188 0.8659142255783081
vt -1.5126447677612305 0.8527955412864685
vt -1.7273890972137451 0.8659142255783081
vt -1.6135398149490356 0.7027247548103333
vt -2.1265811920166016 0.7264620661735535
vt -2.121044158935547 0.6474606990814209
vt -0.5261280536651611 0.7255150079727173
vt 0.2708251178264618 0.5744900107383728
vt 0.29976174235343933 0.795876145362854
vt -0.9928492307662964 0.7257638573646545
vt -1.4218647480010986 0.7831981182098389
vt -2.126572370529175 0.42541825771331787
vt -1.6091781854629517 0.5875155329704285
vt -1.40674889087677 0.6235109567642212
vt -1.3598308563232422 0.40209388732910156
vt -0.9846414923667908 0.4916377663612366
vt -1.6127283573150635 0.4015994668006897
vt -1.6293613910675049 0.3186544179916382
vt -2.1015422344207764 0.3186543583869934
vt -2.100226402282715 0.0004995465278625488
vt -1.6279613971710205 0.0004995465278625488
vt -0.9983929395675659 0.4338266849517822
vt -0.4398971199989319 0.4978708028793335
vt -0.5422927141189575 0.4754892587661743
vt -0.9857122302055359 0.31716543436050415
vt -1.4196897745132446 0.313571572303772
vt -1.3742330074310303 0.0004995465278625488
vt -0.944957435131073 0.0004995465278625488
vt -0.4910508692264557 0.31716543436050415
vt -0.4888530671596527 0.0004995465278625488
vt 0.9771793484687805 0.5742418169975281
vt 0.24277471005916595 0.4332694411277771
vt 1.0862071514129639 0.743789553642273
vt 1.524434208869934 0.7294315099716187
vt 1.7623260021209717 0.9867851734161377
vt 1.1660411357879639 0.9898496270179749
vt 1.5368338823318481 0.9891937971115112
vt 2.0053534507751465 0.9800668954849243
vt 1.3363908529281616 0.8521443605422974
vt 2.54201602935791 0.9637525081634521
vt 3.049438953399658 0.8659142255783081
vt 2.938213348388672 0.9818847179412842
vt 2.458219051361084 0.8847454190254211
vt 2.968212366104126 0.7660293579101562
vt 2.455293893814087 0.7831981182098389
vt 1.870347261428833 0.8659139275550842
vt 3.3615670204162598 0.9898499846458435
vt 3.43294358253479 0.8659142255783081
vt 3.3969979286193848 0.3186544179916382
vt 3.904547691345215 0.3186543583869934
vt 3.8795177936553955 0.42541825771331787
vt 3.9058635234832764 0.0004995465278625488
vt 3.4028022289276123 0.0004995465278625488
vt 2.9334561824798584 0.0004994869232177734
vt 2.9616341590881348 0.34262192249298096
vt 3.8850457668304443 0.6474606990814209
vt 3.3563480377197266 0.5875155329704285
vt 3.356170892715454 0.4254004955291748
vt 2.947561025619507 0.4515684247016907
vt 2.4736239910125732 0.3362080454826355
vt 2.47658371925354 0.0004995465278625488
vt 2.013831853866577 0.0004995465278625488
vt 2.5126748085021973 0.46835410594940186
vt 2.9670562744140625 0.662151575088501
vt 1.9466009140014648 0.313571572303772
vt 1.4684501886367798 0.0004995465278625488
vt 3.816910743713379 1.0000977516174316
g Geoset0
s 1
usemtl 201787
f 1/1/1 2/2/2 3/3/3
f 4/4/4 5/5/5 6/6/6
f 7/7/7 8/8/8 9/9/9
f 10/10/10 7/7/7 9/9/9
f 10/10/10 11/11/11 7/7/7
f 12/12/12 11/11/11 10/10/10
f 6/6/6 11/11/11 12/12/12
f 13/13/13 6/6/6 12/12/12
f 4/4/4 6/6/6 13/13/13
f 14/14/14 4/4/4 13/13/13
f 14/14/14 5/5/5 4/4/4
f 15/15/15 5/5/5 14/14/14
f 16/16/16 17/17/17 18/18/18
f 16/16/16 19/19/19 17/17/17
f 20/20/20 21/21/21 18/18/18
f 22/22/22 20/20/20 18/18/18
f 22/22/22 18/18/18 17/17/17
f 23/23/23 22/22/22 17/17/17
f 23/23/23 17/17/17 19/19/19
f 24/24/24 23/23/23 19/19/19
f 16/16/16 24/24/24 19/19/19
f 16/16/16 25/25/25 24/24/24
f 16/16/16 26/26/26 25/25/25
f 27/27/27 25/25/25 26/26/26
f 28/28/28 23/23/23 24/24/24
f 25/25/25 28/28/28 24/24/24
f 29/29/29 28/28/28 25/25/25
f 27/27/27 29/29/29 25/25/25
f 27/27/27 30/30/30 29/29/29
f 31/31/31 30/30/30 27/27/27
f 32/32/32 30/30/30 31/31/31
f 33/33/33 34/34/34 35/35/35
f 33/33/33 35/35/35 22/22/22
f 36/36/36 33/33/33 22/22/22
f 36/36/36 22/22/22 23/23/23
f 37/37/37 36/36/36 23/23/23
f 28/28/28 37/37/37 23/23/23
f 30/30/30 37/37/37 28/28/28
f 30/30/30 28/28/28 29/29/29
f 38/38/38 39/39/39 32/32/32
f 32/32/32 39/39/39 30/30/30
f 39/39/39 37/37/37 30/30/30
f 40/40/40 41/41/41 42/42/42
f 43/43/43 41/41/41 40/40/40
f 44/44/44 41/41/41 43/43/43
f 42/42/42 33/33/33 36/36/36
f 37/37/37 42/42/42 36/36/36
f 40/40/40 42/42/42 37/37/37
f 39/39/39 40/40/40 37/37/37
f 43/43/43 40/40/40 39/39/39
f 38/38/38 43/43/43 39/39/39
f 38/38/38 44/44/44 43/43/43
f 45/45/45 44/44/44 38/38/38
f 46/46/46 44/44/44 45/45/45
f 46/46/46 47/47/47 44/44/44
f 41/41/41 48/48/48 42/42/42
f 49/49/49 34/34/34 33/33/33
f 42/42/42 49/49/49 33/33/33
f 42/42/42 50/50/50 49/49/49
f 48/48/48 50/50/50 42/42/42
f 51/51/51 50/50/50 48/48/48
f 41/41/41 51/51/51 48/48/48
f 52/52/52 51/51/51 41/41/41
f 44/44/44 52/52/52 41/41/41
f 44/44/44 53/53/53 52/52/52
f 47/47/47 53/53/53 44/44/44
f 53/53/53 51/51/51 52/52/52
f 53/53/53 54/54/54 51/51/51
f 55/55/55 56/56/56 14/14/14
f 56/56/56 15/15/15 14/14/14
f 54/54/54 56/56/56 51/51/51
f 51/51/51 56/56/56 55/55/55
f 57/57/57 13/13/13 10/10/10
f 13/13/13 12/12/12 10/10/10
f 51/51/51 55/55/55 50/50/50
f 55/55/55 14/14/14 50/50/50
f 50/50/50 14/14/14 58/58/58
f 58/58/58 14/14/14 13/13/13
f 58/58/58 13/13/13 34/34/34
f 34/34/34 13/13/13 57/57/57
f 34/34/34 57/57/57 59/59/59
f 57/57/57 10/10/10 59/59/59
f 59/59/59 10/10/10 60/60/60
f 10/10/10 9/9/9 60/60/60
f 49/49/49 50/50/50 34/34/34
f 50/50/50 58/58/58 34/34/34
f 22/22/22 35/35/35 20/20/20
f 35/35/35 34/34/34 59/59/59
f 35/35/35 59/59/59 21/21/21
f 35/35/35 21/21/21 20/20/20
f 61/61/61 18/18/18 62/62/62
f 61/61/61 63/63/63 64/64/64
f 61/61/61 62/62/62 63/63/63
f 21/21/21 63/63/63 62/62/62
f 18/18/18 21/21/21 62/62/62
f 65/65/65 64/64/64 63/63/63
f 21/21/21 65/65/65 63/63/63
f 21/21/21 60/60/60 65/65/65
f 59/59/59 60/60/60 21/21/21
f 66/66/66 67/67/67 68/68/68
f 69/69/69 67/67/67 66/66/66
f 69/69/69 70/70/70 67/67/67
f 71/71/71 70/70/70 69/69/69
f 8/8/8 70/70/70 71/71/71
f 9/9/9 8/8/8 71/71/71
f 9/9/9 71/71/71 69/69/69
f 9/9/9 69/69/69 72/72/72
f 72/72/72 69/69/69 66/66/66
f 60/60/60 9/9/9 65/65/65
f 65/65/65 9/9/9 72/72/72
f 65/65/65 72/72/72 64/64/64
f 72/72/72 66/66/66 64/64/64
f 61/61/61 64/64/64 66/66/66
f 61/61/61 66/66/66 68/68/68
f 61/61/61 68/68/68 73/73/73
f 67/67/67 73/73/73 68/68/68
f 67/67/67 74/74/74 73/73/73
f 70/70/70 74/74/74 67/67/67
f 75/75/75 76/76/76 77/77/77
f 75/75/75 78/78/78 76/76/76
f 79/79/79 78/78/78 75/75/75
f 80/80/80 79/79/79 75/75/75
f 80/80/80 75/75/75 81/81/81
f 1/1/1 82/82/82 2/2/2
f 83/83/83 82/82/82 1/1/1
f 83/83/83 77/77/77 82/82/82
f 84/84/84 77/77/77 83/83/83
f 75/75/75 77/77/77 84/84/84
f 85/85/85 75/75/75 84/84/84
f 81/81/81 75/75/75 85/85/85
f 86/86/86 81/81/81 85/85/85
f 86/86/86 80/80/80 81/81/81
f 87/87/87 80/80/80 86/86/86
f 85/85/85 84/84/84 83/83/83
f 88/88/88 87/87/87 86/86/86
f 86/86/86 85/85/85 89/89/89
f 85/85/85 83/83/83 90/90/90
f 8/8/8 85/85/85 90/90/90
f 89/89/89 85/85/85 8/8/8
f 11/11/11 89/89/89 8/8/8
f 11/11/11 86/86/86 89/89/89
f 91/91/91 86/86/86 11/11/11
f 88/88/88 86/86/86 91/91/91
f 6/6/6 88/88/88 91/91/91
f 92/92/92 88/88/88 6/6/6
f 5/5/5 92/92/92 6/6/6
f 6/6/6 91/91/91 11/11/11
f 11/11/11 8/8/8 7/7/7
f 8/8/8 90/90/90 70/70/70
f 61/61/61 73/73/73 93/93/93
f 73/73/73 3/3/3 93/93/93
f 74/74/74 3/3/3 73/73/73
f 1/1/1 3/3/3 74/74/74
f 70/70/70 1/1/1 74/74/74
f 70/70/70 83/83/83 1/1/1
f 90/90/90 83/83/83 70/70/70