# Exported using wow.export v0.1.9
o EnergyTrail02B
mtllib energytrail02b.mtl
v 33.60442352294922 -59.15262222290039 -13.164026260375977
v 29.67806625366211 -50.62284851074219 -42.59514236450195
v 23.350528717041016 -18.202905654907227 27.72280502319336
v -21.1564998626709 -78.59650421142578 9.770001411437988
v 6.381242752075195 -64.98297882080078 3.8966705799102783
v -12.477482795715332 -44.1148681640625 11.664438247680664
v 11.10723876953125 -37.041908264160156 23.785280227661133
v 44.86647415161133 -17.02889060974121 55.21193313598633
v 23.350528717041016 -18.202905654907227 27.72280502319336
v 53.243316650390625 -36.32264709472656 -19.749191284179688
v 39.75409698486328 -43.18768310546875 -32.02748489379883
v 29.67806625366211 -50.62284851074219 -42.59514236450195
v 58.13350296020508 -14.336081504821777 18.7890625
v 64.28008270263672 -1.1323816776275635 30.52865982055664
v 63.46609878540039 -6.201261520385742 78.89227294921875
v 63.4660530090332 11.745901107788086 78.8923110961914
v 53.243316650390625 -36.32264709472656 -19.749191284179688
v 44.86647415161133 -17.02889060974121 55.21193313598633
v 114.56211853027344 84.7566146850586 -12.074782371520996
v 112.43944549560547 65.28794860839844 114.03347778320312
v 70.53409576416016 45.56449508666992 90.37411499023438
v 71.74705505371094 56.6894416809082 18.3122501373291
v 63.4660530090332 11.745901107788086 78.8923110961914
v 64.28013610839844 19.212310791015625 30.52862548828125
v 64.28008270263672 -1.1323816776275635 30.52865982055664
v -124.306640625 -55.0075569152832 -42.97478485107422
v -135.40243530273438 -55.0075569152832 -53.027748107910156
v -125.99581146240234 -84.7566146850586 -34.202964782714844
v -147.2932891845703 -84.75659942626953 -53.97675704956055
v -141.3419189453125 -55.0075569152832 -79.79216003417969
v -144.6507110595703 -84.75659942626953 -74.0829849243164
v -128.70333862304688 -55.007564544677734 -99.00785064697266
v -135.2852325439453 -84.75660705566406 -99.47904968261719
v -70.5298080444336 -45.295528411865234 6.667478561401367
v -89.21044158935547 -45.68112564086914 -4.228266716003418
v -69.81070709228516 -64.56180572509766 1.9019088745117188
v -93.3160629272461 -56.60202407836914 -0.31056687235832214
v -108.33219146728516 -45.81944274902344 -12.037823677062988
v -112.76383209228516 -56.7403450012207 -6.129385471343994
v -128.8384552001953 -48.828025817871094 -15.775639533996582
v -132.0264434814453 -70.40208435058594 -15.338850021362305
v -124.306640625 -55.0075569152832 -42.97478485107422
v -125.99581146240234 -84.7566146850586 -34.202964782714844
v -27.48876953125 -71.00343322753906 27.468910217285156
v -21.1564998626709 -78.59650421142578 9.770001411437988
v -12.477482795715332 -44.1148681640625 11.664438247680664
v -27.323898315429688 -45.094818115234375 27.007904052734375
v -33.988460540771484 -44.297725677490234 19.910053253173828
v -36.54387283325195 -55.382259368896484 26.116230010986328
v -44.71180725097656 -45.06101989746094 8.728540420532227
v -50.400856018066406 -54.03325271606445 18.178918838500977
v -57.98529815673828 -44.39839553833008 7.387510776519775
v -63.27141189575195 -55.482933044433594 12.083871841430664
v -70.5298080444336 -45.295528411865234 6.667478561401367
v -69.81070709228516 -64.56180572509766 1.9019088745117188
v 6.381242752075195 -64.98297882080078 3.8966705799102783
v 11.10723876953125 -37.041908264160156 23.785280227661133
v 23.350528717041016 -18.202905654907227 27.72280502319336
vn 0.9676512479782104 -0.01899946667253971 0.2515752911567688
vn 0.8467941284179688 -0.4499736428260803 0.28366076946258545
vn 0.17341077327728271 -0.8946652412414551 0.41170719265937805
vn 0.6765580177307129 -0.2090812623500824 0.7060837745666504
vn 0.2763687074184418 -0.43530184030532837 0.8568153977394104
vn 0.3287058174610138 -0.30016767978668213 0.8954617977142334
vn 0.3619738519191742 -0.5614241361618042 0.7441625595092773
vn 0.10241975635290146 -0.9605209231376648 0.2586691975593567
vn 0.17341077327728271 -0.8946652412414551 0.41170719265937805
vn 0.13496865332126617 -0.9255214929580688 0.3538267910480499
vn 0.16997982561588287 -0.8916850686073303 0.4195290505886078
vn 0.8467941284179688 -0.4499736428260803 0.28366076946258545
vn 0.9857171177864075 -0.15471746027469635 -0.06651489436626434
vn 0.9729564189910889 -0.23085638880729675 -0.007817976176738739
vn 0.951392650604248 -0.29967617988586426 0.07103635370731354
vn 0.9948983192443848 -0.10087616741657257 0.0011739793699234724
vn 0.13496865332126617 -0.9255214929580688 0.3538267910480499
vn 0.10241975635290146 -0.9605209231376648 0.2586691975593567
vn 0.4797971546649933 -0.8682891130447388 -0.12597092986106873
vn 0.4797971248626709 -0.8682891726493835 -0.1259709745645523
vn 0.756802499294281 -0.6477919220924377 -0.08726714551448822
vn 0.705359160900116 -0.7022453546524048 -0.0965396836400032
vn 0.9948983192443848 -0.10087616741657257 0.0011739793699234724
vn 0.9929680228233337 -0.11837275326251984 -0.0015586913796141744
vn 0.9729564189910889 -0.23085638880729675 -0.007817976176738739
vn -0.9311713576316833 0.18277117609977722 0.31545937061309814
vn -0.8019636869430542 0.3078438639640808 0.5119437575340271
vn -0.9453209042549133 0.13813066482543945 0.2954459488391876
vn -0.8994083404541016 0.24680717289447784 0.3607642352581024
vn -0.9505557417869568 0.11775728315114975 -0.28736209869384766
vn -0.9593517780303955 0.1010473221540451 -0.2635026276111603
vn -0.8851881623268127 0.09251430630683899 -0.45594194531440735
vn -0.9176368713378906 0.20838476717472076 -0.3384056091308594
vn -0.4658191204071045 -0.01673746109008789 0.8847216367721558
vn -0.27006444334983826 0.2521393895149231 0.9292421340942383
vn -0.5051335692405701 -0.09802871942520142 0.8574557900428772
vn -0.158612921833992 0.4110759198665619 0.8976962566375732
vn -0.25803473591804504 0.5145418047904968 0.8177192807197571
vn -0.3095261752605438 0.4267064929008484 0.8497735857963562
vn -0.8112844228744507 0.25013044476509094 0.5284432768821716
vn -0.9921329021453857 0.07494408637285233 0.10027804970741272
vn -0.9311713576316833 0.18277117609977722 0.31545937061309814
vn -0.9453209042549133 0.13813066482543945 0.2954459488391876
vn 0.7075997591018677 -0.08859753608703613 0.7010371088981628
vn 0.6765580177307129 -0.2090812623500824 0.7060837745666504
vn 0.3287058174610138 -0.30016767978668213 0.8954617977142334
vn -0.015583907254040241 0.017887596040964127 0.9997185468673706
vn -0.5793431401252747 0.3436777591705322 0.73908531665802
vn 0.12498616427183151 0.5266834497451782 0.8408228158950806
vn -0.2518765330314636 0.7146357297897339 0.652574896812439
vn -0.24233661592006683 0.7090053558349609 0.6622570157051086
vn -0.1775045394897461 0.5665305852890015 0.804695725440979
vn -0.5103910565376282 0.23042921721935272 0.828494668006897
vn -0.4658191204071045 -0.01673746109008789 0.8847216367721558
vn -0.5051335692405701 -0.09802871942520142 0.8574557900428772
vn 0.2763687074184418 -0.43530184030532837 0.8568153977394104
vn 0.3619738519191742 -0.5614241361618042 0.7441625595092773
vn 0.17341077327728271 -0.8946652412414551 0.41170719265937805
vt 1.0735363960266113 0.7232022285461426
vt 1.40945303440094 0.9980000257492065
vt 1.40945303440094 0.9980000257492065
vt 0 0.001999974250793457
vt 0.6361145377159119 0.001999974250793457
vt 0 0.001999974250793457
vt 0.6361145377159119 0.001999974250793457
vt 8.052175521850586 -1.9678401947021484
vt 8.494194984436035 -1.4822278022766113
vt 8.052175521850586 -1.9678401947021484
vt 8.494194984436035 -1.4822278022766113
vt 8.87463092803955 -1.119490623474121
vt 6.664798736572266 -2.143886089324951
vt 6.242172718048096 -2.3651630878448486
vt 6.664798736572266 -2.143886089324951
vt 6.242172718048096 -2.3651630878448486
vt 7.795295715332031 -1.4624032974243164
vt 7.795295715332031 -1.4624032974243164
vt 6.161605358123779 1
vt 6.1616034507751465 0.6000000238418579
vt 6.1616034507751465 0.6000000238418579
vt 6.161605358123779 1
vt 6.1616034507751465 0.6000000238418579
vt 6.161605358123779 1
vt 6.1616034507751465 0.6000000238418579
vt 2.002565622329712 0
vt 1.2561469078063965 0
vt 2.002565622329712 0
vt 1.2561469078063965 0
vt 0.6858355402946472 0
vt 0.6858355402946472 0
vt 0 0
vt 0 0
vt 4.999673366546631 0.7121909856796265
vt 4.686514377593994 0.6826225519180298
vt 4.999673366546631 0.7121909856796265
vt 4.686514377593994 0.6826225519180298
vt 4.409846305847168 0.7074155807495117
vt 4.409846305847168 0.7074155807495117
vt 4.10716438293457 0.6428197622299194
vt 4.10716438293457 0.6428197622299194
vt 4.18342924118042 0.41111648082733154
vt 4.18342924118042 0.41111648082733154
vt 1.6486272811889648 0.7700126767158508
vt 2.0579888820648193 0.605110228061676
vt 2.0579888820648193 0.605110228061676
vt 1.6486272811889648 0.7700126767158508
vt 1.515751838684082 0.6609397530555725
vt 1.515751838684082 0.6609397530555725
vt 0.7139384746551514 0.6733599305152893
vt 0.7139384746551514 0.6733599305152893
vt 0.289246529340744 0.6489980816841125
vt 0.289246529340744 0.6489980816841125
vt 0 0.6397719979286194
vt 0 0.6397719979286194
vt 0.5669676661491394 0.7603932023048401
vt 0.5669676661491394 0.7603932023048401
vt 1.0735363960266113 0.7232022285461426
g Geoset0
s 1
usemtl 128963
f 1/1/1 2/2/2 3/3/3
f 4/4/4 5/5/5 6/6/6
f 7/7/7 6/6/6 5/5/5
f 8/8/8 9/9/9 10/10/10
f 11/11/11 10/10/10 9/9/9
f 12/12/12 11/11/11 9/9/9
f 13/13/13 14/14/14 15/15/15
f 16/16/16 15/15/15 14/14/14
f 17/17/17 13/13/13 15/15/15
f 15/15/15 18/18/18 17/17/17
f 19/19/19 20/20/20 21/21/21
f 21/21/21 22/22/22 19/19/19
f 22/22/22 21/21/21 23/23/23
f 23/23/23 24/24/24 22/22/22
f 25/25/25 24/24/24 23/23/23
f 26/26/26 27/27/27 28/28/28
f 29/29/29 28/28/28 27/27/27
f 27/27/27 30/30/30 29/29/29
f 31/31/31 29/29/29 30/30/30
f 30/30/30 32/32/32 31/31/31
f 33/33/33 31/31/31 32/32/32
f 34/34/34 35/35/35 36/36/36
f 37/37/37 36/36/36 35/35/35
f 35/35/35 38/38/38 37/37/37
f 39/39/39 37/37/37 38/38/38
f 38/38/38 40/40/40 39/39/39
f 41/41/41 39/39/39 40/40/40
f 40/40/40 42/42/42 41/41/41
f 43/43/43 41/41/41 42/42/42
f 44/44/44 45/45/45 46/46/46
f 46/46/46 47/47/47 44/44/44
f 47/47/47 48/48/48 44/44/44
f 49/49/49 44/44/44 48/48/48
f 48/48/48 50/50/50 49/49/49
f 51/51/51 49/49/49 50/50/50
f 50/50/50 52/52/52 51/51/51
f 53/53/53 51/51/51 52/52/52
f 52/52/52 54/54/54 53/53/53
f 55/55/55 53/53/53 54/54/54
f 56/56/56 1/1/1 57/57/57
f 58/58/58 57/57/57 1/1/1