# Exported using wow.export v0.1.9
o HumanSpear02
mtllib humanspear02.mtl
v 0.4632279872894287 0.024365799501538277 -0.011144700460135937
v 0.4632279872894287 0.024365799501538277 0.011144700460135937
v 0.8431829810142517 0.03278860077261925 0.03900830075144768
v 1.005210041999817 -0.1361290067434311 0
v 0.8431829810142517 0.03278860077261925 -0.03900830075144768
v 1.2564400434494019 -0.0377672016620636 0
v 1.4131699800491333 0.11562599986791611 0
v 0.6974689960479736 -0.151638001203537 0
v 0.6583139896392822 -0.0871874988079071 0
v 0.4632279872894287 0.024365799501538277 -0.011144700460135937
v 0.5505080223083496 -0.05906419828534126 0
v 0.46317198872566223 -0.08383329957723618 0
v 1.005210041999817 -0.1361290067434311 0
v 0.8431829810142517 0.03278860077261925 0.03900830075144768
v 0.6974689960479736 -0.151638001203537 0
v 0.6583139896392822 -0.0871874988079071 0
v 0.4632279872894287 0.024365799501538277 0.011144700460135937
v 0.5505080223083496 -0.05906419828534126 0
v 0.46317198872566223 -0.08383329957723618 0
v 1.2564400434494019 -0.0377672016620636 0
v 1.4131699800491333 0.11562599986791611 0
v -1.2263400554656982 -0.04402809962630272 0
v -1.2263400554656982 -0.015942199155688286 -0.02485330030322075
v -0.7959750294685364 -0.015942199155688286 -0.02485330030322075
v -0.7957329750061035 -0.04402809962630272 0
v -0.7957860231399536 0.012143099680542946 0
v -1.2263400554656982 0.012143099680542946 0
v -0.7956809997558594 -0.015942199155688286 0.02485330030322075
v -1.2263400554656982 -0.015942199155688286 0.02485330030322075
v -0.7957860231399536 0.012143099680542946 0
v -0.7956809997558594 -0.015942199155688286 0.02485330030322075
v 0.3893580138683319 -0.015942199155688286 0.02485330030322075
v 0.3893580138683319 0.012143099680542946 0
v -0.7959750294685364 -0.015942199155688286 -0.02485330030322075
v 0.3893580138683319 -0.015942199155688286 -0.02485330030322075
v -0.7957329750061035 -0.04402809962630272 0
v 0.3893580138683319 -0.04402809962630272 0
v -1.2721199989318848 -0.016992200165987015 0.050053298473358154
v -1.271939992904663 0.053254399448633194 0
v -1.3368899822235107 -0.007898610085248947 0
v -1.2721099853515625 -0.015147199854254723 -0.05100030079483986
v -1.2263400554656982 -0.015942199155688286 -0.02485330030322075
v -1.2723000049591064 -0.08393029868602753 0
v -1.2263400554656982 -0.04402809962630272 0
v -1.2263400554656982 -0.015942199155688286 0.02485330030322075
v -1.2263400554656982 0.012143099680542946 0
v 0.46317198872566223 -0.08383329957723618 0
v 0.43132200837135315 -0.01994059979915619 -0.09242890030145645
v 0.4632279872894287 0.024365799501538277 -0.011144700460135937
v 0.4302830100059509 0.11513900011777878 0
v 0.3893580138683319 0.012143099680542946 0
v 0.3893580138683319 -0.015942199155688286 0.02485330030322075
v 0.3893580138683319 -0.015942199155688286 -0.02485330030322075
v 0.4302830100059509 -0.15675599873065948 0
v 0.43132200837135315 -0.01994059979915619 0.09242919832468033
v 0.4632279872894287 0.024365799501538277 0.011144700460135937
v 0.3893580138683319 -0.04402809962630272 0
v 0.8431829810142517 0.03278860077261925 -0.03900830075144768
v 1.4131699800491333 0.11562599986791611 0
vn 0.685716986656189 0.693244993686676 -0.22181600332260132
vn 0.8183469772338867 0.511273980140686 0.2625029981136322
vn -0.062820203602314 0.9980250000953674 1.8207199303788002e-8
vn 0.037789199501276016 -0.19029900431632996 -0.9809989929199219
vn -0.012138199992477894 -0.1541289985179901 -0.9879760146141052
vn 0.07233259826898575 -0.12351399660110474 -0.9897029995918274
vn 0.07984720170497894 -0.08157840371131897 -0.9934629797935486
vn -0.06944590061903 -0.15361900627613068 -0.9856870174407959
vn -0.0878157988190651 -0.16207799315452576 -0.9828630089759827
vn -0.028310200199484825 -0.16599200665950775 -0.9857209920883179
vn -0.00903377030044794 -0.14168299734592438 -0.9898710250854492
vn 0.02904980070888996 -0.10243500024080276 -0.9943150281906128
vn 0.03778909891843796 -0.19029900431632996 0.9809989929199219
vn -0.012138299643993378 -0.1541289985179901 0.9879760146141052
vn -0.06944599747657776 -0.15361900627613068 0.9856870174407959
vn -0.0878157988190651 -0.16207799315452576 0.9828630089759827
vn -0.028310000896453857 -0.16599200665950775 0.9857209920883179
vn -0.009033559821546078 -0.14168399572372437 0.9898710250854492
vn 0.029050199314951897 -0.10243500024080276 0.9943150281906128
vn 0.07233250141143799 -0.12351399660110474 0.9897029995918274
vn 0.07984709739685059 -0.08157840371131897 0.9934629797935486
vn 0.29550901055336 -0.9292259812355042 -0.2218399941921234
vn 0.3437879979610443 0.12176000326871872 -0.931119978427887
vn 3.528819902953728e-8 -2.129670051420618e-10 -1
vn 1.82104002988126e-8 -1 -3.745450101177994e-7
vn -3.0536700279526485e-8 1 -3.000189963131561e-7
vn 0.3040750026702881 0.9264320135116577 0.22195300459861755
vn -5.0686900010532554e-8 -1.3243899843473628e-7 1
vn 0.33917099237442017 -0.12691999971866608 0.9321240186691284
vn -3.0536700279526485e-8 1 -3.000189963131561e-7
vn -5.0686900010532554e-8 -1.3243899843473628e-7 1
vn -0.6358680129051208 0.1345909982919693 0.7599719762802124
vn -0.5261020064353943 0.8188160061836243 -0.22969099879264832
vn 3.528819902953728e-8 -2.129670051420618e-10 -1
vn -0.6372020244598389 -0.11827600002288818 -0.7615669965744019
vn 1.82104002988126e-8 -1 -3.745450101177994e-7
vn -0.5406010150909424 -0.8089979887008667 0.23080599308013916
vn -0.08496309816837311 0.0022811100352555513 0.9963809847831726
vn 0.2615799903869629 0.9651200175285339 0.010967900045216084
vn -0.999638020992279 0.026203399524092674 0.006091049872338772
vn -0.08173350244760513 0.010911299847066402 -0.9965940117835999
vn 0.3437879979610443 0.12176000326871872 -0.931119978427887
vn 0.20448699593544006 -0.9788669943809509 -0.0021426999010145664
vn 0.29550901055336 -0.9292259812355042 -0.2218399941921234
vn 0.33917099237442017 -0.12691999971866608 0.9321240186691284
vn 0.3040750026702881 0.9264320135116577 0.22195300459861755
vn 0.9753270149230957 -0.22076499462127686 -7.651210154335786e-8
vn 0.3598569929599762 -0.00756426015868783 -0.932977020740509
vn 0.685716986656189 0.693244993686676 -0.22181600332260132
vn -0.3043540120124817 0.9525589942932129 -7.550229952357768e-7
vn -0.5261020064353943 0.8188160061836243 -0.22969099879264832
vn -0.6358680129051208 0.1345909982919693 0.7599719762802124
vn -0.6372020244598389 -0.11827600002288818 -0.7615669965744019
vn -0.6745669841766357 -0.7382140159606934 -8.745699915380101e-7
vn 0.3598569929599762 -0.007564330007880926 0.932977020740509
vn 0.8183469772338867 0.511273980140686 0.2625029981136322
vn -0.5406010150909424 -0.8089979887008667 0.23080599308013916
vn -0.08314769715070724 0.9965370297431946 -8.70424017307414e-8
vn -0.14382299780845642 0.9896039962768555 -1.50402996723642e-7
vt 0.06076490134000778 0.14986002445220947
vt 0 0.16607099771499634
vt 0.2079399973154068 0.16607099771499634
vt 0.2335360050201416 0.08772099018096924
vt 0.2079399973154068 0.16607099771499634
vt 0.31672200560569763 0.08772099018096924
vt 0.39990800619125366 0.14715898036956787
vt 0.10235799849033356 0.08772099018096924
vt 0.07996170222759247 0.10123002529144287
vt 0 0.16607099771499634
vt 0.038368698209524155 0.12014198303222656
vt 0 0.09042298793792725
vt 0.2335360050201416 0.08772099018096924
vt 0.2079399973154068 0.16607099771499634
vt 0.10235799849033356 0.08772099018096924
vt 0.07996170222759247 0.10123002529144287
vt 0 0.16607099771499634
vt 0.038368698209524155 0.12014198303222656
vt 0 0.09042298793792725
vt 0.31672200560569763 0.08772099018096924
vt 0.39990800619125366 0.14715898036956787
vt 0 0.041792988777160645
vt 0 0.0796160101890564
vt 0.40310800075531006 0.0796160101890564
vt 0.40310800075531006 0.041792988777160645
vt 0.40310800075531006 0.041792988777160645
vt 0 0.041792988777160645
vt 0.40310800075531006 0.0796160101890564
vt 0 0.0796160101890564
vt 0 0.0012670159339904785
vt 0 0.03638899326324463
vt 0.39990800619125366 0.03638899326324463
vt 0.39990800619125366 0.0012670159339904785
vt 0 0.03638899326324463
vt 0.39990800619125366 0.03638899326324463
vt 0 0.0012670159339904785
vt 0.39990800619125366 0.0012670159339904785
vt 0.0479670986533165 0.0796160101890564
vt 0.0479670986533165 0.04449397325515747
vt 0 0.0796160101890564
vt 0.0479670986533165 0.0796160101890564
vt 0.14715099334716797 0.0796160101890564
vt 0.0479670986533165 0.04449397325515747
vt 0.14715099334716797 0.04449397325515747
vt 0.14715099334716797 0.0796160101890564
vt 0.14715099334716797 0.04449397325515747
vt 0.012772999703884125 0.06610798835754395
vt 0.09595909714698792 0.0796160101890564
vt 0.012772999703884125 0.06610798835754395
vt 0.09595909714698792 0.041792988777160645
vt 0 0.04989802837371826
vt 0 0.0796160101890564
vt 0 0.0796160101890564
vt 0.09595909714698792 0.041792988777160645
vt 0.09595909714698792 0.0796160101890564
vt 0.012772999703884125 0.06610798835754395
vt 0 0.055301010608673096
vt 0.2239380031824112 0.14986002445220947
vt 0.34871700406074524 0.16607099771499634
g Geoset0
s 1
usemtl 198659
f 1/1/1 2/2/2 3/3/3
f 4/4/4 5/5/5 6/6/6
f 6/6/6 5/5/5 7/7/7
f 4/4/4 8/8/8 5/5/5
f 8/8/8 9/9/9 5/5/5
f 9/9/9 10/10/10 5/5/5
f 11/11/11 10/10/10 9/9/9
f 12/12/12 10/10/10 11/11/11
f 13/13/13 14/14/14 15/15/15
f 15/15/15 14/14/14 16/16/16
f 14/14/14 17/17/17 16/16/16
f 17/17/17 18/18/18 16/16/16
f 17/17/17 19/19/19 18/18/18
f 13/13/13 20/20/20 14/14/14
f 20/20/20 21/21/21 14/14/14
f 22/22/22 23/23/23 24/24/24
f 24/24/24 25/25/25 22/22/22
f 26/26/26 24/24/24 23/23/23
f 23/23/23 27/27/27 26/26/26
f 28/28/28 26/26/26 27/27/27
f 27/27/27 29/29/29 28/28/28
f 25/25/25 28/28/28 29/29/29
f 29/29/29 22/22/22 25/25/25
f 30/30/30 31/31/31 32/32/32
f 32/32/32 33/33/33 30/30/30
f 34/34/34 30/30/30 33/33/33
f 33/33/33 35/35/35 34/34/34
f 36/36/36 34/34/34 35/35/35
f 35/35/35 37/37/37 36/36/36
f 31/31/31 36/36/36 37/37/37
f 37/37/37 32/32/32 31/31/31
f 38/38/38 39/39/39 40/40/40
f 41/41/41 40/40/40 39/39/39
f 42/42/42 41/41/41 39/39/39
f 42/42/42 43/43/43 41/41/41
f 42/42/42 44/44/44 43/43/43
f 45/45/45 43/43/43 44/44/44
f 42/42/42 39/39/39 46/46/46
f 46/46/46 39/39/39 45/45/45
f 38/38/38 45/45/45 39/39/39
f 43/43/43 45/45/45 38/38/38
f 43/43/43 38/38/38 40/40/40
f 43/43/43 40/40/40 41/41/41
f 47/47/47 48/48/48 49/49/49
f 50/50/50 49/49/49 48/48/48
f 50/50/50 51/51/51 52/52/52
f 50/50/50 53/53/53 51/51/51
f 53/53/53 50/50/50 48/48/48
f 54/54/54 53/53/53 48/48/48
f 48/48/48 47/47/47 54/54/54
f 55/55/55 54/54/54 47/47/47
f 47/47/47 56/56/56 55/55/55
f 53/53/53 54/54/54 57/57/57
f 57/57/57 54/54/54 52/52/52
f 55/55/55 52/52/52 54/54/54
f 52/52/52 55/55/55 50/50/50
f 56/56/56 50/50/50 55/55/55
f 49/49/49 50/50/50 56/56/56
f 58/58/58 3/3/3 59/59/59
f 58/58/58 1/1/1 3/3/3