# Exported using wow.export v0.1.9
o HumanAxe01
mtllib humanaxe01.mtl
v -0.03455580025911331 0.37946900725364685 0.004140560049563646
v -0.08377890288829803 0.37946900725364685 -0.044820599257946014
v -0.13300199806690216 0.37946900725364685 0.004140560049563646
v -0.1163799986243248 -0.06585189700126648 0.00410888995975256
v -0.08378030359745026 -0.06585189700126648 -0.02831690013408661
v -0.08378030359745026 -0.4815030097961426 -0.02831690013408661
v -0.1163799986243248 -0.48144400119781494 0.004109169822186232
v -0.051180798560380936 -0.4813610017299652 0.004109169822186232
v -0.051180798560380936 -0.06585220247507095 0.00410888995975256
v -0.08378030359745026 -0.4814780056476593 0.03630189970135689
v -0.08378030359745026 -0.06585220247507095 0.03630189970135689
v -0.08378030359745026 -0.8809720277786255 0.03630189970135689
v -0.051180798560380936 -0.8809720277786255 0.004109169822186232
v -0.051180798560380936 -0.4813610017299652 0.004109169822186232
v -0.08378030359745026 -0.4814780056476593 0.03630189970135689
v -0.1163799986243248 -0.8809720277786255 0.004109169822186232
v -0.1163799986243248 -0.48144400119781494 0.004109169822186232
v -0.08378030359745026 -0.8809720277786255 -0.02831690013408661
v -0.08378030359745026 -0.4815030097961426 -0.02831690013408661
v -0.08378030359745026 -0.8809720277786255 -0.02831690013408661
v -0.051180798560380936 -0.8809720277786255 0.004109169822186232
v -0.011783599853515625 -0.9940919876098633 0.0041363900527358055
v -0.08378030359745026 -0.8809720277786255 0.03630189970135689
v -0.08397950232028961 -0.9940919876098633 0.08049249649047852
v -0.1163799986243248 -0.8809720277786255 0.004109169822186232
v -0.15329700708389282 -0.9940919876098633 0.0041363900527358055
v -0.08397950232028961 -0.9940919876098633 -0.07256419956684113
v -0.08407609909772873 -1.086169958114624 0.0041363900527358055
v -0.0840860977768898 -0.019674699753522873 -0.05087890103459358
v -0.1460929960012436 -0.019674699753522873 0.0039922199212014675
v -0.1460929960012436 0.3406359851360321 0.0039922199212014675
v -0.0840860977768898 0.3406359851360321 -0.05087890103459358
v -0.0840860977768898 0.3406359851360321 0.05886419862508774
v -0.02107810042798519 0.3500779867172241 0.037108298391103745
v 0.03148080036044121 0.475616991519928 0.02157830074429512
v -0.020639199763536453 0.3482140004634857 -0.02740750089287758
v -0.0840860977768898 0.3406359851360321 0.05886419862508774
v -0.02032170072197914 -0.029547499492764473 -0.026431100443005562
v 0.14246299862861633 -0.08329139649868011 -0.01887970045208931
v 0.32364198565483093 0.10502400249242783 0.0039922199212014675
v 0.2773979902267456 -0.1305530071258545 0.0039922199212014675
v 0.27825599908828735 0.4117330014705658 0.0039922199212014675
v 0.032135799527168274 0.4773919880390167 -0.012524199672043324
v 0.024993300437927246 0.7812560200691223 0.0039922199212014675
v 0.14242500066757202 -0.08197219669818878 0.028816699981689453
v -0.020664699375629425 -0.028022199869155884 0.037366099655628204
v 0.14246299862861633 -0.08329139649868011 -0.01887970045208931
v -0.02032170072197914 -0.029547499492764473 -0.026431100443005562
v -0.0840860977768898 -0.019674699753522873 0.05886419862508774
v -0.0840860977768898 -0.019674699753522873 -0.05087890103459358
v 0.03148080036044121 0.475616991519928 0.02157830074429512
v -0.02107810042798519 0.3500779867172241 0.037108298391103745
v -0.08378030359745026 -0.06585220247507095 0.03630189970135689
v -0.051180798560380936 -0.06585220247507095 0.00410888995975256
v -0.03455670177936554 -0.0422435998916626 0.004139719996601343
v -0.08377940207719803 -0.04224329814314842 -0.044821400195360184
v -0.08378030359745026 -0.06585189700126648 -0.02831690013408661
v -0.13300299644470215 -0.0422435998916626 0.004139719996601343
v -0.1163799986243248 -0.06585189700126648 0.00410888995975256
v -0.08377940207719803 -0.0422435998916626 0.05274920165538788
v -0.03455580025911331 0.37946900725364685 0.004140560049563646
v -0.13300199806690216 0.37946900725364685 0.004140560049563646
v -0.08377890288829803 0.37946900725364685 0.05274999886751175
vn 0.7049149870872498 0.6679909825325012 0.23849999904632568
vn 0.2873989939689636 0.40752801299095154 -0.8667889833450317
vn -0.7057679891586304 0.6679970026016235 -0.23594799637794495
vn -0.9487360119819641 -0.3156740069389343 -0.015794500708580017
vn 0.017265599220991135 -0.31364598870277405 -0.949383020401001
vn -5.729049803449016e-7 9.993289751264456e-8 -1
vn -0.9999979734420776 -1.4085600241742213e-8 0.0018079000292345881
vn 0.9999979734420776 -2.4473298942950805e-9 0.0018078499706462026
vn 0.9486669898033142 -0.3156929910182953 0.01921899989247322
vn -6.438600053115806e-7 -1.077440003882657e-7 1
vn -0.017158500850200653 -0.3126640021800995 0.9497089982032776
vn 0.31534698605537415 0.1710059940814972 0.9334419965744019
vn 0.9714599847793579 0.1329219937324524 -0.19646400213241577
vn 0.9999979734420776 -2.4473298942950805e-9 0.0018078499706462026
vn -6.438600053115806e-7 -1.077440003882657e-7 1
vn -0.9696620106697083 0.19905999302864075 0.14188000559806824
vn -0.9999979734420776 -1.4085600241742213e-8 0.0018079000292345881
vn 0.0009130819817073643 0.18071700632572174 -0.9835349917411804
vn -5.729049803449016e-7 9.993289751264456e-8 -1
vn 0.0009130819817073643 0.18071700632572174 -0.9835349917411804
vn 0.9714599847793579 0.1329219937324524 -0.19646400213241577
vn 0.9999989867210388 0.0000551092998648528 0.001442980021238327
vn 0.31534698605537415 0.1710059940814972 0.9334419965744019
vn -0.21705999970436096 -0.0672055035829544 0.9738420248031616
vn -0.9696620106697083 0.19905999302864075 0.14188000559806824
vn -0.9834949970245361 -0.1809300035238266 0.0012131000403314829
vn -0.2183530032634735 -0.06805170327425003 -0.9734939932823181
vn -0.016074800863862038 -0.9998689889907837 0.0017629900248721242
vn -0.5782589912414551 -0.41493698954582214 -0.7024549841880798
vn -0.8467010259628296 -0.4258829951286316 0.31893599033355713
vn -0.8467010259628296 0.4258829951286316 -0.3189370036125183
vn -0.41545501351356506 0.7884209752082825 -0.45364099740982056
vn -0.5837569832801819 0.41101500391960144 0.7002109885215759
vn -0.1693200021982193 0.6384329795837402 0.7508220076560974
vn -0.7800729870796204 0.2580080032348633 0.5700160264968872
vn -0.23859399557113647 0.41218098998069763 -0.8793060183525085
vn -0.5837569832801819 0.41101500391960144 0.7002109885215759
vn -0.05377719923853874 -0.7025889754295349 -0.7095609903335571
vn -0.15706700086593628 -0.6857219934463501 -0.7107149958610535
vn 0.9918860197067261 0.12700699269771576 -0.005602729972451925
vn -0.00851116981357336 -0.9996880292892456 0.023471299558877945
vn 0.925445020198822 0.3788680136203766 -0.003342790063470602
vn -0.6476960182189941 0.18083399534225464 -0.7401279807090759
vn -0.9935389757156372 0.1107110008597374 -0.02497369982302189
vn -0.20250600576400757 -0.7908809781074524 0.5774930119514465
vn 0.09180519729852676 -0.35279300808906555 0.9311869740486145
vn -0.15706700086593628 -0.6857219934463501 -0.7107149958610535
vn -0.05377719923853874 -0.7025889754295349 -0.7095609903335571
vn -0.4254400134086609 -0.7839369773864746 0.4521549940109253
vn -0.5782589912414551 -0.41493698954582214 -0.7024549841880798
vn -0.7800729870796204 0.2580080032348633 0.5700160264968872
vn -0.1693200021982193 0.6384329795837402 0.7508220076560974
vn -0.017158500850200653 -0.3126640021800995 0.9497089982032776
vn 0.9486669898033142 -0.3156929910182953 0.01921899989247322
vn 0.948727011680603 -0.3156999945640564 -0.01579740084707737
vn -0.017274800688028336 -0.31365299224853516 -0.9493799805641174
vn 0.017265599220991135 -0.31364598870277405 -0.949383020401001
vn -0.9486749768257141 -0.3156670033931732 0.01921599917113781
vn -0.9487360119819641 -0.3156740069389343 -0.015794500708580017
vn 0.01714950054883957 -0.3126569986343384 0.9497110247612
vn 0.7049149870872498 0.6679909825325012 0.23849999904632568
vn -0.7057679891586304 0.6679970026016235 -0.23594799637794495
vn -0.28566399216651917 0.40654999017715454 0.8678209781646729
vt 0.9649419784545898 0.17232102155685425
vt 0.9968590140342712 0.20944398641586304
vt 0.9649419784545898 0.2518709897994995
vt 0.9968590140342712 0.24921900033950806
vt 0.9968590140342712 0.20944398641586304
vt 0.8436579704284668 0.20944398641586304
vt 0.8436579704284668 0.24921900033950806
vt 0.8436579704284668 0.16966897249221802
vt 0.9968590140342712 0.16966897249221802
vt 0.8436579704284668 0.20944398641586304
vt 0.9968590140342712 0.20944398641586304
vt 0.8021659851074219 0.29164600372314453
vt 0.8021659851074219 0.25452297925949097
vt 0.9968590140342712 0.25452297925949097
vt 0.9968590140342712 0.29164600372314453
vt 0.8021659851074219 0.33142101764678955
vt 0.9968590140342712 0.33142101764678955
vt 0.8021659851074219 0.29164600372314453
vt 0.9968590140342712 0.29164600372314453
vt 0.8851500153541565 0.20944398641586304
vt 0.8851500153541565 0.17232102155685425
vt 0.8308910131454468 0.17232102155685425
vt 0.8851500153541565 0.20944398641586304
vt 0.8308910131454468 0.20944398641586304
vt 0.8851500153541565 0.24921900033950806
vt 0.8308910131454468 0.24921900033950806
vt 0.8308910131454468 0.20944398641586304
vt 0.8021659851074219 0.20944398641586304
vt 0.4297580122947693 0.8083650022745132
vt 0.4297580122947693 0.8290729969739914
vt 0.5726460218429565 0.8290729969739914
vt 0.5726460218429565 0.8083650022745132
vt 0.5912839770317078 0.8083650022745132
vt 0.5943899750709534 0.7876559942960739
vt 0.5943899750709534 0.7410629987716675
vt 0.5726460218429565 0.7876559942960739
vt 0.5726460218429565 0.8083650022745132
vt 0.4297580122947693 0.7876559942960739
vt 0.4204390048980713 0.7255310118198395
vt 0.4608199894428253 0.6711710095405579
vt 0.4049080014228821 0.6711710095405579
vt 0.5229460000991821 0.6711710095405579
vt 0.5726460218429565 0.7410629987716675
vt 0.5943899750709534 0.6711710095405579
vt 0.4204390048980713 0.7255310118198395
vt 0.4297580122947693 0.7876559942960739
vt 0.4049080014228821 0.7307080030441284
vt 0.4049080014228821 0.7876559942960739
vt 0.4297580122947693 0.8083650022745132
vt 0.4049080014228821 0.8083650022745132
vt 0.5726460218429565 0.7410629987716675
vt 0.5726460218429565 0.7876559942960739
vt 0.818123996257782 0.20944398641586304
vt 0.818123996257782 0.17497199773788452
vt 0.8436579704284668 0.16966897249221802
vt 0.8436579704284668 0.20944398641586304
vt 0.818123996257782 0.20944398641586304
vt 0.8436579704284668 0.24921900033950806
vt 0.818123996257782 0.24391597509384155
vt 0.8436579704284668 0.20944398641586304
vt 0.9968590140342712 0.16966897249221802
vt 0.9968590140342712 0.24921900033950806
vt 0.9968590140342712 0.20944398641586304
g Geoset0
s 1
usemtl 198659
f 1/1/1 2/2/2 3/3/3
f 4/4/4 5/5/5 6/6/6
f 6/6/6 7/7/7 4/4/4
f 8/8/8 6/6/6 5/5/5
f 5/5/5 9/9/9 8/8/8
f 10/10/10 8/8/8 9/9/9
f 9/9/9 11/11/11 10/10/10
f 7/7/7 10/10/10 11/11/11
f 11/11/11 4/4/4 7/7/7
f 12/12/12 13/13/13 14/14/14
f 14/14/14 15/15/15 12/12/12
f 16/16/16 12/12/12 15/15/15
f 15/15/15 17/17/17 16/16/16
f 18/18/18 16/16/16 17/17/17
f 17/17/17 19/19/19 18/18/18
f 13/13/13 18/18/18 19/19/19
f 19/19/19 14/14/14 13/13/13
f 20/20/20 21/21/21 22/22/22
f 23/23/23 22/22/22 21/21/21
f 22/22/22 23/23/23 24/24/24
f 25/25/25 24/24/24 23/23/23
f 24/24/24 25/25/25 26/26/26
f 26/26/26 25/25/25 27/27/27
f 28/28/28 26/26/26 27/27/27
f 20/20/20 27/27/27 25/25/25
f 20/20/20 22/22/22 27/27/27
f 22/22/22 28/28/28 27/27/27
f 22/22/22 24/24/24 28/28/28
f 28/28/28 24/24/24 26/26/26
f 29/29/29 30/30/30 31/31/31
f 31/31/31 32/32/32 29/29/29
f 33/33/33 32/32/32 31/31/31
f 32/32/32 33/33/33 34/34/34
f 35/35/35 36/36/36 34/34/34
f 34/34/34 36/36/36 32/32/32
f 29/29/29 32/32/32 36/36/36
f 29/29/29 37/37/37 32/32/32
f 36/36/36 38/38/38 29/29/29
f 39/39/39 40/40/40 41/41/41
f 38/38/38 40/40/40 39/39/39
f 42/42/42 40/40/40 38/38/38
f 36/36/36 42/42/42 38/38/38
f 43/43/43 42/42/42 36/36/36
f 43/43/43 36/36/36 35/35/35
f 44/44/44 43/43/43 35/35/35
f 40/40/40 45/45/45 41/41/41
f 40/40/40 46/46/46 45/45/45
f 42/42/42 46/46/46 40/40/40
f 47/47/47 41/41/41 45/45/45
f 48/48/48 47/47/47 45/45/45
f 48/48/48 45/45/45 46/46/46
f 48/48/48 46/46/46 49/49/49
f 49/49/49 50/50/50 48/48/48
f 49/49/49 30/30/30 50/50/50
f 30/30/30 49/49/49 37/37/37
f 37/37/37 31/31/31 30/30/30
f 44/44/44 42/42/42 43/43/43
f 42/42/42 44/44/44 51/51/51
f 42/42/42 51/51/51 52/52/52
f 42/42/42 52/52/52 46/46/46
f 46/46/46 52/52/52 37/37/37
f 37/37/37 49/49/49 46/46/46
f 29/29/29 49/49/49 37/37/37
f 53/53/53 54/54/54 55/55/55
f 56/56/56 55/55/55 54/54/54
f 54/54/54 57/57/57 56/56/56
f 58/58/58 56/56/56 57/57/57
f 57/57/57 59/59/59 58/58/58
f 60/60/60 58/58/58 59/59/59
f 59/59/59 53/53/53 60/60/60
f 55/55/55 60/60/60 53/53/53
f 60/60/60 55/55/55 61/61/61
f 2/2/2 61/61/61 55/55/55
f 55/55/55 56/56/56 2/2/2
f 62/62/62 2/2/2 56/56/56
f 56/56/56 58/58/58 62/62/62
f 63/63/63 62/62/62 58/58/58
f 58/58/58 60/60/60 63/63/63
f 61/61/61 63/63/63 60/60/60
f 1/1/1 3/3/3 63/63/63