# Exported using wow.export v0.1.9
o HumanSpear01
mtllib humanspear01.mtl
v 0.6335750222206116 0.05271080136299133 0
v 0.6723080277442932 0 -0.032164398580789566
v 0.6143609881401062 0 -0.06357529759407043
v 1.3016599416732788 0 0
v 1.13441002368927 0 -0.020614199340343475
v 1.1915199756622314 0.04061780124902725 0
v 0.6335750222206116 0.05271080136299133 0
v 0.6723080277442932 0 -0.032164398580789566
v 1.1915199756622314 -0.040618300437927246 0
v 0.6335750222206116 -0.05271080136299133 0
v 1.3016599416732788 0 0
v 1.13441002368927 0 0.020614199340343475
v 1.1915199756622314 -0.040618300437927246 0
v 0.6335750222206116 -0.05271080136299133 0
v 0.6723080277442932 0 0.03216470032930374
v 1.1915199756622314 0.04061780124902725 0
v 0.6335750222206116 0.05271080136299133 0
v 0.5578330159187317 0.028086699545383453 0
v 0.5578330159187317 0.00019444400095380843 -0.024664700031280518
v -0.5490890145301819 -0.00042222198680974543 -0.02485330030322075
v -0.5489000082015991 0.027661100029945374 0
v -0.5488439798355103 -0.028509700670838356 0
v 0.5578330159187317 -0.027658600360155106 0
v -0.5487920045852661 -0.00042222198680974543 0.02485330030322075
v 0.5578330159187317 0.00019444400095380843 0.02466529980301857
v -1.134060025215149 0.00019444400095380843 -0.02466529980301857
v -1.134060025215149 0.02808690071105957 0
v -0.5489000082015991 0.027661100029945374 0
v -0.5490890145301819 -0.00042222198680974543 -0.02485330030322075
v -0.5487920045852661 -0.00042222198680974543 0.02485330030322075
v -1.134060025215149 0.00019444400095380843 0.02466529980301857
v -0.5488439798355103 -0.028509700670838356 0
v -1.134060025215149 -0.02765830047428608 0
v 0.6143609881401062 0 0.06357529759407043
v 0.6215919852256775 -0.16249600052833557 0
v 0.6335750222206116 -0.05271080136299133 0
v 0.5578330159187317 0.028086699545383453 0
v 0.5578330159187317 0.00019444400095380843 0.02466529980301857
v 0.5578330159187317 -0.027658600360155106 0
v 0.6143609881401062 0 -0.06357529759407043
v 0.6215919852256775 0.16249600052833557 0
v 0.6335750222206116 0.05271080136299133 0
v 0.5578330159187317 0.00019444400095380843 -0.024664700031280518
v -1.134060025215149 0.00019444400095380843 -0.02466529980301857
v -1.134060025215149 -0.02765830047428608 0
v -1.205430030822754 -0.08108189702033997 0
v -1.134060025215149 0.00019444400095380843 0.02466529980301857
v -1.205430030822754 0 0.07175219804048538
v -1.205430030822754 0.08108390122652054 0
v -1.3016599416732788 0 0
v -1.205430030822754 0 -0.0717519000172615
v -1.134060025215149 0.02808690071105957 0
v 0.6335750222206116 -0.05271080136299133 0
v 0.6723080277442932 0 0.03216470032930374
v 0.6143609881401062 0 0.06357529759407043
vn 0.8589950203895569 0.5119839906692505 9.979469695053922e-8
vn 0.4765569865703583 4.0385799593423144e-7 -0.879144012928009
vn 0.07614430040121078 0.0003240930091124028 -0.9970970153808594
vn 0.12233000248670578 -2.29318004585366e-7 -0.9924889802932739
vn 0.05459769815206528 1.316520013006084e-7 -0.9985079765319824
vn 0.06307560205459595 0.379720002412796 -0.9229490160942078
vn 0.015387400053441525 0.48759299516677856 -0.8729360103607178
vn 0.02498769946396351 7.788210041326238e-7 -0.9996880292892456
vn 0.06307540088891983 -0.3797209858894348 -0.9229480028152466
vn 0.01538699958473444 -0.48759201169013977 -0.8729360103607178
vn 0.12233000248670578 -3.078149859447876e-7 0.9924889802932739
vn 0.05459760129451752 4.222400207254395e-9 0.9985079765319824
vn 0.06307529658079147 -0.379720002412796 0.9229490160942078
vn 0.01538699958473444 -0.48759201169013977 0.8729360103607178
vn 0.02498769946396351 5.324359904079756e-7 0.9996880292892456
vn 0.06307549774646759 0.379720002412796 0.9229490160942078
vn 0.015387400053441525 0.48759299516677856 0.8729360103607178
vn -0.49553000926971436 0.851993978023529 -0.16898499429225922
vn -0.2440290004014969 -0.17630399763584137 -0.9536070227622986
vn -0.0003217750054318458 -7.429100037370517e-7 -1
vn 0.00017142799333669245 1 -6.445840199376107e-7
vn -0.00034269000752829015 -1 2.2485500039692852e-7
vn -0.4970810115337372 -0.8510980010032654 0.16894599795341492
vn 0.00017013000615406781 7.96217989318393e-8 1
vn -0.24419300258159637 0.17691799998283386 0.9534519910812378
vn 0.33539000153541565 0.12579700350761414 -0.9336429834365845
vn 0.2615239918231964 0.939454972743988 0.22142499685287476
vn 0.00017142799333669245 1 -6.445840199376107e-7
vn -0.0003217750054318458 -7.429100037370517e-7 -1
vn 0.00017013000615406781 7.96217989318393e-8 1
vn 0.3351770043373108 -0.12511399388313293 0.9338110089302063
vn -0.00034269000752829015 -1 2.2485500039692852e-7
vn 0.262035995721817 -0.9392910003662109 -0.22151599824428558
vn 0.0761445015668869 0.0003241609956603497 0.9970970153808594
vn 0.5736600160598755 -0.8190929889678955 1.8088300635099586e-7
vn 0.8589959740638733 -0.5119829773902893 8.981520238648955e-8
vn -0.49553000926971436 0.851993978023529 -0.16898499429225922
vn -0.24419300258159637 0.17691799998283386 0.9534519910812378
vn -0.4970810115337372 -0.8510980010032654 0.16894599795341492
vn 0.07614430040121078 0.0003240930091124028 -0.9970970153808594
vn 0.5750970244407654 0.8180850148200989 1.8050400285574142e-7
vn 0.8589950203895569 0.5119839906692505 9.979469695053922e-8
vn -0.2440290004014969 -0.17630399763584137 -0.9536070227622986
vn 0.33539000153541565 0.12579700350761414 -0.9336429834365845
vn 0.262035995721817 -0.9392910003662109 -0.22151599824428558
vn 0.22154100239276886 -0.975151002407074 -4.114189948722924e-7
vn 0.3351770043373108 -0.12511399388313293 0.9338110089302063
vn -0.03362569957971573 0.0003565640072338283 0.9994339942932129
vn 0.2183389961719513 0.9758729934692383 -2.467710089604225e-7
vn -1 0.000012352399608062115 -3.056399862089165e-7
vn -0.03362569957971573 0.0003566759987734258 -0.9994339942932129
vn 0.2615239918231964 0.939454972743988 0.22142499685287476
vn 0.8589959740638733 -0.5119829773902893 8.981520238648955e-8
vn 0.4765569865703583 2.4453700575577386e-7 0.879144012928009
vn 0.0761445015668869 0.0003241609956603497 0.9970970153808594
vt 0.0019546200055629015 0.5852760076522827
vt 0.039333000779151917 0.6612479984760284
vt 0.0019546200055629015 0.6612479984760284
vt 0.39131298661231995 0.5852760076522827
vt 0.2791779935359955 0.6612479984760284
vt 0.31655699014663696 0.5852760076522827
vt 0.0019546200055629015 0.5852760076522827
vt 0.039333000779151917 0.6612479984760284
vt 0.31655699014663696 0.5852760076522827
vt 0.0019546200055629015 0.5852760076522827
vt 0.39131298661231995 0.5852760076522827
vt 0.2791779935359955 0.6612479984760284
vt 0.31655699014663696 0.5852760076522827
vt 0.0019546200055629015 0.5852760076522827
vt 0.039333000779151917 0.6612479984760284
vt 0.31655699014663696 0.5852760076522827
vt 0.0019546200055629015 0.5852760076522827
vt 0.39131298661231995 0.5042380094528198
vt 0.39131298661231995 0.5396920144557953
vt 0.09228579699993134 0.5396920144557953
vt 0.09228579699993134 0.5042380094528198
vt 0.09228579699993134 0.5042380094528198
vt 0.39131298661231995 0.5042380094528198
vt 0.09228579699993134 0.5396920144557953
vt 0.39131298661231995 0.5396920144557953
vt 0.0019546200055629015 0.5802110135555267
vt 0.0019546200055629015 0.5447570085525513
vt 0.394428014755249 0.5447570085525513
vt 0.394428014755249 0.5802110135555267
vt 0.394428014755249 0.5802110135555267
vt 0.0019546200055629015 0.5802110135555267
vt 0.394428014755249 0.5447570085525513
vt 0.0019546200055629015 0.5447570085525513
vt 0.2698329985141754 0.5396920144557953
vt 0.372624009847641 0.5396920144557953
vt 0.3134419918060303 0.5169000029563904
vt 0.3103269934654236 0.5042380094528198
vt 0.2978670001029968 0.5042380094528198
vt 0.3103269934654236 0.5042380094528198
vt 0.2698329985141754 0.5396920144557953
vt 0.372624009847641 0.5396920144557953
vt 0.3134419918060303 0.5169000029563904
vt 0.2978670001029968 0.5042380094528198
vt 0.1795019954442978 0.5396920144557953
vt 0.1795019954442978 0.5244979858398438
vt 0.09228579699993134 0.5042380094528198
vt 0.1795019954442978 0.5396920144557953
vt 0.09228579699993134 0.5396920144557953
vt 0.09228579699993134 0.5042380094528198
vt 0.0019546200055629015 0.5396920144557953
vt 0.09228579699993134 0.5396920144557953
vt 0.1795019954442978 0.5244979858398438
vt 0.0019546200055629015 0.5852760076522827
vt 0.039333000779151917 0.6612479984760284
vt 0.0019546200055629015 0.6612479984760284
g Geoset0
s 1
usemtl 198659
f 1/1/1 2/2/2 3/3/3
f 4/4/4 5/5/5 6/6/6
f 5/5/5 7/7/7 6/6/6
f 8/8/8 7/7/7 5/5/5
f 4/4/4 9/9/9 5/5/5
f 10/10/10 5/5/5 9/9/9
f 10/10/10 8/8/8 5/5/5
f 11/11/11 12/12/12 13/13/13
f 12/12/12 14/14/14 13/13/13
f 15/15/15 14/14/14 12/12/12
f 11/11/11 16/16/16 12/12/12
f 17/17/17 12/12/12 16/16/16
f 17/17/17 15/15/15 12/12/12
f 18/18/18 19/19/19 20/20/20
f 20/20/20 21/21/21 18/18/18
f 22/22/22 20/20/20 19/19/19
f 19/19/19 23/23/23 22/22/22
f 24/24/24 22/22/22 23/23/23
f 23/23/23 25/25/25 24/24/24
f 21/21/21 24/24/24 25/25/25
f 25/25/25 18/18/18 21/21/21
f 26/26/26 27/27/27 28/28/28
f 28/28/28 29/29/29 26/26/26
f 30/30/30 28/28/28 27/27/27
f 27/27/27 31/31/31 30/30/30
f 32/32/32 30/30/30 31/31/31
f 31/31/31 33/33/33 32/32/32
f 29/29/29 32/32/32 33/33/33
f 33/33/33 26/26/26 29/29/29
f 34/34/34 35/35/35 36/36/36
f 37/37/37 38/38/38 34/34/34
f 39/39/39 34/34/34 38/38/38
f 34/34/34 39/39/39 35/35/35
f 40/40/40 35/35/35 39/39/39
f 40/40/40 36/36/36 35/35/35
f 40/40/40 41/41/41 42/42/42
f 39/39/39 43/43/43 40/40/40
f 37/37/37 40/40/40 43/43/43
f 40/40/40 37/37/37 41/41/41
f 34/34/34 41/41/41 37/37/37
f 34/34/34 42/42/42 41/41/41
f 44/44/44 45/45/45 46/46/46
f 47/47/47 46/46/46 45/45/45
f 46/46/46 47/47/47 48/48/48
f 49/49/49 48/48/48 47/47/47
f 50/50/50 48/48/48 49/49/49
f 50/50/50 49/49/49 51/51/51
f 47/47/47 52/52/52 49/49/49
f 44/44/44 49/49/49 52/52/52
f 49/49/49 44/44/44 51/51/51
f 46/46/46 51/51/51 44/44/44
f 46/46/46 50/50/50 51/51/51
f 46/46/46 48/48/48 50/50/50
f 53/53/53 54/54/54 55/55/55
f 1/1/1 55/55/55 54/54/54
f 53/53/53 3/3/3 2/2/2