# Exported using wow.export v0.1.9
o Stein01
mtllib stein01.mtl
v -0.009181110188364983 0.16064099967479706 0.2246139943599701
v -0.04245389997959137 0.1936970055103302 0.17740599811077118
v -0.04245389997959137 0.16469499468803406 0.11039700359106064
v 0.02409140020608902 0.16469499468803406 0.11039700359106064
v -0.04245389997959137 0.16469499468803406 0.11039700359106064
v -0.04245389997959137 0.1936970055103302 0.17740599811077118
v -0.04245389997959137 0.1936970055103302 0.17740599811077118
v 0.02409140020608902 0.1936970055103302 0.17740599811077118
v 0.02409140020608902 0.16469499468803406 0.11039700359106064
v -0.009181110188364983 0.10706499963998795 0.11039700359106064
v 0.02409140020608902 0.16469499468803406 0.11039700359106064
v 0.02409140020608902 0.1936970055103302 0.17740599811077118
v 0.02409140020608902 0.1936970055103302 0.17740599811077118
v -0.009181110188364983 0.16064099967479706 0.2246139943599701
v -0.009181110188364983 0.10706499963998795 0.11039700359106064
v -0.04245389997959137 0.16469499468803406 0.11039700359106064
v -0.009181110188364983 0.10706499963998795 0.11039700359106064
v -0.009181110188364983 0.16064099967479706 0.2246139943599701
v 0.02374969981610775 0.3673970103263855 0.17731599509716034
v -0.04279530048370361 0.3814080059528351 0.10585500299930573
v 0.02374969981610775 0.3814080059528351 0.10585500299930573
v -0.04279530048370361 0.3673970103263855 0.17731599509716034
v -0.009522500447928905 0.4004499912261963 0.22452400624752045
v 0.02374969981610775 0.3814080059528351 0.10585500299930573
v -0.009522500447928905 0.43904200196266174 0.10585500299930573
v 0.02374969981610775 0.3673970103263855 0.17731599509716034
v -0.04279530048370361 0.3673970103263855 0.17731599509716034
v -0.009522500447928905 0.43904200196266174 0.10585500299930573
v -0.04279530048370361 0.3814080059528351 0.10585500299930573
v -0.009522500447928905 0.4004499912261963 0.22452400624752045
v 0.02409140020608902 0.1936970055103302 0.17740599811077118
v -0.04279530048370361 0.3673970103263855 0.17731599509716034
v 0.02374969981610775 0.3673970103263855 0.17731599509716034
v -0.04245389997959137 0.1936970055103302 0.17740599811077118
v -0.009181110188364983 0.16064099967479706 0.2246139943599701
v 0.02374969981610775 0.3673970103263855 0.17731599509716034
v -0.009522500447928905 0.4004499912261963 0.22452400624752045
v 0.02409140020608902 0.1936970055103302 0.17740599811077118
v -0.04245389997959137 0.1936970055103302 0.17740599811077118
v -0.009522500447928905 0.4004499912261963 0.22452400624752045
v -0.04279530048370361 0.3673970103263855 0.17731599509716034
v -0.009181110188364983 0.16064099967479706 0.2246139943599701
v -0.009556669741868973 0.578453004360199 0.00258889002725482
v 0.12199600040912628 0.46722498536109924 -0.04015110060572624
v -0.009556669741868973 0.46722498536109924 -0.13573099672794342
v 0.07174749672412872 0.46722498536109924 0.11449799686670303
v -0.009556669741868973 0.578453004360199 0.00258889002725482
v -0.09086079895496368 0.46722498536109924 0.11449799686670303
v 0.07174749672412872 0.46722498536109924 0.11449799686670303
v -0.14111000299453735 0.46722498536109924 -0.04015110060572624
v -0.009556669741868973 -0.014128300361335278 0.00258889002725482
v -0.009556669741868973 -0.014128300361335278 -0.21628400683403015
v 0.19860799610614777 -0.014128300361335278 -0.06504389643669128
v 0.11909600347280502 -0.014128300361335278 0.17966799437999725
v -0.21772100031375885 -0.014128300361335278 -0.06504359841346741
v -0.1382090002298355 -0.014128300361335278 0.17966799437999725
v -0.15930600464344025 0.07302779704332352 -0.046063899993896484
v -0.09086079895496368 0.46722498536109924 0.11449799686670303
v -0.14111000299453735 0.46722498536109924 -0.04015110060572624
v -0.10210700333118439 0.07302779704332352 0.1299770027399063
v 0.07174749672412872 0.46722498536109924 0.11449799686670303
v 0.08299329876899719 0.07302779704332352 0.1299770027399063
v 0.12199600040912628 0.46722498536109924 -0.04015110060572624
v 0.14019200205802917 0.07302779704332352 -0.046063899993896484
v -0.009556669741868973 0.46722498536109924 -0.13573099672794342
v -0.009556669741868973 0.07302779704332352 -0.15486299991607666
v -0.14111000299453735 0.46722498536109924 -0.04015110060572624
v -0.15930600464344025 0.07302779704332352 -0.046063899993896484
v -0.21772100031375885 -0.014128300361335278 -0.06504359841346741
v -0.1382090002298355 -0.014128300361335278 0.17966799437999725
v 0.11909600347280502 -0.014128300361335278 0.17966799437999725
v 0.19860799610614777 -0.014128300361335278 -0.06504389643669128
v -0.009556669741868973 -0.014128300361335278 -0.21628400683403015
v -0.21772100031375885 -0.014128300361335278 -0.06504359841346741
vn -0.8277590274810791 -0.514926016330719 0.22286100685596466
vn -0.8277590274810791 -0.514926016330719 0.22286100685596466
vn -0.8277590274810791 -0.514926016330719 0.22286100685596466
vn -2.462209920395253e-7 0.9177330136299133 -0.39719799160957336
vn -2.462209920395253e-7 0.9177330136299133 -0.39719799160957336
vn -2.462209920395253e-7 0.9177330136299133 -0.39719799160957336
vn -4.0107801169142476e-7 0.9177330136299133 -0.39719799160957336
vn -4.0107801169142476e-7 0.9177330136299133 -0.39719799160957336
vn -4.0107801169142476e-7 0.9177330136299133 -0.39719799160957336
vn 0.8464329838752747 -0.48868799209594727 0.21150599420070648
vn 0.8464329838752747 -0.48868799209594727 0.21150599420070648
vn 0.8464329838752747 -0.48868799209594727 0.21150599420070648
vn 0.8323850035667419 -0.5017399787902832 0.23535500466823578
vn 0.8323850035667419 -0.5017399787902832 0.23535500466823578
vn 0.8323850035667419 -0.5017399787902832 0.23535500466823578
vn -0.843146026134491 -0.4867900013923645 0.2283419966697693
vn -0.843146026134491 -0.4867900013923645 0.2283419966697693
vn -0.843146026134491 -0.4867900013923645 0.2283419966697693
vn 0.8727369904518127 -0.48650699853897095 -0.040514301508665085
vn -0.499983012676239 -0.8498470187187195 -0.1666650027036667
vn 0.9956070184707642 0.07662449777126312 0.05381210148334503
vn -0.8806949853897095 0.025134000927209854 -0.47301700711250305
vn 0.002872880082577467 0.6048750281333923 0.7963150143623352
vn 0.9956070184707642 0.07662449777126312 0.05381210148334503
vn -0.45291998982429504 0.8577029705047607 0.2433300018310547
vn 0.8727369904518127 -0.48650699853897095 -0.040514301508665085
vn -0.8806949853897095 0.025134000927209854 -0.47301700711250305
vn -0.45291998982429504 0.8577029705047607 0.2433300018310547
vn -0.499983012676239 -0.8498470187187195 -0.1666650027036667
vn 0.002872880082577467 0.6048750281333923 0.7963150143623352
vn 0.49779200553894043 0.0005297180032357574 -0.8672959804534912
vn -0.8806949853897095 0.025134000927209854 -0.47301700711250305
vn 0.8727369904518127 -0.48650699853897095 -0.040514301508665085
vn -0.9956820011138916 -0.0016898700268939137 0.09280969947576523
vn 0.4273670017719269 0.0012223200174048543 0.9040769934654236
vn 0.8727369904518127 -0.48650699853897095 -0.040514301508665085
vn 0.002872880082577467 0.6048750281333923 0.7963150143623352
vn 0.49779200553894043 0.0005297180032357574 -0.8672959804534912
vn -0.9956820011138916 -0.0016898700268939137 0.09280969947576523
vn 0.002872880082577467 0.6048750281333923 0.7963150143623352
vn -0.8806949853897095 0.025134000927209854 -0.47301700711250305
vn 0.4273670017719269 0.0012223200174048543 0.9040769934654236
vn 6.723149681420182e-8 1 -3.361580169780609e-8
vn 0.5959839820861816 0.7792969942092896 -0.19364699721336365
vn 0 0.7792969942092896 -0.6266549825668335
vn 0.3683379888534546 0.7792969942092896 0.5069739818572998
vn 6.723149681420182e-8 1 -3.361580169780609e-8
vn -0.3683379888534546 0.7792969942092896 0.5069739818572998
vn 0.3683379888534546 0.7792969942092896 0.5069739818572998
vn -0.5959839820861816 0.7792969942092896 -0.19364699721336365
vn 0 -1 0
vn 0 -1 0
vn 0 -1 0
vn 0 -1 0
vn 0 -1 0
vn 0 -1 0
vn -0.9014359712600708 0.3334200084209442 -0.2761240005493164
vn -0.7608489990234375 0.04711940139532089 0.6472160220146179
vn -0.8506550192832947 0.04711940139532089 -0.5236089825630188
vn -0.5411689877510071 0.3334200084209442 0.7719889879226685
vn 0.38042399287223816 0.04711940139532089 0.9236109852790833
vn 0.5669749975204468 0.3334200084209442 0.7532399892807007
vn 0.995963990688324 0.04711940139532089 -0.07639370113611221
vn 0.8915789723396301 0.3334200084209442 -0.30646198987960815
vn 0.23511500656604767 0.04711940139532089 -0.9708250164985657
vn -0.015949200838804245 0.3334200084209442 -0.9426429867744446
vn -0.8506550192832947 0.04711940139532089 -0.5236089825630188
vn -0.9014359712600708 0.3334200084209442 -0.2761240005493164
vn -0.8226159811019897 0.5650849938392639 -0.06309729814529419
vn -0.31421101093292236 0.5650849938392639 0.7628570199012756
vn 0.6284229755401611 0.5650849938392639 0.5345680117607117
vn 0.702597975730896 0.5650849938392639 -0.4324750006198883
vn -0.1941930055618286 0.5650849938392639 -0.8018530011177063
vn -0.8226159811019897 0.5650849938392639 -0.06309729814529419
vt 0.04292089864611626 0.23857301473617554
vt 0.3773689866065979 0.23857301473617554
vt 0.3773689866065979 0.4232630133628845
vt 0.3773689866065979 0.4232630133628845
vt 0.04292089864611626 0.4232630133628845
vt 0.04292089864611626 0.23857301473617554
vt 0.04292089864611626 0.23857301473617554
vt 0.3773689866065979 0.23857301473617554
vt 0.3773689866065979 0.4232630133628845
vt 0.3773689866065979 0.4232630133628845
vt 0.04292089864611626 0.4232630133628845
vt 0.04292089864611626 0.23857301473617554
vt 0.04292089864611626 0.23857301473617554
vt 0.3773689866065979 0.23857301473617554
vt 0.3773689866065979 0.4232630133628845
vt 0.3773689866065979 0.4232630133628845
vt 0.04292089864611626 0.4232630133628845
vt 0.04292089864611626 0.23857301473617554
vt 0.04292089864611626 0.23857301473617554
vt 0.3773689866065979 0.4232630133628845
vt 0.04292089864611626 0.4232630133628845
vt 0.3773689866065979 0.23857301473617554
vt 0.04292089864611626 0.23857301473617554
vt 0.3773689866065979 0.4232630133628845
vt 0.04292089864611626 0.4232630133628845
vt 0.3773689866065979 0.23857301473617554
vt 0.04292089864611626 0.23857301473617554
vt 0.3773689866065979 0.4232630133628845
vt 0.04292089864611626 0.4232630133628845
vt 0.3773689866065979 0.23857301473617554
vt 0.04292089864611626 0.23857301473617554
vt 0.3773689866065979 0.4232630133628845
vt 0.04292089864611626 0.4232630133628845
vt 0.3773689866065979 0.23857301473617554
vt 0.04292089864611626 0.23857301473617554
vt 0.3773689866065979 0.4232630133628845
vt 0.04292089864611626 0.4232630133628845
vt 0.3773689866065979 0.23857301473617554
vt 0.04292089864611626 0.23857301473617554
vt 0.3773689866065979 0.4232630133628845
vt 0.04292089864611626 0.4232630133628845
vt 0.3773689866065979 0.23857301473617554
vt 0.2256460040807724 0.6740140020847321
vt 0.11672700196504593 0.12368100881576538
vt 0.3350889980792999 0.12327402830123901
vt 0.33510899543762207 0.12393397092819214
vt 0.22510600090026855 0.6729350090026855
vt 0.3370490074157715 0.12327402830123901
vt 0.11673600226640701 0.1233450174331665
vt 0.11685100197792053 0.12345701456069946
vt 0.8240780234336853 0.7729469984769821
vt 0.9308930039405823 0.7729469984769821
vt 0.8570860028266907 0.6763319969177246
vt 0.7376629710197449 0.7132349908351898
vt 0.8570860028266907 0.8695620000362396
vt 0.7376629710197449 0.8326579928398132
vt 0.025849599391222 0.22419601678848267
vt 0.20474599301815033 0.9710507001727819
vt 0.028572900220751762 0.9710507001727819
vt 0.20340099930763245 0.22419601678848267
vt 0.37915098667144775 0.9710507001727819
vt 0.38049599528312683 0.22419601678848267
vt 0.5553240180015564 0.9710507001727819
vt 0.5580469965934753 0.22419601678848267
vt 0.7709400057792664 0.9710507001727819
vt 0.7709400057792664 0.22419601678848267
vt 0.9865559935569763 0.9710507001727819
vt 0.9838330149650574 0.22419601678848267
vt 0.02037860080599785 0.018598973751068115
vt 0.20055699348449707 0.018598973751068115
vt 0.3833400011062622 0.018598973751068115
vt 0.5635179877281189 0.018598973751068115
vt 0.7709400057792664 0.018598973751068115
vt 0.9783620238304138 0.018598973751068115
g Geoset0
s 1
usemtl 198365
f 1/1/1 2/2/2 3/3/3
f 4/4/4 5/5/5 6/6/6
f 7/7/7 8/8/8 9/9/9
f 10/10/10 11/11/11 12/12/12
f 13/13/13 14/14/14 15/15/15
f 16/16/16 17/17/17 18/18/18
f 19/19/19 20/20/20 21/21/21
f 19/19/19 22/22/22 20/20/20
f 23/23/23 24/24/24 25/25/25
f 23/23/23 26/26/26 24/24/24
f 27/27/27 28/28/28 29/29/29
f 27/27/27 30/30/30 28/28/28
f 31/31/31 32/32/32 33/33/33
f 31/31/31 34/34/34 32/32/32
f 35/35/35 36/36/36 37/37/37
f 35/35/35 38/38/38 36/36/36
f 39/39/39 40/40/40 41/41/41
f 39/39/39 42/42/42 40/40/40
f 43/43/43 44/44/44 45/45/45
f 43/43/43 46/46/46 44/44/44
f 47/47/47 48/48/48 49/49/49
f 47/47/47 50/50/50 48/48/48
f 47/47/47 45/45/45 50/50/50
f 51/51/51 52/52/52 53/53/53
f 51/51/51 53/53/53 54/54/54
f 51/51/51 55/55/55 52/52/52
f 51/51/51 56/56/56 55/55/55
f 51/51/51 54/54/54 56/56/56
f 57/57/57 58/58/58 59/59/59
f 57/57/57 60/60/60 58/58/58
f 60/60/60 61/61/61 58/58/58
f 60/60/60 62/62/62 61/61/61
f 62/62/62 63/63/63 61/61/61
f 62/62/62 64/64/64 63/63/63
f 64/64/64 65/65/65 63/63/63
f 64/64/64 66/66/66 65/65/65
f 66/66/66 67/67/67 65/65/65
f 66/66/66 68/68/68 67/67/67
f 69/69/69 60/60/60 57/57/57
f 69/69/69 70/70/70 60/60/60
f 70/70/70 62/62/62 60/60/60
f 70/70/70 71/71/71 62/62/62
f 71/71/71 64/64/64 62/62/62
f 71/71/71 72/72/72 64/64/64
f 72/72/72 66/66/66 64/64/64
f 72/72/72 73/73/73 66/66/66
f 73/73/73 68/68/68 66/66/66
f 73/73/73 74/74/74 68/68/68