# Exported using wow.export v0.1.9
o SosFlo01
mtllib sosflo01.mtl
v -0.3581939935684204 0.9996610283851624 -0.030753599479794502
v -0.36841100454330444 -0.029169199988245964 -0.030753599479794502
v 0.36118099093437195 0.9514219760894775 -0.030753599479794502
v -0.004558890126645565 -0.029169199988245964 -0.36345601081848145
v -0.004558890126645565 1.3645700216293335 -0.36345601081848145
v -0.004558890126645565 -0.029169199988245964 0.26959100365638733
v -0.004558890126645565 1.2874300479888916 0.26959100365638733
v 0.3713969886302948 -0.029169199988245964 -0.030753599479794502
vn 0 0 1
vn 0 0 1
vn 0 0 1
vn 1 5.4626898560172776e-8 0
vn 1 5.622720067322007e-8 7.407940039172445e-9
vn 1 5.622720067322007e-8 7.407940039172445e-9
vn 1 5.782759870953669e-8 1.4815899618270123e-8
vn 0 0 1
vt 0.9949740171432495 0.4939829707145691
vt 0.9949740171432495 0.0036020278930664062
vt 0.75006502866745 0.4939829707145691
vt 0.75006502866745 0.0036020278930664062
vt 0.75006502866745 0.4939829707145691
vt 0.9949740171432495 0.0036020278930664062
vt 0.9949740171432495 0.4939829707145691
vt 0.75006502866745 0.0036020278930664062
g Geoset0
s 1
usemtl 219090
f 1/1/1 2/2/2 3/3/3
f 4/4/4 5/5/5 6/6/6
f 7/7/7 6/6/6 5/5/5
f 8/8/8 3/3/3 2/2/2