# Exported using wow.export v0.1.9
o SosGra04
mtllib sosgra04.mtl
v -0.3630110025405884 1.24058997631073 0.015216900035738945
v -0.4894059896469116 -0.041154198348522186 0.015216900035738945
v 0.44929400086402893 1.2357399463653564 0.015216900035738945
v -0.006357220001518726 -0.041154198348522186 -0.43217799067497253
v -0.006357220001518726 1.4850200414657593 -0.43217799067497253
v -0.006357220001518726 -0.041154198348522186 0.456743985414505
v -0.006357220001518726 1.407230019569397 0.456743985414505
v 0.4516969919204712 -0.041154198348522186 0.015216900035738945
vn 3.823349969955814e-11 6.4000298394262245e-9 1
vn 1.9116800156759872e-11 6.414090147899287e-9 1
vn 1.9116800156759872e-11 6.414090147899287e-9 1
vn 1 6.501870331021564e-8 0
vn 1 6.676479813449987e-8 6.303169985955037e-9
vn 1 6.676479813449987e-8 6.303169985955037e-9
vn 1 6.851099954019446e-8 1.2606300003881188e-8
vn 0 6.428139798231314e-9 1
vt 0.31864500045776367 0.5036450028419495
vt 0.31864500045776367 0.12437498569488525
vt 0.0012722599785774946 0.5036450028419495
vt 0.0012722599785774946 0.12437498569488525
vt 0.0012722599785774946 0.5036450028419495
vt 0.31864500045776367 0.12437498569488525
vt 0.31864500045776367 0.5036450028419495
vt 0.0012722599785774946 0.12437498569488525
g Geoset0
s 1
usemtl 219090
f 1/1/1 2/2/2 3/3/3
f 4/4/4 5/5/5 6/6/6
f 7/7/7 6/6/6 5/5/5
f 8/8/8 3/3/3 2/2/2