# Exported using wow.export v0.1.9
o GunShopAmmoBoxBlue
mtllib gunshopammoboxblue.mtl
v 0.12286277860403061 -0.012325388379395008 0.1856386810541153
v -0.12822571396827698 -0.012325391173362732 0.1856386810541153
v -0.12822571396827698 -0.012325392104685307 -0.18331044912338257
v 0.1228627935051918 0.1515209972858429 0.1856386810541153
v -0.12822569906711578 0.1515209823846817 0.1856386810541153
v -0.12822571396827698 -0.012325391173362732 0.1856386810541153
v 0.12286277860403061 -0.012325388379395008 0.1856386810541153
v -0.12822569906711578 0.1515209823846817 0.1856386810541153
v -0.12822569906711578 0.1515209823846817 -0.18331044912338257
v -0.12822571396827698 -0.012325392104685307 -0.18331044912338257
v -0.12822571396827698 -0.012325391173362732 0.1856386810541153
v -0.12822569906711578 0.1515209823846817 -0.18331044912338257
v 0.1228627935051918 0.1515209972858429 -0.18331044912338257
v 0.12286277860403061 -0.012325388379395008 -0.18331044912338257
v -0.12822571396827698 -0.012325392104685307 -0.18331044912338257
v 0.1228627935051918 0.1515209972858429 -0.18331044912338257
v 0.1228627935051918 0.1515209972858429 0.1856386810541153
v 0.12286277860403061 -0.012325388379395008 0.1856386810541153
v 0.12286277860403061 -0.012325388379395008 -0.18331044912338257
v -0.12822569906711578 0.1515209823846817 -0.18331044912338257
v -0.12822569906711578 0.1515209823846817 0.1856386810541153
v 0.1228627935051918 0.1515209972858429 0.1856386810541153
v 0.1228627935051918 0.1515209972858429 -0.18331044912338257
v 0.12286277860403061 -0.012325388379395008 -0.18331044912338257
vn 1.318805686878477e-8 -1 0
vn 1.318805686878477e-8 -1 0
vn 1.318805686878477e-8 -1 0
vn 0 0 1
vn 0 0 1
vn 0 0 1
vn 0 0 1
vn -1 8.08408273655914e-8 0
vn -1 8.08408273655914e-8 0
vn -1 8.08408273655914e-8 0
vn -1 8.08408273655914e-8 0
vn 0 0 -1
vn 0 0 -1
vn 0 0 -1
vn 0 0 -1
vn 1 -8.084082026016404e-8 0
vn 1 -8.084082026016404e-8 0
vn 1 -8.084082026016404e-8 0
vn 1 -8.084082026016404e-8 0
vn -5.275222747513908e-8 1 0
vn -5.275222747513908e-8 1 0
vn -5.275222747513908e-8 1 0
vn -5.275222747513908e-8 1 0
vn 1.318805686878477e-8 -1 0
vt 0.8769820928573608 0.7495808601379395
vt 0.8769820928573608 0.6771676540374756
vt 0.9965330362319946 0.6771676540374756
vt 0.4990726709365845 0.6244133710861206
vt 0.3755866587162018 0.6244133710861206
vt 0.3755866587162018 0.5014933943748474
vt 0.4990726709365845 0.5014933943748474
vt 0.9965330362319946 0.6775711178779602
vt 0.8770075440406799 0.6775711178779602
vt 0.8770075440406799 0.6259980797767639
vt 0.9965330362319946 0.6259980797767639
vt 0.4990726709365845 0.6244133710861206
vt 0.3755866587162018 0.6244133710861206
vt 0.3755866587162018 0.5014933943748474
vt 0.4990726709365845 0.5014933943748474
vt 0.9965330362319946 0.6775711178779602
vt 0.8770075440406799 0.6775711178779602
vt 0.8770075440406799 0.6259980797767639
vt 0.9965330362319946 0.6259980797767639
vt 0.9965330362319946 0.7495807409286499
vt 0.8769820928573608 0.7495807409286499
vt 0.8769820928573608 0.6771676540374756
vt 0.9965330362319946 0.6771676540374756
vt 0.9965330362319946 0.7495808601379395
g Geoset0
s 1
usemtl 201151
f 1/1/1 2/2/2 3/3/3
f 4/4/4 5/5/5 6/6/6
f 6/6/6 7/7/7 4/4/4
f 8/8/8 9/9/9 10/10/10
f 10/10/10 11/11/11 8/8/8
f 12/12/12 13/13/13 14/14/14
f 14/14/14 15/15/15 12/12/12
f 16/16/16 17/17/17 18/18/18
f 18/18/18 19/19/19 16/16/16
f 20/20/20 21/21/21 22/22/22
f 22/22/22 23/23/23 20/20/20
f 3/3/3 24/24/24 1/1/1