# Exported using wow.export v0.1.9
o GunShopPowderKegOpen
mtllib gunshoppowderkegopen.mtl
v 0.1707407534122467 1.0660035610198975 -0.2972590923309326
v 0.11315798759460449 1.0380512475967407 -0.369838148355484
v 0.07726609706878662 1.0910500288009644 -0.2972590923309326
v 0.047567833214998245 0.7923253774642944 -0.24829480051994324
v 0.13794484734535217 0.8502839207649231 -0.11081353574991226
v 0.1715589463710785 0.8030961155891418 -0.17469137907028198
v -0.0017217054264619946 0.8877074122428894 -0.11081352084875107
v -0.054426275193691254 0.8636486530303955 -0.1746913641691208
v -0.001974449958652258 0.6738727688789368 -0.024229448288679123
v -0.08222320675849915 0.6257509589195251 -0.16118596494197845
v -0.20330333709716797 0.6257510185241699 0.0007642216514796019
v -0.11987708508968353 0.6257509589195251 0.1951662003993988
v 0.08646959066390991 0.6257509589195251 0.21179531514644623
v 0.20220737159252167 0.6257510185241699 0.04476899281144142
v 0.11887786537408829 0.6257509589195251 -0.14596663415431976
v 0.13794484734535217 0.8502839207649231 -0.11081353574991226
v 0.10652179270982742 0.5603741407394409 -0.029612379148602486
v 0.1715589463710785 0.8030961155891418 -0.17469137907028198
v 0.047567833214998245 0.7923253774642944 -0.24829480051994324
v -0.02438288740813732 0.5238016843795776 -0.08779363334178925
v -0.054426275193691254 0.8636486530303955 -0.1746913641691208
v -0.11946342885494232 0.6209267377853394 -0.029612356796860695
v -0.0017217054264619946 0.8877074122428894 -0.11081352084875107
v -0.08222320675849915 0.6257509589195251 -0.16118596494197845
v -0.1111905425786972 0.647607147693634 -0.2137298285961151
v -0.20330333709716797 0.6257510185241699 0.0007642216514796019
v 0.11887786537408829 0.6257509589195251 -0.14596663415431976
v 0.15030881762504578 0.647607147693634 -0.190851628780365
v 0.20220737159252167 0.6257510185241699 0.04476899281144142
v 0.26124539971351624 0.647607147693634 0.047052640467882156
v 0.11068258434534073 0.647607147693634 0.2620786428451538
v 0.08646959066390991 0.6257509589195251 0.21179531514644623
v -0.11987708508968353 0.6257509589195251 0.1951662003993988
v -0.15081681311130524 0.647607147693634 0.2392004132270813
v -0.2617534101009369 0.647607147693634 0.0012961934553459287
v 0.20451143383979797 0.43160849809646606 -0.2682609558105469
v -0.1111905425786972 0.647607147693634 -0.2137298285961151
v 0.15030881762504578 0.647607147693634 -0.190851628780365
v -0.15112771093845367 0.43160849809646606 -0.29937535524368286
v 0.20451141893863678 0.21560996770858765 -0.26826098561286926
v -0.15112771093845367 0.21560996770858765 -0.29937535524368286
v 0.15030881762504578 -0.00038864105590619147 -0.1908515989780426
v -0.1111905425786972 -0.0003886499034706503 -0.21372981369495392
v 0.3553851842880249 0.4316085875034332 0.05528879165649414
v 0.15030881762504578 0.647607147693634 -0.190851628780365
v 0.26124539971351624 0.647607147693634 0.047052640467882156
v 0.20451143383979797 0.43160849809646606 -0.2682609558105469
v 0.3553851842880249 0.21560996770858765 0.05528879538178444
v 0.20451141893863678 0.21560996770858765 -0.26826098561286926
v 0.26124539971351624 -0.00038864699308760464 0.047052640467882156
v 0.15030881762504578 -0.00038864105590619147 -0.1908515989780426
v 0.1506197303533554 0.4316085875034332 0.34772416949272156
v 0.26124539971351624 0.647607147693634 0.047052640467882156
v 0.11068258434534073 0.647607147693634 0.2620786428451538
v 0.3553851842880249 0.4316085875034332 0.05528879165649414
v 0.1506197303533554 0.21560996770858765 0.34772416949272156
v 0.3553851842880249 0.21560996770858765 0.05528879538178444
v 0.11068257689476013 -0.000388643384212628 0.2620786726474762
v 0.26124539971351624 -0.00038864699308760464 0.047052640467882156
v -0.20501942932605743 0.4316085875034332 0.31660977005958557
v 0.11068258434534073 0.647607147693634 0.2620786428451538
v -0.15081681311130524 0.647607147693634 0.2392004132270813
v 0.1506197303533554 0.4316085875034332 0.34772416949272156
v -0.20501942932605743 0.21560996770858765 0.31660977005958557
v 0.1506197303533554 0.21560996770858765 0.34772416949272156
v -0.15081682801246643 -0.0003886292106471956 0.2392004132270813
v 0.11068257689476013 -0.000388643384212628 0.2620786726474762
v -0.35589322447776794 0.43160849809646606 -0.006939971353858709
v -0.15081681311130524 0.647607147693634 0.2392004132270813
v -0.2617534101009369 0.647607147693634 0.0012961934553459287
v -0.20501942932605743 0.4316085875034332 0.31660977005958557
v -0.35589322447776794 0.21560996770858765 -0.006939968094229698
v -0.20501942932605743 0.21560996770858765 0.31660977005958557
v -0.2617534101009369 -0.00038864166708663106 0.0012962031178176403
v -0.15081682801246643 -0.0003886292106471956 0.2392004132270813
v -0.15112771093845367 0.43160849809646606 -0.29937535524368286
v -0.2617534101009369 0.647607147693634 0.0012961934553459287
v -0.1111905425786972 0.647607147693634 -0.2137298285961151
v -0.35589322447776794 0.43160849809646606 -0.006939971353858709
v -0.15112771093845367 0.21560996770858765 -0.29937535524368286
v -0.35589322447776794 0.21560996770858765 -0.006939968094229698
v -0.1111905425786972 -0.0003886499034706503 -0.21372981369495392
v -0.2617534101009369 -0.00038864166708663106 0.0012962031178176403
v 0.052229948341846466 0.8106646537780762 -0.21616049110889435
v 0.02622133307158947 0.8490696549415588 -0.1635669618844986
v 0.1707407534122467 1.0660035610198975 -0.2972590923309326
v 0.0939565971493721 0.8309201002120972 -0.1635669618844986
v 0.11315798759460449 1.0380512475967407 -0.369838148355484
v 0.052229948341846466 0.8106646537780762 -0.21616049110889435
vn 0.881395161151886 0.4619939625263214 0.09850974380970001
vn 0.010514392517507076 0.03924127295613289 -0.9991744160652161
vn -0.5323132872581482 0.8407962322235107 0.09850995987653732
vn 0.029577981680631638 0.1103866919875145 -0.9934484958648682
vn 0.6545981168746948 0.7303744554519653 -0.1950753778219223
vn 0.8797025084495544 0.20279458165168762 -0.430113822221756
vn -0.20171116292476654 0.9598219990730286 -0.19507525861263275
vn -0.660447359085083 0.6154767274856567 -0.43011364340782166
vn -0.0034427917562425137 0.9977216124534607 -0.06737785041332245
vn 0.042525939643383026 0.9917197227478027 0.1211756244301796
vn 0.15573157370090485 0.9873790144920349 0.028815729543566704
vn 0.11531875282526016 0.9815510511398315 -0.1525093913078308
vn -0.07785940915346146 0.9834421277046204 -0.16364429891109467
vn -0.15704749524593353 0.9874676465988159 -0.015610459260642529
vn -0.09192674607038498 0.9872148036956787 0.13021694123744965
vn 0.6545981168746948 0.7303744554519653 -0.1950753778219223
vn 0.5923361778259277 -0.5243489742279053 -0.6117156147956848
vn 0.8797025084495544 0.20279458165168762 -0.430113822221756
vn 0.029577981680631638 0.1103866919875145 -0.9934484958648682
vn -0.12940961122512817 -0.482962965965271 -0.8660253882408142
vn -0.660447359085083 0.6154767274856567 -0.43011364340782166
vn -0.7751528024673462 -0.15793117880821228 -0.6117154955863953
vn -0.20171116292476654 0.9598219990730286 -0.19507525861263275
vn 0.042525939643383026 0.9917197227478027 0.1211756244301796
vn -0.23045997321605682 0.8360625505447388 -0.497883141040802
vn 0.15573157370090485 0.9873790144920349 0.028815729543566704
vn -0.09192674607038498 0.9872148036956787 0.13021694123744965
vn 0.310177206993103 0.8398033976554871 -0.44555625319480896
vn -0.15704749524593353 0.9874676465988159 -0.015610459260642529
vn 0.5469164252281189 0.8357059955596924 0.049778711050748825
vn 0.2285696566104889 0.8394317030906677 0.49306216835975647
vn -0.07785940915346146 0.9834421277046204 -0.16364429891109467
vn 0.11531875282526016 0.9815510511398315 -0.1525093913078308
vn -0.308891624212265 0.840782105922699 0.44460251927375793
vn -0.5455048084259033 0.8365177512168884 -0.051599882543087006
vn 0.5628184676170349 0.19276948273181915 -0.8037881255149841
vn -0.23045997321605682 0.8360625505447388 -0.497883141040802
vn 0.310177206993103 0.8398033976554871 -0.44555625319480896
vn -0.41469165682792664 0.19276948273181915 -0.8893091678619385
vn 0.5628184080123901 -0.19276946783065796 -0.8037881255149841
vn -0.414691686630249 -0.19276951253414154 -0.8893091082572937
vn 0.5254862308502197 -0.4008188843727112 -0.7504721283912659
vn -0.38718482851982117 -0.4008188843727112 -0.8303204774856567
vn 0.9775101542472839 0.19276951253414154 0.08552101254463196
vn 0.310177206993103 0.8398033976554871 -0.44555625319480896
vn 0.5469164252281189 0.8357059955596924 0.049778711050748825
vn 0.5628184676170349 0.19276948273181915 -0.8037881255149841
vn 0.9775101542472839 -0.19276948273181915 0.08552107959985733
vn 0.5628184080123901 -0.19276946783065796 -0.8037881255149841
vn 0.9126711487770081 -0.40081873536109924 0.07984834164381027
vn 0.5254862308502197 -0.4008188843727112 -0.7504721283912659
vn 0.41469165682792664 0.19276954233646393 0.8893091082572937
vn 0.5469164252281189 0.8357059955596924 0.049778711050748825
vn 0.2285696566104889 0.8394317030906677 0.49306216835975647
vn 0.9775101542472839 0.19276951253414154 0.08552101254463196
vn 0.414691686630249 -0.19276946783065796 0.8893091082572937
vn 0.9775101542472839 -0.19276948273181915 0.08552107959985733
vn 0.38718482851982117 -0.4008188545703888 0.8303205370903015
vn 0.9126711487770081 -0.40081873536109924 0.07984834164381027
vn -0.5628184080123901 0.19276951253414154 0.8037881255149841
vn 0.2285696566104889 0.8394317030906677 0.49306216835975647
vn -0.308891624212265 0.840782105922699 0.44460251927375793
vn 0.41469165682792664 0.19276954233646393 0.8893091082572937
vn -0.5628184676170349 -0.19276948273181915 0.8037881255149841
vn 0.414691686630249 -0.19276946783065796 0.8893091082572937
vn -0.5254862308502197 -0.4008188545703888 0.7504721879959106
vn 0.38718482851982117 -0.4008188545703888 0.8303205370903015
vn -0.9775101542472839 0.19276945292949677 -0.08552110195159912
vn -0.308891624212265 0.840782105922699 0.44460251927375793
vn -0.5455048084259033 0.8365177512168884 -0.051599882543087006
vn -0.5628184080123901 0.19276951253414154 0.8037881255149841
vn -0.9775101542472839 -0.19276946783065796 -0.08552107959985733
vn -0.5628184676170349 -0.19276948273181915 0.8037881255149841
vn -0.9126710891723633 -0.4008188545703888 -0.07984835654497147
vn -0.5254862308502197 -0.4008188545703888 0.7504721879959106
vn -0.41469165682792664 0.19276948273181915 -0.8893091678619385
vn -0.5455048084259033 0.8365177512168884 -0.051599882543087006
vn -0.23045997321605682 0.8360625505447388 -0.497883141040802
vn -0.9775101542472839 0.19276945292949677 -0.08552110195159912
vn -0.414691686630249 -0.19276951253414154 -0.8893091082572937
vn -0.9775101542472839 -0.19276946783065796 -0.08552107959985733
vn -0.38718482851982117 -0.4008188843727112 -0.8303204774856567
vn -0.9126710891723633 -0.4008188545703888 -0.07984835654497147
vn -0.14148196578025818 -0.5280178189277649 -0.837364912033081
vn -0.7829211950302124 0.41914910078048706 0.459726482629776
vn 0.881395161151886 0.4619939625263214 0.09850974380970001
vn 0.8876042366027832 -0.0284670852124691 0.4597264230251312
vn 0.010514392517507076 0.03924127295613289 -0.9991744160652161
vn -0.14148196578025818 -0.5280178189277649 -0.837364912033081
vt 0.5638713240623474 0.517674446105957
vt 0.6215927600860596 0.5054199695587158
vt 0.5012063980102539 0.5054199695587158
vt 0.495320588350296 0.5618678331375122
vt 0.3763262629508972 0.6213007569313049
vt 0.4941999614238739 0.6201009154319763
vt 0.3782539665699005 0.5024029612541199
vt 0.492927610874176 0.5061414837837219
vt 0.06421428173780441 0.6691538691520691
vt 0.09512487053871155 0.6260401010513306
vt 0.1232246533036232 0.6860032081604004
vt 0.09509650617837906 0.7476044297218323
vt 0.02900516800582409 0.7478305101394653
vt 0.0009295418858528137 0.6861135363578796
vt 0.02913232520222664 0.62616366147995
vt 0.554002046585083 0.5020045638084412
vt 0.6202037930488586 0.584510326385498
vt 0.6202037930488586 0.5020045638084412
vt 0.5015063285827637 0.5020045638084412
vt 0.5015063285827637 0.584510326385498
vt 0.6206022500991821 0.5020045638084412
vt 0.6206022500991821 0.584510326385498
vt 0.5547988414764404 0.5020045638084412
vt 0.9831814765930176 0.4036983847618103
vt 0.9680495262145996 0.40070343017578125
vt 0.9832808375358582 0.4659132957458496
vt 0.9832509756088257 0.46591293811798096
vt 0.9680948853492737 0.470090389251709
vt 0.9831991195678711 0.4036988615989685
vt 0.9680406451225281 0.4007036089897156
vt 0.9681039452552795 0.4700900912284851
vt 0.9832579493522644 0.4659128189086914
vt 0.9831864237785339 0.40369880199432373
vt 0.968078076839447 0.4007036089897156
vt 0.9681104421615601 0.470090389251709
vt 0.7508672475814819 0.2566033601760864
vt 0.9666970372200012 0.37215620279312134
vt 0.7796025276184082 0.37215620279312134
vt 0.9978320598602295 0.2566033601760864
vt 0.7508672475814819 0.1401892900466919
vt 0.9978320598602295 0.1401892900466919
vt 0.7796025276184082 0.003989994525909424
vt 0.9666970372200012 0.003989994525909424
vt 0.7508724331855774 0.256635844707489
vt 0.9666793346405029 0.3722461462020874
vt 0.7796064615249634 0.3722461462020874
vt 0.9978086352348328 0.256635844707489
vt 0.7508724331855774 0.14003270864486694
vt 0.9978086352348328 0.14003270864486694
vt 0.7796064615249634 0.0039705634117126465
vt 0.9666793346405029 0.0039705634117126465
vt 0.7508598566055298 0.2566033601760864
vt 0.9666873812675476 0.37215620279312134
vt 0.7795969247817993 0.37215620279312134
vt 0.9978192448616028 0.2566033601760864
vt 0.7508598566055298 0.1401892900466919
vt 0.9978192448616028 0.1401892900466919
vt 0.7795969247817993 0.003989994525909424
vt 0.9666873812675476 0.003989994525909424
vt 0.7508643269538879 0.2564871311187744
vt 0.9666706919670105 0.3721088171005249
vt 0.7796003222465515 0.3721088171005249
vt 0.9977972507476807 0.2564871311187744
vt 0.7508643269538879 0.13931596279144287
vt 0.9977972507476807 0.13931596279144287
vt 0.7796003222465515 0.003940939903259277
vt 0.9666706919670105 0.003940939903259277
vt 0.7508566975593567 0.2565670609474182
vt 0.9666691422462463 0.37211471796035767
vt 0.7795945405960083 0.37211471796035767
vt 0.9977952241897583 0.2565670609474182
vt 0.7508566975593567 0.14005601406097412
vt 0.9977952241897583 0.14005601406097412
vt 0.7795945405960083 0.003986179828643799
vt 0.9666691422462463 0.003986179828643799
vt 0.7508779168128967 0.2566131353378296
vt 0.9666917324066162 0.37218326330184937
vt 0.7796105742454529 0.37218326330184937
vt 0.997825026512146 0.2566131353378296
vt 0.7508779168128967 0.14014220237731934
vt 0.997825026512146 0.14014220237731934
vt 0.7796105742454529 0.0039841532707214355
vt 0.9666917324066162 0.0039841532707214355
vt 0.6215927600860596 0.7390341758728027
vt 0.5012063980102539 0.7390341758728027
vt 0.6215927600860596 0.5054199695587158
vt 0.6215927600860596 0.7390341758728027
vt 0.5012062191963196 0.5054199695587158
vt 0.5012062191963196 0.7390341758728027
g Geoset0
s 1
usemtl 201151
f 1/1/1 2/2/2 3/3/3
f 4/4/4 5/5/5 6/6/6
f 4/4/4 7/7/7 5/5/5
f 4/4/4 8/8/8 7/7/7
f 9/9/9 10/10/10 11/11/11
f 12/12/12 9/9/9 11/11/11
f 12/12/12 13/13/13 9/9/9
f 9/9/9 13/13/13 14/14/14
f 15/15/15 9/9/9 14/14/14
f 15/15/15 10/10/10 9/9/9
f 16/16/16 17/17/17 18/18/18
f 17/17/17 19/19/19 18/18/18
f 17/17/17 20/20/20 19/19/19
f 20/20/20 21/21/21 19/19/19
f 20/20/20 22/22/22 21/21/21
f 22/22/22 23/23/23 21/21/21
f 24/24/24 25/25/25 26/26/26
f 27/27/27 25/25/25 24/24/24
f 28/28/28 25/25/25 27/27/27
f 27/27/27 29/29/29 28/28/28
f 29/29/29 30/30/30 28/28/28
f 31/31/31 30/30/30 29/29/29
f 32/32/32 31/31/31 29/29/29
f 33/33/33 31/31/31 32/32/32
f 34/34/34 31/31/31 33/33/33
f 33/33/33 26/26/26 34/34/34
f 26/26/26 35/35/35 34/34/34
f 25/25/25 35/35/35 26/26/26
f 36/36/36 37/37/37 38/38/38
f 36/36/36 39/39/39 37/37/37
f 40/40/40 39/39/39 36/36/36
f 40/40/40 41/41/41 39/39/39
f 42/42/42 41/41/41 40/40/40
f 42/42/42 43/43/43 41/41/41
f 44/44/44 45/45/45 46/46/46
f 44/44/44 47/47/47 45/45/45
f 48/48/48 47/47/47 44/44/44
f 48/48/48 49/49/49 47/47/47
f 50/50/50 49/49/49 48/48/48
f 50/50/50 51/51/51 49/49/49
f 52/52/52 53/53/53 54/54/54
f 52/52/52 55/55/55 53/53/53
f 56/56/56 55/55/55 52/52/52
f 56/56/56 57/57/57 55/55/55
f 58/58/58 57/57/57 56/56/56
f 58/58/58 59/59/59 57/57/57
f 60/60/60 61/61/61 62/62/62
f 60/60/60 63/63/63 61/61/61
f 64/64/64 63/63/63 60/60/60
f 64/64/64 65/65/65 63/63/63
f 66/66/66 65/65/65 64/64/64
f 66/66/66 67/67/67 65/65/65
f 68/68/68 69/69/69 70/70/70
f 68/68/68 71/71/71 69/69/69
f 72/72/72 71/71/71 68/68/68
f 72/72/72 73/73/73 71/71/71
f 74/74/74 73/73/73 72/72/72
f 74/74/74 75/75/75 73/73/73
f 76/76/76 77/77/77 78/78/78
f 76/76/76 79/79/79 77/77/77
f 80/80/80 79/79/79 76/76/76
f 80/80/80 81/81/81 79/79/79
f 82/82/82 81/81/81 80/80/80
f 82/82/82 83/83/83 81/81/81
f 84/84/84 3/3/3 2/2/2
f 84/84/84 85/85/85 3/3/3
f 85/85/85 86/86/86 3/3/3
f 85/85/85 87/87/87 86/86/86
f 87/87/87 88/88/88 86/86/86
f 87/87/87 89/89/89 88/88/88