# Exported using wow.export v0.1.9
o GunShopMortarShell
mtllib gunshopmortarshell.mtl
v -0.1345132291316986 0.001834134222008288 -0.08304464817047119
v -0.1345132291316986 0.001834134222008288 0.06739260256290436
v -0.16187256574630737 0.3343196213245392 0.0831885114312172
v -0.004230745602399111 0.3343196213245392 0.1742030382156372
v -0.004230746068060398 0.0018341277027502656 0.14261122047901154
v 0.12605170905590057 0.0018341210670769215 -0.08304466307163239
v -0.004230761434882879 0.3343196511268616 -0.18985508382320404
v 0.15341101586818695 0.3343196213245392 -0.09884057193994522
v -0.004230759106576443 0.0018341277027502656 -0.15826328098773956
v 0.15341103076934814 0.3343196213245392 0.0831884890794754
v -0.004230754915624857 0.5037851929664612 -0.00782602559775114
v -0.16187256574630737 0.3343196213245392 -0.09884055703878403
v -0.00423075957223773 0.031242437660694122 -0.00782602746039629
v 0.12605172395706177 0.0018341210670769215 0.06739257276058197
vn -0.6851800084114075 -0.6964811086654663 -0.21317234635353088
vn -0.5272026658058167 -0.6964811086654663 0.4867970645427704
vn -0.8871412873268127 0.27583378553390503 0.36999472975730896
vn -0.12314577400684357 0.27583375573158264 0.9532842636108398
vn 0.15797735750675201 -0.6964811086654663 0.6999694108963013
vn 0.5272026062011719 -0.6964811086654663 -0.48679712414741516
vn 0.12314584851264954 0.27583378553390503 -0.9532842040061951
vn 0.8871412873268127 0.27583375573158264 -0.3699946999549866
vn -0.15797734260559082 -0.6964811086654663 -0.699969470500946
vn 0.7639954686164856 0.27583375573158264 0.5832895040512085
vn 2.91706641064593e-8 1 5.83413282129186e-8
vn -0.7639954686164856 0.27583378553390503 -0.5832895040512085
vn -4.710122425422014e-8 -1 5.092024135677775e-9
vn 0.6851800084114075 -0.6964811086654663 0.2131723016500473
vt 0.24801978468894958 0.6252596378326416
vt 0.1272468864917755 0.6252596378326416
vt 0.1272468864917755 0.7327545881271362
vt 0.24801990389823914 0.7327545881271362
vt 0.24801990389823914 0.6252596378326416
vt 0.24801990389823914 0.6252596378326416
vt 0.1272468864917755 0.7327545881271362
vt 0.24801990389823914 0.7327545881271362
vt 0.1272468864917755 0.6252596378326416
vt 0.1272468864917755 0.7327545881271362
vt 0.18694718182086945 0.7496790885925293
vt 0.24801978468894958 0.7327545881271362
vt 0.18694718182086945 0.7255244851112366
vt 0.1272468864917755 0.6252596378326416
g Geoset0
s 1
usemtl 201151
f 1/1/1 2/2/2 3/3/3
f 2/2/2 4/4/4 3/3/3
f 2/2/2 5/5/5 4/4/4
f 6/6/6 7/7/7 8/8/8
f 6/6/6 9/9/9 7/7/7
f 5/5/5 10/10/10 4/4/4
f 11/11/11 4/4/4 10/10/10
f 11/11/11 3/3/3 4/4/4
f 11/11/11 12/12/12 3/3/3
f 1/1/1 3/3/3 12/12/12
f 9/9/9 1/1/1 12/12/12
f 13/13/13 1/1/1 9/9/9
f 13/13/13 9/9/9 6/6/6
f 13/13/13 6/6/6 14/14/14
f 14/14/14 6/6/6 8/8/8
f 9/9/9 12/12/12 7/7/7
f 11/11/11 7/7/7 12/12/12
f 11/11/11 8/8/8 7/7/7
f 11/11/11 10/10/10 8/8/8
f 14/14/14 8/8/8 10/10/10
f 5/5/5 14/14/14 10/10/10
f 13/13/13 14/14/14 5/5/5
f 13/13/13 5/5/5 2/2/2
f 13/13/13 2/2/2 1/1/1