# Exported using wow.export v0.1.9
o BowlWood02
mtllib bowlwood02.mtl
v -0.0013388900551944971 0.026422200724482536 -0.0017000000225380063
v 0.3026390075683594 0.1776140034198761 -0.1772090047597885
v -0.0013388900551944971 0.1776140034198761 -0.3527109920978546
v -0.1382710039615631 0 0.07735250145196915
v -0.0013388900551944971 0.1776140034198761 0.3493030071258545
v -0.3053250014781952 0.1776140034198761 0.17380200326442719
v -0.0013388900551944971 0 0.15640899538993835
v -0.1382710039615631 0 -0.08076059818267822
v 0.13558900356292725 0 0.07735250145196915
v 0.13558900356292725 0 -0.08076059818267822
v -0.0013388900551944971 0 -0.15981699526309967
v -0.3053250014781952 0.1776140034198761 -0.1772090047597885
v -0.0013388900551944971 0.1776140034198761 -0.3527109920978546
v 0.3026390075683594 0.1776140034198761 -0.1772090047597885
v 0.3026390075683594 0.1776140034198761 0.17380200326442719
v 0.3026390075683594 0.1776140034198761 0.17380200326442719
v -0.0013388900551944971 0.1776140034198761 0.3493030071258545
v -0.3053250014781952 0.1776140034198761 0.17380200326442719
v -0.3053250014781952 0.1776140034198761 -0.1772090047597885
vn -2.7737498964341967e-9 1 1.664250071087281e-8
vn -0.3425939977169037 0.918425977230072 0.1977970004081726
vn 3.056980091287187e-8 0.918425977230072 0.3955940008163452
vn -0.4032909870147705 -0.8457980155944824 0.34926000237464905
vn -0.1292639970779419 -0.7294790148735046 0.6716769933700562
vn -0.6463220119476318 -0.7294790148735046 0.2238920032978058
vn 0.08111629635095596 -0.9031969904899597 0.4214920103549957
vn -0.28657200932502747 -0.9529020190238953 -0.09927140176296234
vn 0.405580997467041 -0.9031969904899597 0.14049699902534485
vn 0.3244650065898895 -0.9031969904899597 -0.2809950113296509
vn -0.10082300007343292 -0.8457980155944824 -0.5238900184631348
vn -0.5170570015907288 -0.7294790148735046 -0.44778499007225037
vn 0.1292639970779419 -0.7294790148735046 -0.6716769933700562
vn 0.6463220119476318 -0.7294790148735046 -0.22389300167560577
vn 0.5170570015907288 -0.7294790148735046 0.44778499007225037
vn -0.3425939977169037 0.918425977230072 -0.1977970004081726
vn -2.292729917030556e-8 0.918425977230072 -0.3955940008163452
vn 0.3425939977169037 0.918425977230072 -0.1977970004081726
vn 0.3425939977169037 0.918425977230072 0.1977970004081726
vt 0.46135300397872925 0.528986006975174
vt 0.7287409901618958 0.06184202432632446
vt 0.9478200078010559 0.5
vt 0.3626680076122284 0.7263540029525757
vt 0.04734890162944794 0.5
vt 0.27125900983810425 0.9381582997739315
vt 0.26398399472236633 0.528986006975174
vt 0.5600370168685913 0.7263540029525757
vt 0.3626680076122284 0.33161699771881104
vt 0.5600370168685913 0.33161699771881104
vt 0.6587210297584534 0.5289849936962128
vt 0.7287409901618958 0.9381581991910934
vt 0.9478200078010559 0.5
vt 0.7287409901618958 0.06184202432632446
vt 0.27125900983810425 0.06184202432632446
vt 0.27125900983810425 0.06184202432632446
vt 0.04734890162944794 0.5
vt 0.27125900983810425 0.9381582997739315
vt 0.7287409901618958 0.9381581991910934
g Geoset0
s 1
usemtl 199123
f 1/1/1 2/2/2 3/3/3
f 4/4/4 5/5/5 6/6/6
f 4/4/4 7/7/7 5/5/5
f 8/8/8 7/7/7 4/4/4
f 8/8/8 9/9/9 7/7/7
f 8/8/8 10/10/10 9/9/9
f 8/8/8 11/11/11 10/10/10
f 8/8/8 4/4/4 6/6/6
f 8/8/8 6/6/6 12/12/12
f 11/11/11 8/8/8 12/12/12
f 11/11/11 12/12/12 13/13/13
f 10/10/10 11/11/11 13/13/13
f 10/10/10 13/13/13 14/14/14
f 9/9/9 10/10/10 14/14/14
f 9/9/9 14/14/14 15/15/15
f 7/7/7 9/9/9 15/15/15
f 7/7/7 15/15/15 5/5/5
f 1/1/1 16/16/16 2/2/2
f 1/1/1 17/17/17 16/16/16
f 1/1/1 18/18/18 17/17/17
f 1/1/1 19/19/19 18/18/18
f 1/1/1 3/3/3 19/19/19