# Exported using wow.export v0.1.9
o Crate02
mtllib crate02.mtl
v -0.3936702311038971 0.0031507413368672132 0.590257465839386
v 0.39355432987213135 0.0031507413368672132 0.590257465839386
v -0.3936702311038971 0.0031507413368672132 -0.5883299112319946
v 0.35340967774391174 0.5033449530601501 -0.5486816167831421
v -0.35492366552352905 0.5033449530601501 -0.5486816167831421
v -0.35492366552352905 0.003344964934512973 -0.5327122807502747
v 0.35340967774391174 0.003344964934512973 -0.5327122807502747
v -0.35492366552352905 0.5033449530601501 -0.6320149898529053
v 0.35340967774391174 0.5033449530601501 -0.6320149898529053
v 0.35340967774391174 0.003344964934512973 -0.6136184334754944
v -0.35492366552352905 0.003344964934512973 -0.6136184334754944
v -0.35492366552352905 0.5033449530601501 -0.6320149898529053
v -0.35492366552352905 0.5033449530601501 -0.5486816167831421
v 0.35340967774391174 0.5033449530601501 -0.5486816167831421
v 0.35340967774391174 0.5033449530601501 -0.6320149898529053
v 0.4289231300354004 0.5033448934555054 0.7637712359428406
v 0.3455897867679596 0.5033448934555054 0.7637712955474854
v 0.3354252576828003 0.0033449355978518724 0.7415220737457275
v 0.41633138060569763 0.003344928380101919 0.7415220737457275
v 0.3455897867679596 0.5033448934555054 0.7637712955474854
v 0.3455897867679596 0.5033448934555054 -0.7640065550804138
v 0.3354252576828003 0.0033449355978518724 -0.7417572736740112
v 0.3354252576828003 0.0033449355978518724 0.7415220737457275
v 0.3455897867679596 0.5033448934555054 -0.7640065550804138
v 0.4289231300354004 0.5033448934555054 -0.764006495475769
v 0.41633138060569763 0.003344928380101919 -0.7417572736740112
v 0.3354252576828003 0.0033449355978518724 -0.7417572736740112
v 0.4289231300354004 0.5033448934555054 -0.764006495475769
v 0.4289231300354004 0.5033448934555054 0.7637712359428406
v 0.41633138060569763 0.003344928380101919 0.7415220737457275
v 0.41633138060569763 0.003344928380101919 -0.7417572736740112
v 0.3455897867679596 0.5033448934555054 -0.7640065550804138
v 0.3455897867679596 0.5033448934555054 0.7637712955474854
v 0.4289231300354004 0.5033448934555054 0.7637712359428406
v 0.4289231300354004 0.5033448934555054 -0.764006495475769
v -0.3523765206336975 0.5033450126647949 0.7637712359428406
v -0.4357098639011383 0.5033450126647949 0.7637712955474854
v -0.42311808466911316 0.00334500172175467 0.7415220737457275
v -0.3422119617462158 0.0033449947368353605 0.7415220737457275
v -0.4357098639011383 0.5033450126647949 0.7637712955474854
v -0.4357098639011383 0.5033450126647949 -0.7640065550804138
v -0.42311808466911316 0.00334500172175467 -0.7417572736740112
v -0.42311808466911316 0.00334500172175467 0.7415220737457275
v -0.4357098639011383 0.5033450126647949 -0.7640065550804138
v -0.3523765206336975 0.5033450126647949 -0.764006495475769
v -0.3422119617462158 0.0033449947368353605 -0.7417572736740112
v -0.42311808466911316 0.00334500172175467 -0.7417572736740112
v -0.3523765206336975 0.5033450126647949 -0.764006495475769
v -0.3523765206336975 0.5033450126647949 0.7637712359428406
v -0.3422119617462158 0.0033449947368353605 0.7415220737457275
v -0.3422119617462158 0.0033449947368353605 -0.7417572736740112
v -0.4357098639011383 0.5033450126647949 -0.7640065550804138
v -0.4357098639011383 0.5033450126647949 0.7637712955474854
v -0.3523765206336975 0.5033450126647949 0.7637712359428406
v -0.3523765206336975 0.5033450126647949 -0.764006495475769
v 0.35340967774391174 0.5033449530601501 0.631212055683136
v -0.35492366552352905 0.5033449530601501 0.631212055683136
v -0.35492366552352905 0.003344964934512973 0.6128155589103699
v 0.35340967774391174 0.003344964934512973 0.6128155589103699
v -0.35492366552352905 0.5033449530601501 0.5478787422180176
v 0.35340967774391174 0.5033449530601501 0.5478787422180176
v 0.35340967774391174 0.003344964934512973 0.5319094061851501
v -0.35492366552352905 0.003344964934512973 0.5319094061851501
v -0.35492366552352905 0.5033449530601501 0.5478787422180176
v -0.35492366552352905 0.5033449530601501 0.631212055683136
v 0.35340967774391174 0.5033449530601501 0.631212055683136
v 0.35340967774391174 0.5033449530601501 0.5478787422180176
v 0.39355432987213135 0.0031507413368672132 -0.5883299112319946
vn 1.6240975849336065e-15 1 0
vn 1.6240975849336065e-15 1 0
vn 1.6240977966918433e-15 1 0
vn 1.8839366014417776e-17 0.7183043956756592 0.6957289576530457
vn 0 0.7183043956756592 0.6957289576530457
vn 1.7410135227907828e-17 0.03192238137125969 0.9994903802871704
vn 4.4474933968354933e-17 0.03192238137125969 0.9994903802871704
vn -2.2457723674604412e-17 0.6939855217933655 -0.7199889421463013
vn 0 0.6939855217933655 -0.7199889421463013
vn -2.0055551471081017e-17 -0.036768194288015366 -0.999323844909668
vn -5.1226223309335135e-17 -0.036768194288015366 -0.999323844909668
vn -2.2457723674604412e-17 0.6939855217933655 -0.7199889421463013
vn 0 0.7183043956756592 0.6957289576530457
vn 1.8839366014417776e-17 0.7183043956756592 0.6957289576530457
vn 0 0.6939855217933655 -0.7199889421463013
vn 0.582794725894928 0.5590382218360901 0.5897682309150696
vn -0.5687313079833984 0.5706194639205933 0.592400312423706
vn -0.7215988636016846 -0.016128959134221077 0.692123532295227
vn 0.7107211947441101 -0.04912552982568741 0.7017564177513123
vn -0.5687313079833984 0.5706194639205933 0.592400312423706
vn -0.5687313675880432 0.5706194043159485 -0.592400312423706
vn -0.7215988636016846 -0.016128960996866226 -0.692123532295227
vn -0.7215988636016846 -0.016128959134221077 0.692123532295227
vn -0.5687313675880432 0.5706194043159485 -0.592400312423706
vn 0.582794725894928 0.5590384006500244 -0.5897680521011353
vn 0.7107210755348206 -0.04912552982568741 -0.7017565369606018
vn -0.7215988636016846 -0.016128960996866226 -0.692123532295227
vn 0.582794725894928 0.5590384006500244 -0.5897680521011353
vn 0.582794725894928 0.5590382218360901 0.5897682309150696
vn 0.7107211947441101 -0.04912552982568741 0.7017564177513123
vn 0.7107210755348206 -0.04912552982568741 -0.7017565369606018
vn -0.5687313675880432 0.5706194043159485 -0.592400312423706
vn -0.5687313079833984 0.5706194639205933 0.592400312423706
vn 0.582794725894928 0.5590382218360901 0.5897682309150696
vn 0.582794725894928 0.5590384006500244 -0.5897680521011353
vn 0.568731427192688 0.5706194639205933 0.5924001932144165
vn -0.582794725894928 0.5590384006500244 0.5897680521011353
vn -0.7107211351394653 -0.04912552982568741 0.701756477355957
vn 0.7215988636016846 -0.016128959134221077 0.6921234726905823
vn -0.582794725894928 0.5590384006500244 0.5897680521011353
vn -0.582794725894928 0.5590382218360901 -0.5897682309150696
vn -0.7107211351394653 -0.04912553355097771 -0.701756477355957
vn -0.7107211351394653 -0.04912552982568741 0.701756477355957
vn -0.582794725894928 0.5590382218360901 -0.5897682309150696
vn 0.5687313079833984 0.5706194639205933 -0.5924002528190613
vn 0.7215989232063293 -0.016128957271575928 -0.6921234726905823
vn -0.7107211351394653 -0.04912553355097771 -0.701756477355957
vn 0.5687313079833984 0.5706194639205933 -0.5924002528190613
vn 0.568731427192688 0.5706194639205933 0.5924001932144165
vn 0.7215988636016846 -0.016128959134221077 0.6921234726905823
vn 0.7215989232063293 -0.016128957271575928 -0.6921234726905823
vn -0.582794725894928 0.5590382218360901 -0.5897682309150696
vn -0.582794725894928 0.5590384006500244 0.5897680521011353
vn 0.568731427192688 0.5706194639205933 0.5924001932144165
vn 0.5687313079833984 0.5706194639205933 -0.5924002528190613
vn -2.2457723674604412e-17 0.6939855217933655 0.7199889421463013
vn 0 0.6939855217933655 0.7199889421463013
vn -2.0055551471081017e-17 -0.036768194288015366 0.999323844909668
vn -5.1226223309335135e-17 -0.036768194288015366 0.999323844909668
vn 1.883936436005655e-17 0.7183043956756592 -0.6957289576530457
vn 0 0.7183043956756592 -0.6957289576530457
vn 1.7410135227907828e-17 0.03192238137125969 -0.9994903802871704
vn 4.4474933968354933e-17 0.03192238137125969 -0.9994903802871704
vn 1.883936436005655e-17 0.7183043956756592 -0.6957289576530457
vn 0 0.6939855217933655 0.7199889421463013
vn -2.2457723674604412e-17 0.6939855217933655 0.7199889421463013
vn 0 0.7183043956756592 -0.6957289576530457
vn 1.6240975849336065e-15 1 0
vt 0.8225806355476379 1.3550000190734863
vt 0.8225806355476379 -0.35500001907348633
vt 0.17741936445236206 1.3550000190734863
vt 1 1
vt 0 1
vt 0 0
vt 1 0
vt 1 1
vt 0 1
vt 0 0
vt 1 0
vt 0.8779756426811218 0.3595975637435913
vt 0.877975583076477 0.6875523924827576
vt 0.18944096565246582 0.6875523924827576
vt 0.1894409954547882 0.35959750413894653
vt 0.5495363473892212 1
vt 0.4504636824131012 1
vt 0.4504636824131012 0
vt 0.5495363473892212 0
vt 0.8239811062812805 1
vt 0.17601890861988068 1
vt 0.17601890861988068 0
vt 0.8239811062812805 0
vt 0.5495363473892212 1
vt 0.4504636824131012 1
vt 0.4504636824131012 0
vt 0.5495363473892212 0
vt 1 1
vt 0 1
vt 0 0
vt 1 0
vt 0.8585408926010132 1
vt 0.15717676281929016 1
vt 0.15717676281929016 0.6682608723640442
vt 0.8585408926010132 0.6682608723640442
vt 0.5495363473892212 1
vt 0.4504636824131012 1
vt 0.4504636824131012 0
vt 0.5495363473892212 0
vt 1 1
vt 0 1
vt 0 0
vt 1 0
vt 0.5495363473892212 1
vt 0.4504636824131012 1
vt 0.4504636824131012 0
vt 0.5495363473892212 0
vt 0.8178640007972717 1
vt 0.18213602900505066 1
vt 0.18213602900505066 0
vt 0.8178640007972717 0
vt 0.8585408926010132 1
vt 0.15717676281929016 1
vt 0.15717676281929016 0.6682608723640442
vt 0.8585408926010132 0.6682608723640442
vt 1 1
vt 0 1
vt 0 0
vt 1 0
vt 1 1
vt 0 1
vt 0 0
vt 1 0
vt 0.8779756426811218 0.3595975637435913
vt 0.877975583076477 0.6875523924827576
vt 0.18944096565246582 0.6875523924827576
vt 0.1894409954547882 0.35959750413894653
vt 0.17741936445236206 -0.35500001907348633
g Geoset0
s 1
usemtl 193018
f 1/1/1 2/2/2 3/3/3
f 4/4/4 5/5/5 6/6/6
f 6/6/6 7/7/7 4/4/4
f 8/8/8 9/9/9 10/10/10
f 10/10/10 11/11/11 8/8/8
f 12/12/12 13/13/13 14/14/14
f 14/14/14 15/15/15 12/12/12
f 16/16/16 17/17/17 18/18/18
f 18/18/18 19/19/19 16/16/16
f 20/20/20 21/21/21 22/22/22
f 22/22/22 23/23/23 20/20/20
f 24/24/24 25/25/25 26/26/26
f 26/26/26 27/27/27 24/24/24
f 28/28/28 29/29/29 30/30/30
f 30/30/30 31/31/31 28/28/28
f 32/32/32 33/33/33 34/34/34
f 34/34/34 35/35/35 32/32/32
f 36/36/36 37/37/37 38/38/38
f 38/38/38 39/39/39 36/36/36
f 40/40/40 41/41/41 42/42/42
f 42/42/42 43/43/43 40/40/40
f 44/44/44 45/45/45 46/46/46
f 46/46/46 47/47/47 44/44/44
f 48/48/48 49/49/49 50/50/50
f 50/50/50 51/51/51 48/48/48
f 52/52/52 53/53/53 54/54/54
f 54/54/54 55/55/55 52/52/52
f 56/56/56 57/57/57 58/58/58
f 58/58/58 59/59/59 56/56/56
f 60/60/60 61/61/61 62/62/62
f 62/62/62 63/63/63 60/60/60
f 64/64/64 65/65/65 66/66/66
f 66/66/66 67/67/67 64/64/64
f 68/68/68 3/3/3 2/2/2