# Exported using wow.export v0.1.9
o SwampSorrowPlant01
mtllib swampsorrowplant01.mtl
v -0.053829509764909744 3.0339272022247314 0.003953392151743174
v 0.40162238478660583 0.831135094165802 0.69686359167099
v 0.6778786778450012 0.8311350345611572 -0.015008472837507725
v 0.40162238478660583 0.831135094165802 0.69686359167099
v -0.053829509764909744 3.0339272022247314 0.003953392151743174
v -0.31238260865211487 0.8311350345611572 0.6519364714622498
v -0.24345554411411285 -0.40420612692832947 0.7325111031532288
v 1.1770309209823608 -0.406463086605072 1.9602991342544556
v 0.7037107944488525 -0.40420618653297424 0.04479432851076126
v 0.38832029700279236 0.831135094165802 -0.5639377236366272
v 1.2150954008102417 -0.406463086605072 -2.021533250808716
v -0.31278178095817566 -0.40420612692832947 -0.5811082124710083
v 0.6778786778450012 0.8311350345611572 -0.015008472837507725
v -0.3953748047351837 0.8311350345611572 -0.48501089215278625
v -0.8962960839271545 0.831135094165802 0.05217890813946724
v -2.4948041439056396 -0.4064629375934601 0.006405544001609087
v 0.1181512400507927 2.5350050926208496 0.26156046986579895
v -0.43886637687683105 3.5650970935821533 0.7361642122268677
v -0.10783211141824722 2.0641345977783203 0.18951137363910675
v -0.05875985696911812 3.115280866622925 -0.006210166960954666
v 0.7162442207336426 3.5650970935821533 0.003953604493290186
v -0.3597925007343292 2.5350050926208496 0.0009101832401938736
v 0.08691654354333878 2.5350050926208496 -0.2621646821498871
v -0.19853219389915466 2.3394837379455566 -0.22363008558750153
v -0.5573210120201111 3.5650970935821533 -0.6105180382728577
v 0.3073922097682953 2.182141065597534 0.024529749527573586
v 0.1181512400507927 2.5350050926208496 0.26156046986579895
v 0.4126155972480774 2.4196226596832275 0.9194037318229675
v 0.3073922097682953 2.182141065597534 0.024529749527573586
v -0.09866718202829361 1.4980319738388062 0.002387817483395338
v 0.7097024321556091 2.576964855194092 -0.683533787727356
v -0.10783211141824722 2.0641345977783203 0.18951137363910675
v -0.3597925007343292 2.5350050926208496 0.0009101832401938736
v -0.19853219389915466 2.3394837379455566 -0.22363008558750153
v -1.0806374549865723 2.222944974899292 -0.03190329670906067
v 0.08691654354333878 2.5350050926208496 -0.2621646821498871
v -0.24345554411411285 -0.40420612692832947 0.7325111031532288
v -0.31238260865211487 0.8311350345611572 0.6519364714622498
v -0.8962960839271545 0.831135094165802 0.05217890813946724
v -0.3953748047351837 0.8311350345611572 -0.48501089215278625
v 0.38832029700279236 0.831135094165802 -0.5639377236366272
v -0.31278178095817566 -0.40420612692832947 -0.5811082124710083
v 0.7037107944488525 -0.40420618653297424 0.04479432851076126
v 0.760537326335907 0.16431768238544464 1.6022382974624634
v 1.2188760042190552 1.4820475578308105 0.9191069006919861
v 0.8512501120567322 1.6026939153671265 1.780272126197815
v -0.5953312516212463 3.7330873012542725 1.025424599647522
v 0.1743849813938141 3.021132707595825 1.3742246627807617
v -0.19019947946071625 3.454141139984131 0.3054601550102234
v -0.9473291039466858 2.8465828895568848 1.592942714691162
v 0.042539652436971664 2.4516217708587646 1.59976327419281
v -1.3230068683624268 3.021132707595825 0.5279608368873596
v -1.4548518657684326 2.4516217708587646 0.7534996271133423
v -1.035050630569458 1.112945318222046 1.7659614086151123
v -0.6829954385757446 3.7330873012542725 -0.7894161939620972
v -1.341293454170227 3.021132707595825 -0.30991244316101074
v -0.25801798701286316 3.454141139984131 -0.21332968771457672
v -1.1780455112457275 2.9645895957946777 -1.4456279277801514
v -1.532025933265686 2.4122862815856934 -0.5751457810401917
v 0.018608324229717255 3.021132707595825 -1.3044713735580444
v -0.1721244603395462 2.4122862815856934 -1.569704294204712
v -1.306946039199829 1.0736099481582642 -1.6174266338348389
v 2.0085179805755615 2.649905204772949 0.003953392151743174
v 0.9084619879722595 3.021132707595825 -0.8423105478286743
v 1.1471806764602661 3.7330873012542725 0.003953392151743174
v 1.4081662893295288 2.333615303039551 -0.8423105478286743
v 2.1446263790130615 0.7589254975318909 0.003953392151743174
v 0.21891048550605774 3.454141139984131 0.003953392151743174
v 0.9477975964546204 3.021132707595825 0.8502172231674194
v 1.4475017786026 2.333615303039551 0.8502172231674194
v -1.5668246746063232 2.206517457962036 -0.048881541937589645
v -1.083696722984314 1.7671949863433838 0.6805008053779602
v -0.6749247908592224 2.361035108566284 -0.017735712230205536
v -1.4091182947158813 1.2853695154190063 0.6691369414329529
v -2.046224355697632 1.4060159921646118 -0.06562254577875137
v -1.042130470275879 1.7671949863433838 -0.7851529121398926
v -1.3675516843795776 1.2853695154190063 -0.7965168952941895
v -1.8465341329574585 0.28232404589653015 -0.0586492158472538
v 1.2029215097427368 2.1212151050567627 -0.13744309544563293
v 1.071230173110962 2.560537815093994 -1.0090551376342773
v 0.40801557898521423 2.715055227279663 -0.4118938744068146
v 1.4449042081832886 1.639390230178833 -0.35532519221305847
v 1.427710771560669 1.7600363492965698 -1.3300315141677856
v 1.279221534729004 0.04631110280752182 -1.196331262588501
v 0.4119358956813812 1.639390230178833 -1.437111258506775
v 0.16995322704315186 2.1212151050567627 -1.2192288637161255
v 0.6334745287895203 2.40319561958313 1.3528635501861572
v 1.0710475444793701 1.9638729095458984 0.6289775967597961
v 0.22831368446350098 2.557713031768799 0.5576906800270081
v -0.2261815071105957 1.9638729095458984 1.2090296745300293
v -0.07835328578948975 1.4820475578308105 1.4991587400436401
vn -0.006713499315083027 0.9996655583381653 -0.024973567575216293
vn 0.5069265961647034 0.3550885021686554 0.785453736782074
vn 0.9848012924194336 0.1619892120361328 -0.06265735626220703
vn 0.5069265961647034 0.3550885021686554 0.785453736782074
vn -0.006713499315083027 0.9996655583381653 -0.024973567575216293
vn -0.4191010296344757 0.16467437148094177 0.8928810954093933
vn -0.46597254276275635 0.25043922662734985 0.8486164212226868
vn 0.3351764976978302 0.767645537853241 0.5462390184402466
vn 0.9656240344047546 0.2599424719810486 -0.00041077128844335675
vn 0.46196645498275757 0.3402133584022522 -0.8190493583679199
vn 0.29782113432884216 0.8043938279151917 -0.514055609703064
vn -0.4567643105983734 0.27033916115760803 -0.8475158214569092
vn 0.9848012924194336 0.1619892120361328 -0.06265735626220703
vn -0.45278969407081604 0.14578768610954285 -0.8796178102493286
vn -0.9205501079559326 0.39039701223373413 0.013331511989235878
vn -0.611831784248352 0.7908333539962769 -0.01563330739736557
vn 0.42383769154548645 0.2326270192861557 0.8753549456596375
vn -0.29630380868911743 0.7711272239685059 0.5635307431221008
vn -0.5513380765914917 -0.14469842612743378 0.8216378092765808
vn 0.01571216620504856 0.9989228248596191 -0.04366156831383705
vn 0.5855099558830261 0.8106617331504822 0.0023675146512687206
vn -0.9814858436584473 0.1561097353696823 0.11097434908151627
vn 0.21303462982177734 0.4327161908149719 -0.8759982585906982
vn -0.37409788370132446 -0.12090035527944565 -0.9194747805595398
vn -0.40332505106925964 0.7826747298240662 -0.47407716512680054
vn 0.9681299924850464 -0.20572897791862488 0.14282828569412231
vn 0.42383769154548645 0.2326270192861557 0.8753549456596375
vn 0.3659970760345459 0.2846311032772064 0.8860198855400085
vn 0.9681299924850464 -0.20572897791862488 0.14282828569412231
vn -0.06112193688750267 -0.9974244236946106 -0.037531670182943344
vn 0.6855446100234985 0.4076400101184845 -0.6032066345214844
vn -0.5513380765914917 -0.14469842612743378 0.8216378092765808
vn -0.9814858436584473 0.1561097353696823 0.11097434908151627
vn -0.37409788370132446 -0.12090035527944565 -0.9194747805595398
vn -0.9970333576202393 0.0756593644618988 -0.014147394336760044
vn 0.21303462982177734 0.4327161908149719 -0.8759982585906982
vn -0.46597254276275635 0.25043922662734985 0.8486164212226868
vn -0.4191010296344757 0.16467437148094177 0.8928810954093933
vn -0.9205501079559326 0.39039701223373413 0.013331511989235878
vn -0.45278969407081604 0.14578768610954285 -0.8796178102493286
vn 0.46196645498275757 0.3402133584022522 -0.8190493583679199
vn -0.4567643105983734 0.27033916115760803 -0.8475158214569092
vn 0.9656240344047546 0.2599424719810486 -0.00041077128844335675
vn 0.4055536389350891 -0.13742907345294952 0.9036810994148254
vn 0.9128152132034302 0.2195976823568344 0.34430405497550964
vn 0.415294885635376 0.20146483182907104 0.8870975375175476
vn -0.1188971996307373 0.9648821353912354 0.23423480987548828
vn 0.28436896204948425 0.5714718699455261 0.7697754502296448
vn 0.16207346320152283 0.9474304914474487 -0.27587607502937317
vn -0.4635341465473175 0.36182886362075806 0.8088361620903015
vn 0.0839855819940567 0.22724312543869019 0.9702097773551941
vn -0.7988470196723938 0.5819811224937439 0.15212281048297882
vn -0.8770254850387573 0.22691382467746735 0.423481285572052
vn -0.4881019592285156 0.11109434813261032 0.8656873106956482
vn -0.10357603430747986 0.9874302744865417 -0.11938786506652832
vn -0.8056440353393555 0.5914366841316223 0.03376973420381546
vn 0.20749293267726898 0.9317166805267334 0.2980784475803375
vn -0.5470430254936218 0.4424704611301422 -0.7106080651283264
vn -0.9442366361618042 0.22219812870025635 -0.24299222230911255
vn 0.2356898933649063 0.604871928691864 -0.7606446146965027
vn 0.009781557135283947 0.23610520362854004 -0.9716782569885254
vn -0.5914121866226196 0.11285320669412613 -0.7984333634376526
vn 0.929955005645752 0.36746907234191895 -0.012252887710928917
vn 0.4036521315574646 0.6306782364845276 -0.6628046035766602
vn 0.29801270365715027 0.9545565247535706 -0.003208208829164505
vn 0.7240182161331177 0.29456451535224915 -0.6237221956253052
vn 0.9971974492073059 0.071775883436203 -0.021104827523231506
vn -0.28778550028800964 0.9576855897903442 -0.004219807684421539
vn 0.41726604104042053 0.634418785572052 0.6506933569908142
vn 0.7406561374664307 0.297770231962204 0.6022967100143433
vn -0.5887542963027954 0.8082875609397888 -0.006294309161603451
vn -0.478108674287796 0.5756083726882935 0.663390576839447
vn -0.17089927196502686 0.9852709174156189 0.0058897072449326515
vn -0.7098687291145325 0.2191978245973587 0.6693569421768188
vn -0.9833306074142456 0.18085986375808716 -0.018723448738455772
vn -0.45018067955970764 0.5882312655448914 -0.6718045473098755
vn -0.684558093547821 0.22836622595787048 -0.6922637820243835
vn -0.9842894673347473 -0.17505984008312225 -0.022985560819506645
vn 0.7911438941955566 0.5858361124992371 0.17574813961982727
vn 0.43623390793800354 0.8082009553909302 -0.39561498165130615
vn 0.11920571327209473 0.9852770566940308 -0.12255246192216873
vn 0.9756036996841431 0.21836581826210022 0.02266627736389637
vn 0.7222706079483032 0.2068147361278534 -0.6599642634391785
vn 0.7204288840293884 -0.1157710924744606 -0.6837977170944214
vn 0.06382027268409729 0.21971331536769867 -0.9734747409820557
vn -0.09704871475696564 0.5844885110855103 -0.805577278137207
vn 0.24559134244918823 0.8079391717910767 0.5356483459472656
vn 0.7991188764572144 0.5877454280853271 0.12635011970996857
vn 0.04936894029378891 0.9848518967628479 0.16622106730937958
vn -0.3958776891231537 0.567031979560852 0.7223265171051025
vn -0.3088775873184204 0.2290736436843872 0.923103392124176
vt 0.9921259880065918 0.9921259880065918
vt 0.5354330539703369 0.5196850299835205
vt 0.9921259880065918 0.5196850299835205
vt 0.4645669162273407 0.5196850299835205
vt 0.007874015718698502 0.9921259880065918
vt 0.007874015718698502 0.5196850299835205
vt 0.007874015718698502 0.007874011993408203
vt 0.9921259880065918 0.007874011993408203
vt 0.007874015718698502 0.007874011993408203
vt 0.4645669162273407 0.5196850299835205
vt 0.9921259880065918 0.007874011993408203
vt 0.007874015718698502 0.007874011993408203
vt 0.007874015718698502 0.5196850299835205
vt 0.007874015718698502 0.5196850299835205
vt 0.4645669162273407 0.5196850299835205
vt 0.9921259880065918 0.007874011993408203
vt 0.5039370059967041 0.9921259880065918
vt 0.5039370059967041 0.5196850299835205
vt 0.06299212574958801 0.9921259880065918
vt 0.9370078444480896 0.9921259880065918
vt 0.5039370059967041 0.5196850299835205
vt 0.5039370059967041 0.9921259880065918
vt 0.5039370059967041 0.9921259880065918
vt 0.06299212574958801 0.9921259880065918
vt 0.5039370059967041 0.5196850299835205
vt 0.06299212574958801 0.9921259880065918
vt 0.9370078444480896 0.9921259880065918
vt 0.5039370059967041 0.5196850299835205
vt 0.5039370059967041 0.9921259880065918
vt 0.06299212574958801 0.9921259880065918
vt 0.5039370059967041 0.5196850299835205
vt 0.5039370059967041 0.9921259880065918
vt 0.9370078444480896 0.9921259880065918
vt 0.5039370059967041 0.9921259880065918
vt 0.5039370059967041 0.5196850299835205
vt 0.9370078444480896 0.9921259880065918
vt 0.9921259880065918 0.007874011993408203
vt 0.9921259880065918 0.5196850299835205
vt 0.5354330539703369 0.5196850299835205
vt 0.9921259880065918 0.5196850299835205
vt 0.5354330539703369 0.5196850299835205
vt 0.9921259880065918 0.007874011993408203
vt 0.9921259880065918 0.007874011993408203
vt 0.9682539701461792 -0.11372554302215576
vt -0.002811223268508911 0.37217748165130615
vt 0.9682539701461792 0.3529411554336548
vt 0.9682539701461792 0.7764706015586853
vt -0.11736857891082764 0.7320770621299744
vt 0.9682539701461792 1.0784313678741455
vt 0.9682539701461792 0.41960787773132324
vt -0.10371643304824829 0.40810495615005493
vt -0.11791378259658813 0.7345125079154968
vt -0.10426148772239685 0.40570956468582153
vt 0.9682539701461792 -0.06666672229766846
vt 0.9682539701461792 0.7647058963775635
vt -0.16578108072280884 0.7156705856323242
vt 0.9682539701461792 1.0549019575119019
vt 0.9682539701461792 0.4745098352432251
vt -0.1846323013305664 0.45780670642852783
vt -0.17317324876785278 0.7166791558265686
vt -0.18412995338439941 0.46123063564300537
vt 0.9682539701461792 -0.09803926944732666
vt 0.9682539701461792 0.3372548818588257
vt 0.0443001389503479 0.7987810969352722
vt 0.9682539701461792 0.8156862854957581
vt -0.02339392900466919 0.37749600410461426
vt 0.9682539701461792 -0.11764705181121826
vt 0.9682539701461792 1.0784313678741455
vt 0.0425373911857605 0.7972349524497986
vt -0.023183107376098633 0.37836533784866333
vt 0.9682539701461792 0.7450980544090271
vt -0.07405966520309448 0.7435814142227173
vt 0.9682539701461792 1.08627450466156
vt -0.020827114582061768 0.3623688220977783
vt 0.9682539701461792 0.40784311294555664
vt -0.07449561357498169 0.743341326713562
vt -0.021263152360916138 0.36454421281814575
vt 0.9682539701461792 -0.08235299587249756
vt -0.005135100334882736 0.7656999230384827
vt 0.9682539701461792 0.8549019694328308
vt 0.9682539701461792 1.0509804487228394
vt 0.004027993883937597 0.3222401738166809
vt 0.9682539701461792 0.4627450704574585
vt 0.9682539701461792 -0.050980448722839355
vt 0.0024639293551445007 0.3230372667312622
vt -0.0029715895652770996 0.7644842267036438
vt 0.9682539701461792 0.7137255072593689
vt -0.01095937192440033 0.7678563594818115
vt 0.9682539701461792 1.0627450942993164
vt -0.011595591902732849 0.7691553235054016
vt -0.0034475326538085938 0.37347662448883057
g Geoset0
s 1
usemtl 190371
f 1/1/1 2/2/2 3/3/3
f 4/4/4 5/5/5 6/6/6
f 7/7/7 4/4/4 6/6/6
f 8/8/8 4/4/4 7/7/7
f 4/4/4 8/8/8 9/9/9
f 10/10/10 11/11/11 12/12/12
f 10/10/10 9/9/9 11/11/11
f 10/10/10 13/13/13 9/9/9
f 5/5/5 13/13/13 10/10/10
f 5/5/5 14/14/14 15/15/15
f 15/15/15 14/14/14 12/12/12
f 16/16/16 15/15/15 12/12/12
f 7/7/7 15/15/15 16/16/16
f 17/17/17 18/18/18 19/19/19
f 20/20/20 17/17/17 21/21/21
f 20/20/20 18/18/18 17/17/17
f 20/20/20 22/22/22 18/18/18
f 22/22/22 19/19/19 18/18/18
f 23/23/23 24/24/24 25/25/25
f 22/22/22 25/25/25 24/24/24
f 20/20/20 25/25/25 22/22/22
f 20/20/20 23/23/23 25/25/25
f 20/20/20 21/21/21 23/23/23
f 23/23/23 21/21/21 26/26/26
f 17/17/17 26/26/26 21/21/21
f 27/27/27 28/28/28 29/29/29
f 29/29/29 30/30/30 31/31/31
f 29/29/29 28/28/28 30/30/30
f 32/32/32 30/30/30 28/28/28
f 27/27/27 32/32/32 28/28/28
f 33/33/33 34/34/34 35/35/35
f 33/33/33 35/35/35 32/32/32
f 32/32/32 35/35/35 30/30/30
f 34/34/34 30/30/30 35/35/35
f 34/34/34 31/31/31 30/30/30
f 36/36/36 31/31/31 34/34/34
f 36/36/36 29/29/29 31/31/31
f 37/37/37 38/38/38 39/39/39
f 38/38/38 1/1/1 39/39/39
f 40/40/40 41/41/41 42/42/42
f 1/1/1 41/41/41 40/40/40
f 3/3/3 2/2/2 43/43/43
g Geoset1
s 1
usemtl 190370
f 44/44/44 45/45/45 46/46/46
f 47/47/47 48/48/48 49/49/49
f 50/50/50 51/51/51 48/48/48
f 48/48/48 47/47/47 50/50/50
f 50/50/50 47/47/47 52/52/52
f 52/52/52 47/47/47 49/49/49
f 52/52/52 53/53/53 50/50/50
f 54/54/54 50/50/50 53/53/53
f 54/54/54 51/51/51 50/50/50
f 55/55/55 56/56/56 57/57/57
f 58/58/58 59/59/59 56/56/56
f 56/56/56 55/55/55 58/58/58
f 58/58/58 55/55/55 60/60/60
f 60/60/60 55/55/55 57/57/57
f 60/60/60 61/61/61 58/58/58
f 62/62/62 58/58/58 61/61/61
f 62/62/62 59/59/59 58/58/58
f 63/63/63 64/64/64 65/65/65
f 63/63/63 66/66/66 64/64/64
f 67/67/67 66/66/66 63/63/63
f 65/65/65 64/64/64 68/68/68
f 69/69/69 65/65/65 68/68/68
f 63/63/63 65/65/65 69/69/69
f 69/69/69 70/70/70 63/63/63
f 67/67/67 63/63/63 70/70/70
f 71/71/71 72/72/72 73/73/73
f 74/74/74 72/72/72 71/71/71
f 71/71/71 75/75/75 74/74/74
f 76/76/76 71/71/71 73/73/73
f 77/77/77 71/71/71 76/76/76
f 77/77/77 75/75/75 71/71/71
f 78/78/78 75/75/75 77/77/77
f 78/78/78 74/74/74 75/75/75
f 79/79/79 80/80/80 81/81/81
f 82/82/82 80/80/80 79/79/79
f 82/82/82 83/83/83 80/80/80
f 84/84/84 83/83/83 82/82/82
f 84/84/84 85/85/85 83/83/83
f 80/80/80 83/83/83 85/85/85
f 85/85/85 86/86/86 80/80/80
f 80/80/80 86/86/86 81/81/81
f 87/87/87 88/88/88 89/89/89
f 90/90/90 87/87/87 89/89/89
f 45/45/45 88/88/88 87/87/87
f 87/87/87 46/46/46 45/45/45
f 46/46/46 87/87/87 90/90/90
f 90/90/90 91/91/91 46/46/46
f 44/44/44 46/46/46 91/91/91