# Exported using wow.export v0.1.9
o SwampSorrowRoot02
mtllib swampsorrowroot02.mtl
v 1.0837188959121704 -0.48385441303253174 -0.8644989728927612
v 1.6863683462142944 -0.48385441303253174 -0.4425193667411804
v 1.900708794593811 0.4683188498020172 -0.8681513667106628
v 2.0732064247131348 1.399118423461914 -1.3144221305847168
v 1.9166818857192993 1.4286229610443115 -1.4191515445709229
v 1.7674957513809204 2.1868250370025635 -1.1281753778457642
v 2.3376781940460205 0.38197505474090576 -1.4917172193527222
v 1.9776363372802734 0.4220614731311798 -1.7474387884140015
v 2.4172585010528564 -0.48385441303253174 -1.4863383769989014
v 1.8146089315414429 -0.48385441303253174 -1.9083184003829956
v -0.4033154547214508 2.551095485687256 0.0514369010925293
v 2.740482614171924e-7 2.623189926147461 0.2730354070663452
v 0.4361601173877716 4.625498294830322 -0.6195228695869446
v -0.7576584815979004 0.6913744807243347 0.26896417140960693
v -0.06812188774347305 0.7639310359954834 0.6732613444328308
v -0.8919966220855713 -0.8757766485214233 0.35824498534202576
v 0.26121610403060913 -0.8757766485214233 1.0240532159805298
v 0.40331554412841797 2.4069063663482666 -0.39175936579704285
v 2.9405109103208815e-7 2.3348114490509033 -0.6133577823638916
v 0.4361601173877716 4.625498294830322 -0.6195228695869446
v 0.6214145421981812 0.9202151894569397 -0.520031213760376
v -0.06812171638011932 0.8476566672325134 -0.924328088760376
v 1.4144283533096313 -0.8757766485214233 -0.9733697175979614
v 0.26121583580970764 -0.8757766485214233 -1.6391773223876953
v -0.8919968008995056 -0.8757766485214233 -0.973369836807251
v -0.8919966220855713 -0.8757766485214233 0.35824498534202576
v -0.7576584815979004 0.6913744807243347 0.26896417140960693
v -0.7576584815979004 0.7332380414009094 -0.5298303961753845
v -0.4033154547214508 2.551095485687256 0.0514369010925293
v -0.40331533551216125 2.4069063663482666 -0.3917596936225891
v 2.9405109103208815e-7 2.3348114490509033 -0.6133577823638916
v -0.06812171638011932 0.8476566672325134 -0.924328088760376
v 0.26121583580970764 -0.8757766485214233 -1.6391773223876953
v 2.740482614171924e-7 2.623189926147461 0.2730354070663452
v 0.40331581234931946 2.551095724105835 0.05143722519278526
v -0.06812188774347305 0.7639310359954834 0.6732613444328308
v 0.6214146614074707 0.8783524036407471 0.27876344323158264
v 0.26121610403060913 -0.8757766485214233 1.0240532159805298
v 1.414428472518921 -0.8757766485214233 0.358245313167572
v 0.40331554412841797 2.4069063663482666 -0.39175936579704285
v 0.6214145421981812 0.9202151894569397 -0.520031213760376
v 1.4144283533096313 -0.8757766485214233 -0.9733697175979614
v 1.7443493604660034 1.3991186618804932 -1.343193531036377
v 1.728541374206543 1.3401093482971191 -1.1625057458877563
v 1.7674957513809204 2.1868250370025635 -1.1281753778457642
v 1.5791306495666504 0.4852777123451233 -1.5635162591934204
v 1.5406668186187744 0.5084064602851868 -1.1238726377487183
v 1.1478391885757446 -0.48385441303253174 -1.5973984003067017
v 1.0837188959121704 -0.48385441303253174 -0.8644989728927612
v 1.9166818857192993 1.4286229610443115 -1.4191515445709229
v 1.9776363372802734 0.4220614731311798 -1.7474387884140015
v 1.8146089315414429 -0.48385441303253174 -1.9083184003829956
v 2.353137969970703 -0.48385441303253174 -0.7534391283988953
v 2.4172585010528564 -0.48385441303253174 -1.4863383769989014
v 2.3376781940460205 0.38197505474090576 -1.4917172193527222
v 2.2992146015167236 0.4051040709018707 -1.05207359790802
v 2.0732064247131348 1.399118423461914 -1.3144221305847168
v 2.0573980808258057 1.3401093482971191 -1.1337344646453857
v 1.8850656747817993 1.310604453086853 -1.0577763319015503
v 1.900708794593811 0.4683188498020172 -0.8681513667106628
v 1.6863683462142944 -0.48385441303253174 -0.4425193667411804
v 1.728541374206543 1.3401093482971191 -1.1625057458877563
v 1.8850656747817993 1.310604453086853 -1.0577763319015503
v 1.5406668186187744 0.5084064602851868 -1.1238726377487183
v 1.76749587059021 2.1868247985839844 -1.1281753778457642
v 0.40331557393074036 2.4069066047668457 -0.39175936579704285
v 1.7285411357879639 1.34010910987854 -1.1625057458877563
v 1.4582546949386597 2.536839723587036 -1.0100260972976685
v 0.9823068976402283 3.2854158878326416 -0.8111284971237183
v 0.43616026639938354 4.625497817993164 -0.6195228695869446
v 0.6214144825935364 0.9202153086662292 -0.520031213760376
v 1.5406666994094849 0.5084061026573181 -1.1238725185394287
vn -0.7107624411582947 0.4698144197463989 0.5235371589660645
vn 0.12162911146879196 0.388112336397171 0.913550853729248
vn -0.061981987208127975 0.3286498486995697 0.9424157738685608
vn 0.9078934192657471 0.3398778736591339 -0.2453824281692505
vn 0.19660203158855438 0.33684101700782776 -0.9208071231842041
vn -0.09107090532779694 0.9700385332107544 0.22523605823516846
vn 0.8937764167785645 0.19756780564785004 -0.4026545286178589
vn 0.1078098937869072 0.21896179020404816 -0.9697591066360474
vn 0.8100487589836121 0.06880821287631989 -0.5823112726211548
vn -0.08204642683267593 0.182421013712883 -0.9797912836074829
vn -0.8905448913574219 0.31615471839904785 0.3270719051361084
vn -0.1163964495062828 0.2908613979816437 0.9496586322784424
vn 0.09455583244562149 0.9612917304039001 -0.2587999701499939
vn -0.8585613965988159 0.16055724024772644 0.4869227111339569
vn -0.021670501679182053 0.18980266153812408 0.9815830588340759
vn -0.7557802200317383 0.09890366345643997 0.647313117980957
vn 0.16104942560195923 0.23024845123291016 0.9597128629684448
vn 0.9094975590705872 0.0695776492357254 -0.4098452925682068
vn 0.11900119483470917 0.11182115226984024 -0.9865772724151611
vn 0.09455583244562149 0.9612917304039001 -0.2587999701499939
vn 0.8119366765022278 0.3209056556224823 -0.48762524127960205
vn -0.017253998667001724 0.303479939699173 -0.9526816010475159
vn 0.6683698892593384 0.44983750581741333 -0.5923916697502136
vn -0.20145376026630402 0.3474253714084625 -0.9158121943473816
vn -0.9350878000259399 0.16532814502716064 -0.3134923577308655
vn -0.7557802200317383 0.09890366345643997 0.647313117980957
vn -0.8585613965988159 0.16055724024772644 0.4869227111339569
vn -0.8458893299102783 0.22276130318641663 -0.484611839056015
vn -0.8905448913574219 0.31615471839904785 0.3270719051361084
vn -0.7478634119033813 0.22927367687225342 -0.6230039596557617
vn 0.11900119483470917 0.11182115226984024 -0.9865772724151611
vn -0.017253998667001724 0.303479939699173 -0.9526816010475159
vn -0.20145376026630402 0.3474253714084625 -0.9158121943473816
vn -0.1163964495062828 0.2908613979816437 0.9496586322784424
vn 0.7981703281402588 0.1645686775445938 0.5795181393623352
vn -0.021670501679182053 0.18980266153812408 0.9815830588340759
vn 0.8281242251396179 0.26822003722190857 0.49220752716064453
vn 0.16104942560195923 0.23024845123291016 0.9597128629684448
vn 0.8592821359634399 0.39936140179634094 0.3196008503437042
vn 0.9094975590705872 0.0695776492357254 -0.4098452925682068
vn 0.8119366765022278 0.3209056556224823 -0.48762524127960205
vn 0.6683698892593384 0.44983750581741333 -0.5923916697502136
vn -0.7398761510848999 0.2360069751739502 -0.6299872994422913
vn -0.9305761456489563 0.137813001871109 0.3391689956188202
vn -0.09107090532779694 0.9700385332107544 0.22523605823516846
vn -0.7754020690917969 0.2949610948562622 -0.5583454370498657
vn -0.8443463444709778 0.3434615135192871 0.411234050989151
vn -0.8342040777206421 0.3816004693508148 -0.3981013000011444
vn -0.7107624411582947 0.4698144197463989 0.5235371589660645
vn 0.19660203158855438 0.33684101700782776 -0.9208071231842041
vn 0.1078098937869072 0.21896179020404816 -0.9697591066360474
vn -0.08204642683267593 0.182421013712883 -0.9797912836074829
vn 0.9020686149597168 0.18639105558395386 0.3892693519592285
vn 0.8100487589836121 0.06880821287631989 -0.5823112726211548
vn 0.8937764167785645 0.19756780564785004 -0.4026545286178589
vn 0.7924432158470154 0.2598736584186554 0.5518146753311157
vn 0.9078934192657471 0.3398778736591339 -0.2453824281692505
vn 0.685965359210968 0.24709469079971313 0.6843944191932678
vn -0.20198750495910645 0.1482447236776352 0.9681035876274109
vn -0.061981987208127975 0.3286498486995697 0.9424157738685608
vn 0.12162911146879196 0.388112336397171 0.913550853729248
vn -0.9305761456489563 0.137813001871109 0.3391689956188202
vn -0.20198750495910645 0.1482447236776352 0.9681035876274109
vn -0.8443463444709778 0.3434615135192871 0.411234050989151
vn 0.47980666160583496 0.041609082370996475 0.8763870596885681
vn 0.496158242225647 0.03261207044124603 0.8676193952560425
vn 0.46505722403526306 -0.060397010296583176 0.883217990398407
vn 0.4920078217983246 0.11292030662298203 0.8632365465164185
vn 0.4985020160675049 0.08336078375577927 0.8628712296485901
vn 0.5011027455329895 0.08103302866220474 0.8615855574607849
vn 0.5518181324005127 0.009001890197396278 0.8339158892631531
vn 0.5084193348884583 -0.02731688693165779 0.8606762290000916
vt 0.003921568859368563 0.011764705181121826
vt 0.24705882370471954 0.011764705181121826
vt 0.24705882370471954 0.29803919792175293
vt 0.24705882370471954 0.615686297416687
vt 0.003921568859368563 0.615686297416687
vt 0.12498679757118225 0.9921568632125854
vt 0.24705882370471954 0.29803919792175293
vt 0.003921568859368563 0.29803919792175293
vt 0.24705882370471954 0.011764705181121826
vt 0.003921568859368563 0.011764705181121826
vt 0.24705882370471954 0.615686297416687
vt 0.003921568859368563 0.615686297416687
vt 0.12498679757118225 0.9921568632125854
vt 0.24705882370471954 0.29803919792175293
vt 0.003921568859368563 0.29803919792175293
vt 0.24705882370471954 0.011764705181121826
vt 0.003921568859368563 0.011764705181121826
vt 0.003921568859368563 0.615686297416687
vt 0.24705882370471954 0.615686297416687
vt 0.12599360942840576 0.9921568632125854
vt 0.003921568859368563 0.29803919792175293
vt 0.24705882370471954 0.29803919792175293
vt 0.003921568859368563 0.011764705181121826
vt 0.24705882370471954 0.011764705181121826
vt 0.24705882370471954 0.011764705181121826
vt 0.003921568859368563 0.011764705181121826
vt 0.003921568859368563 0.29803919792175293
vt 0.24705882370471954 0.29803919792175293
vt 0.003921568859368563 0.615686297416687
vt 0.24705882370471954 0.615686297416687
vt 0.003921568859368563 0.615686297416687
vt 0.003921568859368563 0.29803919792175293
vt 0.003921568859368563 0.011764705181121826
vt 0.24705882370471954 0.615686297416687
vt 0.003921568859368563 0.615686297416687
vt 0.24705882370471954 0.29803919792175293
vt 0.003921568859368563 0.29803919792175293
vt 0.24705882370471954 0.011764705181121826
vt 0.003921568859368563 0.011764705181121826
vt 0.24705882370471954 0.615686297416687
vt 0.24705882370471954 0.29803919792175293
vt 0.24705882370471954 0.011764705181121826
vt 0.003921568859368563 0.615686297416687
vt 0.24705882370471954 0.615686297416687
vt 0.12599360942840576 0.9921568632125854
vt 0.003921568859368563 0.29803919792175293
vt 0.24705882370471954 0.29803919792175293
vt 0.003921568859368563 0.011764705181121826
vt 0.24705882370471954 0.011764705181121826
vt 0.24705882370471954 0.615686297416687
vt 0.24705882370471954 0.29803919792175293
vt 0.24705882370471954 0.011764705181121826
vt 0.24705882370471954 0.011764705181121826
vt 0.003921568859368563 0.011764705181121826
vt 0.003921568859368563 0.29803919792175293
vt 0.24705882370471954 0.29803919792175293
vt 0.003921568859368563 0.615686297416687
vt 0.24705882370471954 0.615686297416687
vt 0.003921568859368563 0.615686297416687
vt 0.003921568859368563 0.29803919792175293
vt 0.003921568859368563 0.011764705181121826
vt 0.003921568859368563 0.615686297416687
vt 0.24705882370471954 0.615686297416687
vt 0.003921568859368563 0.29803919792175293
vt 0.9842519760131836 0.9960784316062927
vt 0.12231997400522232 0.458823561668396
vt 0.9421069025993347 0.4457777738571167
vt 0.8066542744636536 0.9960784912109375
vt 0.49898970127105713 0.9960784912109375
vt 0.015748031437397003 0.9960784316062927
vt 0.27188587188720703 0.00784313678741455
vt 0.8384917974472046 0.00784313678741455
g Geoset0
s 1
usemtl 190374
f 1/1/1 2/2/2 3/3/3
f 4/4/4 5/5/5 6/6/6
f 7/7/7 5/5/5 4/4/4
f 7/7/7 8/8/8 5/5/5
f 9/9/9 8/8/8 7/7/7
f 9/9/9 10/10/10 8/8/8
f 11/11/11 12/12/12 13/13/13
f 14/14/14 12/12/12 11/11/11
f 14/14/14 15/15/15 12/12/12
f 16/16/16 15/15/15 14/14/14
f 16/16/16 17/17/17 15/15/15
f 18/18/18 19/19/19 20/20/20
f 21/21/21 19/19/19 18/18/18
f 21/21/21 22/22/22 19/19/19
f 23/23/23 22/22/22 21/21/21
f 23/23/23 24/24/24 22/22/22
f 25/25/25 26/26/26 27/27/27
f 25/25/25 27/27/27 28/28/28
f 28/28/28 27/27/27 29/29/29
f 28/28/28 29/29/29 30/30/30
f 30/30/30 29/29/29 13/13/13
f 31/31/31 30/30/30 20/20/20
f 32/32/32 30/30/30 31/31/31
f 32/32/32 28/28/28 30/30/30
f 33/33/33 28/28/28 32/32/32
f 33/33/33 25/25/25 28/28/28
f 34/34/34 35/35/35 13/13/13
f 36/36/36 35/35/35 34/34/34
f 36/36/36 37/37/37 35/35/35
f 38/38/38 37/37/37 36/36/36
f 38/38/38 39/39/39 37/37/37
f 35/35/35 40/40/40 20/20/20
f 37/37/37 40/40/40 35/35/35
f 37/37/37 41/41/41 40/40/40
f 39/39/39 41/41/41 37/37/37
f 39/39/39 42/42/42 41/41/41
f 43/43/43 44/44/44 45/45/45
f 46/46/46 44/44/44 43/43/43
f 46/46/46 47/47/47 44/44/44
f 48/48/48 47/47/47 46/46/46
f 48/48/48 49/49/49 47/47/47
f 50/50/50 43/43/43 6/6/6
f 51/51/51 43/43/43 50/50/50
f 51/51/51 46/46/46 43/43/43
f 52/52/52 46/46/46 51/51/51
f 52/52/52 48/48/48 46/46/46
f 53/53/53 54/54/54 55/55/55
f 53/53/53 55/55/55 56/56/56
f 56/56/56 55/55/55 57/57/57
f 56/56/56 57/57/57 58/58/58
f 58/58/58 57/57/57 6/6/6
f 59/59/59 58/58/58 45/45/45
f 60/60/60 58/58/58 59/59/59
f 60/60/60 56/56/56 58/58/58
f 61/61/61 56/56/56 60/60/60
f 61/61/61 53/53/53 56/56/56
f 62/62/62 63/63/63 45/45/45
f 64/64/64 63/63/63 62/62/62
f 64/64/64 3/3/3 63/63/63
f 1/1/1 3/3/3 64/64/64
g Geoset1
s 1
usemtl 191272
f 65/65/65 66/66/66 67/67/67
f 66/66/66 65/65/65 68/68/68
f 66/66/66 68/68/68 69/69/69
f 66/66/66 69/69/69 70/70/70
f 66/66/66 71/71/71 72/72/72
f 72/72/72 67/67/67 66/66/66