# Exported using wow.export v0.1.9
o GnomeScrew02
mtllib gnomescrew02.mtl
v 0.45073896646499634 -0.6546261310577393 0.14792761206626892
v -0.08350196480751038 -0.6546260714530945 -0.477588027715683
v 0.3641890585422516 -0.6546261310577393 -0.319052517414093
v 0.4507387578487396 -0.6546261310577393 0.14792737364768982
v 0.3166216015815735 0.14246708154678345 -0.2784256935119629
v 0.3917713463306427 0.14246708154678345 0.12704604864120483
v 0.3641890585422516 -0.6546261310577393 -0.3190523684024811
v -0.07210199534893036 0.14246708154678345 -0.4160798490047455
v -0.08350187540054321 -0.6546259522438049 -0.477588027715683
v -0.35809364914894104 -0.654626190662384 0.2978356182575226
v 0.07819753140211105 0.14246708154678345 0.39486363530158997
v -0.3105261027812958 0.14246708154678345 0.25720933079719543
v 0.08959737420082092 -0.6546259522438049 0.4563716948032379
v 0.3917713463306427 0.14246708154678345 0.12704604864120483
v 0.4507387578487396 -0.6546261310577393 0.14792737364768982
v -0.08350187540054321 -0.6546259522438049 -0.477588027715683
v -0.385675847530365 0.14246708154678345 -0.1482624113559723
v -0.07210199534893036 0.14246708154678345 -0.4160798490047455
v -0.4446432292461395 -0.654626190662384 -0.1691441535949707
v -0.3105261027812958 0.14246708154678345 0.25720933079719543
v -0.35809364914894104 -0.654626190662384 0.2978356182575226
v 2.979412450088148e-8 0.603664755821228 6.80849936429695e-8
v 0.7120597958564758 0.5544988512992859 -0.201612651348114
v 0.182877779006958 0.6054601073265076 -0.7187812328338623
v 0.5291822552680969 0.5527033805847168 0.5171688199043274
v -0.18287788331508636 0.6018692255020142 0.7187814712524414
v -0.7120598554611206 0.6528310179710388 0.20161280035972595
v -0.5291820764541626 0.654626190662384 -0.5171685814857483
v 0.006094965618103743 0.03740711882710457 -0.021216752007603645
v -0.4769152104854584 0.04978547990322113 -0.49033424258232117
v 0.17095062136650085 0.06362724304199219 -0.6736417412757874
v 0.6539608240127563 0.05124874413013458 -0.20452435314655304
v 0.48910513520240784 0.025029027834534645 0.44790083169937134
v -0.6417710781097412 0.023565905168652534 0.16209088265895844
v -0.15876071155071259 0.011187678202986717 0.6312084197998047
v -0.6417710781097412 0.023565905168652534 0.16209088265895844
v -0.18287788331508636 0.6018692255020142 0.7187814712524414
v -0.7120598554611206 0.6528310179710388 0.20161280035972595
v -0.15876071155071259 0.011187678202986717 0.6312084197998047
v 0.5291822552680969 0.5527033805847168 0.5171688199043274
v 0.48910513520240784 0.025029027834534645 0.44790083169937134
v 0.7120597958564758 0.5544988512992859 -0.201612651348114
v 0.6539608240127563 0.05124874413013458 -0.20452435314655304
v 0.182877779006958 0.6054601073265076 -0.7187812328338623
v 0.17095062136650085 0.06362724304199219 -0.6736417412757874
v -0.5291820764541626 0.654626190662384 -0.5171685814857483
v -0.4769152104854584 0.04978547990322113 -0.49033424258232117
v -0.44464316964149475 -0.654626190662384 -0.16914403438568115
v -0.3580937385559082 -0.654626190662384 0.2978356182575226
v 0.08959709852933884 -0.6546260714530945 0.4563713073730469
vn 2.7009858172277745e-7 -1 5.39325640147581e-7
vn -1.6449040174393303e-7 -1 3.0486582147659647e-8
vn -1.6449040174393303e-7 -1 3.0486582147659647e-8
vn 0.9858161211013794 0.0768374502658844 0.14920665323734283
vn 0.8668674826622009 0.07683754712343216 -0.49258169531822205
vn 0.8600221276283264 0.07683750987052917 0.5044382214546204
vn 0.6221249103546143 0.07683760672807693 -0.7791383862495422
vn 0.006845562253147364 0.07683772593736649 -0.9970201253890991
vn -0.363691121339798 0.07683777809143066 -0.9283451437950134
vn -0.6221252083778381 0.07683738321065903 0.7791381478309631
vn -0.0068458253517746925 0.0768374428153038 0.9970201253890991
vn -0.8668676018714905 0.07683735340833664 0.4925815463066101
vn 0.3636912703514099 0.07683753967285156 0.9283451437950134
vn 0.8600221276283264 0.07683750987052917 0.5044382214546204
vn 0.9858161211013794 0.0768374502658844 0.14920665323734283
vn -0.363691121339798 0.07683777809143066 -0.9283451437950134
vn -0.8600219488143921 0.07683767378330231 -0.5044385194778442
vn 0.006845562253147364 0.07683772593736649 -0.9970201253890991
vn -0.9858160614967346 0.07683757692575455 -0.14920689165592194
vn -0.8668676018714905 0.07683735340833664 0.4925815463066101
vn -0.6221252083778381 0.07683738321065903 0.7791381478309631
vn 0.07494110614061356 0.9969549179077148 0.021557312458753586
vn 0.0749410092830658 0.9969549179077148 0.021557273343205452
vn 0.07494097948074341 0.9969549179077148 0.02155718393623829
vn 0.07494094222784042 0.9969549179077148 0.021557455882430077
vn 0.07494118064641953 0.9969549179077148 0.021557630971074104
vn 0.07494138926267624 0.9969549179077148 0.021557297557592392
vn 0.07494112104177475 0.9969549179077148 0.021557031199336052
vn 0.010755203664302826 -0.9992409944534302 -0.037439972162246704
vn 0.010755187831819057 -0.9992409944534302 -0.03744015470147133
vn 0.010755403898656368 -0.9992409944534302 -0.037440523505210876
vn 0.010755382478237152 -0.9992409944534302 -0.037440210580825806
vn 0.010755316354334354 -0.9992409944534302 -0.037439700216054916
vn 0.010754887014627457 -0.9992409944534302 -0.037439703941345215
vn 0.01075503695756197 -0.9992409944534302 -0.037439554929733276
vn -0.8885761499404907 -0.13121436536312103 0.4395625591278076
vn -0.4259534478187561 -0.14579381048679352 0.892920970916748
vn -0.9900371432304382 -0.11630180478096008 0.07937486469745636
vn -0.05967090278863907 -0.15453769266605377 0.9861832857131958
vn 0.5652139782905579 -0.1441500037908554 0.812252402305603
vn 0.8296661376953125 -0.13709911704063416 0.5411635041236877
vn 0.9899284839630127 -0.11100877821445465 -0.08785585314035416
vn 0.8872284889221191 -0.09944301098585129 -0.45048490166664124
vn 0.4196915924549103 -0.08486703783273697 -0.9036905169487
vn 0.055522575974464417 -0.08107217401266098 -0.9951605796813965
vn -0.5703170895576477 -0.08828756958246231 -0.8166662454605103
vn -0.8304861187934875 -0.09531136602163315 -0.548824667930603
vn 1.644903591113689e-7 -1 -3.0486440039112495e-8
vn 2.7009858172277745e-7 -1 5.39325640147581e-7
vn 2.7009858172277745e-7 -1 5.39325640147581e-7
vt 0.4835531711578369 0.28216999769210815
vt 0.42252033948898315 0.3646512031555176
vt 0.4736570715904236 0.3386688232421875
vt 0.2532661259174347 0.016908228397369385
vt 0.3695652186870575 0.3719806671142578
vt 0.2532661259174347 0.3719806671142578
vt 0.3695652186870575 0.016908228397369385
vt 0.4927956163883209 0.3719806671142578
vt 0.4927956163883209 0.016908228397369385
vt 0.2532661259174347 0.016908228397369385
vt 0.3695652186870575 0.3719806671142578
vt 0.2532661259174347 0.3719806671142578
vt 0.3695652186870575 0.016908228397369385
vt 0.4927956163883209 0.3719806671142578
vt 0.4927956163883209 0.016908228397369385
vt 0.2532661259174347 0.016908228397369385
vt 0.3695652186870575 0.3719806671142578
vt 0.2532661259174347 0.3719806671142578
vt 0.3695652186870575 0.016908228397369385
vt 0.4927956163883209 0.3719806671142578
vt 0.4927956163883209 0.016908228397369385
vt 0.743065357208252 0.25281190872192383
vt 0.684780478477478 0.10030972957611084
vt 0.8144529461860657 0.10029447078704834
vt 0.5928073525428772 0.2528311014175415
vt 0.686028242111206 0.40611886978149414
vt 0.8207238912582397 0.4038494825363159
vt 0.9117637872695923 0.2587742805480957
vt 0.7487366199493408 0.25252199172973633
vt 0.9989160299301147 0.25833505392074585
vt 0.8568195104598999 0.008857309818267822
vt 0.6489466428756714 0.006007373332977295
vt 0.5074804425239563 0.2522486448287964
vt 0.8608367443084717 0.4976208209991455
vt 0.6407049894332886 0.49395692348480225
vt 0.8608367443084717 0.4976208209991455
vt 0.686028242111206 0.40611886978149414
vt 0.8207238912582397 0.4038494825363159
vt 0.6407049894332886 0.49395692348480225
vt 0.5928073525428772 0.2528311014175415
vt 0.5074804425239563 0.2522486448287964
vt 0.684780478477478 0.10030972957611084
vt 0.6489466428756714 0.006007373332977295
vt 0.8144529461860657 0.10029447078704834
vt 0.8568195104598999 0.008857309818267822
vt 0.9117637872695923 0.2587742805480957
vt 0.9989160299301147 0.25833505392074585
vt 0.38127973675727844 0.3341348171234131
vt 0.423462837934494 0.36481690406799316
vt 0.4745996296405792 0.3388344645500183
g Geoset0
s 1
usemtl 197720
f 1/1/1 2/2/2 3/3/3
f 4/4/4 5/5/5 6/6/6
f 4/4/4 7/7/7 5/5/5
f 7/7/7 8/8/8 5/5/5
f 7/7/7 9/9/9 8/8/8
f 10/10/10 11/11/11 12/12/12
f 10/10/10 13/13/13 11/11/11
f 13/13/13 14/14/14 11/11/11
f 13/13/13 15/15/15 14/14/14
f 16/16/16 17/17/17 18/18/18
f 16/16/16 19/19/19 17/17/17
f 19/19/19 20/20/20 17/17/17
f 19/19/19 21/21/21 20/20/20
f 22/22/22 23/23/23 24/24/24
f 22/22/22 25/25/25 23/23/23
f 22/22/22 26/26/26 25/25/25
f 22/22/22 27/27/27 26/26/26
f 22/22/22 28/28/28 27/27/27
f 22/22/22 24/24/24 28/28/28
f 29/29/29 30/30/30 31/31/31
f 29/29/29 31/31/31 32/32/32
f 29/29/29 32/32/32 33/33/33
f 29/29/29 34/34/34 30/30/30
f 29/29/29 35/35/35 34/34/34
f 29/29/29 33/33/33 35/35/35
f 36/36/36 37/37/37 38/38/38
f 36/36/36 39/39/39 37/37/37
f 39/39/39 40/40/40 37/37/37
f 39/39/39 41/41/41 40/40/40
f 41/41/41 42/42/42 40/40/40
f 41/41/41 43/43/43 42/42/42
f 43/43/43 44/44/44 42/42/42
f 43/43/43 45/45/45 44/44/44
f 45/45/45 46/46/46 44/44/44
f 45/45/45 47/47/47 46/46/46
f 47/47/47 38/38/38 46/46/46
f 47/47/47 36/36/36 38/38/38
f 1/1/1 48/48/48 2/2/2
f 49/49/49 48/48/48 1/1/1
f 50/50/50 49/49/49 1/1/1