# Exported using wow.export v0.1.9
o OrcBarrel04
mtllib orcbarrel04.mtl
v 0.009163756854832172 -0.0076094865798950195 -0.00054931640625
v 0.4949084520339966 -0.0076095000840723515 0.4851952791213989
v 0.009163816459476948 -0.0076094865798950195 0.6863973736763
v 0.009163744747638702 1.9519189596176147 -0.00054931640625
v 0.009163744747638702 1.9519189596176147 -0.6874960064888
v -0.4765808880329132 1.9519189596176147 -0.4862939417362213
v 0.49490833282470703 1.9519189596176147 -0.48629406094551086
v 0.6961103677749634 1.9519189596176147 -0.000549406511709094
v -0.6777829527854919 1.9519189596176147 -0.0005492864293046296
v 0.4949084520339966 1.9519189596176147 0.4851952791213989
v 0.009163804352283478 1.9519189596176147 0.6863973736763
v -0.4765808880329132 1.9519189596176147 0.4851953089237213
v 0.009163823910057545 1.3803898096084595 0.8581340909004211
v 0.4949084520339966 1.9519189596176147 0.4851952791213989
v 0.009163804352283478 1.9519189596176147 0.6863973736763
v 0.6163446307182312 1.3803898096084595 0.6066315174102783
v 0.6961103677749634 1.9519189596176147 -0.000549406511709094
v 0.8678471446037292 1.3803898096084595 -0.0005494235665537417
v 0.49490833282470703 1.9519189596176147 -0.48629406094551086
v 0.6163443922996521 1.3803898096084595 -0.6077302098274231
v 0.009163744747638702 1.9519189596176147 -0.6874960064888
v 0.009163748472929 1.3803898096084595 -0.8592326045036316
v 0.49490833282470703 -0.0076095000840723515 -0.48629406094551086
v 0.009163756854832172 -0.0076094865798950195 -0.6874960064888
v 0.009163754060864449 0.5639195442199707 -0.8592326045036316
v 0.6163443922996521 0.5639195442199707 -0.6077302098274231
v 0.6961104273796082 -0.007609513122588396 -0.000549406511709094
v 0.8678471446037292 0.5639195442199707 -0.0005494235665537417
v 0.4949084520339966 -0.0076095000840723515 0.4851952791213989
v 0.6163446307182312 0.5639195442199707 0.6066315174102783
v 0.009163816459476948 -0.0076094865798950195 0.6863973736763
v 0.009163829497992992 0.5639195442199707 0.8581340909004211
v -0.4765808880329132 -0.007609473541378975 0.4851953089237213
v 0.009163816459476948 -0.0076094865798950195 0.6863973736763
v 0.009163829497992992 0.5639195442199707 0.8581340909004211
v -0.5980170369148254 0.5639195442199707 0.6066315770149231
v -0.6777828931808472 -0.007609460037201643 -0.0005492864293046296
v -0.8495196104049683 0.5639195442199707 -0.000549273390788585
v -0.4765808880329132 -0.007609473541378975 -0.4862939417362213
v -0.5980170369148254 0.5639195442199707 -0.6077301502227783
v 0.009163756854832172 -0.0076094865798950195 -0.6874960064888
v 0.009163754060864449 0.5639195442199707 -0.8592326045036316
v 0.009163823910057545 1.3803898096084595 0.8581340909004211
v -0.5980170369148254 1.3803898096084595 0.6066315770149231
v -0.8495196104049683 1.3803898096084595 -0.000549273390788585
v -0.5980170369148254 1.3803898096084595 -0.6077301502227783
v 0.009163748472929 1.3803898096084595 -0.8592326045036316
v -0.4765808880329132 1.9519189596176147 -0.4862939417362213
v 0.009163744747638702 1.9519189596176147 -0.6874960064888
v -0.6777829527854919 1.9519189596176147 -0.0005492864293046296
v -0.4765808880329132 1.9519189596176147 0.4851953089237213
v 0.009163804352283478 1.9519189596176147 0.6863973736763
v -0.4765808880329132 -0.007609473541378975 -0.4862939417362213
v 0.009163756854832172 -0.0076094865798950195 -0.6874960064888
v 0.49490833282470703 -0.0076095000840723515 -0.48629406094551086
v 0.6961104273796082 -0.007609513122588396 -0.000549406511709094
v -0.6777828931808472 -0.007609460037201643 -0.0005492864293046296
v -0.4765808880329132 -0.007609473541378975 0.4851953089237213
vn -3.9766185011558264e-8 -1 2.8271598675008074e-15
vn -3.9766185011558264e-8 -1 6.822802323114274e-9
vn -3.29433831325332e-8 -1 2.9747996160313633e-15
vn 0 1 0
vn 0 1 0
vn 0 1 0
vn 0 1 0
vn 0 1 0
vn 0 1 0
vn 0 1 0
vn 0 1 0
vn 0 1 0
vn 8.043289767556416e-8 0.14058078825473785 0.9900692105293274
vn 0.6771948933601379 0.28777509927749634 0.6771946549415588
vn 1.5257010943514615e-7 0.2877751290798187 0.9576979875564575
vn 0.7000846862792969 0.14058080315589905 0.7000846266746521
vn 0.9576979875564575 0.2877751886844635 -1.5257008101343672e-7
vn 0.9900692105293274 0.14058084785938263 -1.6086580956198304e-7
vn 0.6771946549415588 0.28777506947517395 -0.6771948933601379
vn 0.7000845074653625 0.14058075845241547 -0.7000848054885864
vn -9.535629175161375e-8 0.2877750098705292 -0.9576980471611023
vn -3.217316546511029e-8 0.14058077335357666 -0.9900692105293274
vn 0.6771947145462036 -0.28777509927749634 -0.6771948337554932
vn -5.721377505096825e-8 -0.28777509927749634 -0.9576980471611023
vn -7.507070876044963e-8 -0.14058077335357666 -0.9900692105293274
vn 0.7000845670700073 -0.14058080315589905 -0.7000847458839417
vn 0.9576979875564575 -0.2877751886844635 -1.8117698630248924e-7
vn 0.9900692105293274 -0.14058083295822144 -1.5550359933058644e-7
vn 0.6771948337554932 -0.2877751886844635 0.6771946549415588
vn 0.7000846862792969 -0.14058081805706024 0.7000846266746521
vn 1.4303446960184374e-7 -0.2877751886844635 0.9576979875564575
vn 7.507070876044963e-8 -0.14058083295822144 0.9900692105293274
vn -0.6771946549415588 -0.2877752482891083 0.6771947741508484
vn 1.4303446960184374e-7 -0.2877751886844635 0.9576979875564575
vn 7.507070876044963e-8 -0.14058083295822144 0.9900692105293274
vn -0.7000846266746521 -0.14058084785938263 0.7000846862792969
vn -0.9576979875564575 -0.2877752184867859 4.7678152981234234e-8
vn -0.9900692105293274 -0.14058083295822144 -1.6086579179841465e-8
vn -0.6771947741508484 -0.2877751290798187 -0.6771947741508484
vn -0.7000846266746521 -0.14058078825473785 -0.7000846266746521
vn -5.721377505096825e-8 -0.28777509927749634 -0.9576980471611023
vn -7.507070876044963e-8 -0.14058077335357666 -0.9900692105293274
vn 8.043289767556416e-8 0.14058078825473785 0.9900692105293274
vn -0.7000846266746521 0.14058083295822144 0.7000846862792969
vn -0.9900692105293274 0.14058077335357666 5.362193356006628e-9
vn -0.7000846862792969 0.14058075845241547 -0.7000846266746521
vn -3.217316546511029e-8 0.14058077335357666 -0.9900692105293274
vn -0.6771947145462036 0.28777503967285156 -0.6771948337554932
vn -9.535629175161375e-8 0.2877750098705292 -0.9576980471611023
vn -0.9576980471611023 0.2877750098705292 7.628504761214572e-8
vn -0.6771947741508484 0.2877751290798187 0.6771947741508484
vn 1.5257010943514615e-7 0.2877751290798187 0.9576979875564575
vn -3.9766181458844585e-8 -1 6.8227987704005955e-9
vn -3.294339023796056e-8 -1 0
vn -3.9766185011558264e-8 -1 -6.822794329508497e-9
vn -4.658898333786965e-8 -1 6.785183682001938e-15
vn -4.658898333786965e-8 -1 -7.539091391815377e-16
vn -3.9766181458844585e-8 -1 -6.8227956617761265e-9
vt 0.6274065375328064 0.12561559677124023
vt 0.5811265110969543 0.23734551668167114
vt 0.5156766176223755 0.17189562320709229
vt 0.6274065375328064 0.12561559677124023
vt 0.7391365170478821 0.07933557033538818
vt 0.673686683177948 0.01388561725616455
vt 0.7391365766525269 0.17189562320709229
vt 0.6736866235733032 0.23734551668167114
vt 0.5811265707015991 0.01388561725616455
vt 0.5811265110969543 0.23734551668167114
vt 0.5156766176223755 0.17189562320709229
vt 0.5156766772270203 0.07933551073074341
vt 0.0012057572603225708 0.8502142429351807
vt 0.11110769957304001 0.9987242221832275
vt 0.0012057572603225708 0.9987242221832275
vt 0.11110769957304001 0.8502142429351807
vt 0.248776376247406 0.9987242221832275
vt 0.248776376247406 0.8502142429351807
vt 0.3864450752735138 0.9987242221832275
vt 0.3864450752735138 0.8502142429351807
vt 0.4938933253288269 0.9987242221832275
vt 0.4938933253288269 0.8502142429351807
vt 0.3864450752735138 0.5036912560462952
vt 0.4938933253288269 0.5036912560462952
vt 0.4938933253288269 0.6428192853927612
vt 0.3864450752735138 0.6428192853927612
vt 0.248776376247406 0.5036912560462952
vt 0.248776376247406 0.6428192853927612
vt 0.11110769957304001 0.5036912560462952
vt 0.11110769957304001 0.6428192853927612
vt 0.0012057572603225708 0.5036912560462952
vt 0.0012057572603225708 0.6428192853927612
vt 0.3845140337944031 0.5050042271614075
vt 0.49372971057891846 0.5050042271614075
vt 0.49372971057891846 0.6422418355941772
vt 0.3845140337944031 0.6422418355941772
vt 0.24770545959472656 0.5050042271614075
vt 0.24770545959472656 0.6422418355941772
vt 0.11089687049388885 0.5050042271614075
vt 0.11089687049388885 0.6422418355941772
vt 0.0017894030315801501 0.5050042271614075
vt 0.0017894030315801501 0.6422418355941772
vt 0.49372971057891846 0.8493623733520508
vt 0.3845140337944031 0.8493623733520508
vt 0.24770545959472656 0.8493623733520508
vt 0.11089687049388885 0.8493623733520508
vt 0.0017894030315801501 0.8493623733520508
vt 0.11089687049388885 0.9969444870948792
vt 0.0017894030315801501 0.9969444870948792
vt 0.24770545959472656 0.9969444870948792
vt 0.3845140337944031 0.9969444870948792
vt 0.49372971057891846 0.9969444870948792
vt 0.673686683177948 0.01388561725616455
vt 0.7391365170478821 0.07933557033538818
vt 0.7391365766525269 0.17189562320709229
vt 0.6736866235733032 0.23734557628631592
vt 0.5811265707015991 0.01388561725616455
vt 0.5156766772270203 0.07933551073074341
g Geoset0
s 1
usemtl 199088
f 1/1/1 2/2/2 3/3/3
f 4/4/4 5/5/5 6/6/6
f 4/4/4 7/7/7 5/5/5
f 4/4/4 8/8/8 7/7/7
f 4/4/4 6/6/6 9/9/9
f 4/4/4 10/10/10 8/8/8
f 4/4/4 11/11/11 10/10/10
f 4/4/4 12/12/12 11/11/11
f 4/4/4 9/9/9 12/12/12
f 13/13/13 14/14/14 15/15/15
f 13/13/13 16/16/16 14/14/14
f 16/16/16 17/17/17 14/14/14
f 16/16/16 18/18/18 17/17/17
f 18/18/18 19/19/19 17/17/17
f 18/18/18 20/20/20 19/19/19
f 20/20/20 21/21/21 19/19/19
f 20/20/20 22/22/22 21/21/21
f 23/23/23 24/24/24 25/25/25
f 23/23/23 25/25/25 26/26/26
f 27/27/27 23/23/23 26/26/26
f 27/27/27 26/26/26 28/28/28
f 29/29/29 27/27/27 28/28/28
f 29/29/29 28/28/28 30/30/30
f 31/31/31 29/29/29 30/30/30
f 31/31/31 30/30/30 32/32/32
f 32/32/32 16/16/16 13/13/13
f 32/32/32 30/30/30 16/16/16
f 30/30/30 18/18/18 16/16/16
f 30/30/30 28/28/28 18/18/18
f 28/28/28 20/20/20 18/18/18
f 28/28/28 26/26/26 20/20/20
f 26/26/26 22/22/22 20/20/20
f 26/26/26 25/25/25 22/22/22
f 33/33/33 34/34/34 35/35/35
f 33/33/33 35/35/35 36/36/36
f 37/37/37 33/33/33 36/36/36
f 37/37/37 36/36/36 38/38/38
f 39/39/39 37/37/37 38/38/38
f 39/39/39 38/38/38 40/40/40
f 41/41/41 39/39/39 40/40/40
f 41/41/41 40/40/40 42/42/42
f 36/36/36 35/35/35 43/43/43
f 36/36/36 43/43/43 44/44/44
f 38/38/38 36/36/36 44/44/44
f 38/38/38 44/44/44 45/45/45
f 40/40/40 38/38/38 45/45/45
f 40/40/40 45/45/45 46/46/46
f 42/42/42 40/40/40 46/46/46
f 42/42/42 46/46/46 47/47/47
f 47/47/47 48/48/48 49/49/49
f 47/47/47 46/46/46 48/48/48
f 46/46/46 50/50/50 48/48/48
f 46/46/46 45/45/45 50/50/50
f 45/45/45 51/51/51 50/50/50
f 45/45/45 44/44/44 51/51/51
f 44/44/44 52/52/52 51/51/51
f 44/44/44 43/43/43 52/52/52
f 1/1/1 53/53/53 54/54/54
f 1/1/1 54/54/54 55/55/55
f 1/1/1 55/55/55 56/56/56
f 1/1/1 57/57/57 53/53/53
f 1/1/1 56/56/56 2/2/2
f 1/1/1 58/58/58 57/57/57
f 1/1/1 3/3/3 58/58/58