# Exported using wow.export v0.1.9
o Orcbarrel01
mtllib orcbarrel01.mtl
v -0.0035795504227280617 1.1476210355758667 -0.45495885610580444
v -0.373141348361969 1.1476210355758667 -0.24159224331378937
v -0.3731413185596466 1.1476210355758667 0.185140922665596
v -0.0035795504227280617 -0.013093140907585621 -0.45495885610580444
v -0.3731413185596466 -0.013093140907585621 0.185140922665596
v -0.373141348361969 -0.013093140907585621 -0.24159224331378937
v 0.36598220467567444 -0.013093140907585621 -0.24159233272075653
v -0.003579513169825077 -0.013093140907585621 0.3985075056552887
v 0.3659822344779968 -0.013093140907585621 0.18514084815979004
v 0.4990244507789612 0.7607163190841675 -0.31840434670448303
v -0.0035795504227280617 1.1476210355758667 -0.45495885610580444
v 0.36598220467567444 1.1476210355758667 -0.24159233272075653
v -0.0035795504227280617 0.7607163190841675 -0.6085827946662903
v 0.4990244507789612 0.37381160259246826 -0.31840434670448303
v -0.0035795504227280617 0.37381160259246826 -0.6085827946662903
v 0.36598220467567444 -0.013093140907585621 -0.24159233272075653
v -0.0035795504227280617 -0.013093140907585621 -0.45495885610580444
v 0.49902451038360596 0.7607163190841675 0.26195281744003296
v 0.36598220467567444 1.1476210355758667 -0.24159233272075653
v 0.3659822344779968 1.1476210355758667 0.18514084815979004
v 0.4990244507789612 0.7607163190841675 -0.31840434670448303
v 0.49902451038360596 0.37381160259246826 0.26195281744003296
v 0.4990244507789612 0.37381160259246826 -0.31840434670448303
v 0.3659822344779968 -0.013093140907585621 0.18514084815979004
v 0.36598220467567444 -0.013093140907585621 -0.24159233272075653
v -0.0035794994328171015 0.7607163190841675 0.5521314740180969
v 0.3659822344779968 1.1476210355758667 0.18514084815979004
v -0.003579513169825077 1.1476210355758667 0.3985075056552887
v 0.49902451038360596 0.7607163190841675 0.26195281744003296
v -0.0035794994328171015 0.37381160259246826 0.5521314740180969
v 0.49902451038360596 0.37381160259246826 0.26195281744003296
v -0.003579513169825077 -0.013093140907585621 0.3985075056552887
v 0.3659822344779968 -0.013093140907585621 0.18514084815979004
v -0.5061835646629333 0.7607163190841675 0.2619529068470001
v -0.003579513169825077 1.1476210355758667 0.3985075056552887
v -0.3731413185596466 1.1476210355758667 0.185140922665596
v -0.0035794994328171015 0.7607163190841675 0.5521314740180969
v -0.5061835646629333 0.37381160259246826 0.2619529068470001
v -0.0035794994328171015 0.37381160259246826 0.5521314740180969
v -0.3731413185596466 -0.013093140907585621 0.185140922665596
v -0.003579513169825077 -0.013093140907585621 0.3985075056552887
v -0.5061835646629333 0.7607163190841675 -0.3184042274951935
v -0.3731413185596466 1.1476210355758667 0.185140922665596
v -0.373141348361969 1.1476210355758667 -0.24159224331378937
v -0.5061835646629333 0.7607163190841675 0.2619529068470001
v -0.5061835646629333 0.37381160259246826 -0.3184042274951935
v -0.5061835646629333 0.37381160259246826 0.2619529068470001
v -0.373141348361969 -0.013093140907585621 -0.24159224331378937
v -0.3731413185596466 -0.013093140907585621 0.185140922665596
v -0.0035795504227280617 0.7607163190841675 -0.6085827946662903
v -0.373141348361969 1.1476210355758667 -0.24159224331378937
v -0.0035795504227280617 1.1476210355758667 -0.45495885610580444
v -0.5061835646629333 0.7607163190841675 -0.3184042274951935
v -0.0035795504227280617 0.37381160259246826 -0.6085827946662903
v -0.5061835646629333 0.37381160259246826 -0.3184042274951935
v -0.0035795504227280617 -0.013093140907585621 -0.45495885610580444
v -0.373141348361969 -0.013093140907585621 -0.24159224331378937
v -0.003579513169825077 1.1476210355758667 0.3985075056552887
v 0.3659822344779968 1.1476210355758667 0.18514084815979004
v 0.36598220467567444 1.1476210355758667 -0.24159233272075653
vn -3.016160832203241e-8 0.7474349141120911 -0.6643350124359131
vn -0.5753310918807983 0.7474348545074463 -0.33216750621795654
vn -0.5753310322761536 0.7474348545074463 0.3321675658226013
vn -2.6020833487905293e-8 -0.7474349141120911 -0.6643350124359131
vn -0.5753310322761536 -0.7474348545074463 0.3321675658226013
vn -0.5753310918807983 -0.7474348545074463 -0.33216747641563416
vn 0.5753310322761536 -0.7474348545074463 -0.3321675956249237
vn 5.926258950239571e-8 -0.7474348545074463 0.6643351316452026
vn 0.5753310322761536 -0.7474349141120911 0.33216747641563416
vn 0.8522456288337708 0.17767895758152008 -0.4920442998409271
vn -3.016160832203241e-8 0.7474349141120911 -0.6643350124359131
vn 0.5753310322761536 0.7474348545074463 -0.3321675956249237
vn -6.55065832688706e-8 0.17767897248268127 -0.9840884804725647
vn 0.8522456288337708 -0.17767898738384247 -0.4920443296432495
vn -4.376520834625808e-8 -0.17767898738384247 -0.9840884804725647
vn 0.5753310322761536 -0.7474348545074463 -0.3321675956249237
vn -2.6020833487905293e-8 -0.7474349141120911 -0.6643350124359131
vn 0.8522456884384155 0.17767895758152008 0.4920441806316376
vn 0.5753310322761536 0.7474348545074463 -0.3321675956249237
vn 0.5753311514854431 0.7474348545074463 0.33216747641563416
vn 0.8522456288337708 0.17767895758152008 -0.4920442998409271
vn 0.8522456884384155 -0.17767895758152008 0.4920441806316376
vn 0.8522456288337708 -0.17767898738384247 -0.4920443296432495
vn 0.5753310322761536 -0.7474349141120911 0.33216747641563416
vn 0.5753310322761536 -0.7474348545074463 -0.3321675956249237
vn 9.687816771020152e-8 0.17767897248268127 0.9840884804725647
vn 0.5753311514854431 0.7474348545074463 0.33216747641563416
vn 5.075620990169227e-8 0.7474348545074463 0.6643350720405579
vn 0.8522456884384155 0.17767895758152008 0.4920441806316376
vn 9.591688154841904e-8 -0.17767895758152008 0.9840884804725647
vn 0.8522456884384155 -0.17767895758152008 0.4920441806316376
vn 5.926258950239571e-8 -0.7474348545074463 0.6643351316452026
vn 0.5753310322761536 -0.7474349141120911 0.33216747641563416
vn -0.8522456288337708 0.17767898738384247 0.4920443296432495
vn 5.075620990169227e-8 0.7474348545074463 0.6643350720405579
vn -0.5753310322761536 0.7474348545074463 0.3321675658226013
vn 9.687816771020152e-8 0.17767897248268127 0.9840884804725647
vn -0.8522456288337708 -0.17767898738384247 0.4920443296432495
vn 9.591688154841904e-8 -0.17767895758152008 0.9840884804725647
vn -0.5753310322761536 -0.7474348545074463 0.3321675658226013
vn 5.926258950239571e-8 -0.7474348545074463 0.6643351316452026
vn -0.8522456884384155 0.17767895758152008 -0.4920441806316376
vn -0.5753310322761536 0.7474348545074463 0.3321675658226013
vn -0.5753310918807983 0.7474348545074463 -0.33216750621795654
vn -0.8522456288337708 0.17767898738384247 0.4920443296432495
vn -0.8522456884384155 -0.17767895758152008 -0.4920441806316376
vn -0.8522456288337708 -0.17767898738384247 0.4920443296432495
vn -0.5753310918807983 -0.7474348545074463 -0.33216747641563416
vn -0.5753310322761536 -0.7474348545074463 0.3321675658226013
vn -6.55065832688706e-8 0.17767897248268127 -0.9840884804725647
vn -0.5753310918807983 0.7474348545074463 -0.33216750621795654
vn -3.016160832203241e-8 0.7474349141120911 -0.6643350124359131
vn -0.8522456884384155 0.17767895758152008 -0.4920441806316376
vn -4.376520834625808e-8 -0.17767898738384247 -0.9840884804725647
vn -0.8522456884384155 -0.17767895758152008 -0.4920441806316376
vn -2.6020833487905293e-8 -0.7474349141120911 -0.6643350124359131
vn -0.5753310918807983 -0.7474348545074463 -0.33216747641563416
vn 5.075620990169227e-8 0.7474348545074463 0.6643350720405579
vn 0.5753311514854431 0.7474348545074463 0.33216747641563416
vn 0.5753310322761536 0.7474348545074463 -0.3321675956249237
vt 0.23828125 0.8125
vt 0.23828125 0.9375
vt 0.125 0.99609375
vt 0.23828125 0.8125
vt 0.125 0.99609375
vt 0.23828125 0.9375
vt 0.125 0.75
vt 0.0078125 0.9296875
vt 0.0078125 0.81640625
vt 0.0034657944925129414 0.4965916872024536
vt 0.24662134051322937 0.7352847456932068
vt 0.0034657944925129414 0.7352847456932068
vt 0.24321302771568298 0.5
vt 0.0034657944925129414 0.25
vt 0.24662134051322937 0.25
vt 0.0034657944925129414 0
vt 0.2398047149181366 0
vt 0.0034657944925129414 0.4965916872024536
vt 0.24662134051322937 0.7352847456932068
vt 0.0034657944925129414 0.7352847456932068
vt 0.24321302771568298 0.5
vt 0.0034657944925129414 0.25
vt 0.24662134051322937 0.25
vt 0.0034657944925129414 0
vt 0.2398047149181366 0
vt 0.0034657944925129414 0.4965916872024536
vt 0.24662134051322937 0.7352847456932068
vt 0.0034657944925129414 0.7352847456932068
vt 0.24321302771568298 0.5
vt 0.0034657944925129414 0.25
vt 0.24662134051322937 0.25
vt 0.0034657944925129414 0
vt 0.2398047149181366 0
vt 0.0034657944925129414 0.4965916872024536
vt 0.24662134051322937 0.7352847456932068
vt 0.0034657944925129414 0.7352847456932068
vt 0.24321302771568298 0.5
vt 0.0034657944925129414 0.25
vt 0.24662134051322937 0.25
vt 0.0034657944925129414 0
vt 0.2398047149181366 0
vt 0.0034657944925129414 0.4965916872024536
vt 0.24662134051322937 0.7352847456932068
vt 0.0034657944925129414 0.7352847456932068
vt 0.24321302771568298 0.5
vt 0.0034657944925129414 0.25
vt 0.24662134051322937 0.25
vt 0.005169952753931284 0
vt 0.2398047149181366 0
vt 0.0034657944925129414 0.4965916872024536
vt 0.24662134051322937 0.7352847456932068
vt 0.0034657944925129414 0.7352847456932068
vt 0.24321302771568298 0.5
vt 0.0034657944925129414 0.25
vt 0.24662134051322937 0.25
vt 0.005169952753931284 0
vt 0.2398047149181366 0
vt 0.0078125 0.9296875
vt 0.0078125 0.81640625
vt 0.125 0.75
g Geoset0
s 1
usemtl 199087
f 1/1/1 2/2/2 3/3/3
f 4/4/4 5/5/5 6/6/6
f 7/7/7 5/5/5 4/4/4
f 5/5/5 7/7/7 8/8/8
f 8/8/8 7/7/7 9/9/9
f 10/10/10 11/11/11 12/12/12
f 10/10/10 13/13/13 11/11/11
f 14/14/14 13/13/13 10/10/10
f 14/14/14 15/15/15 13/13/13
f 16/16/16 15/15/15 14/14/14
f 16/16/16 17/17/17 15/15/15
f 18/18/18 19/19/19 20/20/20
f 18/18/18 21/21/21 19/19/19
f 22/22/22 21/21/21 18/18/18
f 22/22/22 23/23/23 21/21/21
f 24/24/24 23/23/23 22/22/22
f 24/24/24 25/25/25 23/23/23
f 26/26/26 27/27/27 28/28/28
f 26/26/26 29/29/29 27/27/27
f 30/30/30 29/29/29 26/26/26
f 30/30/30 31/31/31 29/29/29
f 32/32/32 31/31/31 30/30/30
f 32/32/32 33/33/33 31/31/31
f 34/34/34 35/35/35 36/36/36
f 34/34/34 37/37/37 35/35/35
f 38/38/38 37/37/37 34/34/34
f 38/38/38 39/39/39 37/37/37
f 40/40/40 39/39/39 38/38/38
f 40/40/40 41/41/41 39/39/39
f 42/42/42 43/43/43 44/44/44
f 42/42/42 45/45/45 43/43/43
f 46/46/46 45/45/45 42/42/42
f 46/46/46 47/47/47 45/45/45
f 48/48/48 47/47/47 46/46/46
f 48/48/48 49/49/49 47/47/47
f 50/50/50 51/51/51 52/52/52
f 50/50/50 53/53/53 51/51/51
f 54/54/54 53/53/53 50/50/50
f 54/54/54 55/55/55 53/53/53
f 56/56/56 55/55/55 54/54/54
f 56/56/56 57/57/57 55/55/55
f 58/58/58 59/59/59 60/60/60
f 3/3/3 58/58/58 60/60/60
f 60/60/60 1/1/1 3/3/3