# Exported using wow.export v0.1.9
o NewElfRuin02
mtllib newelfruin02.mtl
v -4.178236484527588 -0.20719118416309357 -1.5493861436843872
v -0.17958474159240723 -0.20719118416309357 -3.8848352432250977
v 3.2712690830230713 -0.20719118416309357 -0.8320816159248352
v 0.8048116564750671 2.429861068725586 2.3534762859344482
v -2.3648903369903564 2.429861068725586 2.048267126083374
v -3.082862615585327 2.034910202026367 2.859771728515625
v 1.3571089506149292 2.020491123199463 3.2969794273376465
v 2.0745811462402344 2.429861068725586 -0.5667799711227417
v 3.1348378658294678 2.0499117374420166 -0.7911255955696106
v -0.31036606431007385 2.429861068725586 -2.6767985820770264
v -0.2065335214138031 2.0349087715148926 -3.755328416824341
v -3.054107904434204 2.4298622608184814 -1.060608148574829
v -4.047779083251953 2.034910202026367 -1.4926639795303345
v -2.3648903369903564 2.429861068725586 2.048267126083374
v -3.082862615585327 2.034910202026367 2.859771728515625
v 1.3571089506149292 2.020491123199463 3.2969794273376465
v -3.082862615585327 2.034910202026367 2.859771728515625
v -3.1771352291107178 -0.20719118416309357 2.9663193225860596
v 1.4269254207611084 -0.20719118416309357 3.4096391201019287
v 3.1348378658294678 2.0499117374420166 -0.7911255955696106
v 3.2712690830230713 -0.20719118416309357 -0.8320816159248352
v -0.2065335214138031 2.0349087715148926 -3.755328416824341
v -0.17958474159240723 -0.20719118416309357 -3.8848352432250977
v -4.047779083251953 2.034910202026367 -1.4926639795303345
v -4.178236484527588 -0.20719118416309357 -1.5493861436843872
v -3.082862615585327 2.034910202026367 2.859771728515625
v -3.1771352291107178 -0.20719118416309357 2.9663193225860596
v 0.8298522233963013 23.81450653076172 2.39597225189209
v 0.9978318810462952 24.62902069091797 2.6811389923095703
v -2.3975651264190674 23.814498901367188 2.0852038860321045
v 2.4458494186401367 25.465068817138672 -0.6490880846977234
v 2.122729539871216 23.81450653076172 -0.5774527788162231
v -0.2739223539829254 25.46506690979004 -3.055331230163574
v -0.30564138293266296 23.814502716064453 -2.7258875370025635
v -3.402862787246704 25.46506690979004 -1.2122316360473633
v -3.099339246749878 23.814502716064453 -1.0802743434906006
v -2.3975651264190674 23.814498901367188 2.0852038860321045
v -2.043837308883667 23.50118064880371 1.6853992938995361
v 0.558911144733429 23.501178741455078 1.936004877090454
v 1.601553201675415 23.501178741455078 -0.4619073271751404
v -0.3568057119846344 23.501174926757812 -2.1945183277130127
v -2.609788179397583 23.501174926757812 -0.8674138188362122
v -2.043837308883667 23.50118064880371 1.6853992938995361
v -3.1771352291107178 -0.20719118416309357 2.9663193225860596
v 1.4269254207611084 -0.20719118416309357 3.4096391201019287
v 0.5589165687561035 23.501174926757812 1.9360109567642212
v -2.0438315868377686 23.501178741455078 1.6854053735733032
v -2.780761957168579 6.502800941467285 2.5183353424072266
v 1.1233681440353394 6.502800464630127 2.8942601680755615
v -2.364884614944458 2.4298629760742188 2.0482733249664307
v 0.8048170208930969 2.4298629760742188 2.353482484817505
v 2.68734073638916 6.502800464630127 -0.7026129961013794
v 2.0745863914489746 2.4298629760742188 -0.5667740702629089
v -0.2502122223377228 6.502800941467285 -3.301532030105591
v -0.31036093831062317 2.4298629760742188 -2.6767923831939697
v -3.629683256149292 6.502800941467285 -1.3108716011047363
v -3.0541024208068848 2.4298644065856934 -1.0606019496917725
v -2.780761957168579 6.502800941467285 2.5183353424072266
v -2.364884614944458 2.4298629760742188 2.0482733249664307
v -2.0438315868377686 23.501178741455078 1.6854053735733032
v -2.6097829341888428 23.50117301940918 -0.8674076795578003
v -0.35680052638053894 23.50117301940918 -2.194512367248535
v 1.6015583276748657 23.501174926757812 -0.46190133690834045
v 0.9978373646736145 24.629018783569336 2.681144952774048
v -0.0930570662021637 25.583423614501953 0.5032482147216797
v -2.397559404373169 23.814498901367188 2.085210084915161
v -0.2739172577857971 25.46506690979004 -3.055325508117676
v 2.445854425430298 25.465068817138672 -0.6490820646286011
v -3.4028573036193848 25.46506690979004 -1.2122255563735962
vn -0.6895533204078674 -0.6585835814476013 -0.3013036251068115
vn 0.07443969696760178 -0.6609410047531128 -0.7467367053031921
vn 0.7339156270027161 -0.6591419577598572 -0.16401153802871704
vn 0.11449385434389114 0.9747596979141235 0.19166284799575806
vn -0.14437523484230042 0.975973904132843 0.1631891280412674
vn -0.5096506476402283 0.63986736536026 0.5751746892929077
vn 0.39133092761039734 0.635237991809845 0.6658324003219604
vn 0.2060314565896988 0.9775286912918091 -0.04459507390856743
vn 0.7482068538665771 0.6431328058242798 -0.16299280524253845
vn 0.019743718206882477 0.9760518670082092 -0.21664012968540192
vn 0.07161885499954224 0.6369672417640686 -0.7675568461418152
vn -0.19981372356414795 0.9759743213653564 -0.08688247203826904
vn -0.7048382759094238 0.6392489671707153 -0.3075121343135834
vn -0.14437523484230042 0.975973904132843 0.1631891280412674
vn -0.5096506476402283 0.63986736536026 0.5751746892929077
vn 0.39133092761039734 0.635237991809845 0.6658324003219604
vn -0.5096506476402283 0.63986736536026 0.5751746892929077
vn -0.4988100826740265 -0.6589774489402771 0.5629717707633972
vn 0.38130509853363037 -0.6606773138046265 0.646615743637085
vn 0.7482068538665771 0.6431328058242798 -0.16299280524253845
vn 0.7339156270027161 -0.6591419577598572 -0.16401153802871704
vn 0.07161885499954224 0.6369672417640686 -0.7675568461418152
vn 0.07443969696760178 -0.6609410047531128 -0.7467367053031921
vn -0.7048382759094238 0.6392489671707153 -0.3075121343135834
vn -0.6895533204078674 -0.6585835814476013 -0.3013036251068115
vn -0.5096506476402283 0.63986736536026 0.5751746892929077
vn -0.4988100826740265 -0.6589774489402771 0.5629717707633972
vn 0.35441339015960693 -0.7455381751060486 0.5644147396087646
vn 0.5269603729248047 -0.5485245585441589 0.6491791605949402
vn -0.3297078311443329 -0.8897705078125 0.3155966103076935
vn 0.9100445508956909 -0.32741013169288635 -0.25420770049095154
vn 0.7301446795463562 -0.663842499256134 -0.16187003254890442
vn 0.09108605235815048 -0.3111383318901062 -0.9459895491600037
vn 0.07167976349592209 -0.6638422012329102 -0.7444297075271606
vn -0.8266083598136902 -0.30953413248062134 -0.4700077474117279
vn -0.6858436465263367 -0.6638414859771729 -0.2982163727283478
vn -0.3297078311443329 -0.8897705078125 0.3155966103076935
vn -0.2241535782814026 -0.9410420656204224 0.25336745381355286
vn 0.17169667780399323 -0.9410418272018433 0.2914799749851227
vn 0.33027368783950806 -0.941041111946106 -0.073218435049057
vn 0.032424889504909515 -0.9410402774810791 -0.3367370367050171
vn -0.3102371096611023 -0.9410398006439209 -0.1348964124917984
vn -0.2241535782814026 -0.9410420656204224 0.25336745381355286
vn -0.4988100826740265 -0.6589774489402771 0.5629717707633972
vn 0.38130509853363037 -0.6606773138046265 0.646615743637085
vn 0.5046687126159668 0.10621705651283264 0.8567540049552917
vn -0.6588687896728516 0.10621732473373413 0.7447212934494019
vn -0.661112368106842 -0.06741636991500854 0.7472519278526306
vn 0.5063832998275757 -0.06741645932197571 0.8596690893173218
vn -0.6425943374633789 -0.24399136006832123 0.7263199687004089
vn 0.4921973943710327 -0.24399249255657196 0.8355892300605774
vn 0.9740749001502991 -0.06741682440042496 -0.21594677865505219
vn 0.9467892050743103 -0.24399352073669434 -0.20989859104156494
vn 0.09562666714191437 -0.06741669774055481 -0.993131697177887
vn 0.09294913709163666 -0.24399326741695404 -0.9653122425079346
vn -0.9149739146232605 -0.06741786748170853 -0.39784109592437744
vn -0.8893435597419739 -0.24399510025978088 -0.38669681549072266
vn -0.661112368106842 -0.06741636991500854 0.7472519278526306
vn -0.6425943374633789 -0.24399136006832123 0.7263199687004089
vn -0.6588687896728516 0.10621732473373413 0.7447212934494019
vn -0.9118725061416626 0.10621844977140427 -0.3964923620223999
vn 0.09530459344387054 0.10621844232082367 -0.9897649884223938
vn 0.9707731008529663 0.10621822625398636 -0.2152145951986313
vn -0.051767747849226 0.9577261805534363 0.2829851806163788
vn -0.04524626582860947 0.9830121994018555 0.17787590622901917
vn -0.19651515781879425 0.9186062216758728 0.3428474962711334
vn 0.001233170391060412 0.9997905492782593 -0.020429331809282303
vn 0.05880085378885269 0.9960256218910217 0.06689862906932831
vn -0.09740502387285233 0.9844284057617188 0.14633189141750336
vt 0.09501458704471588 0.025027930736541748
vt 0.5421990752220154 0.3504319190979004
vt 0.9173541069030762 0.0251539945602417
vt 0.04593072831630707 0.33000004291534424
vt -0.5160471796989441 0.33000004291534424
vt -0.5066257119178772 0.17500001192092896
vt 0.06276224553585052 0.17500001192092896
vt 0.7125999927520752 0.33000004291534424
vt 0.7087775468826294 0.17500001192092896
vt 1.3762688636779785 0.33000004291534424
vt 1.3587874174118042 0.17500001192092896
vt 1.9333041906356812 0.33000004291534424
vt 1.9248052835464478 0.17500001192092896
vt 2.483952760696411 0.33000004291534424
vt 2.4933743476867676 0.17500001192092896
vt 0.09454596042633057 0.9961176514625549
vt -0.4758167266845703 0.9961172938346863
vt -0.4749019145965576 0.6700000166893005
vt 0.09608940780162811 0.6700000166893005
vt 0.7445592880249023 0.9961176514625549
vt 0.7444291114807129 0.6700000166893005
vt 1.3906471729278564 0.9961172938346863
vt 1.3880319595336914 0.6676197052001953
vt 1.9544044733047485 0.9961172938346863
vt 1.9536473751068115 0.6700000166893005
vt 2.5241832733154297 0.9961172938346863
vt 2.5250980854034424 0.6700000166893005
vt 0.09076715260744095 0.17500001192092896
vt 0.09571778774261475 0.3298349380493164
vt -0.4765715003013611 0.17500001192092896
vt 0.7433815002441406 0.3298344612121582
vt 0.7436608672142029 0.17500001192092896
vt 1.3890771865844727 0.3298340439796448
vt 1.3940889835357666 0.17500001192092896
vt 1.9539024829864502 0.3298342227935791
vt 1.9563921689987183 0.17500001192092896
vt 2.523428440093994 0.17500001192092896
vt -0.4827541708946228 0.00016504526138305664
vt 0.07958289980888367 0.00016504526138305664
vt 0.7443122267723083 0.00016504526138305664
vt 1.4053770303726196 0.00016456842422485352
vt 1.9618258476257324 0.00016456842422485352
vt 2.5172457695007324 0.00016504526138305664
vt 0.5421990752220154 0.3504319190979004
vt 0.09501458704471588 0.025027930736541748
vt 0.049946628510951996 1.9990010261535645
vt -0.32349836826324463 1.9990010261535645
vt -0.315826416015625 0.387198805809021
vt 0.06381191313266754 0.387198805809021
vt -0.3194448947906494 0.0009990334510803223
vt 0.05742362514138222 0.0009990334510803223
vt 0.4955871105194092 0.387198805809021
vt 0.49595120549201965 0.0009990334510803223
vt 0.9260507822036743 0.387198805809021
vt 0.9325129985809326 0.0009990334510803223
vt 1.3026002645492554 0.387198805809021
vt 1.3057833909988403 0.0009990334510803223
vt 1.684173583984375 0.387198805809021
vt 1.6805551052093506 0.0009990334510803223
vt 1.6765016317367554 1.9990010261535645
vt 1.309343695640564 1.9990007877349854
vt 0.9400453567504883 1.9990007877349854
vt 0.4963943660259247 1.9990010261535645
vt 0.2341250330209732 0.499750554561615
vt 0.2570992708206177 0.23126614093780518
vt 0.49975037574768066 0.3365715742111206
vt 0.12133271992206573 0.00025010108947753906
vt 0.0002499222755432129 0.2918921709060669
vt 0.4300405979156494 0.027863144874572754
g Geoset0
s 1
usemtl 198822
f 1/1/1 2/2/2 3/3/3
f 4/4/4 5/5/5 6/6/6
f 6/6/6 7/7/7 4/4/4
f 8/8/8 4/4/4 7/7/7
f 7/7/7 9/9/9 8/8/8
f 10/10/10 8/8/8 9/9/9
f 9/9/9 11/11/11 10/10/10
f 12/12/12 10/10/10 11/11/11
f 11/11/11 13/13/13 12/12/12
f 14/14/14 12/12/12 13/13/13
f 13/13/13 15/15/15 14/14/14
f 16/16/16 17/17/17 18/18/18
f 18/18/18 19/19/19 16/16/16
f 20/20/20 16/16/16 19/19/19
f 19/19/19 21/21/21 20/20/20
f 22/22/22 20/20/20 21/21/21
f 21/21/21 23/23/23 22/22/22
f 24/24/24 22/22/22 23/23/23
f 23/23/23 25/25/25 24/24/24
f 26/26/26 24/24/24 25/25/25
f 25/25/25 27/27/27 26/26/26
f 28/28/28 29/29/29 30/30/30
f 31/31/31 29/29/29 28/28/28
f 28/28/28 32/32/32 31/31/31
f 33/33/33 31/31/31 32/32/32
f 32/32/32 34/34/34 33/33/33
f 35/35/35 33/33/33 34/34/34
f 34/34/34 36/36/36 35/35/35
f 35/35/35 36/36/36 37/37/37
f 28/28/28 30/30/30 38/38/38
f 38/38/38 39/39/39 28/28/28
f 32/32/32 28/28/28 39/39/39
f 39/39/39 40/40/40 32/32/32
f 34/34/34 32/32/32 40/40/40
f 40/40/40 41/41/41 34/34/34
f 36/36/36 34/34/34 41/41/41
f 41/41/41 42/42/42 36/36/36
f 37/37/37 36/36/36 42/42/42
f 42/42/42 43/43/43 37/37/37
f 44/44/44 3/3/3 45/45/45
f 44/44/44 1/1/1 3/3/3
g Geoset1
s 1
usemtl 198821
f 46/46/46 47/47/47 48/48/48
f 49/49/49 48/48/48 50/50/50
f 50/50/50 51/51/51 49/49/49
f 52/52/52 49/49/49 51/51/51
f 51/51/51 53/53/53 52/52/52
f 54/54/54 52/52/52 53/53/53
f 53/53/53 55/55/55 54/54/54
f 56/56/56 54/54/54 55/55/55
f 55/55/55 57/57/57 56/56/56
f 58/58/58 56/56/56 57/57/57
f 57/57/57 59/59/59 58/58/58
f 56/56/56 58/58/58 60/60/60
f 60/60/60 61/61/61 56/56/56
f 54/54/54 56/56/56 61/61/61
f 61/61/61 62/62/62 54/54/54
f 52/52/52 54/54/54 62/62/62
f 62/62/62 63/63/63 52/52/52
f 49/49/49 52/52/52 63/63/63
f 63/63/63 46/46/46 49/49/49
f 48/48/48 49/49/49 46/46/46
g Geoset2
s 1
usemtl 198820
f 64/64/64 65/65/65 66/66/66
f 67/67/67 65/65/65 68/68/68
f 68/68/68 65/65/65 64/64/64
f 69/69/69 65/65/65 67/67/67
f 66/66/66 65/65/65 69/69/69