# Exported using wow.export v0.1.9
o COT_standingstone02
mtllib cot_standingstone02.mtl
v -0.7353262901306152 34.69776916503906 -1.4286226034164429
v 2.673640251159668 34.715728759765625 0.47588014602661133
v 1.3117097616195679 33.373741149902344 -1.7008033990859985
v 0.9782189130783081 6.4354248046875 -5.500916004180908
v -1.019216537475586 -3.2137889862060547 -6.108145236968994
v -9.232975006103516 -3.277599811553955 -4.603641033172607
v 9.520845413208008 -2.6251087188720703 -4.518805027008057
v -4.172847270965576 17.964237213134766 -3.9863717555999756
v -7.211317539215088 6.904596328735352 -3.9580137729644775
v -10.749767303466797 7.503230571746826 -0.46855026483535767
v 0.7810001373291016 17.860933303833008 -5.412369728088379
v -12.432971954345703 -2.5073537826538086 -0.3990152180194855
v -3.089901924133301 33.37847900390625 -1.8059844970703125
v -0.7353262901306152 34.69776916503906 -1.4286226034164429
v -0.9142464399337769 29.6007080078125 -3.707423686981201
v -4.037197113037109 28.959360122680664 -3.5339417457580566
v -5.2247748374938965 27.939104080200195 -0.5148703455924988
v 6.8640265464782715 18.427448272705078 -4.05950403213501
v 8.793007850646973 6.987361431121826 -4.371161937713623
v 10.366050720214844 7.40289306640625 -0.28141799569129944
v 12.432971000671387 -1.9440290927886963 0.3212125301361084
v 8.739786148071289 -2.1749398708343506 4.397965908050537
v -0.6127082109451294 27.22650146484375 3.218632221221924
v -3.9317467212677 28.58431053161621 1.936292052268982
v -4.211231231689453 18.774206161499023 3.3153460025787354
v -2.9478328227996826 32.45643997192383 1.629433274269104
v -5.2247748374938965 27.939104080200195 -0.5148703455924988
v -3.6322975158691406 33.08296585083008 0.33161619305610657
v -3.089901924133301 33.37847900390625 -1.8059844970703125
v -6.485634803771973 18.185937881469727 0.4006171226501465
v -4.172847270965576 17.964237213134766 -3.9863717555999756
v -10.749767303466797 7.503230571746826 -0.46855026483535767
v 1.3117097616195679 33.373741149902344 -1.7008033990859985
v 2.673640251159668 34.715728759765625 0.47588014602661133
v 4.621534824371338 30.209131240844727 -0.49359411001205444
v 3.493708848953247 29.22347640991211 -3.2458221912384033
v -0.3575901985168457 32.58378219604492 2.8163516521453857
v 1.4422643184661865 32.876220703125 1.7450555562973022
v 3.4239730834960938 28.47713851928711 2.280853748321533
v -7.293041706085205 7.270780086517334 4.423981189727783
v 6.56279182434082 18.19202995300293 3.5680105686187744
v 1.1036640405654907 17.48795509338379 4.562331199645996
v -0.12608548998832703 5.963141441345215 5.869280815124512
v -10.029313087463379 -2.540686845779419 4.535835266113281
v -12.432971954345703 -2.5073537826538086 -0.3990152180194855
v -0.30609840154647827 -3.386540651321411 6.108144283294678
v 8.009669303894043 18.716672897338867 -0.12415511161088943
v 8.150595664978027 7.277490615844727 4.38982629776001
v -0.1509896069765091 35.07649612426758 1.5140312910079956
v -0.3575901985168457 32.58378219604492 2.8163516521453857
v 1.4422643184661865 32.876220703125 1.7450555562973022
v -2.9478328227996826 32.45643997192383 1.629433274269104
v -3.6322975158691406 33.08296585083008 0.33161619305610657
v -3.089901924133301 33.37847900390625 -1.8059844970703125
vn -0.0007932590087875724 0.7884670495986938 -0.61507648229599
vn 0.6277576684951782 0.776121199131012 0.05963379144668579
vn 0.41000643372535706 0.5136671662330627 -0.7536847591400146
vn -0.022118976339697838 0.046601783484220505 -0.9986686110496521
vn -0.016600776463747025 0.06622008234262466 -0.9976669549942017
vn -0.47836434841156006 0.13262774050235748 -0.8680883646011353
vn 0.580365777015686 0.08047429472208023 -0.8103699684143066
vn -0.5678055286407471 0.11541874706745148 -0.8150308728218079
vn -0.44634920358657837 0.1325484812259674 -0.8849877119064331
vn -0.9601732492446899 0.27348607778549194 -0.057207539677619934
vn -0.03483104333281517 0.07292558997869492 -0.9967289566993713
vn -0.9806223511695862 0.1641414314508438 -0.10694584995508194
vn -0.6150020956993103 0.6375352144241333 -0.4640272855758667
vn -0.0007932590087875724 0.7884670495986938 -0.61507648229599
vn 0.0036875761579722166 0.25869083404541016 -0.9659531116485596
vn -0.6126352548599243 0.2251840978860855 -0.75760817527771
vn -0.9769244194030762 0.1919478476047516 0.09367348253726959
vn 0.6170448660850525 0.18198198080062866 -0.7655966281890869
vn 0.6139567494392395 0.09151074290275574 -0.7840171456336975
vn 0.9846800565719604 0.1671561449766159 0.049638938158750534
vn 0.9715637564659119 0.22042109072208405 0.08647778630256653
vn 0.5412110686302185 0.07983826100826263 0.8370880484580994
vn -0.03044823557138443 0.1375904083251953 0.9900211095809937
vn -0.6475566625595093 0.1730603128671646 0.7421054244041443
vn -0.5570412278175354 0.17376428842544556 0.8121028542518616
vn -0.600080668926239 0.30710574984550476 0.7386401295661926
vn -0.9769244194030762 0.1919478476047516 0.09367348253726959
vn -0.7913796901702881 0.5552200078964233 0.255829781293869
vn -0.6150020956993103 0.6375352144241333 -0.4640272855758667
vn -0.9651625752449036 0.2527952492237091 0.06749608367681503
vn -0.5678055286407471 0.11541874706745148 -0.8150308728218079
vn -0.9601732492446899 0.27348607778549194 -0.057207539677619934
vn 0.41000643372535706 0.5136671662330627 -0.7536847591400146
vn 0.6277576684951782 0.776121199131012 0.05963379144668579
vn 0.918955385684967 0.39026939868927 0.05666373670101166
vn 0.4935930669307709 0.3760486841201782 -0.7841895818710327
vn 0.034170739352703094 0.27579426765441895 0.9606091380119324
vn 0.4861162006855011 0.25579211115837097 0.8356204032897949
vn 0.4994358718395233 0.2882355749607086 0.8169969916343689
vn -0.5203220844268799 0.1870800256729126 0.8332262635231018
vn 0.5782111287117004 0.20358002185821533 0.7900804281234741
vn -0.01975443586707115 0.12333351373672485 0.992168664932251
vn -0.0034142688382416964 0.07453151792287827 0.997212827205658
vn -0.5579131841659546 0.12985816597938538 0.8196765780448914
vn -0.9806223511695862 0.1641414314508438 -0.10694584995508194
vn 0.013068029657006264 0.025285782292485237 0.9995948672294617
vn 0.9685382843017578 0.2436547428369522 0.05065568536520004
vn 0.599053144454956 0.09217939525842667 0.7953855991363525
vn -0.19288970530033112 0.8265626430511475 0.528760552406311
vn 0.034170739352703094 0.27579426765441895 0.9606091380119324
vn 0.4861162006855011 0.25579211115837097 0.8356204032897949
vn -0.600080668926239 0.30710574984550476 0.7386401295661926
vn -0.7913796901702881 0.5552200078964233 0.255829781293869
vn -0.6150020956993103 0.6375352144241333 -0.4640272855758667
vt 0.4803510010242462 0.40541672706604004
vt 0.28639039397239685 0.00037473440170288086
vt 0.4615796208381653 0.16219472885131836
vt 2.206578016281128 0.2556055784225464
vt 2.290757417678833 0.004986405372619629
vt 2.6317083835601807 0.003329038619995117
vt 1.8565387725830078 0.020276188850402832
vt 2.485227584838867 0.5550435781478882
vt 2.608797550201416 0.26779139041900635
vt 2.95951509475708 0.2833397388458252
vt 2.2147319316864014 0.552360475063324
vt 2.970158100128174 0.02333468198776245
vt 2.5938632488250732 0.9553978443145752
vt 2.373218059539795 0.98966383934021
vt 2.3100616931915283 0.8572778105735779
vt 2.5030322074890137 0.8406201004981995
vt 2.9093546867370605 0.8141209483146667
vt 1.9089272022247314 0.5670745968818665
vt 1.8675767183303833 0.2699410319328308
vt 1.5252524614334106 0.2807336449623108
vt 1.4759657382965088 0.03796589374542236
vt 1.1295150518417358 0.03196847438812256
vt 0.7035361528396606 0.7956125140190125
vt 0.36533886194229126 0.8308788537979126
vt 0.4743325114250183 0.5760809183120728
vt 0.39288613200187683 0.9314497709274292
vt -0.09064525365829468 0.8141209483146667
vt 0.08412094414234161 0.9477224946022034
vt -0.406136691570282 0.9553978443145752
vt 0.05723550170660019 0.5608018040657043
vt -0.5147724151611328 0.5550435781478882
vt -0.04048490524291992 0.2833397388458252
vt 2.0701754093170166 0.9552748799324036
vt 1.340492606163025 0.9901303052902222
vt 1.5980379581451416 0.8730803728103638
vt 2.0091826915740967 0.8474799990653992
vt 0.7189549207687378 0.9347572326660156
vt 0.9414093494415283 0.9423527717590332
vt 1.0632530450820923 0.8280953168869019
vt 0.4149075746536255 0.27730226516723633
vt 1.1110607385635376 0.560960054397583
vt 0.8089309930801392 0.5426731109619141
vt 0.7447401881217957 0.243338942527771
vt 0.3450762629508972 0.022468924522399902
vt -0.029841899871826172 0.02333468198776245
vt 0.7377322912216187 0.0004995465278625488
vt 1.5144274234771729 0.5745866298675537
vt 1.113300085067749 0.27747654914855957
vt 0.19300976395606995 0.3359878659248352
vt -0.027752459049224854 0.36053550243377686
vt 0.09199561178684235 0.1466827392578125
vt 0.08904087543487549 0.6682994365692139
vt 0.24368736147880554 0.7496253252029419
vt 0.47249314188957214 0.6851795315742493
g Geoset0
s 1
usemtl 190827
f 1/1/1 2/2/2 3/3/3
f 4/4/4 5/5/5 6/6/6
f 7/7/7 5/5/5 4/4/4
f 8/8/8 9/9/9 10/10/10
f 8/8/8 11/11/11 4/4/4
f 4/4/4 9/9/9 8/8/8
f 6/6/6 9/9/9 4/4/4
f 10/10/10 9/9/9 6/6/6
f 6/6/6 12/12/12 10/10/10
f 13/13/13 14/14/14 15/15/15
f 15/15/15 16/16/16 13/13/13
f 13/13/13 16/16/16 17/17/17
f 17/17/17 16/16/16 8/8/8
f 8/8/8 16/16/16 15/15/15
f 15/15/15 11/11/11 8/8/8
f 18/18/18 11/11/11 15/15/15
f 4/4/4 11/11/11 18/18/18
f 18/18/18 19/19/19 4/4/4
f 4/4/4 19/19/19 7/7/7
f 7/7/7 19/19/19 20/20/20
f 20/20/20 21/21/21 7/7/7
f 22/22/22 21/21/21 20/20/20
f 23/23/23 24/24/24 25/25/25
f 26/26/26 24/24/24 23/23/23
f 27/27/27 24/24/24 26/26/26
f 26/26/26 28/28/28 27/27/27
f 27/27/27 28/28/28 29/29/29
f 25/25/25 24/24/24 27/27/27
f 27/27/27 30/30/30 25/25/25
f 31/31/31 30/30/30 27/27/27
f 32/32/32 30/30/30 31/31/31
f 33/33/33 34/34/34 35/35/35
f 35/35/35 36/36/36 33/33/33
f 23/23/23 37/37/37 26/26/26
f 38/38/38 37/37/37 23/23/23
f 23/23/23 39/39/39 38/38/38
f 35/35/35 34/34/34 38/38/38
f 25/25/25 30/30/30 32/32/32
f 32/32/32 40/40/40 25/25/25
f 38/38/38 39/39/39 35/35/35
f 35/35/35 39/39/39 41/41/41
f 41/41/41 39/39/39 23/23/23
f 23/23/23 42/42/42 41/41/41
f 25/25/25 42/42/42 23/23/23
f 43/43/43 42/42/42 25/25/25
f 25/25/25 40/40/40 43/43/43
f 43/43/43 40/40/40 44/44/44
f 44/44/44 40/40/40 32/32/32
f 32/32/32 45/45/45 44/44/44
f 44/44/44 46/46/46 43/43/43
f 43/43/43 46/46/46 22/22/22
f 18/18/18 47/47/47 20/20/20
f 20/20/20 19/19/19 18/18/18
f 41/41/41 42/42/42 43/43/43
f 43/43/43 48/48/48 41/41/41
f 22/22/22 48/48/48 43/43/43
f 20/20/20 48/48/48 22/22/22
f 41/41/41 48/48/48 20/20/20
f 20/20/20 47/47/47 41/41/41
f 41/41/41 47/47/47 35/35/35
f 35/35/35 47/47/47 18/18/18
f 18/18/18 36/36/36 35/35/35
f 15/15/15 36/36/36 18/18/18
f 33/33/33 36/36/36 15/15/15
f 15/15/15 14/14/14 33/33/33
f 49/49/49 50/50/50 51/51/51
f 52/52/52 50/50/50 49/49/49
f 49/49/49 53/53/53 52/52/52
f 54/54/54 53/53/53 49/49/49
f 51/51/51 2/2/2 49/49/49
f 2/2/2 1/1/1 49/49/49
f 49/49/49 1/1/1 54/54/54