# Exported using wow.export v0.1.9
o TurkeyLeg
mtllib turkeyleg.mtl
v -0.4200420081615448 0.061210598796606064 0.00008333330333698541
v -0.34188899397850037 -0.0006416669930331409 0.04895079880952835
v -0.3666189908981323 0.09011559933423996 0.04819060117006302
v -0.25596898794174194 0.04046529904007912 0.02988779917359352
v -0.25460299849510193 0.023316100239753723 -0.05557030066847801
v -0.055034998804330826 0.0738494023680687 0.04500170052051544
v -0.32481399178504944 0.005492500029504299 -0.055786699056625366
v -0.34188899397850037 -0.0006416669930331409 0.04895079880952835
v -0.32481399178504944 0.005492500029504299 -0.055786699056625366
v -0.35931700468063354 0.11441999673843384 -0.047980599105358124
v -0.25460299849510193 0.023316100239753723 -0.05557030066847801
v -0.046901099383831024 0.08095859736204147 -0.026538100093603134
v -0.07213190197944641 0.13767699897289276 -0.03130500018596649
v 0.13266099989414215 0.03666609898209572 -0.10965099930763245
v -0.27062100172042847 0.10924000293016434 -0.03237469866871834
v 0.2539060115814209 0.02417830005288124 -0.13616999983787537
v 0.22992199659347534 0.17066200077533722 -0.175586998462677
v 0.07683829963207245 0.22603200376033783 -0.10400400310754776
v -0.07410939782857895 0.14584800601005554 0.04023440182209015
v -0.2768009901046753 0.11527299880981445 0.05308330059051514
v -0.3666189908981323 0.09011559933423996 0.04819060117006302
v 0.07631190121173859 0.24731199443340302 0.10657799988985062
v 0.35644200444221497 0.22740299999713898 0.009643330238759518
v 0.2678140103816986 0.3285810053348541 0.001741669955663383
v 0.39069700241088867 0.30056700110435486 0.09320060163736343
v 0.39070799946784973 0.28456899523735046 -0.09880059957504272
v 0.23904100060462952 0.15703800320625305 0.19369499385356903
v 0.2216150015592575 0.2954060137271881 0.13798700273036957
v 0.203698992729187 0.34746700525283813 0.006083060055971146
v 0.21478599309921265 0.30189400911331177 -0.12313400208950043
v 0.3253749907016754 0.20233899354934692 0.1356160044670105
v 0.4169920086860657 0.20202800631523132 -0.13591399788856506
v 0.3424389958381653 0.10639099776744843 -0.10266400128602982
v 0.43362200260162354 0.08167970180511475 0.012204200029373169
v 0.2676900029182434 -0.006252500228583813 0.007890559732913971
v 0.35878100991249084 0.08647940307855606 0.08933719992637634
v -0.046901099383831024 0.08095859736204147 -0.026538100093603134
v 0.10943000018596649 0.042033299803733826 0.10093100368976593
v 0.2732340097427368 0.05040860176086426 0.12495200335979462
v -0.055034998804330826 0.0738494023680687 0.04500170052051544
v -0.07410939782857895 0.14584800601005554 0.04023440182209015
v -0.2768009901046753 0.11527299880981445 0.05308330059051514
v -0.25596898794174194 0.04046529904007912 0.02988779917359352
vn -0.9919869899749756 -0.12564000487327576 -0.01328589953482151
vn -0.14441199600696564 -0.6218709945678711 0.7696890234947205
vn -0.49446800351142883 0.5133690237998962 0.7013940215110779
vn 0.26365599036216736 -0.7941309809684753 0.547577977180481
vn 0.21717800199985504 -0.5272589921951294 -0.8214809894561768
vn -0.13069400191307068 -0.7333289980888367 0.6671940088272095
vn -0.13800600171089172 -0.8327040076255798 -0.5362449884414673
vn -0.14441199600696564 -0.6218709945678711 0.7696890234947205
vn -0.13800600171089172 -0.8327040076255798 -0.5362449884414673
vn -0.2893190085887909 0.7382500171661377 -0.6093289852142334
vn 0.21717800199985504 -0.5272589921951294 -0.8214809894561768
vn -0.11057599633932114 -0.7313299775123596 -0.6729999780654907
vn -0.31579598784446716 0.3730590045452118 -0.872409999370575
vn -0.37724900245666504 -0.7075319886207581 -0.5975630283355713
vn -0.017801599577069283 0.8503400087356567 -0.5259320139884949
vn 0.31922098994255066 -0.699770987033844 -0.6390770077705383
vn -0.13439899682998657 0.020201899111270905 -0.9907209873199463
vn -0.5817480087280273 0.5806760191917419 -0.5695469975471497
vn -0.39241600036621094 0.8496789932250977 0.3522140085697174
vn -0.016600999981164932 0.5326730012893677 0.8461580276489258
vn -0.49446800351142883 0.5133690237998962 0.7013940215110779
vn -0.5564249753952026 0.459416002035141 0.6923350095748901
vn 0.9683480262756348 0.17799200117588043 0.17499099671840668
vn 0.4276120066642761 0.8860669732093811 -0.17897699773311615
vn 0.6792600154876709 0.698589026927948 0.2249000072479248
vn 0.6528199911117554 0.7515469789505005 -0.094889797270298
vn 0.10784199833869934 -0.09029339998960495 0.9900590181350708
vn 0.002110159955918789 0.6239410042762756 0.7814679741859436
vn -0.17240099608898163 0.9849929809570312 -0.008195949718356133
vn -0.02201800048351288 0.7309460043907166 -0.682079017162323
vn 0.7141320109367371 0.03325920179486275 0.6992200016975403
vn 0.7907230257987976 -0.10020200163125992 -0.6039180159568787
vn 0.812205970287323 -0.520484983921051 -0.26346999406814575
vn 0.9432560205459595 -0.33083099126815796 0.028629999607801437
vn 0.2575890123844147 -0.9646270275115967 0.056053899228572845
vn 0.70380699634552 -0.30285900831222534 0.6425979733467102
vn -0.11057599633932114 -0.7313299775123596 -0.6729999780654907
vn -0.2941110134124756 -0.7282860279083252 0.6189500093460083
vn 0.23461300134658813 -0.7134760022163391 0.6602339744567871
vn -0.13069400191307068 -0.7333289980888367 0.6671940088272095
vn -0.39241600036621094 0.8496789932250977 0.3522140085697174
vn -0.016600999981164932 0.5326730012893677 0.8461580276489258
vn 0.26365599036216736 -0.7941309809684753 0.547577977180481
vt 0.4761900007724762 0.055118024349212646
vt 0.7936509847640991 0.14173197746276855
vt 0.20634900033473969 0.14173197746276855
vt 0.7619050145149231 0.26771700382232666
vt 0.2222220003604889 0.26771700382232666
vt 0.7619050145149231 0.4094489812850952
vt 0.2222220003604889 0.14173197746276855
vt 0.7619050145149231 0.14173197746276855
vt 0.20634900033473969 0.14173197746276855
vt 0.7619050145149231 0.14173197746276855
vt 0.20634900033473969 0.26771700382232666
vt 0.20634900033473969 0.4094489812850952
vt 0.7619050145149231 0.4094489812850952
vt 0.015873000025749207 0.5511809885501862
vt 0.7619050145149231 0.26771700382232666
vt 0.015873000025749207 0.6850390136241913
vt 0.4761900007724762 0.6850390136241913
vt 0.9841269850730896 0.5511809885501862
vt 0.2222220003604889 0.4094489812850952
vt 0.2222220003604889 0.26771700382232666
vt 0.2222220003604889 0.14173197746276855
vt 0.015873000025749207 0.5511809885501862
vt 0.4761900007724762 1
vt 0.4761900007724762 0.818898007273674
vt 0.015873000025749207 0.8818899989128113
vt 0.9841269850730896 0.8818899989128113
vt 0.4761900007724762 0.6850390136241913
vt 0.015873000025749207 0.6850390136241913
vt 0.4761900007724762 0.6850390136241913
vt 0.9841269850730896 0.6850390136241913
vt 0.4761900007724762 0.818898007273674
vt 0.4761900007724762 0.818898007273674
vt 0.015873000025749207 0.8818899989128113
vt 0.4761900007724762 0.818898007273674
vt 0.4761900007724762 0.6850390136241913
vt 0.9841269850730896 0.8818899989128113
vt 0.2222220003604889 0.4094489812850952
vt 0.9841269850730896 0.5511809885501862
vt 0.9841269850730896 0.6850390136241913
vt 0.7936509847640991 0.4094489812850952
vt 0.20634900033473969 0.4094489812850952
vt 0.20634900033473969 0.26771700382232666
vt 0.7936509847640991 0.26771700382232666
g Geoset0
s 1
usemtl 198237
f 1/1/1 2/2/2 3/3/3
f 4/4/4 5/5/5 6/6/6
f 4/4/4 7/7/7 5/5/5
f 8/8/8 7/7/7 4/4/4
f 1/1/1 7/7/7 8/8/8
f 9/9/9 10/10/10 11/11/11
f 1/1/1 10/10/10 9/9/9
f 12/12/12 13/13/13 14/14/14
f 11/11/11 13/13/13 12/12/12
f 11/11/11 15/15/15 13/13/13
f 11/11/11 10/10/10 15/15/15
f 16/16/16 14/14/14 17/17/17
f 14/14/14 18/18/18 17/17/17
f 14/14/14 13/13/13 18/18/18
f 13/13/13 19/19/19 18/18/18
f 15/15/15 19/19/19 13/13/13
f 15/15/15 20/20/20 19/19/19
f 10/10/10 20/20/20 15/15/15
f 10/10/10 21/21/21 20/20/20
f 1/1/1 21/21/21 10/10/10
f 18/18/18 19/19/19 22/22/22
f 23/23/23 24/24/24 25/25/25
f 23/23/23 26/26/26 24/24/24
f 22/22/22 27/27/27 28/28/28
f 29/29/29 22/22/22 28/28/28
f 18/18/18 22/22/22 29/29/29
f 18/18/18 29/29/29 30/30/30
f 28/28/28 27/27/27 31/31/31
f 28/28/28 31/31/31 25/25/25
f 29/29/29 28/28/28 25/25/25
f 29/29/29 25/25/25 24/24/24
f 30/30/30 29/29/29 24/24/24
f 30/30/30 24/24/24 26/26/26
f 32/32/32 30/30/30 26/26/26
f 23/23/23 32/32/32 26/26/26
f 23/23/23 33/33/33 32/32/32
f 23/23/23 34/34/34 33/33/33
f 18/18/18 30/30/30 17/17/17
f 17/17/17 30/30/30 32/32/32
f 16/16/16 17/17/17 32/32/32
f 16/16/16 32/32/32 33/33/33
f 35/35/35 16/16/16 33/33/33
f 35/35/35 33/33/33 34/34/34
f 36/36/36 35/35/35 34/34/34
f 23/23/23 36/36/36 34/34/34
f 23/23/23 31/31/31 36/36/36
f 23/23/23 25/25/25 31/31/31
f 14/14/14 16/16/16 35/35/35
f 6/6/6 5/5/5 37/37/37
f 6/6/6 37/37/37 14/14/14
f 6/6/6 14/14/14 38/38/38
f 38/38/38 14/14/14 35/35/35
f 39/39/39 38/38/38 35/35/35
f 39/39/39 35/35/35 36/36/36
f 27/27/27 39/39/39 36/36/36
f 27/27/27 36/36/36 31/31/31
f 27/27/27 38/38/38 39/39/39
f 22/22/22 38/38/38 27/27/27
f 22/22/22 40/40/40 38/38/38
f 41/41/41 40/40/40 22/22/22
f 42/42/42 40/40/40 41/41/41
f 42/42/42 43/43/43 40/40/40
f 42/42/42 2/2/2 43/43/43
f 3/3/3 2/2/2 42/42/42