# Exported using wow.export v0.1.9
o Candle02
mtllib candle02.mtl
v -0.22117412090301514 -0.0025893847923725843 -0.11908730119466782
v -0.22117412090301514 -0.0025893847923725843 0.13638034462928772
v -0.18591000139713287 0.37823766469955444 0.1176770031452179
v -0.18591000139713287 0.37823766469955444 0.1176770031452179
v 0.00006735286297043785 0.41103044152259827 0.22670745849609375
v 0.0029465940315276384 0.32916921377182007 0.008646507747471333
v 0.18604467809200287 0.4438232481479645 0.11767697334289551
v 0.18604467809200287 0.4438232481479645 -0.1003839522600174
v 0.00006733743794029579 0.41103044152259827 -0.20941443741321564
v -0.18591000139713287 0.37823766469955444 -0.1003839522600174
v 0.00006735286297043785 0.41103044152259827 0.22670745849609375
v -0.18591000139713287 0.37823766469955444 0.1176770031452179
v -0.22117412090301514 -0.0025893847923725843 0.13638034462928772
v 0.00006736254727002233 -0.0025893847923725843 0.2641141414642334
v 0.18604467809200287 0.4438232481479645 0.11767697334289551
v 0.22130879759788513 -0.0025893847923725843 0.13638032972812653
v 0.18604467809200287 0.4438232481479645 -0.1003839522600174
v 0.22130879759788513 -0.0025893847923725843 -0.11908730119466782
v 0.00006733743794029579 0.41103044152259827 -0.20941443741321564
v 0.18604467809200287 0.4438232481479645 -0.1003839522600174
v 0.22130879759788513 -0.0025893847923725843 -0.11908730119466782
v 0.00006734022463206202 -0.0025893847923725843 -0.24682113528251648
v -0.18591000139713287 0.37823766469955444 -0.1003839522600174
v 1.4073745724374476e-8 0.3214455842971802 -0.0037560793571174145
v 1.7124230922149764e-8 0.43976548314094543 0.008393500000238419
v 1.4073745724374476e-8 0.3214455842971802 0.01658506505191326
vn -0.8618775606155396 0.10418332368135452 -0.49629920721054077
vn -0.8636934757232666 0.10005874931812286 0.49398568272590637
vn -0.6447149515151978 0.6909728646278381 0.32695436477661133
vn -0.6447149515151978 0.6909728646278381 0.32695436477661133
vn -0.07493748515844345 0.7336105108261108 0.6754257678985596
vn -0.15367548167705536 0.9881213903427124 2.772632790026819e-8
vn 0.5154972076416016 0.7853890657424927 0.34267574548721313
vn 0.5153797268867493 0.7851076126098633 -0.3434964120388031
vn -0.07685437798500061 0.7320178747177124 -0.676936686038971
vn -0.6441448926925659 0.6896209716796875 -0.3309082090854645
vn -0.07493748515844345 0.7336105108261108 0.6754257678985596
vn -0.6447149515151978 0.6909728646278381 0.32695436477661133
vn -0.8636934757232666 0.10005874931812286 0.49398568272590637
vn -0.0007166168070398271 0.08903627842664719 0.9960281252861023
vn 0.5154972076416016 0.7853890657424927 0.34267574548721313
vn 0.8630748391151428 0.08900813013315201 0.49717140197753906
vn 0.5153797268867493 0.7851076126098633 -0.3434964120388031
vn 0.8626440167427063 0.09000518172979355 -0.4977392554283142
vn -0.07685437798500061 0.7320178747177124 -0.676936686038971
vn 0.5153797268867493 0.7851076126098633 -0.3434964120388031
vn 0.8626440167427063 0.09000518172979355 -0.4977392554283142
vn -0.0028831660747528076 0.09408359229564667 -0.9955601096153259
vn -0.6441448926925659 0.6896209716796875 -0.3309082090854645
vn 1 -2.57816719084758e-8 0
vn 1 -2.578167368483264e-8 0
vn 1 -2.57816719084758e-8 0
vt 0.8556504249572754 0.287656307220459
vt 0.8556504249572754 0.35721349716186523
vt 0.6365045309066772 0.35721349716186523
vt 0.8802343010902405 0.04653960466384888
vt 0.9265239238739014 0.01623988151550293
vt 0.9340498447418213 0.08085322380065918
vt 0.9833496809005737 0.04453277587890625
vt 0.98234623670578 0.11165469884872437
vt 0.9270256757736206 0.14546656608581543
vt 0.8847498893737793 0.11014950275421143
vt 0.6365045309066772 0.23210251331329346
vt 0.6365045309066772 0.1625453233718872
vt 0.8556504249572754 0.1625453233718872
vt 0.8556504249572754 0.23210251331329346
vt 0.6365045309066772 0.29306483268737793
vt 0.8556504249572754 0.29306483268737793
vt 0.6365045309066772 0.35721349716186523
vt 0.8556504249572754 0.35721349716186523
vt 0.6365045309066772 0.2266939878463745
vt 0.6365045309066772 0.1625453233718872
vt 0.8556504249572754 0.1625453233718872
vt 0.8556504249572754 0.2266939878463745
vt 0.6365045309066772 0.287656307220459
vt 0.4880671501159668 0.2421172857284546
vt 0.47017791867256165 0.29967743158340454
vt 0.45223549008369446 0.2421172857284546
g Geoset0
s 1
usemtl 645197
f 1/1/1 2/2/2 3/3/3
f 4/4/4 5/5/5 6/6/6
f 6/6/6 5/5/5 7/7/7
f 6/6/6 7/7/7 8/8/8
f 8/8/8 9/9/9 6/6/6
f 9/9/9 10/10/10 6/6/6
f 10/10/10 4/4/4 6/6/6
f 11/11/11 12/12/12 13/13/13
f 13/13/13 14/14/14 11/11/11
f 15/15/15 11/11/11 14/14/14
f 14/14/14 16/16/16 15/15/15
f 17/17/17 15/15/15 16/16/16
f 16/16/16 18/18/18 17/17/17
f 19/19/19 20/20/20 21/21/21
f 21/21/21 22/22/22 19/19/19
f 23/23/23 19/19/19 22/22/22
f 22/22/22 1/1/1 23/23/23
f 3/3/3 23/23/23 1/1/1
f 24/24/24 25/25/25 26/26/26