# Exported using wow.export v0.1.9
o GnomePipe03
mtllib gnomepipe03.mtl
v 0.640378475189209 12.240058898925781 -3.8697433471679688
v 1.3974359035491943 12.224281311035156 -2.7994327545166016
v 1.1137394905090332 -4.782186508178711 -2.9462642669677734
v -0.10977478325366974 -7.004145622253418 0.8877013325691223
v -0.8919480443000793 -7.361852169036865 0.8927714228630066
v -0.9277670383453369 -7.222720623016357 4.87658166885376
v -0.14559368789196014 -6.865015506744385 4.871511936187744
v -1.114911437034607 -8.027484893798828 4.9147210121154785
v -1.0790925025939941 -8.166616439819336 0.9309105277061462
v -0.5735347867012024 -8.673235893249512 4.957078456878662
v -0.5377158522605896 -8.81236743927002 0.9732682108879089
v 0.2870136797428131 -8.67369556427002 4.9717326164245605
v 0.3228324353694916 -8.812827110290527 0.9879246950149536
v 0.8269043564796448 -8.028590202331543 4.947784423828125
v 0.862723171710968 -8.16772174835205 0.9639761447906494
v 0.6376275420188904 -7.2236809730529785 4.903242588043213
v 0.6734464764595032 -7.362812519073486 0.9194338321685791
v -1.5435588359832764 12.251484870910645 -2.9687960147857666
v -0.6684865355491638 12.252163887023926 -3.945117950439453
v -0.4984974265098572 -4.7604289054870605 -3.8403422832489014
v -1.1814002990722656 -4.760959625244141 -3.0784294605255127
v -1.3258897066116333 12.238532066345215 -1.6759682893753052
v -1.0115286111831665 -4.7710676193237305 -2.0695137977600098
v -0.17938832938671112 12.223058700561523 -1.0401607751846313
v -0.11680877208709717 -4.78314208984375 -1.573311448097229
v 1.0326040983200073 12.216721534729004 -1.5401479005813599
v 0.829027533531189 -4.788090705871582 -1.9635181427001953
v 1.1137394905090332 -4.782186508178711 -2.9462642669677734
v 0.5229375958442688 -4.769876003265381 -3.781526803970337
v -0.49849754571914673 -4.7604289054870605 -3.8403406143188477
v 0.5229376554489136 -4.769876003265381 -3.781525135040283
v 0.8868588805198669 -4.766964435577393 -4.495279788970947
v -0.0656641349196434 -6.166775703430176 -0.7804158329963684
v 1.6465297937393188 -6.548536777496338 -1.4181166887283325
v 1.4674437046051025 -4.7974348068237305 -1.5241012573242188
v -0.0683572068810463 -4.789809703826904 -0.8429338335990906
v -1.731745958328247 -6.546053886413574 -1.5229355096817017
v -1.5583571195602417 -4.770131587982178 -1.6189734935760498
v -2.091216802597046 -7.400893211364746 -3.0794196128845215
v -1.8805577754974365 -4.753218173980713 -3.267853021621704
v -0.8826959133148193 -8.0875244140625 -4.274433135986328
v -0.7923327088356018 -4.751812934875488 -4.54792594909668
v 0.9820154309272766 -8.088810920715332 -4.21673059463501
v -0.8919477462768555 -7.361852169036865 0.8927711844444275
v -0.10977432131767273 -7.004145622253418 0.8877010941505432
v -0.1135476604104042 -6.091307163238525 0.8949470520019531
v -1.6445807218551636 -6.792063236236572 0.8619107604026794
v -1.7388654947280884 -6.831374168395996 -1.214266061782837
v 1.4214626550674438 -6.794312953948975 0.9593353271484375
v 0.6734470129013062 -7.362812519073486 0.91943359375
v 1.794350266456604 -8.371606826782227 1.0062568187713623
v 0.862723708152771 -8.16772174835205 0.9639757871627808
v 0.7386326193809509 -9.635586738586426 1.0008456707000732
v 0.32283297181129456 -8.812827110290527 0.9879243969917297
v -0.9468713402748108 -9.634483337402344 0.9472883939743042
v -0.5377154350280762 -8.81236743927002 0.9732678532600403
v -2.0089669227600098 -8.368985176086426 0.8854114413261414
v -1.0790921449661255 -8.166616439819336 0.9309102296829224
v -2.1130847930908203 -8.327305793762207 -2.0771524906158447
v -0.9225335717201233 -9.527998924255371 -2.7160866260528564
v 0.9329589009284973 -9.52920150756836 -2.658592462539673
v 2.073650598526001 -8.330166816711426 -1.9473320245742798
v 1.6361193656921387 -6.833827018737793 -1.1095209121704102
v 2.1088409423828125 -7.403875827789307 -2.949296236038208
v 1.1137396097183228 -4.782186508178711 -2.946262836456299
v 1.8925552368164062 -4.787271976470947 -3.1495473384857178
v 0.8290275931358337 -4.788090705871582 -1.9635164737701416
v -0.11680880934000015 -4.78314208984375 -1.5733098983764648
v -1.011528730392456 -4.7710676193237305 -2.069512128829956
v -1.1814005374908447 -4.760959625244141 -3.078427791595459
vn 0.46423816680908203 -0.008126265369355679 -0.8856731057167053
vn 0.9846094250679016 -0.015399007126688957 -0.17408953607082367
vn 0.9844599962234497 -0.015389600768685341 -0.17493340373039246
vn -0.0010575586929917336 0.9994049668312073 -0.0344763845205307
vn -0.7626800537109375 0.6461023688316345 -0.029509728774428368
vn -0.7668417692184448 0.6411634683609009 -0.029378801584243774
vn 0.002992410445585847 0.9994023442268372 -0.03443794697523117
vn -0.9693159461021423 -0.24581731855869293 -0.000708318199031055
vn -0.9725351333618164 -0.23275302350521088 -0.0011894084746018052
vn -0.40855205059051514 -0.9123178720474243 0.027591418474912643
vn -0.41625142097473145 -0.9088366627693176 0.02739843539893627
vn 0.4109766483306885 -0.9109617471694946 0.03531103953719139
vn 0.41176608204841614 -0.9106053709983826 0.035306286066770554
vn 0.9701012969017029 -0.24206559360027313 0.017541417852044106
vn 0.9727744460105896 -0.23111563920974731 0.017189128324389458
vn 0.7681463360786438 0.6401033401489258 -0.014795813709497452
vn 0.7602909207344055 0.6494050621986389 -0.015190971083939075
vn -0.9568983912467957 -0.020113594830036163 -0.2897256314754486
vn -0.3681960999965668 -0.010152645409107208 -0.9296927452087402
vn -0.36208364367485046 -0.010101481340825558 -0.9320908784866333
vn -0.9557787179946899 -0.020065924152731895 -0.2934013307094574
vn -0.8028548359870911 -0.029496289789676666 0.5954444408416748
vn -0.8015169501304626 -0.02950982190668583 0.5972434282302856
vn -0.05796166881918907 -0.031114237383008003 0.9978338479995728
vn -0.051840364933013916 -0.031098205596208572 0.9981710910797119
vn 0.7254155278205872 -0.025640562176704407 0.6878334283828735
vn 0.7294360399246216 -0.02558567002415657 0.6835703253746033
vn 0.9844599962234497 -0.015389600768685341 -0.17493340373039246
vn 0.46837466955184937 -0.008142458274960518 -0.8834924101829529
vn 0.008754045702517033 0.9999213218688965 0.008983591571450233
vn 0.008757020346820354 0.9999212622642517 0.008986030705273151
vn 0.3410465121269226 0.5870566964149475 -0.7342014312744141
vn -0.020408235490322113 0.7355612516403198 0.6771507263183594
vn 0.8065395355224609 0.28246191143989563 0.5193353891372681
vn 0.5563925504684448 0.6498464345932007 0.5178098082542419
vn -0.01001316960901022 0.6214268207550049 0.7834082245826721
vn -0.8433974981307983 0.2744993567466736 0.4618774354457855
vn -0.5899018049240112 0.6561404466629028 0.4706331491470337
vn -0.9294486045837402 -0.11085927486419678 -0.35190266370773315
vn -0.7333360910415649 0.6384640336036682 -0.2336275279521942
vn -0.3576653003692627 -0.3931275010108948 -0.847069263458252
vn -0.30209848284721375 0.5834313631057739 -0.7538861632347107
vn 0.40361762046813965 -0.398248553276062 -0.8237056136131287
vn -0.010853061452507973 0.02852543257176876 0.9995341300964355
vn -0.016920682042837143 -0.007924833334982395 0.9998254179954529
vn -0.026301952078938484 0.7734291553497314 0.6333367824554443
vn -0.583089292049408 0.5185379981994629 0.6254000663757324
vn -0.8268333077430725 0.5189601182937622 0.21685738861560822
vn 0.5409083962440491 0.5017061233520508 0.6750622987747192
vn -0.04749682918190956 0.006868984084576368 0.9988477826118469
vn 0.7102418541908264 -0.1820654273033142 0.6800063848495483
vn -0.027186516672372818 0.037255775183439255 0.998935878276825
vn 0.29693660140037537 -0.6971831321716309 0.6525061726570129
vn -0.006310989148914814 0.008584006689488888 0.9999432563781738
vn -0.32316118478775024 -0.7040238380432129 0.6323901414871216
vn -0.03516996279358864 -0.009099015034735203 0.9993399381637573
vn -0.7557845711708069 -0.1795465648174286 0.6297243237495422
vn -0.043846357613801956 0.027769574895501137 0.9986522793769836
vn -0.9391246438026428 -0.3230772018432617 -0.11690176278352737
vn -0.36786478757858276 -0.8538642525672913 -0.3682273030281067
vn 0.39369022846221924 -0.8543155193328857 -0.33934199810028076
vn 0.9432488083839417 -0.3287133574485779 -0.04721398279070854
vn 0.812552809715271 0.5205114483833313 0.2623465061187744
vn 0.9531222581863403 -0.11593268811702728 -0.27949514985084534
vn 0.00875869207084179 0.9999212622642517 0.008984760381281376
vn 0.7451134324073792 0.6438943147659302 -0.17379911243915558
vn 0.008755713701248169 0.9999212622642517 0.008987372741103172
vn 0.008755872026085854 0.9999212622642517 0.008989798836410046
vn 0.008754104375839233 0.9999212622642517 0.008988399989902973
vn 0.008755683898925781 0.9999213218688965 0.008985182270407677
vt 0.44343483448028564 0.39002835750579834
vt 0.339140921831131 0.39096373319625854
vt 0.34090378880500793 1.3864803314208984
vt 0.43697306513786316 0.9995006918907166
vt 0.5455307364463806 0.9946214556694031
vt 0.5433423519134521 0.0126723051071167
vt 0.44225239753723145 0.017551541328430176
vt 0.659661054611206 0.00509035587310791
vt 0.6547864079475403 0.9870394468307495
vt 0.5831794142723083 0.000499725341796875
vt 0.5709611773490906 0.9824488162994385
vt 0.4974055588245392 0.002353191375732422
vt 0.484449177980423 0.9843020439147949
vt 0.4148877263069153 0.009273231029510498
vt 0.40771546959877014 0.9912221431732178
vt 0.33867236971855164 0.01604330539703369
vt 0.3388516902923584 0.997992217540741
vt 0.6618432998657227 0.3874792456626892
vt 0.54677414894104 0.3884779214859009
vt 0.5481936931610107 1.3848363161087036
vt 0.6616208553314209 1.3841760158538818
vt 0.5829237699508667 0.3877847194671631
vt 0.5830554366111755 1.3843779563903809
vt 0.5017222166061401 0.3891643285751343
vt 0.5041102170944214 1.385290265083313
vt 0.41884174942970276 0.39057856798171997
vt 0.4182989299297333 1.386225938796997
vt 0.3377428948879242 1.3864803314208984
vt 0.4432408809661865 1.385861873626709
vt 0.6095781326293945 0.17084181308746338
vt 0.6095781326293945 0.33502084016799927
vt 0.5028775334358215 0.33502084016799927
vt 0.7585406303405762 0.25053101778030396
vt 0.7453070282936096 0.3749091625213623
vt 0.5788499712944031 0.3749091625213623
vt 0.5962348580360413 0.25053101778030396
vt 0.745267927646637 0.1261528730392456
vt 0.5788499712944031 0.12615293264389038
vt 0.7059211730957031 0.006743967533111572
vt 0.5417289137840271 0.006744027137756348
vt 0.6630327105522156 0.17084181308746338
vt 0.5028775334358215 0.17084181308746338
vt 0.6630520224571228 0.33502084016799927
vt 0.8557797074317932 0.1261528730392456
vt 0.8457437753677368 0.2505309581756592
vt 0.9065176248550415 0.2505309581756592
vt 0.9232325553894043 0.1261528730392456
vt 0.7646645307540894 0.1261528730392456
vt 0.9232326149940491 0.37490910291671753
vt 0.8557797074317932 0.37490910291671753
vt 0.9578982591629028 0.4992051124572754
vt 0.8763849139213562 0.4992051124572754
vt 0.9969537258148193 0.3350207805633545
vt 0.900180995464325 0.3350207805633545
vt 0.9969536662101746 0.1708417534828186
vt 0.9001809358596802 0.1708417534828186
vt 0.9578982591629028 0.006743907928466797
vt 0.8763848543167114 0.006743907928466797
vt 0.7820281982421875 0.006743967533111572
vt 0.8035297989845276 0.1708417534828186
vt 0.8035497665405273 0.33502084016799927
vt 0.7820754647254944 0.4992051124572754
vt 0.7647035717964172 0.3749091625213623
vt 0.7059676051139832 0.4992051124572754
vt 0.631604790687561 0.4992051124572754
vt 0.5417289733886719 0.4992051124572754
vt 0.6532227993011475 0.3749091625213623
vt 0.6632435321807861 0.25053101778030396
vt 0.6532227993011475 0.12615293264389038
vt 0.631604790687561 0.006744027137756348
g Geoset0
s 1
usemtl 129281
f 1/1/1 2/2/2 3/3/3
f 4/4/4 5/5/5 6/6/6
f 6/6/6 7/7/7 4/4/4
f 8/8/8 6/6/6 5/5/5
f 5/5/5 9/9/9 8/8/8
f 10/10/10 8/8/8 9/9/9
f 9/9/9 11/11/11 10/10/10
f 12/12/12 10/10/10 11/11/11
f 11/11/11 13/13/13 12/12/12
f 14/14/14 12/12/12 13/13/13
f 13/13/13 15/15/15 14/14/14
f 16/16/16 14/14/14 15/15/15
f 15/15/15 17/17/17 16/16/16
f 7/7/7 16/16/16 17/17/17
f 17/17/17 4/4/4 7/7/7
f 18/18/18 19/19/19 20/20/20
f 20/20/20 21/21/21 18/18/18
f 22/22/22 18/18/18 21/21/21
f 21/21/21 23/23/23 22/22/22
f 24/24/24 22/22/22 23/23/23
f 23/23/23 25/25/25 24/24/24
f 26/26/26 24/24/24 25/25/25
f 25/25/25 27/27/27 26/26/26
f 2/2/2 26/26/26 27/27/27
f 27/27/27 28/28/28 2/2/2
f 3/3/3 29/29/29 1/1/1
f 19/19/19 1/1/1 29/29/29
f 29/29/29 20/20/20 19/19/19
g Geoset1
s 1
usemtl 127479
f 30/30/30 31/31/31 32/32/32
f 33/33/33 34/34/34 35/35/35
f 33/33/33 35/35/35 36/36/36
f 37/37/37 33/33/33 36/36/36
f 37/37/37 36/36/36 38/38/38
f 39/39/39 37/37/37 38/38/38
f 39/39/39 38/38/38 40/40/40
f 41/41/41 39/39/39 40/40/40
f 41/41/41 40/40/40 42/42/42
f 43/43/43 41/41/41 42/42/42
f 43/43/43 42/42/42 32/32/32
f 44/44/44 45/45/45 46/46/46
f 46/46/46 47/47/47 44/44/44
f 47/47/47 46/46/46 33/33/33
f 47/47/47 33/33/33 48/48/48
f 48/48/48 33/33/33 37/37/37
f 49/49/49 46/46/46 45/45/45
f 45/45/45 50/50/50 49/49/49
f 51/51/51 49/49/49 50/50/50
f 50/50/50 52/52/52 51/51/51
f 53/53/53 51/51/51 52/52/52
f 52/52/52 54/54/54 53/53/53
f 55/55/55 53/53/53 54/54/54
f 54/54/54 56/56/56 55/55/55
f 57/57/57 55/55/55 56/56/56
f 56/56/56 58/58/58 57/57/57
f 47/47/47 57/57/57 58/58/58
f 58/58/58 44/44/44 47/47/47
f 57/57/57 47/47/47 48/48/48
f 57/57/57 48/48/48 59/59/59
f 55/55/55 57/57/57 59/59/59
f 55/55/55 59/59/59 60/60/60
f 53/53/53 55/55/55 60/60/60
f 53/53/53 60/60/60 61/61/61
f 51/51/51 53/53/53 61/61/61
f 51/51/51 61/61/61 62/62/62
f 49/49/49 51/51/51 62/62/62
f 49/49/49 62/62/62 63/63/63
f 46/46/46 49/49/49 63/63/63
f 46/46/46 63/63/63 33/33/33
f 59/59/59 48/48/48 37/37/37
f 59/59/59 37/37/37 39/39/39
f 60/60/60 59/59/59 39/39/39
f 60/60/60 39/39/39 41/41/41
f 61/61/61 60/60/60 41/41/41
f 61/61/61 41/41/41 43/43/43
f 62/62/62 61/61/61 43/43/43
f 62/62/62 43/43/43 64/64/64
f 63/63/63 62/62/62 64/64/64
f 63/63/63 64/64/64 34/34/34
f 33/33/33 63/63/63 34/34/34
f 31/31/31 65/65/65 66/66/66
f 66/66/66 32/32/32 31/31/31
f 64/64/64 32/32/32 66/66/66
f 64/64/64 43/43/43 32/32/32
f 34/34/34 64/64/64 66/66/66
f 34/34/34 66/66/66 35/35/35
f 35/35/35 66/66/66 65/65/65
f 65/65/65 67/67/67 35/35/35
f 36/36/36 35/35/35 67/67/67
f 67/67/67 68/68/68 36/36/36
f 38/38/38 36/36/36 68/68/68
f 68/68/68 69/69/69 38/38/38
f 40/40/40 38/38/38 69/69/69
f 69/69/69 70/70/70 40/40/40
f 42/42/42 40/40/40 70/70/70
f 70/70/70 30/30/30 42/42/42
f 32/32/32 42/42/42 30/30/30