# Exported using wow.export v0.1.9
o WestfallFence
mtllib westfallfence.mtl
v -4.151000499725342 1.1451810598373413 -0.01854533888399601
v -4.157594680786133 1.4458286762237549 0.11330107599496841
v -4.156319618225098 1.4823271036148071 -0.09624646604061127
v -4.150013446807861 0.2629454433917999 0.0011979060946032405
v -4.150013446807861 0.5960124731063843 0.08871214836835861
v -4.150013446807861 0.5960124135017395 -0.08631631731987
v 0.14094562828540802 -0.5586665868759155 0.14164164662361145
v -0.133505716919899 -0.5586665868759155 -0.13080887496471405
v 0.14094562828540802 -0.5586665272712708 -0.13080887496471405
v -0.133505716919899 -0.5586665868759155 -0.13080887496471405
v 0.14094562828540802 -0.5586665868759155 0.14164164662361145
v -0.13383716344833374 -0.5586665272712708 0.14075222611427307
v -0.133505716919899 -0.5586665272712708 0.14164167642593384
v 0.14094562828540802 -0.5586665868759155 0.14164164662361145
v 0.14094561338424683 1.6736464500427246 0.14164166152477264
v -0.13350573182106018 1.6736464500427246 0.14164167642593384
v 0.0003941023023799062 1.9017482995986938 0.002114806091412902
v 0.14094561338424683 1.6736464500427246 -0.13080881536006927
v -0.13350573182106018 1.6736464500427246 -0.13080887496471405
v 0.14094562828540802 -0.5586665272712708 -0.13080887496471405
v -0.133505716919899 -0.5586665868759155 -0.13080887496471405
v 0.0003941023023799062 1.9017482995986938 0.002114806091412902
v 0.14094561338424683 1.6736464500427246 0.14164166152477264
v 0.14094561338424683 1.6736464500427246 -0.13080881536006927
v 0.14094562828540802 -0.5586665868759155 0.14164164662361145
v 0.14094562828540802 -0.5586665272712708 -0.13080887496471405
v -0.133505716919899 -0.5586665868759155 -0.13080887496471405
v -0.13383716344833374 -0.5586665272712708 0.14075222611427307
v -0.13350573182106018 1.6736464500427246 0.14164167642593384
v -0.13350573182106018 1.6736464500427246 -0.13080887496471405
v -3.0796127319335938 0.6239134073257446 -0.055572204291820526
v -4.150013446807861 0.5960124135017395 -0.08631631731987
v -4.150013446807861 0.5960124731063843 0.08871214836835861
v -3.075025796890259 0.646461009979248 0.18339164555072784
v -0.9741686582565308 0.5402252674102783 -0.018316535279154778
v -0.9886414408683777 0.4943233132362366 0.1474761962890625
v -0.013678020797669888 0.6009131669998169 -0.09624668210744858
v -0.012403064407408237 0.5644144415855408 0.1133008673787117
v -3.195828676223755 1.421639084815979 -0.018316421657800674
v -4.156319618225098 1.4823271036148071 -0.09624646604061127
v -4.157594680786133 1.4458286762237549 0.11330107599496841
v -3.1813557147979736 1.3757373094558716 0.14747631549835205
v -1.0903843641281128 1.5053268671035767 -0.05557231232523918
v -1.094971776008606 1.5278747081756592 0.1833915263414383
v -0.01998392678797245 1.4774259328842163 -0.0863165333867073
v -0.01998392678797245 1.4774259328842163 0.08871195465326309
v -0.9741686582565308 0.5402252674102783 -0.018316535279154778
v -0.013678020797669888 0.6009131669998169 -0.09624668210744858
v -0.018996769562363625 0.2637670040130615 -0.01854555867612362
v -1.1011278629302979 0.13756217062473297 0.01569448411464691
v -3.0796127319335938 0.6239134073257446 -0.055572204291820526
v -3.1487040519714355 0.2843190133571625 0.09838660061359406
v -4.150013446807861 0.5960124135017395 -0.08631631731987
v -4.150013446807861 0.2629454433917999 0.0011979060946032405
v -4.150013446807861 0.5960124731063843 0.08871214836835861
v -3.075025796890259 0.646461009979248 0.18339164555072784
v -0.9886414408683777 0.4943233132362366 0.1474761962890625
v -0.012403064407408237 0.5644144415855408 0.1133008673787117
v -1.0903843641281128 1.5053268671035767 -0.05557231232523918
v -0.01998392678797245 1.4774259328842163 -0.0863165333867073
v -0.01998392678797245 1.1443589925765991 0.001197714009322226
v -1.02129328250885 1.165732741355896 0.0983864963054657
v -3.195828676223755 1.421639084815979 -0.018316421657800674
v -3.0688695907592773 1.0189759731292725 0.015694603323936462
v -4.156319618225098 1.4823271036148071 -0.09624646604061127
v -4.151000499725342 1.1451810598373413 -0.01854533888399601
v -4.157594680786133 1.4458286762237549 0.11330107599496841
v -3.1813557147979736 1.3757373094558716 0.14747631549835205
v -1.094971776008606 1.5278747081756592 0.1833915263414383
v -0.01998392678797245 1.4774259328842163 0.08871195465326309
vn -0.9997975826263428 -0.017892811447381973 -0.00919964350759983
vn -0.9997975826263428 -0.017892811447381973 -0.00919964350759983
vn -0.9997975826263428 -0.017892811447381973 -0.00919964350759983
vn -1 6.362913609336829e-7 -2.407603196669106e-13
vn -1 6.362913609336829e-7 -2.407603196669106e-13
vn -1 6.362913609336829e-7 -2.407603196669106e-13
vn 1.9304663112507114e-7 -1 -1.9446433441316913e-7
vn 1.9304663112507114e-7 -1 -1.9446433441316913e-7
vn 1.9304663112507114e-7 -1 -1.9446433441316913e-7
vn 0 -1 0
vn 0 -1 0
vn 0 -1 0
vn 5.195560248694164e-8 -5.135231795350137e-9 1
vn 0.8944271802902222 7.137085589192793e-9 0.44721361994743347
vn 0.5202732682228088 0.29406070709228516 0.8017755746841431
vn -0.8038462400436401 0.28874847292900085 0.5200533866882324
vn -0.005367315839976072 0.9999714493751526 -0.005320199299603701
vn 0.8013198971748352 0.28892093896865845 -0.5238426327705383
vn -0.5227941870689392 0.2834414541721344 -0.8039572238922119
vn 0.44721370935440063 1.6091997068201636e-8 -0.8944271206855774
vn -0.8942087292671204 0.00006659462815150619 -0.4476502537727356
vn -0.005367315839976072 0.9999714493751526 -0.005320199299603701
vn 0.5202732682228088 0.29406070709228516 0.8017755746841431
vn 0.8013198971748352 0.28892093896865845 -0.5238426327705383
vn 0.8944271802902222 7.137085589192793e-9 0.44721361994743347
vn 0.44721370935440063 1.6091997068201636e-8 -0.8944271206855774
vn -0.8942087292671204 0.00006659462815150619 -0.4476502537727356
vn -0.9999992251396179 0.00014895288040861487 -0.0012205131351947784
vn -0.8038462400436401 0.28874847292900085 0.5200533866882324
vn -0.5227941870689392 0.2834414541721344 -0.8039572238922119
vn -0.010366249829530716 0.569296658039093 -0.8220668435096741
vn 0.05771087482571602 0.17245858907699585 -0.9833247065544128
vn -0.09494125097990036 0.635147750377655 0.7665334343910217
vn 0.004149968270212412 0.5880212187767029 0.8088348507881165
vn 0.0008560587302781641 0.7077538371086121 -0.7064586281776428
vn 0.024073034524917603 0.4574360251426697 0.8889166116714478
vn -0.0931420773267746 0.9505001902580261 -0.29643529653549194
vn -0.003027426777407527 0.47201356291770935 0.8815860748291016
vn 0.06093408539891243 0.7311399579048157 -0.6795008778572083
vn 0.06715718656778336 0.361825168132782 -0.9298238754272461
vn -0.010155342519283295 0.4612751603126526 0.8871989846229553
vn -0.030203519389033318 0.5166245102882385 0.8556792140007019
vn -0.06447205692529678 0.5660849213600159 -0.8218218684196472
vn 0.04553797096014023 0.6437759399414062 0.7638578414916992
vn 0.017543945461511612 0.8538987040519714 -0.520143449306488
vn 0.09791368991136551 0.6085559725761414 0.7874468564987183
vn 0.0008560587302781641 0.7077538371086121 -0.7064586281776428
vn -0.0931420773267746 0.9505001902580261 -0.29643529653549194
vn 0.04224709793925285 -0.9920308589935303 -0.11870092898607254
vn 0.007655724883079529 -0.9989776611328125 -0.044552989304065704
vn -0.010366249829530716 0.569296658039093 -0.8220668435096741
vn -0.04002736881375313 -0.9966723918914795 0.07100633531808853
vn 0.05771087482571602 0.17245858907699585 -0.9833247065544128
vn 0.02115437388420105 -0.9997743964195251 0.0019207334844395518
vn -0.09494125097990036 0.635147750377655 0.7665334343910217
vn 0.004149968270212412 0.5880212187767029 0.8088348507881165
vn 0.024073034524917603 0.4574360251426697 0.8889166116714478
vn -0.003027426777407527 0.47201356291770935 0.8815860748291016
vn -0.06447205692529678 0.5660849213600159 -0.8218218684196472
vn 0.017543945461511612 0.8538987040519714 -0.520143449306488
vn 0.028150206431746483 -0.9976062178611755 0.06316173076629639
vn 0.01548759639263153 -0.998844563961029 0.04549418389797211
vn 0.06093408539891243 0.7311399579048157 -0.6795008778572083
vn -0.013628561981022358 -0.9919188022613525 -0.12614043056964874
vn 0.06715718656778336 0.361825168132782 -0.9298238754272461
vn -0.11223572492599487 -0.988865077495575 -0.09771908819675446
vn -0.010155342519283295 0.4612751603126526 0.8871989846229553
vn -0.030203519389033318 0.5166245102882385 0.8556792140007019
vn 0.04553797096014023 0.6437759399414062 0.7638578414916992
vn 0.09791368991136551 0.6085559725761414 0.7874468564987183
vt 0.9509115815162659 0.9940088987350464
vt 0.0902290791273117 0.9940088987350464
vt 0.5061554908752441 0.8587431907653809
vt 0.02449965849518776 0.9911054372787476
vt 0.47849464416503906 0.8345886468887329
vt 0.974131166934967 0.9915935397148132
vt 0.970235288143158 0.9933812022209167
vt 0.08773567527532578 0.8677773475646973
vt 0.9387564063072205 0.87019282579422
vt 0.08773567527532578 0.8677773475646973
vt 0.970235288143158 0.9933812022209167
vt 0.040205687284469604 0.9933812618255615
vt 0.032258063554763794 0.007874011993408203
vt 0.5161290168762207 0.007874011993408203
vt 0.5161290168762207 0.8818897604942322
vt 0.032258063554763794 0.8818897604942322
vt 0.25806450843811035 0.9921259880065918
vt 0.032258063554763794 0.8818897604942322
vt 0.5161290168762207 0.8818897604942322
vt 0.032258063554763794 0.007874011993408203
vt 0.5161290168762207 0.007874011993408203
vt 0.7096773982048035 0.9921259880065918
vt 0.4838709533214569 0.8818897604942322
vt 0.9677419066429138 0.8818897604942322
vt 0.4838709533214569 0.007874011993408203
vt 0.9677419066429138 0.007874011993408203
vt 0.4838709533214569 0.007874011993408203
vt 0.9677419066429138 0.007874011993408203
vt 0.9677419066429138 0.8818897604942322
vt 0.4838709533214569 0.8818897604942322
vt 0.9354838728904724 0.24409449100494385
vt 0.9354838728904724 0.015748023986816406
vt 0.6451612710952759 0.015748023986816406
vt 0.6451612710952759 0.24409449100494385
vt 0.9354838728904724 0.5590550899505615
vt 0.6451612710952759 0.5590550899505615
vt 0.9354838728904724 0.8188976645469666
vt 0.6451612710952759 0.8188976645469666
vt 0.32258063554763794 0.24409449100494385
vt 0.32258063554763794 0.015748023986816406
vt 0.032258063554763794 0.015748023986816406
vt 0.032258063554763794 0.24409449100494385
vt 0.32258063554763794 0.5590550899505615
vt 0.032258063554763794 0.5590550899505615
vt 0.32258063554763794 0.8188976645469666
vt 0.032258063554763794 0.8188976645469666
vt 0.5714285969734192 0.2745097875595093
vt 0.5714285969734192 0.0156862735748291
vt 0.0317460335791111 0.0156862735748291
vt 0.0317460335791111 0.2745097875595093
vt 0.5714285969734192 0.5921568870544434
vt 0.0317460335791111 0.5921568870544434
vt 0.5714285969734192 0.8196078538894653
vt 0.0317460335791111 0.8196078538894653
vt 0.5714285969734192 0.8196078538894653
vt 0.5714285969734192 0.5921568870544434
vt 0.5714285969734192 0.2745097875595093
vt 0.5714285969734192 0.0156862735748291
vt 0.9677419066429138 0.5590550899505615
vt 0.9677419066429138 0.8188976645469666
vt 0.5161290168762207 0.8188976645469666
vt 0.5161290168762207 0.5590550899505615
vt 0.9677419066429138 0.24409449100494385
vt 0.5161290168762207 0.24409449100494385
vt 0.9677419066429138 0.015748023986816406
vt 0.5161290168762207 0.015748023986816406
vt 0.9677419066429138 0.015748023986816406
vt 0.9677419066429138 0.24409449100494385
vt 0.9677419066429138 0.5590550899505615
vt 0.9677419066429138 0.8188976645469666
g Geoset0
s 1
usemtl 189479
f 1/1/1 2/2/2 3/3/3
f 4/4/4 5/5/5 6/6/6
f 7/7/7 8/8/8 9/9/9
f 10/10/10 11/11/11 12/12/12
f 13/13/13 14/14/14 15/15/15
f 15/15/15 16/16/16 13/13/13
f 17/17/17 16/16/16 15/15/15
f 17/17/17 18/18/18 19/19/19
f 19/19/19 18/18/18 20/20/20
f 20/20/20 21/21/21 19/19/19
f 22/22/22 23/23/23 24/24/24
f 24/24/24 23/23/23 25/25/25
f 25/25/25 26/26/26 24/24/24
f 27/27/27 28/28/28 29/29/29
f 29/29/29 30/30/30 27/27/27
f 22/22/22 30/30/30 29/29/29
f 31/31/31 32/32/32 33/33/33
f 33/33/33 34/34/34 31/31/31
f 35/35/35 31/31/31 34/34/34
f 34/34/34 36/36/36 35/35/35
f 37/37/37 35/35/35 36/36/36
f 36/36/36 38/38/38 37/37/37
f 39/39/39 40/40/40 41/41/41
f 41/41/41 42/42/42 39/39/39
f 43/43/43 39/39/39 42/42/42
f 42/42/42 44/44/44 43/43/43
f 45/45/45 43/43/43 44/44/44
f 44/44/44 46/46/46 45/45/45
f 47/47/47 48/48/48 49/49/49
f 49/49/49 50/50/50 47/47/47
f 51/51/51 47/47/47 50/50/50
f 50/50/50 52/52/52 51/51/51
f 53/53/53 51/51/51 52/52/52
f 52/52/52 54/54/54 53/53/53
f 55/55/55 54/54/54 52/52/52
f 52/52/52 56/56/56 55/55/55
f 56/56/56 52/52/52 50/50/50
f 50/50/50 57/57/57 56/56/56
f 57/57/57 50/50/50 49/49/49
f 49/49/49 58/58/58 57/57/57
f 59/59/59 60/60/60 61/61/61
f 61/61/61 62/62/62 59/59/59
f 63/63/63 59/59/59 62/62/62
f 62/62/62 64/64/64 63/63/63
f 65/65/65 63/63/63 64/64/64
f 64/64/64 66/66/66 65/65/65
f 67/67/67 66/66/66 64/64/64
f 64/64/64 68/68/68 67/67/67
f 68/68/68 64/64/64 62/62/62
f 62/62/62 69/69/69 68/68/68
f 69/69/69 62/62/62 61/61/61
f 61/61/61 70/70/70 69/69/69