# Exported using wow.export v0.1.9
o WestfallFenceEnd
mtllib westfallfenceend.mtl
v -1.1298575401306152 -0.7770212292671204 0.1474761962890625
v -0.012403064407408237 0.5644144415855408 0.1133008673787117
v -0.013678020797669888 0.6009131669998169 -0.09624668210744858
v -0.018996769562363625 0.2637670040130615 -0.01854555867612362
v -0.012403064407408237 0.5644144415855408 0.1133008673787117
v -1.1298575401306152 -0.7770212292671204 0.1474761962890625
v -1.177941083908081 -0.7749220728874207 -0.018316535279154778
v -0.013678020797669888 0.6009131669998169 -0.09624668210744858
v -0.7561390399932861 -0.7933381199836731 0.01569448411464691
v 0.000394104776205495 1.9017482995986938 0.0021148063242435455
v 0.14094561338424683 1.6736464500427246 0.14164166152477264
v 0.14094561338424683 1.6736464500427246 -0.13080881536006927
v 0.14094562828540802 -0.5586665272712708 0.14164164662361145
v 0.14094562828540802 -0.5586665272712708 -0.13080887496471405
v -0.13350573182106018 1.6736464500427246 -0.13080887496471405
v -0.13350573182106018 1.6736464500427246 0.14164167642593384
v -0.133505716919899 -0.5586665272712708 -0.13080887496471405
v -0.13383716344833374 -0.5586665272712708 0.14075222611427307
v 0.000394104776205495 1.9017482995986938 0.0021148063242435455
v 0.14094561338424683 1.6736464500427246 -0.13080881536006927
v -0.13350573182106018 1.6736464500427246 -0.13080887496471405
v 0.14094562828540802 -0.5586665272712708 -0.13080887496471405
v -0.133505716919899 -0.5586665272712708 -0.13080887496471405
v -0.13350573182106018 1.6736464500427246 0.14164167642593384
v 0.14094561338424683 1.6736464500427246 0.14164166152477264
v -0.133505716919899 -0.5586665272712708 0.14164167642593384
v 0.14094562828540802 -0.5586665272712708 0.14164164662361145
v -0.9649003148078918 0.4638112485408783 0.1833915263414383
v -0.01998392678797245 1.4774259328842163 0.08871195465326309
v -0.01998392678797245 1.4774259328842163 -0.0863165333867073
v -0.9491530656814575 0.4546360373497009 -0.05557231232523918
v -1.7076847553253174 -0.7223036885261536 0.14747631549835205
v -1.7419400215148926 -0.7078312039375305 -0.018316416069865227
v -1.7076847553253174 -0.7223036885261536 0.14747631549835205
v -1.4414451122283936 -0.8347902297973633 0.015694603323936462
v -0.7119825482368469 0.3164490759372711 0.0983864888548851
v -0.9649003148078918 0.4638112485408783 0.1833915263414383
v -0.01998392678797245 1.1443589925765991 0.001197714009322226
v -0.01998392678797245 1.4774259328842163 0.08871195465326309
v -1.7419400215148926 -0.7078312039375305 -0.018316416069865227
v -0.9491530656814575 0.4546360373497009 -0.05557231232523918
v -0.01998392678797245 1.4774259328842163 -0.0863165333867073
v -1.177941083908081 -0.7749220728874207 -0.018316535279154778
vn -0.3111257255077362 0.3107876479625702 0.8981156945228577
vn -0.2967227101325989 0.27051132917404175 0.9158489108085632
vn -0.729515016078949 0.5900800824165344 -0.3458516597747803
vn 0.7647791504859924 -0.625919759273529 -0.15276552736759186
vn -0.2967227101325989 0.27051132917404175 0.9158489108085632
vn -0.3111257255077362 0.3107876479625702 0.8981156945228577
vn -0.25436097383499146 0.1809610277414322 -0.9500282406806946
vn -0.729515016078949 0.5900800824165344 -0.3458516597747803
vn 0.8108218312263489 -0.5697442889213562 -0.13401290774345398
vn -0.005367315839976072 0.9999714493751526 -0.005320199299603701
vn 0.5202732682228088 0.29406070709228516 0.8017755746841431
vn 0.8013198971748352 0.28892093896865845 -0.5238426327705383
vn 0.8944271802902222 7.137085589192793e-9 0.44721361994743347
vn 0.44721370935440063 1.6091997068201636e-8 -0.8944271206855774
vn -0.5227941274642944 0.2834414541721344 -0.8039572238922119
vn -0.8038462400436401 0.28874847292900085 0.5200533866882324
vn -0.8942087292671204 0.00006659462815150619 -0.4476502537727356
vn -0.9999992251396179 0.00014895288040861487 -0.0012205131351947784
vn -0.005367315839976072 0.9999714493751526 -0.005320199299603701
vn 0.8013198971748352 0.28892093896865845 -0.5238426327705383
vn -0.5227941274642944 0.2834414541721344 -0.8039572238922119
vn 0.44721370935440063 1.6091997068201636e-8 -0.8944271206855774
vn -0.8942087292671204 0.00006659462815150619 -0.4476502537727356
vn -0.8038462400436401 0.28874847292900085 0.5200533866882324
vn 0.5202732682228088 0.29406070709228516 0.8017755746841431
vn 5.195560248694164e-8 -5.135231795350137e-9 1
vn 0.8944271802902222 7.137085589192793e-9 0.44721361994743347
vn -0.4424839913845062 0.4083879292011261 0.7983903884887695
vn -0.35612353682518005 0.41040220856666565 0.8394915461540222
vn -0.6344366073608398 0.5696195960044861 -0.5225167274475098
vn -0.460091233253479 0.26961323618888855 -0.8459460735321045
vn -0.46137791872024536 0.2710413634777069 0.844788134098053
vn -0.17586137354373932 0.1528146117925644 -0.9724816083908081
vn -0.46137791872024536 0.2710413634777069 0.844788134098053
vn 0.8377076387405396 -0.5184769630432129 -0.1715444177389145
vn 0.8028014898300171 -0.5943923592567444 0.04698445647954941
vn -0.4424839913845062 0.4083879292011261 0.7983903884887695
vn 0.7720413208007812 -0.6340627670288086 0.043779052793979645
vn -0.35612353682518005 0.41040220856666565 0.8394915461540222
vn -0.17586137354373932 0.1528146117925644 -0.9724816083908081
vn -0.460091233253479 0.26961323618888855 -0.8459460735321045
vn -0.6344366073608398 0.5696195960044861 -0.5225167274475098
vn -0.25436097383499146 0.1809610277414322 -0.9500282406806946
vt 0.6451612710952759 0.5590550899505615
vt 0.6451612710952759 0.8188976645469666
vt 0.9354838728904724 0.8188976645469666
vt 0.4838709533214569 0.015748023986816406
vt 0.032258063554763794 0.015748023986816406
vt 0.032258063554763794 0.27559053897857666
vt 0.032258063554763794 0.27559053897857666
vt 0.032258063554763794 0.015748023986816406
vt 0.4838709533214569 0.27559053897857666
vt 0.7096773982048035 0.9921259880065918
vt 0.4838709533214569 0.8818897604942322
vt 0.9677419066429138 0.8818897604942322
vt 0.4838709533214569 0.007874011993408203
vt 0.9677419066429138 0.007874011993408203
vt 0.4838709533214569 0.8818897604942322
vt 0.9677419066429138 0.8818897604942322
vt 0.4838709533214569 0.007874011993408203
vt 0.9677419066429138 0.007874011993408203
vt 0.25806450843811035 0.9921259880065918
vt 0.032258063554763794 0.8818897604942322
vt 0.5161290168762207 0.8818897604942322
vt 0.032258063554763794 0.007874011993408203
vt 0.5161290168762207 0.007874011993408203
vt 0.032258063554763794 0.8818897604942322
vt 0.5161290168762207 0.8818897604942322
vt 0.032258063554763794 0.007874011993408203
vt 0.5161290168762207 0.007874011993408203
vt 0.032258063554763794 0.5590550899505615
vt 0.032258063554763794 0.8188976645469666
vt 0.32258063554763794 0.8188976645469666
vt 0.32258063554763794 0.5590550899505615
vt 0.032258063554763794 0.24409449100494385
vt 0.32258063554763794 0.24409449100494385
vt 0.9677419066429138 0.24409449100494385
vt 0.5161290168762207 0.24409449100494385
vt 0.5161290168762207 0.5590550899505615
vt 0.9677419066429138 0.5590550899505615
vt 0.5161290168762207 0.8188976645469666
vt 0.9677419066429138 0.8188976645469666
vt 0.9677419066429138 0.24409449100494385
vt 0.9677419066429138 0.5590550899505615
vt 0.9677419066429138 0.8188976645469666
vt 0.9354838728904724 0.5590550899505615
g Geoset0
s 1
usemtl 189479
f 1/1/1 2/2/2 3/3/3
f 4/4/4 5/5/5 6/6/6
f 7/7/7 8/8/8 4/4/4
f 4/4/4 9/9/9 7/7/7
f 6/6/6 9/9/9 4/4/4
f 10/10/10 11/11/11 12/12/12
f 12/12/12 11/11/11 13/13/13
f 13/13/13 14/14/14 12/12/12
f 10/10/10 15/15/15 16/16/16
f 16/16/16 15/15/15 17/17/17
f 17/17/17 18/18/18 16/16/16
f 19/19/19 20/20/20 21/21/21
f 21/21/21 20/20/20 22/22/22
f 22/22/22 23/23/23 21/21/21
f 19/19/19 24/24/24 25/25/25
f 25/25/25 24/24/24 26/26/26
f 26/26/26 27/27/27 25/25/25
f 28/28/28 29/29/29 30/30/30
f 30/30/30 31/31/31 28/28/28
f 32/32/32 28/28/28 31/31/31
f 31/31/31 33/33/33 32/32/32
f 34/34/34 35/35/35 36/36/36
f 36/36/36 37/37/37 34/34/34
f 37/37/37 36/36/36 38/38/38
f 38/38/38 39/39/39 37/37/37
f 36/36/36 35/35/35 40/40/40
f 40/40/40 41/41/41 36/36/36
f 38/38/38 36/36/36 41/41/41
f 41/41/41 42/42/42 38/38/38
f 3/3/3 43/43/43 1/1/1