# Exported using wow.export v0.1.9
o Barrel01
mtllib barrel01.mtl
v -0.0007429023389704525 0.9920635223388672 -0.39295488595962524
v -0.31660768389701843 0.9920635223388672 -0.21059028804302216
v -0.31660762429237366 0.9920636415481567 0.1541389375925064
v 0.3151218295097351 -0.0012557529844343662 0.15413887798786163
v -0.0007429139222949743 -0.001255658338777721 0.3365035355091095
v 0.3151217997074127 -0.0012557528680190444 -0.21059031784534454
v -0.31660768389701843 -0.0012557528680190444 0.15413892269134521
v -0.0007429458200931549 -0.001255658338777721 -0.39295488595962524
v -0.3166077435016632 -0.0012557529844343662 -0.21059028804302216
v 0.4288331866264343 0.6613756418228149 -0.27624163031578064
v -0.0007429023389704525 0.9920635223388672 -0.39295488595962524
v 0.3151218295097351 0.9920636415481567 -0.21059034764766693
v -0.0007429023389704525 0.6613756418228149 -0.524257481098175
v 0.4288331866264343 0.33068785071372986 -0.27624163031578064
v -0.0007429023389704525 0.33068785071372986 -0.524257481098175
v 0.3151218295097351 1.2852583886058255e-8 -0.21059031784534454
v -0.0007429023389704525 1.2852583886058255e-8 -0.39295491576194763
v 0.4288332164287567 0.6613756418228149 0.21979014575481415
v 0.3151218295097351 0.9920636415481567 -0.21059034764766693
v 0.3151218891143799 0.9920635223388672 0.15413887798786163
v 0.4288331866264343 0.6613756418228149 -0.27624163031578064
v 0.4288332164287567 0.33068785071372986 0.21979014575481415
v 0.4288331866264343 0.33068785071372986 -0.27624163031578064
v 0.3151218891143799 1.2852583886058255e-8 0.15413887798786163
v 0.3151218295097351 1.2852583886058255e-8 -0.21059031784534454
v -0.000742858974263072 0.6613756418228149 0.4678060710430145
v 0.3151218891143799 0.9920635223388672 0.15413887798786163
v -0.0007428704993799329 0.9920635223388672 0.3365035355091095
v 0.4288332164287567 0.6613756418228149 0.21979014575481415
v -0.000742858974263072 0.33068785071372986 0.4678060710430145
v 0.4288332164287567 0.33068785071372986 0.21979014575481415
v -0.0007428704993799329 1.2852583886058255e-8 0.3365035355091095
v 0.3151218891143799 1.2852583886058255e-8 0.15413887798786163
v -0.4303189814090729 0.6613756418228149 0.21979020535945892
v -0.0007428704993799329 0.9920635223388672 0.3365035355091095
v -0.31660762429237366 0.9920636415481567 0.1541389375925064
v -0.000742858974263072 0.6613756418228149 0.4678060710430145
v -0.4303189814090729 0.33068785071372986 0.21979020535945892
v -0.000742858974263072 0.33068785071372986 0.4678060710430145
v -0.31660765409469604 1.2852583886058255e-8 0.1541389375925064
v -0.0007428704993799329 1.2852583886058255e-8 0.3365035355091095
v -0.43031901121139526 0.6613756418228149 -0.2762415409088135
v -0.31660762429237366 0.9920636415481567 0.1541389375925064
v -0.31660768389701843 0.9920635223388672 -0.21059028804302216
v -0.4303189814090729 0.6613756418228149 0.21979020535945892
v -0.43031901121139526 0.33068785071372986 -0.2762415409088135
v -0.4303189814090729 0.33068785071372986 0.21979020535945892
v -0.31660768389701843 1.2852583886058255e-8 -0.21059030294418335
v -0.31660765409469604 1.2852583886058255e-8 0.1541389375925064
v -0.0007429023389704525 0.6613756418228149 -0.524257481098175
v -0.31660768389701843 0.9920635223388672 -0.21059028804302216
v -0.0007429023389704525 0.9920635223388672 -0.39295488595962524
v -0.43031901121139526 0.6613756418228149 -0.2762415409088135
v -0.0007429023389704525 0.33068785071372986 -0.524257481098175
v -0.43031901121139526 0.33068785071372986 -0.2762415409088135
v -0.0007429023389704525 1.2852583886058255e-8 -0.39295491576194763
v -0.31660768389701843 1.2852583886058255e-8 -0.21059030294418335
v -0.0007428704993799329 0.9920635223388672 0.3365035355091095
v 0.3151218891143799 0.9920635223388672 0.15413887798786163
v 0.3151218295097351 0.9920636415481567 -0.21059034764766693
vn -3.016160476931873e-8 0.7474349141120911 -0.6643350124359131
vn -0.5753310918807983 0.7474348545074463 -0.33216753602027893
vn -0.5753310322761536 0.7474349141120911 0.33216753602027893
vn -2.9952863656035333e-7 -1 3.884877987879454e-14
vn 3.744107246461681e-8 -1 1.9454954269804148e-7
vn -1.1232324936827354e-7 -1 -6.484984993448961e-8
vn 1.1232323515741882e-7 -1 6.484982151278018e-8
vn -3.744112930803567e-8 -1 -1.9454959954146034e-7
vn 2.995286081386439e-7 -1 -3.884877649066275e-14
vn 0.852245569229126 0.17767895758152008 -0.4920443296432495
vn -3.016160476931873e-8 0.7474349141120911 -0.6643350124359131
vn 0.5753310322761536 0.7474349141120911 -0.3321675658226013
vn -6.55065832688706e-8 0.17767897248268127 -0.9840884804725647
vn 0.852245569229126 -0.17767898738384247 -0.4920443594455719
vn -4.376520834625808e-8 -0.17767900228500366 -0.9840884804725647
vn 0.8048980832099915 -0.36903297901153564 -0.46470823884010315
vn -3.640020196371552e-8 -0.36903300881385803 -0.929416298866272
vn 0.8522456884384155 0.17767897248268127 0.4920441806316376
vn 0.5753310322761536 0.7474349141120911 -0.3321675658226013
vn 0.5753310918807983 0.7474349141120911 0.33216750621795654
vn 0.852245569229126 0.17767895758152008 -0.4920443296432495
vn 0.8522456884384155 -0.17767897248268127 0.4920441806316376
vn 0.852245569229126 -0.17767898738384247 -0.4920443594455719
vn 0.8048981428146362 -0.36903297901153564 0.4647081196308136
vn 0.8048980832099915 -0.36903297901153564 -0.46470823884010315
vn 9.687816771020152e-8 0.17767897248268127 0.9840884804725647
vn 0.5753310918807983 0.7474349141120911 0.33216750621795654
vn 5.0756206348978594e-8 0.7474348545074463 0.6643350720405579
vn 0.8522456884384155 0.17767897248268127 0.4920441806316376
vn 9.59168886538464e-8 -0.17767895758152008 0.9840884804725647
vn 0.8522456884384155 -0.17767897248268127 0.4920441806316376
vn 8.290939490507299e-8 -0.36903294920921326 0.929416298866272
vn 0.8048981428146362 -0.36903297901153564 0.4647081196308136
vn -0.852245569229126 0.17767898738384247 0.4920443594455719
vn 5.0756206348978594e-8 0.7474348545074463 0.6643350720405579
vn -0.5753310322761536 0.7474349141120911 0.33216753602027893
vn 9.687816771020152e-8 0.17767897248268127 0.9840884804725647
vn -0.852245569229126 -0.17767898738384247 0.4920443594455719
vn 9.59168886538464e-8 -0.17767895758152008 0.9840884804725647
vn -0.8048980832099915 -0.36903297901153564 0.46470820903778076
vn 8.290939490507299e-8 -0.36903294920921326 0.929416298866272
vn -0.8522456884384155 0.17767897248268127 -0.49204421043395996
vn -0.5753310322761536 0.7474349141120911 0.33216753602027893
vn -0.5753310918807983 0.7474348545074463 -0.33216753602027893
vn -0.852245569229126 0.17767898738384247 0.4920443594455719
vn -0.8522456884384155 -0.17767897248268127 -0.49204421043395996
vn -0.852245569229126 -0.17767898738384247 0.4920443594455719
vn -0.8048981428146362 -0.36903297901153564 -0.4647081196308136
vn -0.8048980832099915 -0.36903297901153564 0.46470820903778076
vn -6.55065832688706e-8 0.17767897248268127 -0.9840884804725647
vn -0.5753310918807983 0.7474348545074463 -0.33216753602027893
vn -3.016160476931873e-8 0.7474349141120911 -0.6643350124359131
vn -0.8522456884384155 0.17767897248268127 -0.49204421043395996
vn -4.376520834625808e-8 -0.17767900228500366 -0.9840884804725647
vn -0.8522456884384155 -0.17767897248268127 -0.49204421043395996
vn -3.640020196371552e-8 -0.36903300881385803 -0.929416298866272
vn -0.8048981428146362 -0.36903297901153564 -0.4647081196308136
vn 5.0756206348978594e-8 0.7474348545074463 0.6643350720405579
vn 0.5753310918807983 0.7474349141120911 0.33216750621795654
vn 0.5753310322761536 0.7474349141120911 -0.3321675658226013
vt 0.9156641960144043 0.8242782354354858
vt 0.9145691990852356 0.9366028904914856
vt 0.5058074593544006 0.9939321875572205
vt 0.08134357631206512 0.8267403841018677
vt 0.08043641597032547 0.928061306476593
vt 0.5064982175827026 0.764568567276001
vt 0.5058074593544006 0.9939321875572205
vt 0.9156641960144043 0.8242782354354858
vt 0.9145691990852356 0.9366028904914856
vt 0.019137432798743248 0.5018460750579834
vt 0.9668495655059814 0.7470841407775879
vt 0.019137432798743248 0.7470841407775879
vt 0.9668495655059814 0.5018460750579834
vt 0.019137432798743248 0.25660794973373413
vt 0.9668495655059814 0.25660794973373413
vt 0.019137432798743248 0.011369884014129639
vt 0.9668495655059814 0.011369884014129639
vt 0.02043924108147621 0.5023736953735352
vt 0.9637726545333862 0.7486670017242432
vt 0.02043924108147621 0.7486670017242432
vt 0.9637726545333862 0.5023736953735352
vt 0.02043924108147621 0.25608038902282715
vt 0.9637726545333862 0.25608038902282715
vt 0.02043924108147621 0.00978708267211914
vt 0.9637726545333862 0.00978708267211914
vt 0.017269445583224297 0.5018460750579834
vt 0.9651657938957214 0.7470841407775879
vt 0.017269445583224297 0.7470841407775879
vt 0.9651657938957214 0.5018460750579834
vt 0.017269445583224297 0.2566080093383789
vt 0.9651657938957214 0.2566080093383789
vt 0.017269445583224297 0.011369943618774414
vt 0.9651657938957214 0.011369943618774414
vt 0.018382437527179718 0.4999582767486572
vt 0.9622767567634583 0.7462515234947205
vt 0.018382437527179718 0.7462515234947205
vt 0.9622767567634583 0.4999582767486572
vt 0.018382437527179718 0.2536649703979492
vt 0.9622767567634583 0.2536649703979492
vt 0.018382437527179718 0.007371664047241211
vt 0.9622767567634583 0.007371664047241211
vt 0.01646329276263714 0.5012568831443787
vt 0.9620079398155212 0.746354877948761
vt 0.01646329276263714 0.746354877948761
vt 0.9620079398155212 0.5012568831443787
vt 0.01646329276263714 0.25615882873535156
vt 0.9620079398155212 0.25615882873535156
vt 0.01646329276263714 0.011060833930969238
vt 0.9620079398155212 0.011060833930969238
vt 0.021842971444129944 0.5020048022270203
vt 0.9659208059310913 0.747560441493988
vt 0.021842971444129944 0.747560441493988
vt 0.9659208059310913 0.5020048022270203
vt 0.021842971444129944 0.25644922256469727
vt 0.9659208059310913 0.25644922256469727
vt 0.021842971444129944 0.010893702507019043
vt 0.9659208059310913 0.010893702507019043
vt 0.08043641597032547 0.928061306476593
vt 0.08134357631206512 0.8267403841018677
vt 0.5064982175827026 0.764568567276001
g Geoset0
s 1
usemtl 199564
f 1/1/1 2/2/2 3/3/3
f 4/4/4 5/5/5 6/6/6
f 5/5/5 7/7/7 6/6/6
f 8/8/8 6/6/6 7/7/7
f 9/9/9 8/8/8 7/7/7
f 10/10/10 11/11/11 12/12/12
f 10/10/10 13/13/13 11/11/11
f 14/14/14 13/13/13 10/10/10
f 14/14/14 15/15/15 13/13/13
f 16/16/16 15/15/15 14/14/14
f 16/16/16 17/17/17 15/15/15
f 18/18/18 19/19/19 20/20/20
f 18/18/18 21/21/21 19/19/19
f 22/22/22 21/21/21 18/18/18
f 22/22/22 23/23/23 21/21/21
f 24/24/24 23/23/23 22/22/22
f 24/24/24 25/25/25 23/23/23
f 26/26/26 27/27/27 28/28/28
f 26/26/26 29/29/29 27/27/27
f 30/30/30 29/29/29 26/26/26
f 30/30/30 31/31/31 29/29/29
f 32/32/32 31/31/31 30/30/30
f 32/32/32 33/33/33 31/31/31
f 34/34/34 35/35/35 36/36/36
f 34/34/34 37/37/37 35/35/35
f 38/38/38 37/37/37 34/34/34
f 38/38/38 39/39/39 37/37/37
f 40/40/40 39/39/39 38/38/38
f 40/40/40 41/41/41 39/39/39
f 42/42/42 43/43/43 44/44/44
f 42/42/42 45/45/45 43/43/43
f 46/46/46 45/45/45 42/42/42
f 46/46/46 47/47/47 45/45/45
f 48/48/48 47/47/47 46/46/46
f 48/48/48 49/49/49 47/47/47
f 50/50/50 51/51/51 52/52/52
f 50/50/50 53/53/53 51/51/51
f 54/54/54 53/53/53 50/50/50
f 54/54/54 55/55/55 53/53/53
f 56/56/56 55/55/55 54/54/54
f 56/56/56 57/57/57 55/55/55
f 58/58/58 59/59/59 60/60/60
f 3/3/3 58/58/58 60/60/60
f 60/60/60 1/1/1 3/3/3