# Exported using wow.export v0.1.9
o SwampTreeLog04
mtllib swamptreelog04.mtl
v 1.2728577852249146 4.1512675285339355 6.091626167297363
v -0.5419806838035583 5.186131477355957 4.433052062988281
v -0.7701066136360168 4.912556171417236 4.416397571563721
v 1.2728577852249146 4.1512675285339355 6.091626167297363
v -0.7701066136360168 4.912556171417236 4.416397571563721
v -0.6735236048698425 4.507805347442627 4.3017425537109375
v -1.4206348657608032 -0.8434316515922546 -0.3589664101600647
v -1.5860459804534912 1.9562937021255493 0.5589631199836731
v -1.4241679906845093 2.3685929775238037 -0.20396986603736877
v -1.3263393640518188 -0.8555346131324768 1.2233694791793823
v -0.7496771812438965 2.145679235458374 0.9428184628486633
v 0.020740913227200508 -0.8643468022346497 1.8635832071304321
v 0.08669158816337585 1.7219806909561157 0.558962881565094
v 1.3678213357925415 -0.8555346727371216 1.2233691215515137
v -0.07518638670444489 2.3685929775238037 -0.20396986603736877
v 1.4621163606643677 -0.843431293964386 -0.35896652936935425
v -0.7496770620346069 2.1265523433685303 -0.8381432294845581
v 0.020740913227200508 -0.8337095379829407 -1.529391884803772
v -1.4241679906845093 2.3685929775238037 -0.20396986603736877
v -1.4206348657608032 -0.8434316515922546 -0.3589664101600647
v -0.5678651332855225 4.5087995529174805 0.688276469707489
v 0.08513251692056656 4.097907066345215 0.589759349822998
v 0.09042458236217499 3.888010263442993 1.3672888278961182
v -0.44315165281295776 3.506063461303711 1.53118097782135
v -0.9106762409210205 3.8011953830718994 1.3672889471054077
v -0.9817725419998169 4.057559967041016 0.8503597378730774
v -0.6826375126838684 5.196157455444336 2.5781233310699463
v -1.1585708856582642 5.307173252105713 2.4974935054779053
v -0.557481586933136 4.7448601722717285 2.73938250541687
v -0.9082590937614441 4.404577732086182 2.820012331008911
v -1.3841925859451294 4.5155930519104 2.73938250541687
v -1.5093485116958618 4.966890811920166 2.5781233310699463
v -0.21930952370166779 5.065305709838867 4.341146945953369
v -0.12272658944129944 4.660555362701416 4.226491928100586
v -0.3306335508823395 4.507462501525879 4.602392673492432
v 1.2728577852249146 4.1512675285339355 6.091626167297363
v 1.2728577852249146 4.1512675285339355 6.091626167297363
v 1.2728577852249146 4.1512675285339355 6.091626167297363
v 1.2728577852249146 4.1512675285339355 6.091626167297363
v -0.9817725419998169 4.057559967041016 0.8503597378730774
v -1.5093485116958618 4.966890811920166 2.5781233310699463
vn 0.6706721782684326 -0.27431371808052063 0.689166784286499
vn -0.22854816913604736 0.8786861300468445 0.41913771629333496
vn -0.8136398196220398 0.14212729036808014 0.5637287497520447
vn 0.6706721782684326 -0.27431371808052063 0.689166784286499
vn -0.8136398196220398 0.14212729036808014 0.5637287497520447
vn -0.5253974199295044 -0.7845655083656311 0.3292636275291443
vn -0.9009885787963867 -0.013427606783807278 -0.43363499641418457
vn -0.9227691888809204 0.09585651010274887 0.3732406497001648
vn -0.8228362202644348 0.30462417006492615 -0.47973397374153137
vn -0.7816349267959595 0.0703824982047081 0.6197524666786194
vn -0.054983433336019516 -0.1105739027261734 0.9923458099365234
vn 0.06839962303638458 0.3333597779273987 0.9403152465820312
vn 0.8023561239242554 0.29073843359947205 0.521244466304779
vn 0.7307485342025757 0.472732812166214 0.49247363209724426
vn 0.7846205234527588 0.32003721594810486 -0.5309866666793823
vn 0.8428412079811096 0.421653687953949 -0.33440521359443665
vn -0.10317784547805786 0.32729822397232056 -0.939271092414856
vn 0.07998143136501312 0.2548889219760895 -0.9636569023132324
vn -0.8228362202644348 0.30462417006492615 -0.47973397374153137
vn -0.9009885787963867 -0.013427606783807278 -0.43363499641418457
vn -0.11359979212284088 0.7682629823684692 -0.6299738883972168
vn 0.741080641746521 0.45740124583244324 -0.4915115237236023
vn 0.92205411195755 -0.02566862478852272 0.3862089216709137
vn 0.1298198252916336 -0.5929185748100281 0.7947291135787964
vn -0.875478208065033 -0.3837276101112366 0.29375341534614563
vn -0.9033921360969543 0.2868307828903198 -0.31876441836357117
vn 0.6155288815498352 0.7798187136650085 -0.11404815316200256
vn -0.32865333557128906 0.9284032583236694 -0.1733618974685669
vn 0.9840883612632751 -0.15917547047138214 0.07895122468471527
vn 0.15640364587306976 -0.935936450958252 0.3155325949192047
vn -0.8019804954528809 -0.5483942031860352 0.23683561384677887
vn -0.9552638530731201 0.29484888911247253 -0.023132670670747757
vn 0.6562398076057434 0.7434111833572388 -0.12918639183044434
vn 0.8344442248344421 -0.39465928077697754 -0.3846386671066284
vn 0.47493794560432434 -0.6860329508781433 -0.5511739253997803
vn 0.6706721782684326 -0.27431371808052063 0.689166784286499
vn 0.6706721782684326 -0.27431371808052063 0.689166784286499
vn 0.6706721782684326 -0.27431371808052063 0.689166784286499
vn 0.6706721782684326 -0.27431371808052063 0.689166784286499
vn -0.9033921360969543 0.2868307828903198 -0.31876441836357117
vn -0.9552638530731201 0.29484888911247253 -0.023132670670747757
vt 1.6872787475585938 0.5022658705711365
vt 1.6872787475585938 0.9601824283599854
vt 2.000088691711426 0.9601824283599854
vt 0.00023554678773507476 0.5022658705711365
vt 0.00023554678773507476 0.9601824283599854
vt 0.374542236328125 0.9601824283599854
vt 0.00023554678773507476 0.010663032531738281
vt 0.374542236328125 0.5022658705711365
vt 0.00023554678773507476 0.5022658705711365
vt 0.374542236328125 0.010663032531738281
vt 0.6873522400856018 0.5022658705711365
vt 0.6873522400856018 0.010663032531738281
vt 1.0001622438430786 0.5022658705711365
vt 1.0001622438430786 0.010663032531738281
vt 1.3744686841964722 0.5022658705711365
vt 1.3744686841964722 0.010663032531738281
vt 1.6872787475585938 0.5022658705711365
vt 1.6872787475585938 0.010663032531738281
vt 2.000088691711426 0.5022658705711365
vt 2.000088691711426 0.010663032531738281
vt 1.6872787475585938 0.9601824283599854
vt 1.3744686841964722 0.9601824283599854
vt 1.0001622438430786 0.9601824283599854
vt 0.6873522400856018 0.9601824283599854
vt 0.374542236328125 0.9601824283599854
vt 0.00023554678773507476 0.9601824283599854
vt 1.3744686841964722 0.5022658705711365
vt 1.6872787475585938 0.5022658705711365
vt 1.0001622438430786 0.5022658705711365
vt 0.6873522400856018 0.5022658705711365
vt 0.374542236328125 0.5022658705711365
vt 0.00023554678773507476 0.5022658705711365
vt 1.3744686841964722 0.9601824283599854
vt 1.0001622438430786 0.9601824283599854
vt 0.6873522400856018 0.9601824283599854
vt 0.374542236328125 0.5022658705711365
vt 0.6873522400856018 0.5022658705711365
vt 1.0001622438430786 0.5022658705711365
vt 1.3744686841964722 0.5022658705711365
vt 2.000088691711426 0.9601824283599854
vt 2.000088691711426 0.5022658705711365
g Geoset0
s 1
usemtl 190415
f 1/1/1 2/2/2 3/3/3
f 4/4/4 5/5/5 6/6/6
f 7/7/7 8/8/8 9/9/9
f 7/7/7 10/10/10 8/8/8
f 10/10/10 11/11/11 8/8/8
f 10/10/10 12/12/12 11/11/11
f 12/12/12 13/13/13 11/11/11
f 12/12/12 14/14/14 13/13/13
f 14/14/14 15/15/15 13/13/13
f 14/14/14 16/16/16 15/15/15
f 16/16/16 17/17/17 15/15/15
f 16/16/16 18/18/18 17/17/17
f 18/18/18 19/19/19 17/17/17
f 18/18/18 20/20/20 19/19/19
f 15/15/15 17/17/17 21/21/21
f 15/15/15 21/21/21 22/22/22
f 13/13/13 15/15/15 22/22/22
f 13/13/13 22/22/22 23/23/23
f 11/11/11 13/13/13 23/23/23
f 11/11/11 23/23/23 24/24/24
f 8/8/8 11/11/11 24/24/24
f 8/8/8 24/24/24 25/25/25
f 9/9/9 8/8/8 25/25/25
f 9/9/9 25/25/25 26/26/26
f 27/27/27 21/21/21 28/28/28
f 27/27/27 22/22/22 21/21/21
f 29/29/29 22/22/22 27/27/27
f 29/29/29 23/23/23 22/22/22
f 30/30/30 23/23/23 29/29/29
f 30/30/30 24/24/24 23/23/23
f 31/31/31 24/24/24 30/30/30
f 31/31/31 25/25/25 24/24/24
f 32/32/32 25/25/25 31/31/31
f 32/32/32 26/26/26 25/25/25
f 27/27/27 28/28/28 2/2/2
f 27/27/27 2/2/2 33/33/33
f 29/29/29 27/27/27 33/33/33
f 29/29/29 33/33/33 34/34/34
f 30/30/30 29/29/29 34/34/34
f 30/30/30 34/34/34 35/35/35
f 31/31/31 30/30/30 35/35/35
f 31/31/31 35/35/35 6/6/6
f 32/32/32 31/31/31 6/6/6
f 32/32/32 6/6/6 5/5/5
f 36/36/36 6/6/6 35/35/35
f 37/37/37 35/35/35 34/34/34
f 38/38/38 34/34/34 33/33/33
f 39/39/39 33/33/33 2/2/2
f 17/17/17 19/19/19 40/40/40
f 17/17/17 40/40/40 21/21/21
f 28/28/28 40/40/40 41/41/41
f 28/28/28 21/21/21 40/40/40
f 28/28/28 41/41/41 3/3/3
f 28/28/28 3/3/3 2/2/2