# Exported using wow.export v0.1.9
o SwampTreeLog01
mtllib swamptreelog01.mtl
v -0.7990396618843079 -0.27176180481910706 -7.183023452758789
v -2.946695566177368 0.3941408693790436 -4.333323001861572
v -0.4600898027420044 2.5471651554107666 -4.74741268157959
v -1.6959013938903809 0.7084606885910034 8.59542465209961
v 0.11645563691854477 -0.5837162733078003 10.083684921264648
v 0.11646293103694916 1.328285813331604 8.495780944824219
v -1.8087087869644165 2.3226428031921387 8.7482271194458
v -0.4934064447879791 3.015606164932251 6.844897270202637
v 2.055509567260742 -0.07479265332221985 9.259099006652832
v 2.4776909351348877 1.1858547925949097 8.09703254699707
v 2.381542921066284 2.3226423263549805 8.918946266174316
v 1.397051215171814 2.9885363578796387 7.1810736656188965
v 0.27355828881263733 3.5636346340179443 7.990610122680664
v -1.6959013938903809 0.7084606885910034 8.59542465209961
v -1.8087087869644165 2.3226428031921387 8.7482271194458
v -1.3125940561294556 3.11976957321167 1.3662900924682617
v 0.9068642854690552 3.3912136554718018 1.3441697359085083
v -0.4934064447879791 3.015606164932251 6.844897270202637
v 0.7964359521865845 5.996369361877441 -4.624748706817627
v 2.026515245437622 4.731027126312256 -5.412669658660889
v 1.947548747062683 6.822366237640381 -6.178543567657471
v 1.4505672454833984 7.570883750915527 -5.970702648162842
v 1.6769987344741821 6.929033279418945 -9.73681354522705
v 0.9280356168746948 6.2493767738342285 -6.6520185470581055
v 0.351530522108078 7.268982887268066 -6.224939346313477
v -1.023758053779602 5.83296012878418 -5.277370452880859
v -0.4600898027420044 2.5471651554107666 -4.74741268157959
v 2.055509567260742 -0.07479265332221985 9.259099006652832
v 0.11645563691854477 -0.5837162733078003 10.083684921264648
v -0.94178307056427 -0.9471790790557861 2.0119621753692627
v -2.3617353439331055 0.661758303642273 1.9291455745697021
v -4.06613302230835 1.7622486352920532 -3.5327844619750977
v -3.5103626251220703 3.5670313835144043 -3.9437408447265625
v -5.495988368988037 2.6384174823760986 -5.138179302215576
v -4.508365631103516 2.096606969833374 -5.706462860107422
v -5.236599922180176 1.9565293788909912 -8.554461479187012
v -5.086145877838135 1.0473663806915283 -5.3606085777282715
v -5.887266159057617 1.8153252601623535 -4.997146129608154
v -5.236599922180176 1.9565293788909912 -8.554461479187012
v -0.4600898027420044 2.5471651554107666 -4.74741268157959
v -3.2317392826080322 6.681519985198975 -6.329267501831055
v -0.4600898027420044 2.5471651554107666 -4.74741268157959
v -4.386022090911865 6.624831199645996 -5.861542701721191
v -2.809607982635498 5.22628927230835 -3.5309433937072754
v -4.088107109069824 7.681150913238525 -5.462673664093018
v -3.19984769821167 7.7710089683532715 -5.693737030029297
v -4.349452018737793 9.229757308959961 -9.817806243896484
v 2.026515245437622 4.731027126312256 -5.412669658660889
v 0.9068642854690552 3.3912136554718018 1.3441697359085083
v 3.145953893661499 3.0913217067718506 -4.001215934753418
v 2.6091301441192627 4.538706302642822 -8.726366996765137
v 4.134605407714844 3.82778263092041 -6.527376651763916
v 3.653620481491089 3.0632591247558594 -6.713464736938477
v 3.32372784614563 4.660860538482666 -6.417262077331543
v 2.5823373794555664 3.7264561653137207 -6.780005931854248
v -0.4600898027420044 2.5471651554107666 -4.74741268157959
v 2.5901830196380615 1.4395684003829956 -4.836582183837891
v 2.2521986961364746 1.605965256690979 1.400083065032959
v 0.27355828881263733 3.5636346340179443 7.990610122680664
v -0.4934064447879791 3.015606164932251 6.844897270202637
v 1.397051215171814 2.9885363578796387 7.1810736656188965
v 2.381542921066284 2.3226423263549805 8.918946266174316
v 0.9818190336227417 0.7764108777046204 -7.161702632904053
v -0.4600898027420044 2.5471651554107666 -4.74741268157959
v 0.10357936471700668 -0.707791268825531 -4.468624114990234
v 0.949926495552063 -1.3089700937271118 -6.808619499206543
v 1.838186264038086 -0.403174489736557 -6.562683582305908
v 1.2765694856643677 0.29790249466896057 -9.916165351867676
v 2.1361019611358643 0.7182629108428955 -6.694155216217041
v 1.8894280195236206 -0.34666910767555237 -4.215217113494873
v 1.2030580043792725 -0.8520464897155762 1.9629387855529785
v 2.4776909351348877 1.1858547925949097 8.09703254699707
v -1.7166155576705933 -1.0242300033569336 -3.8749215602874756
v -1.8813343048095703 -1.316698670387268 -6.809568405151367
v -0.878288745880127 0.017809631302952766 -11.16714096069336
v -0.2225354015827179 -1.3217328786849976 -6.837258815765381
v -1.3843520879745483 -2.0792171955108643 -6.661097049713135
v 1.2765705585479736 0.29790154099464417 -9.916169166564941
v -0.7990396022796631 -0.27176281809806824 -7.1830267906188965
v -0.8782874941825867 0.01780831813812256 -11.167143821716309
v 0.9280351996421814 6.249375820159912 -6.652021884918213
v -3.2317397594451904 6.681518077850342 -6.329269886016846
v -0.4600895345211029 2.547163963317871 -4.747416019439697
v 0.9818193912506104 0.776409924030304 -7.161705017089844
v 2.5823380947113037 3.7264552116394043 -6.780008792877197
v 1.6769996881484985 6.9290313720703125 -9.73681640625
v -4.349452495574951 9.229756355285645 -9.817808151245117
v -5.236598968505859 1.9565279483795166 -8.554464340209961
v -4.508364200592041 2.0966062545776367 -5.706466197967529
v 2.609131097793579 4.538704872131348 -8.72636890411377
vn 0.24007587134838104 0.9009513258934021 -0.3614558279514313
vn -0.7173530459403992 -0.609998345375061 -0.3366105556488037
vn -0.1918676793575287 0.049357444047927856 -0.9801788926124573
vn -0.782242476940155 -0.2799912393093109 0.5565083622932434
vn -0.1199985221028328 -0.44438090920448303 0.887764573097229
vn 0.021202564239501953 0.49500584602355957 0.8686308860778809
vn -0.5354219079017639 0.5005018711090088 0.6803096532821655
vn -0.5390790700912476 0.8341023325920105 0.1169063076376915
vn 0.6806547045707703 -0.28655678033828735 0.6742361187934875
vn 0.9636467099189758 0.0008872074540704489 0.26717838644981384
vn 0.5210345387458801 0.3624576926231384 0.772753119468689
vn 0.45572078227996826 0.8756961226463318 0.15960842370986938
vn -0.08610987663269043 0.7545648217201233 0.6505513191223145
vn -0.782242476940155 -0.2799912393093109 0.5565083622932434
vn -0.5354219079017639 0.5005018711090088 0.6803096532821655
vn -0.5367257595062256 0.784898579120636 0.3096122443675995
vn 0.3974539041519165 0.8857660293579102 0.23968514800071716
vn -0.5390790700912476 0.8341023325920105 0.1169063076376915
vn 0.2697044014930725 0.7690556049346924 0.5794937610626221
vn 0.5850546360015869 0.7352029085159302 -0.34232696890830994
vn 0.9944143295288086 0.06578545272350311 0.08253751695156097
vn 0.31407031416893005 0.8743569254875183 0.3699456751346588
vn 0.1513240784406662 0.0028105045203119516 -0.9884802103042603
vn -0.19782236218452454 -0.5941254496574402 -0.7796674370765686
vn -0.7202231884002686 0.6900174021720886 -0.07179486751556396
vn -0.02990097925066948 0.8632254004478455 -0.5039324164390564
vn -0.1918676793575287 0.049357444047927856 -0.9801788926124573
vn 0.6806547045707703 -0.28655678033828735 0.6742361187934875
vn -0.1199985221028328 -0.44438090920448303 0.887764573097229
vn -0.38060683012008667 -0.9205215573310852 0.08819602429866791
vn -0.9618805050849915 -0.19454680383205414 0.19219116866588593
vn -0.8292252421379089 -0.1982055902481079 0.5225896835327148
vn -0.9099408388137817 0.39886581897735596 -0.11363847553730011
vn -0.5610606670379639 0.8230330348014832 0.08847355097532272
vn 0.5661028623580933 0.30668821930885315 -0.7651600241661072
vn -0.021549182012677193 0.02169581688940525 -0.9995323419570923
vn -0.22364963591098785 -0.9655014276504517 -0.13337111473083496
vn -0.9240838289260864 -0.16367827355861664 0.3453671932220459
vn -0.021549182012677193 0.02169581688940525 -0.9995323419570923
vn -0.1918676793575287 0.049357444047927856 -0.9801788926124573
vn 0.3184286952018738 -0.32675936818122864 -0.8898491263389587
vn -0.1918676793575287 0.049357444047927856 -0.9801788926124573
vn -0.9214248061180115 -0.37009650468826294 -0.11834229528903961
vn -0.42224350571632385 0.653290331363678 0.6284283399581909
vn -0.547406792640686 0.6108532547950745 0.5720175504684448
vn 0.5470086932182312 0.80373615026474 0.23407192528247833
vn -0.14234305918216705 0.45733654499053955 -0.8778278231620789
vn 0.5850546360015869 0.7352029085159302 -0.34232696890830994
vn 0.3974539041519165 0.8857660293579102 0.23968514800071716
vn 0.946284294128418 0.18232449889183044 0.26702770590782166
vn -0.30382704734802246 0.29286691546440125 -0.9065969586372375
vn 0.9918567538261414 0.11162169277667999 -0.06132547929883003
vn 0.4649653434753418 -0.7546142339706421 -0.4629952907562256
vn 0.23468823730945587 0.9719151854515076 0.017388399690389633
vn -0.7684422731399536 -0.13615936040878296 -0.6252655982971191
vn -0.1918676793575287 0.049357444047927856 -0.9801788926124573
vn 0.8891542553901672 -0.3217178285121918 -0.3254263401031494
vn 0.9895737767219543 0.09302742034196854 0.10995306074619293
vn -0.08610987663269043 0.7545648217201233 0.6505513191223145
vn -0.5390790700912476 0.8341023325920105 0.1169063076376915
vn 0.45572078227996826 0.8756961226463318 0.15960842370986938
vn 0.5210345387458801 0.3624576926231384 0.772753119468689
vn -0.6032263040542603 0.6745201945304871 -0.4256061315536499
vn -0.1918676793575287 0.049357444047927856 -0.9801788926124573
vn 0.18960197269916534 -0.9778189659118652 -0.08900118619203568
vn -0.2549092471599579 -0.9166411757469177 -0.3078802824020386
vn 0.8614564538002014 -0.4954444169998169 -0.1114792451262474
vn -0.0369236022233963 0.08513490110635757 -0.9956850409507751
vn 0.8509353995323181 0.4174934923648834 -0.3187602460384369
vn 0.6950114369392395 -0.7172926068305969 0.04950164631009102
vn 0.5524494051933289 -0.832556962966919 0.04060257971286774
vn 0.9636467099189758 0.0008872074540704489 0.26717838644981384
vn -0.3797168433666229 -0.917696475982666 0.11682596802711487
vn -0.9533012509346008 -0.14768052101135254 -0.263452410697937
vn 0.03307183086872101 0.2650960087776184 -0.9636546969413757
vn 0.9147604703903198 -0.3928772211074829 -0.09413143992424011
vn -0.16454902291297913 -0.9862428903579712 -0.01576641947031021
vn 0.5571566224098206 -0.8295953869819641 0.036715567111968994
vn 0.006663546431809664 -0.935018002986908 0.354537695646286
vn -0.14956894516944885 -0.9863606691360474 -0.06871499121189117
vn 0.42289403080940247 0.6822894811630249 0.5963570475578308
vn -0.36333757638931274 0.5830890536308289 0.7266312837600708
vn 0.18730118870735168 -0.1755967140197754 0.9664802551269531
vn 0.632689356803894 -0.6419045329093933 0.43320056796073914
vn 0.8836025595664978 -0.011272773146629333 0.46810200810432434
vn 0.5188827514648438 0.7778618335723877 0.3545302152633667
vn -0.28882575035095215 0.7266595363616943 0.6233342885971069
vn -0.8661566376686096 -0.44356587529182434 0.2302650362253189
vn -0.6914135813713074 -0.29902952909469604 0.6576690673828125
vn 0.9823542237281799 0.16741226613521576 0.08338683098554611
vt -0.828125 -0.9609375
vt -1.0046929121017456 -0.8513957262039185
vt -0.83294278383255 -0.3468548059463501
vt 0.334225594997406 0.7433936595916748
vt 0.1937362551689148 0.9876917600631714
vt 0.46403372287750244 0.987690806388855
vt 0.5719849467277527 0.7302207946777344
vt 0.6812071204185486 0.8618546724319458
vt 0.26310792565345764 0.7612615823745728
vt 0.4405869245529175 0.7119618654251099
vt 0.6126037836074829 0.7231894731521606
vt 0.6991520524024963 0.8381520509719849
vt 0.788696825504303 0.969346284866333
vt -1.3579524755477905 -0.021640300750732422
vt -1.704156517982483 -0.021640300750732422
vt -1.6605736017227173 -0.4602010250091553
vt -1.999192476272583 -0.4280216693878174
vt -1.999192476272583 -0.021640300750732422
vt -1.852454662322998 -0.8014178276062012
vt -2 -0.85546875
vt -1.9110103845596313 -0.9854687452316284
vt -1.8612300157546997 -0.9854687452316284
vt -1.85546875 -0.81640625
vt -1.8515625 -0.9609375
vt -1.781193494796753 -0.9854687452316284
vt -1.6976194381713867 -0.8421239852905273
vt -1.8518226146697998 -0.3828831911087036
vt -0.8774186968803406 -0.021640300750732422
vt -1.074997901916504 -0.021640300750732422
vt -1.0234657526016235 -0.49157726764678955
vt -1.2916860580444336 -0.4625718593597412
vt -1.1552451848983765 -0.7944257259368896
vt -1.3209407329559326 -0.8286145925521851
vt -1.2532148361206055 -0.9854687452316284
vt -1.17578125 -0.94921875
vt -1.1796875 -0.7786421775817871
vt -1.1010218858718872 -0.9854687452316284
vt -1.1803185939788818 -0.9854687452316284
vt -1.1796875 -0.82421875
vt -1.180166244506836 -0.350763201713562
vt -1.5390625 -0.953125
vt -1.5367192029953003 -0.3577057123184204
vt -1.4393839836120605 -0.9854687452316284
vt -1.530348300933838 -0.7957313060760498
vt -1.5321874618530273 -0.9854687452316284
vt -1.5999497175216675 -0.9854687452316284
vt -1.56640625 -0.78125
vt 0 -0.8632094860076904
vt 0 -0.4280216693878174
vt -0.2122778743505478 -0.8387787342071533
vt -0.21875 -0.7734375
vt -0.222476527094841 -0.9854687452316284
vt -0.27680695056915283 -0.9854687452316284
vt -0.1466938555240631 -0.9854687452316284
vt -0.2109375 -0.9609375
vt -0.20794278383255005 -0.3585735559463501
vt -0.381791889667511 -0.8829624652862549
vt -0.33909937739372253 -0.4763960838317871
vt -0.19377490878105164 -0.021640300750732422
vt 0 -0.021640300750732422
vt -0.3529711961746216 -0.021640300750732422
vt -0.523016631603241 -0.021640300750732422
vt -0.546875 -0.9609375
vt -0.54388028383255 -0.3585735559463501
vt -0.6884450912475586 -0.8558810949325562
vt -0.6250964403152466 -0.9854687452316284
vt -0.548068642616272 -0.9854687452316284
vt -0.55078125 -0.76953125
vt -0.4772980809211731 -0.9854687452316284
vt -0.5372875332832336 -0.8424899578094482
vt -0.6806871891021729 -0.5001943111419678
vt -0.7209669351577759 -0.021640300750732422
vt -0.8489357829093933 -0.8210053443908691
vt -0.9141349196434021 -0.9854687452316284
vt -0.8515625 -0.7265625
vt -0.7741777896881104 -0.9854687452316284
vt -0.8338668346405029 -0.9854687452316284
vt 0.03801441192626953 0.009192287921905518
vt 0.970422089099884 0.4283331632614136
vt 0.9619855284690857 0.014023125171661377
vt 0.06904903054237366 0.5177052021026611
vt 0.970422089099884 0.4283331632614136
vt 0.9795737862586975 0.87148118019104
vt 0.06904903054237366 0.5177052021026611
vt 0.970422089099884 0.4283331632614136
vt 0.03801441192626953 0.009192287921905518
vt 0.9619855284690857 0.014023125171661377
vt 0.03801441192626953 0.009192287921905518
vt 0.06904903054237366 0.5177052021026611
vt 0.9619855284690857 0.014023125171661377
g Geoset0
s 1
usemtl 190415
f 1/1/1 2/2/2 3/3/3
f 4/4/4 5/5/5 6/6/6
f 7/7/7 4/4/4 6/6/6
f 8/8/8 7/7/7 6/6/6
f 5/5/5 9/9/9 6/6/6
f 9/9/9 10/10/10 6/6/6
f 10/10/10 11/11/11 6/6/6
f 11/11/11 12/12/12 6/6/6
f 12/12/12 13/13/13 6/6/6
f 13/13/13 8/8/8 6/6/6
f 14/14/14 15/15/15 16/16/16
f 16/16/16 15/15/15 17/17/17
f 15/15/15 18/18/18 17/17/17
f 19/19/19 16/16/16 17/17/17
f 19/19/19 17/17/17 20/20/20
f 19/19/19 20/20/20 21/21/21
f 22/22/22 19/19/19 21/21/21
f 23/23/23 24/24/24 25/25/25
f 25/25/25 24/24/24 26/26/26
f 24/24/24 27/27/27 26/26/26
f 24/24/24 20/20/20 27/27/27
f 24/24/24 21/21/21 20/20/20
f 23/23/23 21/21/21 24/24/24
f 23/23/23 22/22/22 21/21/21
f 23/23/23 25/25/25 22/22/22
f 22/22/22 25/25/25 19/19/19
f 25/25/25 26/26/26 19/19/19
f 26/26/26 16/16/16 19/19/19
f 28/28/28 29/29/29 30/30/30
f 30/30/30 29/29/29 31/31/31
f 32/32/32 30/30/30 31/31/31
f 32/32/32 31/31/31 33/33/33
f 32/32/32 33/33/33 34/34/34
f 35/35/35 34/34/34 33/33/33
f 36/36/36 34/34/34 35/35/35
f 36/36/36 35/35/35 37/37/37
f 38/38/38 32/32/32 34/34/34
f 38/38/38 34/34/34 39/39/39
f 39/39/39 37/37/37 38/38/38
f 38/38/38 37/37/37 32/32/32
f 37/37/37 2/2/2 32/32/32
f 2/2/2 30/30/30 32/32/32
f 37/37/37 35/35/35 2/2/2
f 35/35/35 40/40/40 2/2/2
f 35/35/35 33/33/33 40/40/40
f 41/41/41 26/26/26 42/42/42
f 43/43/43 41/41/41 33/33/33
f 41/41/41 42/42/42 33/33/33
f 33/33/33 31/31/31 44/44/44
f 43/43/43 33/33/33 44/44/44
f 45/45/45 43/43/43 44/44/44
f 45/45/45 46/46/46 47/47/47
f 45/45/45 44/44/44 46/46/46
f 47/47/47 43/43/43 45/45/45
f 47/47/47 41/41/41 43/43/43
f 47/47/47 46/46/46 41/41/41
f 41/41/41 46/46/46 26/26/26
f 44/44/44 26/26/26 46/46/46
f 44/44/44 16/16/16 26/26/26
f 44/44/44 31/31/31 16/16/16
f 31/31/31 14/14/14 16/16/16
f 29/29/29 14/14/14 31/31/31
f 48/48/48 49/49/49 50/50/50
f 51/51/51 52/52/52 53/53/53
f 52/52/52 50/50/50 53/53/53
f 52/52/52 54/54/54 50/50/50
f 54/54/54 48/48/48 50/50/50
f 54/54/54 55/55/55 48/48/48
f 55/55/55 56/56/56 48/48/48
f 55/55/55 57/57/57 56/56/56
f 51/51/51 54/54/54 52/52/52
f 51/51/51 55/55/55 54/54/54
f 51/51/51 53/53/53 55/55/55
f 55/55/55 53/53/53 57/57/57
f 50/50/50 57/57/57 53/53/53
f 50/50/50 58/58/58 57/57/57
f 50/50/50 49/49/49 58/58/58
f 49/49/49 59/59/59 58/58/58
f 60/60/60 59/59/59 49/49/49
f 61/61/61 62/62/62 58/58/58
f 59/59/59 61/61/61 58/58/58
f 63/63/63 64/64/64 57/57/57
f 63/63/63 65/65/65 64/64/64
f 63/63/63 66/66/66 65/65/65
f 67/67/67 66/66/66 68/68/68
f 68/68/68 66/66/66 63/63/63
f 68/68/68 63/63/63 69/69/69
f 69/69/69 63/63/63 57/57/57
f 69/69/69 57/57/57 70/70/70
f 57/57/57 58/58/58 70/70/70
f 70/70/70 58/58/58 71/71/71
f 58/58/58 62/62/62 71/71/71
f 62/62/62 72/72/72 71/71/71
f 67/67/67 69/69/69 70/70/70
f 68/68/68 69/69/69 67/67/67
f 67/67/67 70/70/70 66/66/66
f 70/70/70 65/65/65 66/66/66
f 70/70/70 71/71/71 65/65/65
f 65/65/65 71/71/71 73/73/73
f 72/72/72 28/28/28 71/71/71
f 71/71/71 28/28/28 30/30/30
f 73/73/73 71/71/71 30/30/30
f 73/73/73 30/30/30 2/2/2
f 73/73/73 2/2/2 74/74/74
f 1/1/1 74/74/74 2/2/2
f 75/75/75 74/74/74 1/1/1
f 75/75/75 1/1/1 76/76/76
f 75/75/75 76/76/76 77/77/77
f 75/75/75 77/77/77 74/74/74
f 77/77/77 73/73/73 74/74/74
f 76/76/76 65/65/65 73/73/73
f 77/77/77 76/76/76 73/73/73
f 1/1/1 3/3/3 65/65/65
f 76/76/76 1/1/1 65/65/65
g Geoset1
s 1
usemtl 203529
f 78/78/78 79/79/79 80/80/80
f 81/81/81 82/82/82 83/83/83
f 84/84/84 85/85/85 83/83/83
f 81/81/81 83/83/83 85/85/85
f 86/86/86 81/81/81 85/85/85
f 86/86/86 82/82/82 81/81/81
f 86/86/86 87/87/87 82/82/82
f 88/88/88 82/82/82 87/87/87
f 88/88/88 89/89/89 82/82/82
f 89/89/89 83/83/83 82/82/82
f 89/89/89 79/79/79 83/83/83
f 84/84/84 83/83/83 79/79/79
f 78/78/78 84/84/84 79/79/79
f 78/78/78 85/85/85 84/84/84
f 78/78/78 90/90/90 85/85/85
f 86/86/86 85/85/85 90/90/90
f 88/88/88 79/79/79 89/89/89
f 88/88/88 80/80/80 79/79/79