# Exported using wow.export v0.1.9
o SwampTreeLog02
mtllib swamptreelog02.mtl
v -0.8781324625015259 9.836776733398438 -0.4304276704788208
v -1.1067500114440918 5.423549175262451 -0.2637106478214264
v -0.8781324625015259 9.498553276062012 0.22823463380336761
v -0.011624446138739586 9.084181785583496 0.13904103636741638
v 0.9112431406974792 10.5260648727417 0.6348760724067688
v 0.9112431406974792 9.59495735168457 0.13520321249961853
v 0.48426905274391174 10.207371711730957 0.8511724472045898
v 0.01655537262558937 10.798932075500488 1.0881065130233765
v 0.3906213343143463 9.31701946258545 -0.6941645741462708
v 0.016555245965719223 9.799158096313477 -0.883658766746521
v 0.9112429022789001 9.708700180053711 -0.43042847514152527
v -0.33850741386413574 9.288361549377441 -0.746338963508606
v -0.6174882054328918 9.710736274719238 -0.6650532484054565
v -0.8781324625015259 9.836776733398438 -0.4304276704788208
v -0.8781324625015259 9.498553276062012 0.22823463380336761
v -0.44698566198349 9.818843841552734 0.8532862067222595
v -0.8781324625015259 10.139216423034668 0.6348762512207031
v -2.86258864402771 -0.7238538861274719 -1.7339409589767456
v -1.674425721168518 2.1053857803344727 1.3902969360351562
v -1.347049355506897 3.8974673748016357 -0.3738032281398773
v -2.6742026805877686 -0.7238538861274719 1.477491021156311
v 0.01701797917485237 3.0946402549743652 1.988830804824829
v 0.017018074169754982 -0.7238538861274719 3.0296030044555664
v 1.7084614038467407 2.105384111404419 1.3902968168258667
v 2.7082386016845703 -0.7238538861274719 1.4774903059005737
v 1.3810852766036987 3.0946402549743652 -0.3738034963607788
v 2.8966236114501953 -0.7238538861274719 -1.7339414358139038
v 0.01701783947646618 2.9567089080810547 -1.5393692255020142
v 0.01701778918504715 -0.7238550782203674 -3.183840274810791
v -1.347049355506897 3.8974673748016357 -0.3738032281398773
v -2.86258864402771 -0.7238538861274719 -1.7339409589767456
v 0.016555245965719223 9.799158096313477 -0.883658766746521
v 0.017287591472268105 6.435913562774658 -0.912674069404602
v -0.33850741386413574 9.288361549377441 -0.746338963508606
v 0.3906213343143463 9.31701946258545 -0.6941645741462708
v 1.1413251161575317 5.423549175262451 -0.2637108862400055
v 0.9112429022789001 9.708700180053711 -0.43042847514152527
v 0.9112431406974792 9.59495735168457 0.13520321249961853
v -0.6174882054328918 9.710736274719238 -0.6650532484054565
v -1.1067500114440918 5.423549175262451 -0.2637106478214264
v -0.8781324625015259 9.836776733398438 -0.4304276704788208
v 1.1413251161575317 6.435913562774658 1.034216046333313
v 0.017287712544202805 5.423549175262451 1.6831793785095215
v -1.1067501306533813 6.435913562774658 1.0342161655426025
v 0.9112431406974792 10.5260648727417 0.6348760724067688
v 0.48426905274391174 10.207371711730957 0.8511724472045898
v 0.01655537262558937 10.798932075500488 1.0881065130233765
v -0.44698566198349 9.818843841552734 0.8532862067222595
v -0.8781324625015259 10.139216423034668 0.6348762512207031
vn -0.46317899227142334 0.8674713969230652 -0.1815451830625534
vn -0.85606449842453 0.1288030743598938 -0.5005630254745483
vn -0.7760969996452332 0.5808326601982117 -0.24557457864284515
vn -0.011480939574539661 0.9637437462806702 -0.2665824294090271
vn 0.35467439889907837 0.9343030452728271 0.035830944776535034
vn 0.7110567092895508 0.594594419002533 -0.37530767917633057
vn 0.334274560213089 0.8632006645202637 0.378345251083374
vn -0.07055327296257019 0.9702810049057007 0.2314670979976654
vn 0.4651849865913391 0.5340288877487183 -0.7059859037399292
vn -0.006093792151659727 0.9077625870704651 -0.4194400906562805
vn 0.4217612147331238 0.8147344589233398 -0.3979010283946991
vn -0.2589464783668518 0.4224097728729248 -0.8686292171478271
vn 0.09415091574192047 0.7129628658294678 -0.6948521733283997
vn -0.46317899227142334 0.8674713969230652 -0.1815451830625534
vn -0.7760969996452332 0.5808326601982117 -0.24557457864284515
vn -0.5347433090209961 0.6988332271575928 0.47505971789360046
vn -0.38060462474823 0.9215129017829895 0.07716285437345505
vn -0.7836992740631104 0.4084680378437042 -0.4679415822029114
vn -0.7822426557540894 0.2414662092924118 0.5742738842964172
vn -0.8602660894393921 0.23283334076404572 -0.45357564091682434
vn -0.8223704695701599 0.31765925884246826 0.472016304731369
vn -0.001090889680199325 0.17525266110897064 0.9845228791236877
vn -0.007706677541136742 0.2522433400154114 0.9676331281661987
vn 0.8115696310997009 0.26807457208633423 0.5191249847412109
vn 0.8290120363235474 0.3161048889160156 0.461320698261261
vn 0.8633898496627808 0.2719655930995941 -0.4249619245529175
vn 0.7787153720855713 0.43142086267471313 -0.45549798011779785
vn 0.04362151771783829 0.3612731099128723 -0.9314391613006592
vn -0.0024577819276601076 0.4117676317691803 -0.9112855792045593
vn -0.8602660894393921 0.23283334076404572 -0.45357564091682434
vn -0.7836992740631104 0.4084680378437042 -0.4679415822029114
vn -0.006093792151659727 0.9077625870704651 -0.4194400906562805
vn 0.014092318713665009 0.038620881736278534 -0.9991545677185059
vn -0.2589464783668518 0.4224097728729248 -0.8686292171478271
vn 0.4651849865913391 0.5340288877487183 -0.7059859037399292
vn 0.8576655387878418 0.09561285376548767 -0.5052404999732971
vn 0.4217612147331238 0.8147344589233398 -0.3979010283946991
vn 0.7110567092895508 0.594594419002533 -0.37530767917633057
vn 0.09415091574192047 0.7129628658294678 -0.6948521733283997
vn -0.85606449842453 0.1288030743598938 -0.5005630254745483
vn -0.46317899227142334 0.8674713969230652 -0.1815451830625534
vn 0.8476608395576477 0.11945223063230515 0.5169160962104797
vn 0.0037735432852059603 0.13303625583648682 0.991104006767273
vn -0.8438788056373596 0.1303044706583023 0.5204702615737915
vn 0.35467439889907837 0.9343030452728271 0.035830944776535034
vn 0.334274560213089 0.8632006645202637 0.378345251083374
vn -0.07055327296257019 0.9702810049057007 0.2314670979976654
vn -0.5347433090209961 0.6988332271575928 0.47505971789360046
vn -0.38060462474823 0.9215129017829895 0.07716285437345505
vt -0.00007828040543245152 0.4048190712928772
vt -0.00007828040543245152 0.9769040942192078
vt 0.15366600453853607 0.4048190712928772
vt 0.4024043679237366 0.8469404578208923
vt 0.15118789672851562 0.36458897590637207
vt 0.4043486714363098 0.36458897590637207
vt 0.40703636407852173 0.3636746406555176
vt 0.6872963905334473 0.3626731038093567
vt 0.3778160512447357 0.3634742498397827
vt 0.15284568071365356 0.36267322301864624
vt 0.6909277439117432 0.36458903551101685
vt 0.31587356328964233 0.36282455921173096
vt 0.41237694025039673 0.36291420459747314
vt 0.6909276247024536 0.36317282915115356
vt 0.4692821204662323 0.3631727695465088
vt 0.4095366597175598 0.36293190717697144
vt 0.15118801593780518 0.36317265033721924
vt -0.00007828040543245152 0.0004995465278625488
vt 0.37431180477142334 0.4048190712928772
vt -0.00007828040543245152 0.4048190712928772
vt 0.37431180477142334 0.0004995465278625488
vt 0.6871914863586426 0.4048190712928772
vt 0.6871914863586426 0.0004995465278625488
vt 1.0000711679458618 0.4048190712928772
vt 1.0000711679458618 0.0004995465278625488
vt 1.3744611740112305 0.4048190712928772
vt 1.3744611740112305 0.0004995465278625488
vt 1.6873408555984497 0.4048190712928772
vt 1.6873408555984497 0.0004995465278625488
vt 2.000220537185669 0.4048190712928772
vt 2.000220537185669 0.0004995465278625488
vt 1.6873408555984497 0.4048190712928772
vt 1.6873408555984497 0.9769040942192078
vt 1.7821369171142578 0.404819130897522
vt 1.5565268993377686 0.4048190712928772
vt 1.3744611740112305 0.9769040942192078
vt 1.3744611740112305 0.4048190712928772
vt 1.175675868988037 0.4048190712928772
vt 1.838250994682312 0.4048190712928772
vt 2.000220537185669 0.9769040942192078
vt 2.000220537185669 0.4048190712928772
vt 1.0000711679458618 0.9769040942192078
vt 0.6871914863586426 0.9769040942192078
vt 0.37431180477142334 0.9769040942192078
vt 1.0000711679458618 0.4048190712928772
vt 0.8507547974586487 0.4048190712928772
vt 0.6871914863586426 0.4048190712928772
vt 0.5250873565673828 0.4048190712928772
vt 0.37431180477142334 0.4048190712928772
g Geoset0
s 1
usemtl 190415
f 1/1/1 2/2/2 3/3/3
f 4/4/4 5/5/5 6/6/6
f 4/4/4 7/7/7 5/5/5
f 4/4/4 8/8/8 7/7/7
f 4/4/4 9/9/9 10/10/10
f 4/4/4 11/11/11 9/9/9
f 4/4/4 6/6/6 11/11/11
f 4/4/4 10/10/10 12/12/12
f 4/4/4 12/12/12 13/13/13
f 4/4/4 13/13/13 14/14/14
f 4/4/4 14/14/14 15/15/15
f 4/4/4 16/16/16 8/8/8
f 4/4/4 17/17/17 16/16/16
f 4/4/4 15/15/15 17/17/17
f 18/18/18 19/19/19 20/20/20
f 18/18/18 21/21/21 19/19/19
f 21/21/21 22/22/22 19/19/19
f 21/21/21 23/23/23 22/22/22
f 23/23/23 24/24/24 22/22/22
f 23/23/23 25/25/25 24/24/24
f 25/25/25 26/26/26 24/24/24
f 25/25/25 27/27/27 26/26/26
f 27/27/27 28/28/28 26/26/26
f 27/27/27 29/29/29 28/28/28
f 29/29/29 30/30/30 28/28/28
f 29/29/29 31/31/31 30/30/30
f 32/32/32 33/33/33 34/34/34
f 35/35/35 33/33/33 32/32/32
f 35/35/35 36/36/36 33/33/33
f 37/37/37 36/36/36 35/35/35
f 38/38/38 36/36/36 37/37/37
f 39/39/39 40/40/40 41/41/41
f 34/34/34 33/33/33 39/39/39
f 39/39/39 33/33/33 40/40/40
f 28/28/28 30/30/30 40/40/40
f 28/28/28 40/40/40 33/33/33
f 26/26/26 28/28/28 33/33/33
f 26/26/26 33/33/33 36/36/36
f 24/24/24 26/26/26 36/36/36
f 24/24/24 36/36/36 42/42/42
f 22/22/22 24/24/24 42/42/42
f 22/22/22 42/42/42 43/43/43
f 19/19/19 22/22/22 43/43/43
f 19/19/19 43/43/43 44/44/44
f 20/20/20 19/19/19 44/44/44
f 20/20/20 44/44/44 2/2/2
f 38/38/38 42/42/42 36/36/36
f 45/45/45 42/42/42 38/38/38
f 46/46/46 42/42/42 45/45/45
f 46/46/46 43/43/43 42/42/42
f 47/47/47 43/43/43 46/46/46
f 48/48/48 43/43/43 47/47/47
f 49/49/49 44/44/44 48/48/48
f 48/48/48 44/44/44 43/43/43
f 3/3/3 44/44/44 49/49/49
f 3/3/3 2/2/2 44/44/44