# Exported using wow.export v0.1.9
o SwampSorrowTree01
mtllib swampsorrowtree01.mtl
v -0.31156936287879944 18.03093719482422 -0.05360393226146698
v 0.5381368398666382 18.03093719482422 0.4369742274284363
v 0.13263319432735443 30.76789665222168 -0.43060365319252014
v -1.6227880716323853 9.88493824005127 0.6297121644020081
v 0.5381368398666382 18.03093719482422 0.4369742274284363
v -0.31156936287879944 18.03093719482422 -0.05360393226146698
v 0.011504643596708775 9.97081470489502 1.5703635215759277
v -3.7643160820007324 2.998272180557251 1.5024694204330444
v -0.23573170602321625 3.392395496368408 3.5491230487823486
v -6.60137414932251 -1.2630484104156494 2.6131253242492676
v 0.011504670605063438 -1.2630484104156494 6.4310760498046875
v 1.6457966566085815 9.713187217712402 -1.2515867948532104
v 0.5381367206573486 18.03093719482422 -1.5253369808197021
v 1.387842059135437 18.03093719482422 -1.0347588062286377
v 0.011505622416734695 9.627310752868652 -2.192237377166748
v 3.2928531169891357 3.786526918411255 -2.590832233428955
v -0.23573020100593567 3.392395496368408 -4.637484073638916
v 6.624383926391602 -1.2630484104156494 -5.022766590118408
v 0.011505265720188618 -1.2630484104156494 -8.840714454650879
v -6.60137414932251 -1.2630484104156494 -5.022768020629883
v -6.60137414932251 -1.2630484104156494 2.6131253242492676
v -3.7643160820007324 2.998272180557251 1.5024694204330444
v -3.7643158435821533 2.998272180557251 -2.5908334255218506
v -1.6227880716323853 9.88493824005127 0.6297121644020081
v -1.6227871179580688 9.713187217712402 -1.251588225364685
v -0.31156936287879944 18.03093719482422 -0.05360393226146698
v -0.3115687668323517 18.03093719482422 -1.034759283065796
v 0.011505622416734695 9.627310752868652 -2.192237377166748
v 0.5381367206573486 18.03093719482422 -1.5253369808197021
v -0.23573020100593567 3.392395496368408 -4.637484073638916
v 0.011505265720188618 -1.2630484104156494 -8.840714454650879
v 6.624383926391602 -1.2630484104156494 2.6131277084350586
v 6.624383926391602 -1.2630484104156494 -5.022766590118408
v 3.2928531169891357 3.786526918411255 -2.590832233428955
v 3.2928531169891357 3.786526918411255 1.5024707317352295
v 1.6457966566085815 9.713187217712402 -1.2515867948532104
v 1.6457971334457397 9.88493824005127 0.6297138333320618
v 1.387842059135437 18.03093719482422 -1.0347588062286377
v 1.3878421783447266 18.03093719482422 -0.05360349267721176
v 0.011504643596708775 9.97081470489502 1.5703635215759277
v 0.5381368398666382 18.03093719482422 0.4369742274284363
v -0.23573170602321625 3.392395496368408 3.5491230487823486
v 0.011504670605063438 -1.2630484104156494 6.4310760498046875
v 1.387842059135437 18.03093719482422 -1.0347588062286377
v 0.5381367206573486 18.03093719482422 -1.5253369808197021
v 1.3878421783447266 18.03093719482422 -0.05360349267721176
v 1.387842059135437 18.03093719482422 -1.0347588062286377
v 0.5381368398666382 18.03093719482422 0.4369742274284363
v -0.3115687668323517 18.03093719482422 -1.034759283065796
v -0.31156936287879944 18.03093719482422 -0.05360393226146698
v 0.5381367206573486 18.03093719482422 -1.5253369808197021
v 0.46456608176231384 30.45204734802246 -2.783191442489624
v -0.39060527086257935 31.89375877380371 1.9124447107315063
v -1.2729573249816895 29.17167854309082 6.916505336761475
v 2.999016761779785 24.6420955657959 -1.8873533010482788
v -7.483371257781982 15.546403884887695 1.3079098463058472
v -6.106642246246338 22.657495498657227 0.3974705636501312
v -10.62492847442627 21.849788665771484 6.003326892852783
v -3.553828477859497 22.684322357177734 4.830835342407227
v -4.674678325653076 10.082093238830566 5.553308486938477
v -1.9420678615570068 27.85173797607422 0.23085862398147583
v 5.2422404289245605 15.429850578308105 1.6552672386169434
v 4.555840015411377 25.68509864807129 1.7076421976089478
v 10.034820556640625 26.289966583251953 -0.7841812372207642
v 4.210967063903809 25.64451789855957 -2.308466911315918
v 4.996923446655273 14.219636917114258 -2.363574743270874
v 0.46456608176231384 30.45204734802246 -2.783191442489624
v -1.2729573249816895 29.17167854309082 6.916505336761475
v 1.0467075109481812 19.680261611938477 3.262192964553833
v -2.1878063678741455 20.67241859436035 2.603719472885132
v -6.106642246246338 22.657495498657227 0.3974705636501312
v -10.62492847442627 21.849788665771484 6.003326892852783
v -3.8368122577667236 27.468931198120117 1.9393435716629028
v 2.999016761779785 24.6420955657959 -1.8873533010482788
v -3.553828477859497 22.684322357177734 4.830835342407227
v 4.555840015411377 25.68509864807129 1.7076421976089478
v 10.034820556640625 26.289966583251953 -0.7841812372207642
v 3.8603909015655518 29.61031150817871 -0.243988037109375
v -1.9420678615570068 27.85173797607422 0.23085862398147583
v 4.210967063903809 25.64451789855957 -2.308466911315918
v 5.984772682189941 18.504615783691406 3.8039767742156982
v 6.768873691558838 17.875574111938477 12.203885078430176
v 6.811415195465088 6.178799629211426 5.708189487457275
v -0.3083907961845398 20.064228057861328 -3.0817134380340576
v 3.098071575164795 22.528682708740234 4.331825256347656
v 0.8613420128822327 18.561487197875977 6.1830735206604
v 1.6366677284240723 7.874785423278809 7.957492351531982
v -7.742830753326416 17.00519371032715 1.7018663883209229
v -9.097834587097168 4.591040134429932 1.4850448369979858
v 4.750461578369141 21.525882720947266 0.6142937541007996
v -14.191879272460938 14.514506340026855 -2.779694080352783
v -6.727618217468262 23.35808563232422 -1.4635425806045532
v -6.600321292877197 17.071828842163086 -4.750435829162598
v -7.9616522789001465 7.192038536071777 -4.9585442543029785
v -2.8182079792022705 19.119428634643555 3.248249053955078
v 7.976465225219727 5.478107929229736 -4.7787766456604
v 6.374395370483398 15.284890174865723 -2.9622697830200195
v 8.607094764709473 14.386944770812988 -10.434809684753418
v 2.223601818084717 13.791964530944824 -6.269686222076416
v 4.100883960723877 18.121505737304688 -5.064517021179199
v 3.8060333728790283 3.4853949546813965 -8.050596237182617
vn -0.9114646315574646 0.12464738637208939 0.39203986525535583
vn -0.11382270604372025 0.11709168553352356 0.9865768551826477
vn -0.01583864539861679 0.9998646974563599 0.004434831906110048
vn -0.8400187492370605 0.25436460971832275 0.47923600673675537
vn -0.11382270604372025 0.11709168553352356 0.9865768551826477
vn -0.9114646315574646 0.12464738637208939 0.39203986525535583
vn -0.0008000986999832094 0.20977012813091278 0.9777504205703735
vn -0.7692155241966248 0.45745497941970825 0.44614171981811523
vn -0.014076095074415207 0.4190952777862549 0.9078331589698792
vn -0.6362509727478027 0.5490025281906128 0.542015552520752
vn 0.14254839718341827 0.5165415406227112 0.8443132042884827
vn 0.8467262387275696 0.18291239440441132 -0.49959757924079895
vn 0.1141635924577713 0.07420727610588074 -0.9906865954399109
vn 0.9154595136642456 0.06624016910791397 -0.396920770406723
vn -0.007037471979856491 0.23049816489219666 -0.9730473160743713
vn 0.742414653301239 0.49114900827407837 -0.45562392473220825
vn -0.04067505896091461 0.520534336566925 -0.8528713583946228
vn 0.574090838432312 0.6413066983222961 -0.5090633034706116
vn -0.1630462110042572 0.6673727631568909 -0.726656436920166
vn -0.7390024065971375 0.6292913556098938 -0.24055732786655426
vn -0.6362509727478027 0.5490025281906128 0.542015552520752
vn -0.7692155241966248 0.45745497941970825 0.44614171981811523
vn -0.7621893286705017 0.5044849514961243 -0.4056628942489624
vn -0.8400187492370605 0.25436460971832275 0.47923600673675537
vn -0.8347494006156921 0.263907253742218 -0.48326635360717773
vn -0.9114646315574646 0.12464738637208939 0.39203986525535583
vn -0.7975412011146545 0.10294576734304428 -0.5944158434867859
vn -0.007037471979856491 0.23049816489219666 -0.9730473160743713
vn 0.1141635924577713 0.07420727610588074 -0.9906865954399109
vn -0.04067505896091461 0.520534336566925 -0.8528713583946228
vn -0.1630462110042572 0.6673727631568909 -0.726656436920166
vn 0.7716535925865173 0.5708196759223938 0.28056302666664124
vn 0.574090838432312 0.6413066983222961 -0.5090633034706116
vn 0.742414653301239 0.49114900827407837 -0.45562392473220825
vn 0.7773945331573486 0.4367540180683136 0.4526628255844116
vn 0.8467262387275696 0.18291239440441132 -0.49959757924079895
vn 0.8558352589607239 0.17193616926670074 0.48783597350120544
vn 0.9154595136642456 0.06624016910791397 -0.396920770406723
vn 0.8003624081611633 0.08739574998617172 0.5931121706962585
vn -0.0008000986999832094 0.20977012813091278 0.9777504205703735
vn -0.11382270604372025 0.11709168553352356 0.9865768551826477
vn -0.014076095074415207 0.4190952777862549 0.9078331589698792
vn 0.14254839718341827 0.5165415406227112 0.8443132042884827
vn 0.9154595136642456 0.06624016910791397 -0.396920770406723
vn 0.1141635924577713 0.07420727610588074 -0.9906865954399109
vn 0.8003624081611633 0.08739574998617172 0.5931121706962585
vn 0.9154595136642456 0.06624016910791397 -0.396920770406723
vn -0.11382270604372025 0.11709168553352356 0.9865768551826477
vn -0.7975412011146545 0.10294576734304428 -0.5944158434867859
vn -0.9114646315574646 0.12464738637208939 0.39203986525535583
vn 0.1141635924577713 0.07420727610588074 -0.9906865954399109
vn 0.9213128089904785 0.32827600836753845 0.20836888253688812
vn 0.98415607213974 0.0066995867528021336 0.1771777719259262
vn 0.9213128089904785 0.32827600836753845 0.20836888253688812
vn 0.6514366865158081 0.6556673645973206 -0.38174670934677124
vn -0.5352014899253845 -0.004532746039330959 -0.8447122573852539
vn -0.5487534999847412 0.2454945147037506 -0.7991257905960083
vn -0.6837353706359863 0.6159496903419495 0.3912951350212097
vn 0.4132818281650543 0.26679733395576477 0.8706418871879578
vn 0.46285393834114075 0.009648970328271389 0.8863820433616638
vn -0.7252287864685059 0.6857553720474243 0.06150428578257561
vn 0.09707655012607574 0.00141446094494313 0.9952759146690369
vn 0.11966010928153992 0.2417786717414856 0.9629249572753906
vn 0.7630193829536438 0.6430068016052246 -0.06590622663497925
vn -0.04444628208875656 0.2413596510887146 -0.96941739320755
vn -0.07250909507274628 -0.00017732713604345918 -0.9973677396774292
vn 0.9213128089904785 0.32827600836753845 0.20836888253688812
vn 0.9213128089904785 0.32827600836753845 0.20836888253688812
vn 0.9674877524375916 0.16151605546474457 0.19462785124778748
vn -0.9719670414924622 0.18085622787475586 -0.1502368152141571
vn -0.5487534999847412 0.2454945147037506 -0.7991257905960083
vn -0.6837353706359863 0.6159496903419495 0.3912951350212097
vn -0.1896272897720337 0.9772734642028809 0.09475290775299072
vn 0.6514366865158081 0.6556673645973206 -0.38174670934677124
vn 0.4132818281650543 0.26679733395576477 0.8706418871879578
vn 0.11966010928153992 0.2417786717414856 0.9629249572753906
vn 0.7630193829536438 0.6430068016052246 -0.06590622663497925
vn 0.12900610268115997 0.9915764331817627 -0.011560851708054543
vn -0.7252287864685059 0.6857553720474243 0.06150428578257561
vn -0.04444628208875656 0.2413596510887146 -0.96941739320755
vn 0.881633996963501 0.3106205463409424 -0.3552975654602051
vn 0.301121324300766 0.7030625939369202 0.6442273855209351
vn 0.9133058786392212 -0.0016675054794177413 -0.4072708785533905
vn -0.29128164052963257 0.7200408577919006 -0.629838228225708
vn 0.055803604423999786 0.9915788769721985 0.11686457693576813
vn -0.8396215438842773 0.3151206076145172 0.44241905212402344
vn -0.9008438587188721 0.006719803903251886 0.434091180562973
vn -0.3257446885108948 0.24629716575145721 0.9128133058547974
vn -0.25985822081565857 0.011499032378196716 0.9655783176422119
vn 0.6236848831176758 0.7734193205833435 0.11331243813037872
vn -0.8751350045204163 0.4585890471935272 -0.15438540279865265
vn -0.428740531206131 0.9002711772918701 -0.07545427978038788
vn 0.011092018336057663 0.24500593543052673 -0.9694581031799316
vn 0.0918351486325264 0.008320355787873268 -0.9957394599914551
vn -0.38805103302001953 0.9088168740272522 0.1531936526298523
vn 0.802114725112915 0.02048778533935547 0.5968184471130371
vn 0.787007749080658 0.41041213274002075 0.46063074469566345
vn 0.33242321014404297 0.6967310905456543 -0.6356576085090637
vn -0.6893965601921082 0.23170813918113708 -0.686326265335083
vn 0.04369574412703514 0.9403387904167175 -0.33742207288742065
vn -0.7502533793449402 -0.0009485396440140903 -0.6611497402191162
vt 0.49803921580314636 0.011764705181121826
vt 0.2549019753932953 0.011764705181121826
vt 0.37652719020843506 0.9860187768936157
vt 0.24705882370471954 0.615686297416687
vt 0.003921568859368563 0.9921568632125854
vt 0.24705882370471954 0.9921568632125854
vt 0.003921568859368563 0.615686297416687
vt 0.24705882370471954 0.29803919792175293
vt 0.003921568859368563 0.29803919792175293
vt 0.24705882370471954 0.011764705181121826
vt 0.003921568859368563 0.011764705181121826
vt 0.003921568859368563 0.615686297416687
vt 0.24705882370471954 0.9921568632125854
vt 0.003921568859368563 0.9921568632125854
vt 0.24705882370471954 0.615686297416687
vt 0.003921568859368563 0.29803919792175293
vt 0.24705882370471954 0.29803919792175293
vt 0.003921568859368563 0.011764705181121826
vt 0.24705882370471954 0.011764705181121826
vt 0.24705882370471954 0.011764705181121826
vt 0.003921568859368563 0.011764705181121826
vt 0.003921568859368563 0.29803919792175293
vt 0.24705882370471954 0.29803919792175293
vt 0.003921568859368563 0.615686297416687
vt 0.24705882370471954 0.615686297416687
vt 0.003921568859368563 0.9921568632125854
vt 0.24705882370471954 0.9921568632125854
vt 0.003921568859368563 0.615686297416687
vt 0.003921568859368563 0.9921568632125854
vt 0.003921568859368563 0.29803919792175293
vt 0.003921568859368563 0.011764705181121826
vt 0.003921568859368563 0.011764705181121826
vt 0.24705882370471954 0.011764705181121826
vt 0.24705882370471954 0.29803919792175293
vt 0.003921568859368563 0.29803919792175293
vt 0.24705882370471954 0.615686297416687
vt 0.003921568859368563 0.615686297416687
vt 0.24705882370471954 0.9921568632125854
vt 0.003921568859368563 0.9921568632125854
vt 0.24705882370471954 0.615686297416687
vt 0.24705882370471954 0.9921568632125854
vt 0.24705882370471954 0.29803919792175293
vt 0.24705882370471954 0.011764705181121826
vt 0.2549019753932953 0.011764705181121826
vt 0.49803921580314636 0.011764705181121826
vt 0.2549019753932953 0.011764705181121826
vt 0.49803921580314636 0.011764705181121826
vt 0.49803921580314636 0.011764705181121826
vt 0.49803921580314636 0.011764705181121826
vt 0.2549019753932953 0.011764705181121826
vt 0.2549019753932953 0.011764705181121826
vt 0.6784313917160034 0.9960784316062927
vt 0.9960784316062927 0.9960784316062927
vt 0.9960784316062927 0.6078431606292725
vt 0.7273871302604675 0.00784313678741455
vt 0.003921568859368563 0.00784313678741455
vt 0.2631026804447174 0.3665316104888916
vt 0.003921568859368563 0.5677181482315063
vt 0.2631026804447174 0.3665316104888916
vt 0.003921568859368563 0.00784313678741455
vt 0.7273871302604675 0.00784313678741455
vt 0.003921568859368563 0.00784313678741455
vt 0.2631026804447174 0.3665316104888916
vt 0.003921568859368563 0.5677181482315063
vt 0.2631026804447174 0.3665316104888916
vt 0.003921568859368563 0.00784313678741455
vt 0.9960784316062927 0.5411764979362488
vt 0.7921568751335144 0.0156862735748291
vt 0.9960784316062927 0.003921568393707275
vt 0.9960784316062927 0.003921568393707275
vt 0.21996541321277618 0.7457232475280762
vt 0.003921568859368563 0.6039215922355652
vt 0.003921568859368563 0.9960784316062927
vt 0.6235294342041016 0.9960784316062927
vt 0.21996541321277618 0.7457232475280762
vt 0.21996541321277618 0.7457232475280762
vt 0.003921568859368563 0.6039215922355652
vt 0.003921568859368563 0.9960784316062927
vt 0.6235294342041016 0.9960784316062927
vt 0.21996541321277618 0.7457232475280762
vt 0.5987259745597839 0.5855644941329956
vt 0.9921568632125854 0.5826771855354309
vt 0.7699836492538452 0.0004994869232177734
vt 0.007843137718737125 0.5826771855354309
vt 0.6505780220031738 0.999500572681427
vt 0.5981312990188599 0.5905395746231079
vt 0.7699836492538452 0.000499427318572998
vt 0.6105672717094421 0.6294963359832764
vt 0.7699836492538452 0.0004994869232177734
vt 0.007843137718737125 0.5826771855354309
vt 0.9921568632125854 0.5826771855354309
vt 0.6505780220031738 0.999500572681427
vt 0.6099725961685181 0.6344714164733887
vt 0.7699836492538452 0.000499427318572998
vt 0.007843137718737125 0.5826771855354309
vt 0.7699836492538452 0.0004994869232177734
vt 0.6224086284637451 0.6380290985107422
vt 0.9921568632125854 0.5826771855354309
vt 0.621813952922821 0.6430041790008545
vt 0.6505780220031738 0.999500572681427
vt 0.7699836492538452 0.000499427318572998
g Geoset0
s 1
usemtl 190374
f 1/1/1 2/2/2 3/3/3
f 4/4/4 5/5/5 6/6/6
f 4/4/4 7/7/7 5/5/5
f 8/8/8 7/7/7 4/4/4
f 8/8/8 9/9/9 7/7/7
f 10/10/10 9/9/9 8/8/8
f 10/10/10 11/11/11 9/9/9
f 12/12/12 13/13/13 14/14/14
f 12/12/12 15/15/15 13/13/13
f 16/16/16 15/15/15 12/12/12
f 16/16/16 17/17/17 15/15/15
f 18/18/18 17/17/17 16/16/16
f 18/18/18 19/19/19 17/17/17
f 20/20/20 21/21/21 22/22/22
f 20/20/20 22/22/22 23/23/23
f 23/23/23 22/22/22 24/24/24
f 23/23/23 24/24/24 25/25/25
f 25/25/25 24/24/24 26/26/26
f 25/25/25 26/26/26 27/27/27
f 28/28/28 27/27/27 29/29/29
f 28/28/28 25/25/25 27/27/27
f 30/30/30 25/25/25 28/28/28
f 30/30/30 23/23/23 25/25/25
f 31/31/31 23/23/23 30/30/30
f 31/31/31 20/20/20 23/23/23
f 32/32/32 33/33/33 34/34/34
f 32/32/32 34/34/34 35/35/35
f 35/35/35 34/34/34 36/36/36
f 35/35/35 36/36/36 37/37/37
f 37/37/37 36/36/36 38/38/38
f 37/37/37 38/38/38 39/39/39
f 40/40/40 39/39/39 41/41/41
f 40/40/40 37/37/37 39/39/39
f 42/42/42 37/37/37 40/40/40
f 42/42/42 35/35/35 37/37/37
f 43/43/43 35/35/35 42/42/42
f 43/43/43 32/32/32 35/35/35
f 44/44/44 45/45/45 3/3/3
f 46/46/46 47/47/47 3/3/3
f 48/48/48 46/46/46 3/3/3
f 49/49/49 50/50/50 3/3/3
f 51/51/51 49/49/49 3/3/3
g Geoset1
s 1
usemtl 190417
f 52/52/52 53/53/53 54/54/54
f 55/55/55 56/56/56 57/57/57
f 56/56/56 58/58/58 57/57/57
f 59/59/59 60/60/60 55/55/55
f 58/58/58 60/60/60 59/59/59
f 61/61/61 62/62/62 63/63/63
f 62/62/62 64/64/64 63/63/63
f 65/65/65 66/66/66 61/61/61
f 64/64/64 66/66/66 65/65/65
f 67/67/67 68/68/68 69/69/69
f 67/67/67 70/70/70 68/68/68
f 71/71/71 72/72/72 73/73/73
f 74/74/74 71/71/71 73/73/73
f 73/73/73 75/75/75 74/74/74
f 72/72/72 75/75/75 73/73/73
f 76/76/76 77/77/77 78/78/78
f 79/79/79 76/76/76 78/78/78
f 78/78/78 80/80/80 79/79/79
f 77/77/77 80/80/80 78/78/78
f 81/81/81 82/82/82 83/83/83
f 81/81/81 83/83/83 84/84/84
f 85/85/85 81/81/81 84/84/84
f 84/84/84 86/86/86 85/85/85
f 84/84/84 87/87/87 86/86/86
f 86/86/86 87/87/87 82/82/82
f 85/85/85 86/86/86 82/82/82
f 85/85/85 82/82/82 81/81/81
f 88/88/88 89/89/89 90/90/90
f 88/88/88 91/91/91 89/89/89
f 92/92/92 91/91/91 88/88/88
f 92/92/92 93/93/93 91/91/91
f 93/93/93 94/94/94 91/91/91
f 90/90/90 94/94/94 93/93/93
f 90/90/90 93/93/93 92/92/92
f 92/92/92 88/88/88 90/90/90
f 95/95/95 96/96/96 97/97/97
f 98/98/98 99/99/99 100/100/100
f 98/98/98 101/101/101 99/99/99
f 96/96/96 98/98/98 97/97/97
f 97/97/97 98/98/98 100/100/100
f 95/95/95 97/97/97 100/100/100
f 100/100/100 99/99/99 95/95/95
f 99/99/99 101/101/101 95/95/95