# Exported using wow.export v0.1.9
o ElwynnBush01
mtllib elwynnbush01.mtl
v 0.060304999351501465 1.0241600275039673 -3.2799301147460938
v 0.06454060226678848 -0.4086970090866089 -3.4823100566864014
v 0.05888719856739044 0.24597400426864624 -4.941659927368164
v -0.18193599581718445 1.9788600206375122 2.078010082244873
v -0.17413699626922607 -0.5631030201911926 2.0576999187469482
v -1.9415600299835205 0.19538000226020813 4.106019973754883
v 2.0495800971984863 0.7443220019340515 3.3272600173950195
v 1.0110900402069092 -0.4398939907550812 2.121920108795166
v 0.5940920114517212 1.2404199838638306 1.6502399444580078
v 0.16865399479866028 -0.02949110046029091 -1.171339988708496
v 0.8136829733848572 0.944208025932312 -2.2082600593566895
v 0.6905829906463623 1.3944300413131714 -1.9433900117874146
v 1.3375500440597534 1.5723700523376465 -3.3443799018859863
v 1.2662999629974365 -0.07837919890880585 7.14100980758667
v 1.0003299713134766 1.423840045928955 5.275859832763672
v 1.1175099611282349 3.2890899181365967 6.737100124359131
v 0.49277499318122864 2.392970085144043 3.4136099815368652
v -0.9345920085906982 -0.07837919890880585 3.8094699382781982
v -0.3462420105934143 1.481600046157837 3.694269895553589
v -0.7082030177116394 2.828510046005249 3.8316500186920166
v -0.9345920085906982 -0.07837919890880585 3.8094699382781982
v 1.2662999629974365 -0.07837919890880585 7.14100980758667
v 1.0003299713134766 1.423840045928955 5.275859832763672
v 1.3338199853897095 1.141219973564148 3.324660062789917
v 1.8387800455093384 -0.07837940007448196 3.1974799633026123
v 2.63631010055542 2.6810200214385986 3.1788899898529053
v 1.3338199853897095 1.141219973564148 3.324660062789917
v -0.021373899653553963 1.481600046157837 1.4627799987792969
v 1.8387800455093384 -0.07837940007448196 3.1974799633026123
v -0.3055639863014221 -0.07837919890880585 0.4341529905796051
v -0.08982360363006592 2.7477099895477295 1.2078299522399902
v -0.3462420105934143 1.481600046157837 3.694269895553589
v -0.9345920085906982 -0.07837919890880585 3.8094699382781982
v 0 -0.04857780039310455 3.8578600883483887
v 0.016248099505901337 2.0234200954437256 1.8887799978256226
v 0.017360299825668335 3.6912999153137207 4.578919887542725
v 0 3.9511001110076904 -0.5788829922676086
v 2.661979913711548 -0.04857809841632843 0.2872079908847809
v 0.016248300671577454 1.9794000387191772 -2.6500298976898193
v 1.6398999691009521 1.9794000387191772 -0.407586008310318
v 0.015991099178791046 4.465750217437744 -4.036680221557617
v 0 -0.04857780039310455 -4.0373101234436035
v -1.2354600429534912 1.9794000387191772 -0.508758008480072
v -2.120889902114868 -0.04857780039310455 0.12254899740219116
v -2.120889902114868 -0.04857780039310455 0.12254899740219116
v -1.2354600429534912 1.9794000387191772 -0.508758008480072
v -1.7029000520706177 4.51731014251709 -0.4580329954624176
v -2.120889902114868 -0.04857780039310455 0.12254899740219116
v 0 -0.04857780039310455 3.8578600883483887
v 1.6398999691009521 1.9794000387191772 -0.407586008310318
v 2.7229700088500977 3.930530071258545 -0.4115779995918274
v 0.016248099505901337 2.0234200954437256 1.8887799978256226
v 2.661979913711548 -0.04857809841632843 0.2872079908847809
v 2.182499885559082 -0.02949110046029091 -5.1563801765441895
v 1.8950400352478027 0.9816439747810364 -4.5272297859191895
v 1.9672800302505493 1.802299976348877 -4.682340145111084
v 2.0959300994873047 -0.02949110046029091 -2.890899896621704
v 1.7922099828720093 0.7610170245170593 -3.038130044937134
v 0.8040140271186829 0.9816470146179199 -3.5545899868011475
v 0.46388301253318787 -0.029491400346159935 -3.7425200939178467
v 0.46388301253318787 -0.029491400346159935 -3.7425200939178467
v 0.8040140271186829 0.9816470146179199 -3.5545899868011475
v 0.5670530200004578 1.8546799421310425 -3.6371800899505615
v 0.46388301253318787 -0.029491400346159935 -3.7425200939178467
v 0.16865399479866028 -0.02949110046029091 -1.171339988708496
v 1.7922099828720093 0.7610170245170593 -3.038130044937134
v 2.1171700954437256 1.341480016708374 -2.8887898921966553
v 0.8136829733848572 0.944208025932312 -2.2082600593566895
v 2.0959300994873047 -0.02949110046029091 -2.890899896621704
vn 0.9999920129776001 0.0032942600082606077 -0.0023961400147527456
vn 0.9999920129776001 0.0032942600082606077 -0.0023961400147527456
vn 0.9999920129776001 0.0032942600082606077 -0.0023961400147527456
vn -0.7565770149230957 0.0029038500506430864 -0.6538980007171631
vn -0.7565770149230957 0.0029038500506430864 -0.6538980007171631
vn -0.7565770149230957 0.0029038500506430864 -0.6538980007171631
vn 0.7557700276374817 0.0037346999160945415 -0.6548259854316711
vn 0.7557700276374817 0.0037346999160945415 -0.6548259854316711
vn 0.7557700276374817 0.0037346999160945415 -0.6548259854316711
vn 0.15800699591636658 0.6403290033340454 0.7516729831695557
vn 0.4322440028190613 0.6094589829444885 0.6646230220794678
vn 0.8895009756088257 -0.025189699605107307 0.4562390148639679
vn 0.13769499957561493 0.9855139851570129 0.09900510311126709
vn 0.5866360068321228 0.6500660181045532 0.48298200964927673
vn 0.7297400236129761 0.6348220109939575 0.25393199920654297
vn 0.9841020107269287 0.06702770292758942 -0.16447199881076813
vn 0.1896580010652542 0.9818429946899414 0.003706430085003376
vn -0.7043430209159851 0.31270501017570496 0.6372720003128052
vn -0.6951550245285034 0.4848549962043762 0.5307310223579407
vn 0.29440298676490784 -0.018344400450587273 0.9555050134658813
vn -0.7043430209159851 0.31270501017570496 0.6372720003128052
vn 0.5866360068321228 0.6500660181045532 0.48298200964927673
vn 0.7297400236129761 0.6348220109939575 0.25393199920654297
vn 0.7583190202713013 0.41667500138282776 -0.5013329982757568
vn 0.7235910296440125 0.32354798913002014 -0.609699010848999
vn -0.13226500153541565 0.01806190051138401 -0.9910500049591064
vn 0.7583190202713013 0.41667500138282776 -0.5013329982757568
vn -0.4883919954299927 0.7457950115203857 -0.45306000113487244
vn 0.7235910296440125 0.32354798913002014 -0.609699010848999
vn -0.8895630240440369 0.3656800091266632 -0.2737810015678406
vn -0.9656209945678711 0.0001418979954905808 0.2599560022354126
vn -0.6951550245285034 0.4848549962043762 0.5307310223579407
vn -0.7043430209159851 0.31270501017570496 0.6372720003128052
vn 0.29925501346588135 0.6731590032577515 0.676243007183075
vn 0.5627120137214661 0.6138010025024414 0.5537179708480835
vn 1 -0.0003888549981638789 -0.00017245400522369891
vn -0.02786649949848652 0.998386025428772 -0.04949500039219856
vn 0.8295450210571289 0.2843720018863678 -0.48061099648475647
vn -0.38484400510787964 0.5525299906730652 -0.7393280267715454
vn 0.8320620059967041 0.4483959972858429 -0.3265179991722107
vn -1 0.00030795999919064343 0.0007376170251518488
vn -0.7463459968566895 0.36122798919677734 -0.5590010285377502
vn -0.8146139979362488 0.47221800684928894 0.3367699980735779
vn -0.7041829824447632 0.4724459946155548 0.530019998550415
vn -0.7041829824447632 0.4724459946155548 0.530019998550415
vn -0.8146139979362488 0.47221800684928894 0.3367699980735779
vn 0.27531200647354126 0.03150390088558197 0.9608380198478699
vn -0.7041829824447632 0.4724459946155548 0.530019998550415
vn 0.29925501346588135 0.6731590032577515 0.676243007183075
vn 0.8320620059967041 0.4483959972858429 -0.3265179991722107
vn 0.1831820011138916 -0.10368400067090988 -0.9775959849357605
vn 0.5627120137214661 0.6138010025024414 0.5537179708480835
vn 0.8295450210571289 0.2843720018863678 -0.48061099648475647
vn -0.5054619908332825 0.3656800091266632 -0.7815290093421936
vn -0.08290810137987137 0.7457950115203857 -0.6609960198402405
vn -0.9068049788475037 0.00014190099318511784 -0.421550989151001
vn 0.9473289847373962 0.3197669982910156 -0.017771299928426743
vn 0.9060479998588562 0.4134939908981323 0.09000120311975479
vn -0.8736670017242432 0.4848549962043762 -0.04027320072054863
vn -0.9491890072822571 0.31270501017570496 0.035435598343610764
vn -0.9491890072822571 0.31270501017570496 0.035435598343610764
vn -0.8736670017242432 0.4848549962043762 -0.04027320072054863
vn -0.3886609971523285 -0.018344400450587273 0.9211980104446411
vn -0.9491890072822571 0.31270501017570496 0.035435598343610764
vn 0.15800699591636658 0.6403290033340454 0.7516729831695557
vn 0.9060479998588562 0.4134939908981323 0.09000120311975479
vn 0.45922499895095825 -0.028668299317359924 -0.8878570199012756
vn 0.4322440028190613 0.6094589829444885 0.6646230220794678
vn 0.9473289847373962 0.3197669982910156 -0.017771299928426743
vt 0.4745100140571594 0.992125989869237
vt 0.003921569790691137 0.992125989869237
vt 0.003921569790691137 0.103426992893219
vt 0.4745100140571594 0.992125989869237
vt 0.003921569790691137 0.992125989869237
vt 0.003921569790691137 0.103426992893219
vt 0.003921569790691137 0.103426992893219
vt 0.003921569790691137 0.992125989869237
vt 0.4745100140571594 0.992125989869237
vt 0.992156982421875 0.011765003204345703
vt 0.7470589876174927 0.5019609928131104
vt 0.992156982421875 0.9921568604186177
vt 0.5019609928131104 0.9921568604186177
vt 0.992156982421875 0.011765003204345703
vt 0.7470589876174927 0.5019609928131104
vt 0.992156982421875 0.9921568604186177
vt 0.5019609928131104 0.9921568604186177
vt 0.992156982421875 0.011765003204345703
vt 0.7470589876174927 0.5019609928131104
vt 0.992156982421875 0.9921568604186177
vt 0.992156982421875 0.011765003204345703
vt 0.003921569790691137 0.011765003204345703
vt 0.2529410123825073 0.5019609928131104
vt 0.7470589876174927 0.5019609928131104
vt 0.992156982421875 0.011765003204345703
vt 0.992156982421875 0.9921568604186177
vt 0.2529410123825073 0.5019609928131104
vt 0.7470589876174927 0.5019609928131104
vt 0.003921569790691137 0.011765003204345703
vt 0.992156982421875 0.011765003204345703
vt 0.992156982421875 0.9921568604186177
vt 0.2529410123825073 0.5019609928131104
vt 0.003921569790691137 0.011765003204345703
vt 0.992156982421875 0.011765003204345703
vt 0.7470589876174927 0.5019609928131104
vt 0.992156982421875 0.9921568604186177
vt 0.5019609928131104 0.9921568604186177
vt 0.003921569790691137 0.011765003204345703
vt 0.7470589876174927 0.5019609928131104
vt 0.2529410123825073 0.5019609928131104
vt 0.992156982421875 0.9921568604186177
vt 0.992156982421875 0.011765003204345703
vt 0.2529410123825073 0.5019609928131104
vt 0.003921569790691137 0.011765003204345703
vt 0.992156982421875 0.011765003204345703
vt 0.7470589876174927 0.5019609928131104
vt 0.992156982421875 0.9921568604186177
vt 0.992156982421875 0.011765003204345703
vt 0.003921569790691137 0.011765003204345703
vt 0.7470589876174927 0.5019609928131104
vt 0.992156982421875 0.9921568604186177
vt 0.2529410123825073 0.5019609928131104
vt 0.992156982421875 0.011765003204345703
vt 0.992156982421875 0.011765003204345703
vt 0.7470589876174927 0.5019609928131104
vt 0.992156982421875 0.9921568604186177
vt 0.003921569790691137 0.011765003204345703
vt 0.2529410123825073 0.5019609928131104
vt 0.2529410123825073 0.5019609928131104
vt 0.003921569790691137 0.011765003204345703
vt 0.992156982421875 0.011765003204345703
vt 0.7470589876174927 0.5019609928131104
vt 0.992156982421875 0.9921568604186177
vt 0.992156982421875 0.011765003204345703
vt 0.003921569790691137 0.011765003204345703
vt 0.7470589876174927 0.5019609928131104
vt 0.992156982421875 0.9921568604186177
vt 0.2529410123825073 0.5019609928131104
vt 0.992156982421875 0.011765003204345703
g Geoset0
s 1
usemtl 189702
f 1/1/1 2/2/2 3/3/3
f 4/4/4 5/5/5 6/6/6
f 7/7/7 8/8/8 9/9/9
f 10/10/10 11/11/11 12/12/12
f 11/11/11 13/13/13 12/12/12
f 14/14/14 15/15/15 16/16/16
f 15/15/15 17/17/17 16/16/16
f 18/18/18 19/19/19 20/20/20
f 21/21/21 22/22/22 19/19/19
f 19/19/19 17/17/17 20/20/20
f 19/19/19 23/23/23 17/17/17
f 19/19/19 22/22/22 23/23/23
f 22/22/22 24/24/24 23/23/23
f 22/22/22 25/25/25 24/24/24
f 25/25/25 24/24/24 26/26/26
f 24/24/24 17/17/17 26/26/26
f 23/23/23 24/24/24 17/17/17
f 27/27/27 28/28/28 17/17/17
f 29/29/29 28/28/28 27/27/27
f 29/29/29 30/30/30 28/28/28
f 30/30/30 28/28/28 31/31/31
f 28/28/28 17/17/17 31/31/31
f 28/28/28 32/32/32 17/17/17
f 30/30/30 32/32/32 28/28/28
f 30/30/30 33/33/33 32/32/32
f 34/34/34 35/35/35 36/36/36
f 35/35/35 37/37/37 36/36/36
f 38/38/38 39/39/39 40/40/40
f 39/39/39 37/37/37 41/41/41
f 42/42/42 39/39/39 41/41/41
f 38/38/38 42/42/42 39/39/39
f 40/40/40 39/39/39 37/37/37
f 39/39/39 43/43/43 37/37/37
f 42/42/42 43/43/43 39/39/39
f 42/42/42 44/44/44 43/43/43
f 45/45/45 46/46/46 47/47/47
f 48/48/48 49/49/49 46/46/46
f 50/50/50 37/37/37 51/51/51
f 52/52/52 50/50/50 37/37/37
f 46/46/46 37/37/37 47/47/47
f 46/46/46 52/52/52 37/37/37
f 46/46/46 49/49/49 52/52/52
f 49/49/49 50/50/50 52/52/52
f 49/49/49 53/53/53 50/50/50
f 53/53/53 50/50/50 51/51/51
f 54/54/54 55/55/55 56/56/56
f 55/55/55 13/13/13 56/56/56
f 57/57/57 55/55/55 58/58/58
f 57/57/57 54/54/54 55/55/55
f 58/58/58 55/55/55 13/13/13
f 55/55/55 59/59/59 13/13/13
f 54/54/54 59/59/59 55/55/55
f 54/54/54 60/60/60 59/59/59
f 61/61/61 62/62/62 63/63/63
f 64/64/64 65/65/65 62/62/62
f 66/66/66 13/13/13 67/67/67
f 68/68/68 66/66/66 13/13/13
f 62/62/62 13/13/13 63/63/63
f 62/62/62 68/68/68 13/13/13
f 62/62/62 65/65/65 68/68/68
f 65/65/65 66/66/66 68/68/68
f 65/65/65 69/69/69 66/66/66
f 69/69/69 66/66/66 67/67/67