# Exported using wow.export v0.1.9
o InnTableSmall
mtllib inntablesmall.mtl
v 0.39249056577682495 7.018277869974554e-8 -0.3990313410758972
v 0.3090476095676422 0.45309749245643616 -0.31419792771339417
v 0.6475885510444641 0.3140290677547455 -0.2830611765384674
v -0.35359516739845276 0.0013009340036660433 0.7284517884254456
v -0.27842143177986145 0.31524431705474854 0.6520252227783203
v -0.30904778838157654 0.453097403049469 0.31419792771339417
v -0.39249056577682495 -7.018277869974554e-8 0.3990313410758972
v 0.27842122316360474 0.3152443468570709 0.6520252227783203
v 0.3535950481891632 0.0013010340044274926 0.7284517884254456
v 0.39249053597450256 7.018277159431818e-8 0.399031400680542
v 0.3090475797653198 0.45309749245643616 0.31419795751571655
v 0.35359516739845276 0.0013010340044274926 -0.7284517884254456
v 0.2784213125705719 0.3152443468570709 -0.6520252227783203
v 0.3090476095676422 0.45309749245643616 -0.31419792771339417
v 0.39249056577682495 7.018277869974554e-8 -0.3990313410758972
v -0.2784213423728943 0.31524431705474854 -0.6520252227783203
v -0.3535950481891632 0.0013009340036660433 -0.7284517884254456
v -0.39249053597450256 -7.018277159431818e-8 -0.399031400680542
v -0.30904772877693176 0.453097403049469 -0.31419795751571655
v -0.6475887298583984 0.31402888894081116 0.2830611765384674
v -0.7227624654769897 0.00008548951882403344 0.3594876825809479
v -0.39249056577682495 -7.018277869974554e-8 0.3990313410758972
v -0.30904778838157654 0.453097403049469 0.31419792771339417
v -0.7227624654769897 0.00008548951882403344 -0.35948777198791504
v -0.6475887894630432 0.31402888894081116 -0.28306126594543457
v -0.30904772877693176 0.453097403049469 -0.31419795751571655
v -0.39249053597450256 -7.018277159431818e-8 -0.399031400680542
v 0.7227624654769897 0.00008577449625590816 0.35948777198791504
v 0.6475886106491089 0.3140290677547455 0.28306126594543457
v 0.3090475797653198 0.45309749245643616 0.31419795751571655
v 0.39249053597450256 7.018277159431818e-8 0.399031400680542
v 0.7227624654769897 0.00008577449625590816 -0.3594876825809479
v 1.0394335985183716 0.904008686542511 -0.006297999527305365
v 1.019445538520813 0.904008686542511 -1.0867444276809692
v 1.019445538520813 1.1319655179977417 -1.0867445468902588
v -1.0205292701721191 0.9040082097053528 1.0313100814819336
v -0.016865430399775505 0.9040084481239319 1.074148416519165
v -1.0205292701721191 1.1085436344146729 1.0313100814819336
v -0.016865458339452744 1.0947140455245972 1.074148416519165
v 1.0194454193115234 0.904008686542511 1.0171867609024048
v 1.0194454193115234 1.1085439920425415 1.0171867609024048
v -0.016865335404872894 1.1319653987884521 -1.0221816301345825
v 1.019445538520813 1.1319655179977417 -1.0867445468902588
v 1.019445538520813 0.904008686542511 -1.0867444276809692
v -0.01686529815196991 0.9040084481239319 -1.0221816301345825
v -1.0531761646270752 1.131965160369873 -1.0867446660995483
v -1.0531761646270752 0.9040082097053528 -1.0867446660995483
v -1.0873627662658691 1.1085436344146729 -0.0062981341034173965
v -1.0531761646270752 1.131965160369873 -1.0867446660995483
v -1.0531761646270752 0.9040082097053528 -1.0867446660995483
v -1.0873627662658691 0.9040082097053528 -0.0062981341034173965
v -1.0205292701721191 1.1085436344146729 1.0313100814819336
v -1.0205292701721191 0.9040082097053528 1.0313100814819336
v -1.0531761646270752 1.131965160369873 -1.0867446660995483
v -1.0873627662658691 1.1085436344146729 -0.0062981341034173965
v -0.01686539314687252 1.108543872833252 -0.006298066582530737
v -0.016865335404872894 1.1319653987884521 -1.0221816301345825
v 1.0394335985183716 1.1085439920425415 -0.006297999527305365
v 1.019445538520813 1.1319655179977417 -1.0867445468902588
v 1.0194454193115234 1.1085439920425415 1.0171867609024048
v -0.016865458339452744 1.0947140455245972 1.074148416519165
v -1.0205292701721191 1.1085436344146729 1.0313100814819336
v -0.01686529815196991 0.9040084481239319 -1.0221816301345825
v 1.019445538520813 0.904008686542511 -1.0867444276809692
v 1.0394335985183716 0.904008686542511 -0.006297999527305365
v -0.016865361481904984 0.9040084481239319 -0.006298066582530737
v 1.0194454193115234 0.904008686542511 1.0171867609024048
v -0.016865430399775505 0.9040084481239319 1.074148416519165
v -1.0531761646270752 0.9040082097053528 -1.0867446660995483
v -1.0873627662658691 0.9040082097053528 -0.0062981341034173965
v -1.0205292701721191 0.9040082097053528 1.0313100814819336
v 1.0394335985183716 1.1085439920425415 -0.006297999527305365
v 1.0194454193115234 1.1085439920425415 1.0171867609024048
v 1.0194454193115234 0.904008686542511 1.0171867609024048
v 0.3090475797653198 0.45309749245643616 0.31419795751571655
v 0.3090476095676422 0.45309749245643616 -0.31419792771339417
v 0.2575396001338959 0.9052822589874268 -0.2618315815925598
v 0.27842122316360474 0.3152443468570709 0.6520252227783203
v -0.27842143177986145 0.31524431705474854 0.6520252227783203
v -0.35359516739845276 0.0013009340036660433 0.7284517884254456
v 0.3535950481891632 0.0013010340044274926 0.7284517884254456
v -0.6475887298583984 0.31402888894081116 0.2830611765384674
v -0.6475887894630432 0.31402888894081116 -0.28306126594543457
v -0.7227624654769897 0.00008548951882403344 -0.35948777198791504
v -0.7227624654769897 0.00008548951882403344 0.3594876825809479
v -0.2784213423728943 0.31524431705474854 -0.6520252227783203
v 0.2784213125705719 0.3152443468570709 -0.6520252227783203
v 0.35359516739845276 0.0013010340044274926 -0.7284517884254456
v -0.3535950481891632 0.0013009340036660433 -0.7284517884254456
v 0.7227624654769897 0.00008577449625590816 0.35948777198791504
v 0.7227624654769897 0.00008577449625590816 -0.3594876825809479
v 0.6475885510444641 0.3140290677547455 -0.2830611765384674
v 0.6475886106491089 0.3140290677547455 0.28306126594543457
v -0.6475887894630432 0.31402888894081116 -0.28306126594543457
v -0.6475887298583984 0.31402888894081116 0.2830611765384674
v -0.30904778838157654 0.453097403049469 0.31419792771339417
v -0.30904772877693176 0.453097403049469 -0.31419795751571655
v 0.3090475797653198 0.45309749245643616 0.31419795751571655
v 0.2575395405292511 0.9052822589874268 0.2618316411972046
v -0.25753989815711975 0.9052822589874268 0.2618315815925598
v 0.6475886106491089 0.3140290677547455 0.28306126594543457
v 0.6475885510444641 0.3140290677547455 -0.2830611765384674
v 0.3090476095676422 0.45309749245643616 -0.31419792771339417
v -0.25753986835479736 0.9052822589874268 -0.2618316411972046
v 0.2575396001338959 0.9052822589874268 -0.2618315815925598
v 0.2784213125705719 0.3152443468570709 -0.6520252227783203
v -0.2784213423728943 0.31524431705474854 -0.6520252227783203
v -0.30904772877693176 0.453097403049469 -0.31419795751571655
v -0.30904778838157654 0.453097403049469 0.31419792771339417
v -0.25753989815711975 0.9052822589874268 0.2618315815925598
v -0.25753986835479736 0.9052822589874268 -0.2618316411972046
v -0.27842143177986145 0.31524431705474854 0.6520252227783203
v 0.27842122316360474 0.3152443468570709 0.6520252227783203
v 0.2575395405292511 0.9052822589874268 0.2618316411972046
vn 0.5079149007797241 0.27085113525390625 -0.8177176117897034
vn 0.5715648531913757 0.6009690761566162 -0.5587036609649658
vn 0.7172992825508118 0.5040959119796753 -0.48100829124450684
vn -0.6170157194137573 0.3049474060535431 0.7254644632339478
vn -0.27160483598709106 0.7457287907600403 0.6083743572235107
vn -0.5715650320053101 0.6009688973426819 0.5587037205696106
vn -0.5079150199890137 0.27085092663764954 0.8177176117897034
vn 0.4822278320789337 0.505309522151947 0.7156245708465576
vn 0.6274644732475281 0.3227498233318329 0.7086048722267151
vn 0.8196632862091064 0.26947182416915894 0.505506694316864
vn 0.5599763989448547 0.6012535095214844 0.5700181126594543
vn 0.6170156002044678 0.3049476444721222 -0.7254644632339478
vn 0.27160462737083435 0.7457289099693298 -0.608374297618866
vn 0.5715648531913757 0.6009690761566162 -0.5587036609649658
vn 0.5079149007797241 0.27085113525390625 -0.8177176117897034
vn -0.48222801089286804 0.5053094029426575 -0.7156245708465576
vn -0.6274645924568176 0.3227495551109314 -0.7086048722267151
vn -0.819663405418396 0.26947152614593506 -0.505506694316864
vn -0.5599766969680786 0.6012532114982605 -0.5700181722640991
vn -0.7172996401786804 0.5040954947471619 0.4810083210468292
vn -0.7100384831428528 0.3224157691001892 0.6260138750076294
vn -0.5079150199890137 0.27085092663764954 0.8177176117897034
vn -0.5715650320053101 0.6009688973426819 0.5587037205696106
vn -0.726995587348938 0.30426543951034546 -0.6155484914779663
vn -0.6104452013969421 0.7443203330039978 -0.2708207666873932
vn -0.5599766969680786 0.6012532114982605 -0.5700181722640991
vn -0.819663405418396 0.26947152614593506 -0.505506694316864
vn 0.7269954681396484 0.30426591634750366 0.6155484318733215
vn 0.6104449033737183 0.7443206310272217 0.2708207368850708
vn 0.5599763989448547 0.6012535095214844 0.5700181126594543
vn 0.8196632862091064 0.26947182416915894 0.505506694316864
vn 0.7100383639335632 0.3224162459373474 -0.6260138154029846
vn 0.7070381045341492 -0.7071634531021118 -0.0041174618527293205
vn 0.36273252964019775 -0.4143296182155609 -0.834719181060791
vn 0.806056559085846 0.4156467616558075 -0.4213200807571411
vn -0.5804715156555176 -0.5578374266624451 0.5931864976882935
vn -0.007169764488935471 -0.7074807286262512 0.7066962718963623
vn -0.6606250405311584 0.31952327489852905 0.6793227791786194
vn 0.016041316092014313 0.7045309543609619 0.7094919681549072
vn 0.59437096118927 -0.5635489821434021 0.5737035274505615
vn 0.4202709197998047 0.8065563440322876 0.4157394468784332
vn -0.014858003705739975 0.7156589031219482 -0.6982918977737427
vn 0.806056559085846 0.4156467616558075 -0.4213200807571411
vn 0.36273252964019775 -0.4143296182155609 -0.834719181060791
vn 0.014668785035610199 -0.7077150940895081 -0.7063456177711487
vn -0.2972075045108795 0.6779401302337646 -0.6723576784133911
vn -0.650039553642273 -0.6712446212768555 -0.3562011122703552
vn -0.7051337957382202 0.7090270519256592 0.008180667646229267
vn -0.2972075045108795 0.6779401302337646 -0.6723576784133911
vn -0.650039553642273 -0.6712446212768555 -0.3562011122703552
vn -0.706375002861023 -0.7074686288833618 0.022858401760458946
vn -0.6606250405311584 0.31952327489852905 0.6793227791786194
vn -0.5804715156555176 -0.5578374266624451 0.5931864976882935
vn -0.2972075045108795 0.6779401302337646 -0.6723576784133911
vn -0.7051337957382202 0.7090270519256592 0.008180667646229267
vn -0.0023462101817131042 0.9998761415481567 0.015561996959149837
vn -0.014858003705739975 0.7156589031219482 -0.6982918977737427
vn 0.7071759104728699 0.706870436668396 0.015377414412796497
vn 0.806056559085846 0.4156467616558075 -0.4213200807571411
vn 0.4202709197998047 0.8065563440322876 0.4157394468784332
vn 0.016041316092014313 0.7045309543609619 0.7094919681549072
vn -0.6606250405311584 0.31952327489852905 0.6793227791786194
vn 0.014668785035610199 -0.7077150940895081 -0.7063456177711487
vn 0.36273252964019775 -0.4143296182155609 -0.834719181060791
vn 0.7070381045341492 -0.7071634531021118 -0.0041174618527293205
vn 1.7881392011531716e-7 -1 0
vn 0.59437096118927 -0.5635489821434021 0.5737035274505615
vn -0.007169764488935471 -0.7074807286262512 0.7066962718963623
vn -0.650039553642273 -0.6712446212768555 -0.3562011122703552
vn -0.706375002861023 -0.7074686288833618 0.022858401760458946
vn -0.5804715156555176 -0.5578374266624451 0.5931864976882935
vn 0.7071759104728699 0.706870436668396 0.015377414412796497
vn 0.4202709197998047 0.8065563440322876 0.4157394468784332
vn 0.59437096118927 -0.5635489821434021 0.5737035274505615
vn 0.5599763989448547 0.6012535095214844 0.5700181126594543
vn 0.5715648531913757 0.6009690761566162 -0.5587036609649658
vn 0.8840880393981934 0.15188676118850708 -0.44194886088371277
vn 0.4822278320789337 0.505309522151947 0.7156245708465576
vn -0.27160483598709106 0.7457287907600403 0.6083743572235107
vn -0.6170157194137573 0.3049474060535431 0.7254644632339478
vn 0.6274644732475281 0.3227498233318329 0.7086048722267151
vn -0.7172996401786804 0.5040954947471619 0.4810083210468292
vn -0.6104452013969421 0.7443203330039978 -0.2708207666873932
vn -0.726995587348938 0.30426543951034546 -0.6155484914779663
vn -0.7100384831428528 0.3224157691001892 0.6260138750076294
vn -0.48222801089286804 0.5053094029426575 -0.7156245708465576
vn 0.27160462737083435 0.7457289099693298 -0.608374297618866
vn 0.6170156002044678 0.3049476444721222 -0.7254644632339478
vn -0.6274645924568176 0.3227495551109314 -0.7086048722267151
vn 0.7269954681396484 0.30426591634750366 0.6155484318733215
vn 0.7100383639335632 0.3224162459373474 -0.6260138154029846
vn 0.7172992825508118 0.5040959119796753 -0.48100829124450684
vn 0.6104449033737183 0.7443206310272217 0.2708207368850708
vn -0.6104452013969421 0.7443203330039978 -0.2708207666873932
vn -0.7172996401786804 0.5040954947471619 0.4810083210468292
vn -0.5715650320053101 0.6009688973426819 0.5587037205696106
vn -0.5599766969680786 0.6012532114982605 -0.5700181722640991
vn 0.5599763989448547 0.6012535095214844 0.5700181126594543
vn 0.4420439302921295 0.1527147889137268 0.8838978409767151
vn -0.8840880990028381 0.15188643336296082 0.44194886088371277
vn 0.6104449033737183 0.7443206310272217 0.2708207368850708
vn 0.7172992825508118 0.5040959119796753 -0.48100829124450684
vn 0.5715648531913757 0.6009690761566162 -0.5587036609649658
vn -0.4420439898967743 0.15271463990211487 -0.8838978409767151
vn 0.8840880393981934 0.15188676118850708 -0.44194886088371277
vn 0.27160462737083435 0.7457289099693298 -0.608374297618866
vn -0.48222801089286804 0.5053094029426575 -0.7156245708465576
vn -0.5599766969680786 0.6012532114982605 -0.5700181722640991
vn -0.5715650320053101 0.6009688973426819 0.5587037205696106
vn -0.8840880990028381 0.15188643336296082 0.44194886088371277
vn -0.4420439898967743 0.15271463990211487 -0.8838978409767151
vn -0.27160483598709106 0.7457287907600403 0.6083743572235107
vn 0.4822278320789337 0.505309522151947 0.7156245708465576
vn 0.4420439302921295 0.1527147889137268 0.8838978409767151
vt 0 0
vt 1 0
vt 1 0.5
vt 1 1
vt 0 1
vt 0 0
vt 1 0
vt 1 1
vt 0 1
vt 0 0
vt 1 0
vt 1 1
vt 0 1
vt 0 0
vt 1 0
vt 1 1
vt 0 1
vt 0 0
vt 1 0
vt 1 1
vt 0 1
vt 0 0
vt 1 0
vt 1 1
vt 0 1
vt 0 0
vt 1 0
vt 1 1
vt 0 1
vt 0 0
vt 1 0
vt 0 0.5
vt 0.5 0.0004999637603759766
vt 1.0080000162124634 0.0004999637603759766
vt 1.0080000162124634 0.07582944631576538
vt 0.16015625 1
vt 0.1640625 0.52734375
vt 0.05859375 1
vt 0.0625 0.52734375
vt 0.16015625 0.08203125
vt 0.05859375 0.08203125
vt 0.98828125 0.52734375
vt 0.98828125 0.09765625
vt 0.88671875 0.09765625
vt 0.88671875 0.52734375
vt 0.98828125 0.99609375
vt 0.88671875 0.99609375
vt 0.4672051966190338 0.11555469036102295
vt 0.9858851432800293 0.11555469036102295
vt 0.9858851432800293 0.0004995465278625488
vt 0.47628211975097656 0.0004994869232177734
vt -0.01311586331576109 0.11555469036102295
vt -0.01311586331576109 0.0004995465278625488
vt 1.000122308731079 0.9819203019142151
vt 0.5006217956542969 0.9968545436859131
vt 0.5006216764450073 0.5292178392410278
vt 0.9702740907669067 0.5292177200317383
vt 0.5006216168403625 0.06778353452682495
vt 1.0001220703125 0.09855347871780396
vt 0.02745509147644043 0.0765153169631958
vt 0.0011212825775146484 0.5268024802207947
vt 0.020925909280776978 1.0063062906265259
vt 0.9702740907669067 0.5292177200317383
vt 1.0001220703125 0.0765150785446167
vt 0.5006216168403625 0.06778353452682495
vt 0.5006216764450073 0.5292178392410278
vt 0.02745509147644043 0.0765153169631958
vt 0.0011212825775146484 0.5292179584503174
vt 1.000122308731079 0.9819203019142151
vt 0.5006217956542969 0.9968545436859131
vt 0.020925909280776978 0.9676589965820312
vt 0.5 0.07582944631576538
vt 0.03099999949336052 0.07582944631576538
vt 0.03099999949336052 0.0004999637603759766
vt 0 0
vt 1 0
vt 1 1
vt 1 0.5
vt 0 0.5
vt 0 0
vt 1 -0.004576683044433594
vt 1 0.5
vt 0 0.5
vt 0 0
vt 1 -0.004576683044433594
vt 1 0.5
vt 0 0.5
vt 0 0
vt 1 -0.004576683044433594
vt 0 0
vt 1 -0.004576683044433594
vt 1 0.5
vt 0 0.5
vt 1 0.5
vt 0 0.5
vt 0 0
vt 1 0
vt 1 0
vt 1 1
vt 0 1
vt 1 0.5
vt 0 0.5
vt 0 0
vt 1 1
vt 0 1
vt 1 0.5
vt 0 0.5
vt 0 0
vt 1 0
vt 1 1
vt 0 1
vt 1 0.5
vt 0 0.5
vt 0 1
g Geoset0
s 1
usemtl 130299
f 1/1/1 2/2/2 3/3/3
f 4/4/4 5/5/5 6/6/6
f 6/6/6 7/7/7 4/4/4
f 8/8/8 9/9/9 10/10/10
f 10/10/10 11/11/11 8/8/8
f 12/12/12 13/13/13 14/14/14
f 14/14/14 15/15/15 12/12/12
f 16/16/16 17/17/17 18/18/18
f 18/18/18 19/19/19 16/16/16
f 20/20/20 21/21/21 22/22/22
f 22/22/22 23/23/23 20/20/20
f 24/24/24 25/25/25 26/26/26
f 26/26/26 27/27/27 24/24/24
f 28/28/28 29/29/29 30/30/30
f 30/30/30 31/31/31 28/28/28
f 3/3/3 32/32/32 1/1/1
g Geoset1
s 1
usemtl 198607
f 33/33/33 34/34/34 35/35/35
f 36/36/36 37/37/37 38/38/38
f 39/39/39 38/38/38 37/37/37
f 37/37/37 40/40/40 39/39/39
f 41/41/41 39/39/39 40/40/40
f 42/42/42 43/43/43 44/44/44
f 44/44/44 45/45/45 42/42/42
f 46/46/46 42/42/42 45/45/45
f 45/45/45 47/47/47 46/46/46
f 48/48/48 49/49/49 50/50/50
f 50/50/50 51/51/51 48/48/48
f 52/52/52 48/48/48 51/51/51
f 51/51/51 53/53/53 52/52/52
f 54/54/54 55/55/55 56/56/56
f 56/56/56 57/57/57 54/54/54
f 57/57/57 56/56/56 58/58/58
f 58/58/58 59/59/59 57/57/57
f 60/60/60 58/58/58 56/56/56
f 56/56/56 61/61/61 60/60/60
f 61/61/61 56/56/56 55/55/55
f 55/55/55 62/62/62 61/61/61
f 63/63/63 64/64/64 65/65/65
f 65/65/65 66/66/66 63/63/63
f 66/66/66 65/65/65 67/67/67
f 67/67/67 68/68/68 66/66/66
f 69/69/69 63/63/63 66/66/66
f 66/66/66 70/70/70 69/69/69
f 70/70/70 66/66/66 68/68/68
f 68/68/68 71/71/71 70/70/70
f 72/72/72 73/73/73 74/74/74
f 74/74/74 33/33/33 72/72/72
f 35/35/35 72/72/72 33/33/33
g Geoset2
s 1
usemtl 198606
f 75/75/75 76/76/76 77/77/77
f 78/78/78 79/79/79 80/80/80
f 80/80/80 81/81/81 78/78/78
f 82/82/82 83/83/83 84/84/84
f 84/84/84 85/85/85 82/82/82
f 86/86/86 87/87/87 88/88/88
f 88/88/88 89/89/89 86/86/86
f 90/90/90 91/91/91 92/92/92
f 92/92/92 93/93/93 90/90/90
f 94/94/94 95/95/95 96/96/96
f 96/96/96 97/97/97 94/94/94
f 96/96/96 98/98/98 99/99/99
f 99/99/99 100/100/100 96/96/96
f 101/101/101 102/102/102 103/103/103
f 103/103/103 98/98/98 101/101/101
f 103/103/103 97/97/97 104/104/104
f 104/104/104 105/105/105 103/103/103
f 106/106/106 107/107/107 108/108/108
f 108/108/108 76/76/76 106/106/106
f 108/108/108 109/109/109 110/110/110
f 110/110/110 111/111/111 108/108/108
f 112/112/112 113/113/113 75/75/75
f 75/75/75 109/109/109 112/112/112
f 77/77/77 114/114/114 75/75/75