# Exported using wow.export v0.1.9
o GnomeTool03
mtllib gnometool03.mtl
v -0.15228329598903656 0.043803583830595016 -0.02786203846335411
v -0.10766460746526718 0.32762303948402405 -0.04326282814145088
v -0.11284337192773819 0.1455857753753662 0.023474164307117462
v -0.20881803333759308 0.2539599537849426 -0.3586954176425934
v -0.1630105972290039 0.38389766216278076 -0.2609819769859314
v -0.2272357940673828 0.09970186650753021 -0.303950697183609
v -0.1630105972290039 0.38389766216278076 -0.2609819769859314
v -0.12733234465122223 0.4096173346042633 -0.1404157280921936
v -0.21354243159294128 0.0026125062722712755 -0.17769333720207214
v -0.21354243159294128 0.0026125062722712755 -0.17769333720207214
v -0.10766460746526718 0.32762303948402405 -0.04326282814145088
v -0.15228329598903656 0.043803583830595016 -0.02786203846335411
v -0.21354243159294128 0.0026125062722712755 -0.17769333720207214
v -0.12733234465122223 0.4096173346042633 -0.1404157280921936
v -0.10766460746526718 0.32762303948402405 -0.04326282814145088
v -0.2272357940673828 0.09970186650753021 -0.303950697183609
v -0.1630105972290039 0.38389766216278076 -0.2609819769859314
v -0.21354243159294128 0.0026125062722712755 -0.17769333720207214
v 0.03346927836537361 0.20891161262989044 -0.0041765617206692696
v 0.10537317395210266 0.16502217948436737 0.23470468819141388
v 0.13374699652194977 0.07515368610620499 0.19324339926242828
v 0.06144540384411812 0.11652939766645432 -0.04004456847906113
v 0.2464142143726349 0.29843494296073914 -0.2282121479511261
v 0.20397937297821045 0.28611424565315247 -0.3451312780380249
v -0.15765197575092316 0.3233999013900757 -0.15955545008182526
v -0.18718396127223969 0.2678041458129883 -0.2614416480064392
v 0.16507309675216675 0.19325220584869385 -0.4241957366466522
v 0.2573532164096832 0.11189761757850647 -0.13263921439647675
v -0.14392752945423126 0.14847654104232788 -0.06935974955558777
v 0.228570356965065 0.03294362127780914 -0.18759429454803467
v -0.19226844608783722 0.09618154168128967 -0.1671532541513443
v 0.1760120838880539 0.006714785471558571 -0.32862281799316406
v -0.07603190094232559 0.23118183016777039 -0.13446322083473206
v -0.09236311912536621 0.15008357167243958 -0.1441110074520111
v -0.03439689800143242 0.2172451913356781 0.03499019518494606
v -0.05587773770093918 0.1105746477842331 0.02230023592710495
v 0.09830280393362045 0.1939857006072998 0.005881361197680235
v 0.07682202011346817 0.08731518685817719 -0.006808602251112461
v 0.04982353374361992 0.2091432511806488 -0.16224968433380127
v 0.03349236026406288 0.12804503738880157 -0.1718975156545639
v 0.03595477715134621 0.2104984074831009 0.2274072915315628
v 0.00572025403380394 0.06035790219902992 0.20954598486423492
v 0.14055347442626953 0.170068621635437 0.3901977241039276
v 0.11031892895698547 0.01992812007665634 0.37233638763427734
v 0.1810179054737091 0.1906827986240387 0.14842088520526886
v 0.15078340470790863 0.0405423529446125 0.13055957853794098
v 0.03595477715134621 0.2104984074831009 0.2274072915315628
v 0.00572025403380394 0.06035790219902992 0.20954598486423492
v 0.2929406762123108 0.1554533839225769 0.2550993859767914
v 0.2627061605453491 0.0053129903972148895 0.2372380644083023
v 0.1810179054737091 0.1906827986240387 0.14842088520526886
v 0.15078340470790863 0.0405423529446125 0.13055957853794098
v 0.14055347442626953 0.170068621635437 0.3901977241039276
v 0.11031892895698547 0.01992812007665634 0.37233638763427734
v 0.2929406762123108 0.1554533839225769 0.2550993859767914
v 0.2627061605453491 0.0053129903972148895 0.2372380644083023
v 0.03595477715134621 0.2104984074831009 0.2274072915315628
v 0.14055347442626953 0.170068621635437 0.3901977241039276
v 0.1810179054737091 0.1906827986240387 0.14842088520526886
v 0.2929406762123108 0.1554533839225769 0.2550993859767914
v 0.2627061605453491 0.0053129903972148895 0.2372380644083023
v 0.11031892895698547 0.01992812007665634 0.37233638763427734
v 0.15078340470790863 0.0405423529446125 0.13055957853794098
v 0.00572025403380394 0.06035790219902992 0.20954598486423492
v 0.06144540384411812 0.11652939766645432 -0.04004456847906113
v -0.000014459028534474783 0.1036238968372345 -0.011620600707828999
v -0.04443803429603577 0.17168234288692474 0.006584084592759609
v 0.03346927836537361 0.20891161262989044 -0.0041765617206692696
v 0.13374699652194977 0.07515368610620499 0.19324339926242828
v 0.09776178747415543 0.0753159448504448 0.21159522235393524
v -0.000014459028534474783 0.1036238968372345 -0.011620600707828999
v 0.06144540384411812 0.11652939766645432 -0.04004456847906113
v 0.10537317395210266 0.16502217948436737 0.23470468819141388
v 0.06103583052754402 0.12370916455984116 0.24812251329421997
v 0.09776178747415543 0.0753159448504448 0.21159522235393524
v 0.13374699652194977 0.07515368610620499 0.19324339926242828
v 0.03346927836537361 0.20891161262989044 -0.0041765617206692696
v -0.04443803429603577 0.17168234288692474 0.006584084592759609
v 0.06103583052754402 0.12370916455984116 0.24812251329421997
v 0.10537317395210266 0.16502217948436737 0.23470468819141388
v 0.09776178747415543 0.0753159448504448 0.21159522235393524
v 0.06103583052754402 0.12370916455984116 0.24812251329421997
v -0.04443803429603577 0.17168234288692474 0.006584084592759609
v -0.000014459028534474783 0.1036238968372345 -0.011620600707828999
v -0.19226844608783722 0.09618154168128967 -0.1671532541513443
v 0.151955246925354 0.08738446235656738 -0.4251382648944855
v 0.1760120838880539 0.006714785471558571 -0.32862281799316406
v -0.18718396127223969 0.2678041458129883 -0.2614416480064392
v 0.16507309675216675 0.19325220584869385 -0.4241957366466522
v 0.228570356965065 0.03294362127780914 -0.18759429454803467
v 0.151955246925354 0.08738446235656738 -0.4251382648944855
v 0.2573532164096832 0.11189761757850647 -0.13263921439647675
v 0.1760120838880539 0.006714785471558571 -0.32862281799316406
v 0.2464142143726349 0.29843494296073914 -0.2282121479511261
v 0.26896315813064575 0.21110495924949646 -0.1337052583694458
v 0.20397937297821045 0.28611424565315247 -0.3451312780380249
v 0.16507309675216675 0.19325220584869385 -0.4241957366466522
v -0.15765197575092316 0.3233999013900757 -0.15955545008182526
v 0.26896315813064575 0.21110495924949646 -0.1337052583694458
v 0.2464142143726349 0.29843494296073914 -0.2282121479511261
v -0.14392752945423126 0.14847654104232788 -0.06935974955558777
v 0.2573532164096832 0.11189761757850647 -0.13263921439647675
v 0.07682202011346817 0.08731518685817719 -0.006808602251112461
v 0.09830280393362045 0.1939857006072998 0.005881361197680235
v -0.0026026645209640265 0.06768820434808731 0.005327470134943724
v -0.05587773770093918 0.1105746477842331 0.02230023592710495
v 0.041786421090364456 0.23799766600131989 0.02365296147763729
v -0.03439689800143242 0.2172451913356781 0.03499019518494606
v 0.04982353374361992 0.2091432511806488 -0.16224968433380127
v -0.0032199742272496223 0.24381698668003082 -0.14653144776821136
v 0.09830280393362045 0.1939857006072998 0.005881361197680235
v 0.041786421090364456 0.23799766600131989 0.02365296147763729
v -0.07603190094232559 0.23118183016777039 -0.13446322083473206
v -0.03439689800143242 0.2172451913356781 0.03499019518494606
v 0.03349236026406288 0.12804503738880157 -0.1718975156545639
v 0.07682202011346817 0.08731518685817719 -0.006808602251112461
v -0.03469885140657425 0.11393751204013824 -0.16095413267612457
v -0.0026026645209640265 0.06768820434808731 0.005327470134943724
v -0.09236311912536621 0.15008357167243958 -0.1441110074520111
v -0.05587773770093918 0.1105746477842331 0.02230023592710495
v -0.20881803333759308 0.2539599537849426 -0.3586954176425934
v -0.31708815693855286 0.2228468805551529 -0.11051932722330093
v -0.1630105972290039 0.38389766216278076 -0.2609819769859314
v -0.2272357940673828 0.09970186650753021 -0.303950697183609
v -0.21354243159294128 0.0026125062722712755 -0.17769333720207214
v -0.15228329598903656 0.043803583830595016 -0.02786203846335411
v -0.11284337192773819 0.1455857753753662 0.023474164307117462
v -0.10766460746526718 0.32762303948402405 -0.04326282814145088
v -0.12733234465122223 0.4096173346042633 -0.1404157280921936
vn 0.9120429158210754 -0.16378158330917358 -0.37596985697746277
vn 0.9120429158210754 -0.16378158330917358 -0.37596985697746277
vn 0.9120429158210754 -0.16378158330917358 -0.37596985697746277
vn 0.9613364934921265 -0.18663787841796875 -0.20248061418533325
vn 0.9613364934921265 -0.18663787841796875 -0.20248061418533325
vn 0.9613364934921265 -0.18663787841796875 -0.20248061418533325
vn 0.9530763626098633 -0.17955313622951508 -0.24373365938663483
vn 0.9530763626098633 -0.17955313622951508 -0.24373365938663483
vn 0.9530763626098633 -0.17955313622951508 -0.24373365938663483
vn 0.9280644655227661 -0.1640416383743286 -0.3343451917171478
vn 0.9280644655227661 -0.1640416383743286 -0.3343451917171478
vn 0.9280644655227661 -0.1640416383743286 -0.3343451917171478
vn 0.92951899766922 -0.16676156222820282 -0.3289148509502411
vn 0.92951899766922 -0.16676156222820282 -0.3289148509502411
vn 0.92951899766922 -0.16676156222820282 -0.3289148509502411
vn 0.9538170099258423 -0.17908988893032074 -0.24116367101669312
vn 0.9538170099258423 -0.17908988893032074 -0.24116367101669312
vn 0.9538170099258423 -0.17908988893032074 -0.24116367101669312
vn 0.9054358601570129 0.3689272403717041 -0.20994897186756134
vn 0.9032126069068909 0.37851187586784363 -0.20232580602169037
vn 0.9054358601570129 0.3689272403717041 -0.20994897186756134
vn 0.9075188636779785 0.35928547382354736 -0.21753959357738495
vn 0.040999557822942734 0.9919975399971008 -0.11941500753164291
vn -0.09717891365289688 0.8911483287811279 -0.44318270683288574
vn -0.04860881343483925 0.9567129015922546 -0.2869453728199005
vn -0.16234058141708374 0.7946857213973999 -0.5849103331565857
vn -0.18359066545963287 0.6807172298431396 -0.70916748046875
vn 0.07349855452775955 -0.5876444578170776 0.8057740926742554
vn -0.015505295246839523 -0.739126443862915 0.6733881831169128
vn -0.05727203190326691 -0.8403969407081604 0.5389367938041687
vn -0.12012576311826706 -0.9200028777122498 0.3730476200580597
vn -0.13374929130077362 -0.9641556739807129 0.22916148602962494
vn -0.9549750089645386 0.16280226409435272 0.24802860617637634
vn -0.9549750089645386 0.16280218958854675 0.24802863597869873
vn -0.9549750089645386 0.16280218958854675 0.24802863597869873
vn -0.9549750089645386 0.16280211508274078 0.24802866578102112
vn 0.9452145099639893 -0.15624380111694336 -0.2866310775279999
vn 0.9452145099639893 -0.15624378621578217 -0.2866310775279999
vn 0.9452145099639893 -0.15624378621578217 -0.2866310775279999
vn 0.945214569568634 -0.15624375641345978 -0.2866310477256775
vn -0.8255681395530701 0.1001833975315094 0.5553382635116577
vn -0.8255681395530701 0.10018345713615417 0.5553382039070129
vn -0.8255681395530701 0.10018345713615417 0.5553382039070129
vn -0.8255681395530701 0.10018350929021835 0.5553382039070129
vn -0.44852414727211 0.19411006569862366 -0.872437596321106
vn -0.4485241174697876 0.19411009550094604 -0.872437596321106
vn -0.4485241174697876 0.19411009550094604 -0.872437596321106
vn -0.4485240876674652 0.19411011040210724 -0.8724376559257507
vn 0.6807600259780884 -0.050150614231824875 -0.7307877540588379
vn 0.6807602047920227 -0.050150539726018906 -0.7307875752449036
vn 0.6807602047920227 -0.050150539726018906 -0.7307875752449036
vn 0.6807602047920227 -0.05015043914318085 -0.7307875752449036
vn 0.6360023021697998 -0.21620145440101624 0.7407820224761963
vn 0.6360023021697998 -0.21620142459869385 0.7407820224761963
vn 0.6360023021697998 -0.21620142459869385 0.7407820224761963
vn 0.636002242565155 -0.21620137989521027 0.7407820820808411
vn 0.1960834115743637 0.9737211465835571 0.1158377155661583
vn 0.19608356058597565 0.9737211465835571 0.11583773046731949
vn 0.19608356058597565 0.9737211465835571 0.11583773046731949
vn 0.19608370959758759 0.9737210869789124 0.11583776026964188
vn -0.19608314335346222 -0.9737212061882019 -0.11583787947893143
vn -0.19608314335346222 -0.9737212061882019 -0.11583787947893143
vn -0.19608314335346222 -0.9737212061882019 -0.11583787947893143
vn -0.19608314335346222 -0.9737212061882019 -0.11583787947893143
vn -0.3431357741355896 0.12795262038707733 -0.9305299520492554
vn -0.4148402810096741 -0.027504630386829376 -0.9094784259796143
vn -0.3431357741355896 0.12795262038707733 -0.9305299520492554
vn -0.26122239232063293 0.2796030640602112 -0.9238966107368469
vn 0.026458756998181343 -0.987634003162384 -0.1545284241437912
vn -0.05617048963904381 -0.9932628273963928 -0.10135971754789352
vn 0.026458756998181343 -0.987634003162384 -0.1545284241437912
vn 0.1088317334651947 -0.9724387526512146 -0.20620034635066986
vn 0.46452081203460693 -0.2576746344566345 0.8472450971603394
vn 0.4907330870628357 -0.2561771869659424 0.8327990770339966
vn 0.46452081203460693 -0.2576746344566345 0.8472450971603394
vn 0.43789148330688477 -0.2589406371116638 0.8609302043914795
vn -0.48558157682418823 0.8107851147651672 0.32686078548431396
vn -0.3686332404613495 0.8677587509155273 0.33332306146621704
vn -0.48558157682418823 0.8107851147651672 0.32686078548431396
vn -0.594292163848877 0.7400568723678589 0.3148534297943115
vn -0.7459428906440735 -0.6278178691864014 0.22229233384132385
vn -0.7146708965301514 -0.6765080690383911 0.17771440744400024
vn -0.7459428906440735 -0.6278178691864014 0.22229233384132385
vn -0.7732346653938293 -0.5757778882980347 0.2656840980052948
vn -0.49743375182151794 -0.5813462734222412 -0.6438913941383362
vn -0.4951750338077545 -0.38614746928215027 -0.7782620787620544
vn -0.41057929396629333 -0.7473846673965454 -0.5223416686058044
vn -0.49998557567596436 -0.16921983659267426 -0.8493403792381287
vn -0.4084361791610718 0.05871807038784027 -0.9108963012695312
vn 0.9377217888832092 -0.11326787620782852 -0.3284026086330414
vn 0.9377217888832092 -0.11326771974563599 -0.328402578830719
vn 0.937721848487854 -0.11326760798692703 -0.3284025490283966
vn 0.9377217292785645 -0.11326815187931061 -0.32840263843536377
vn 0.937721848487854 -0.11326770484447479 -0.32840245962142944
vn 0.937721848487854 -0.11326762288808823 -0.32840242981910706
vn 0.937721848487854 -0.11326770484447479 -0.32840248942375183
vn 0.9377217888832092 -0.11326764523983002 -0.3284026086330414
vn 0.1141759380698204 0.6136170625686646 0.7813052535057068
vn 0.13461735844612122 0.42500606179237366 0.8951245546340942
vn 0.1563839316368103 0.743726372718811 0.6499347686767578
vn 0.11495321989059448 0.23402661085128784 0.9654104113578796
vn 0.1550942212343216 -0.007534896954894066 0.9878709316253662
vn 0.18609344959259033 -0.1529359668493271 0.9705564379692078
vn 0.18609346449375153 -0.15293598175048828 0.9705564379692078
vn 0.18609346449375153 -0.15293598175048828 0.9705564379692078
vn 0.18609347939491272 -0.15293598175048828 0.9705564379692078
vn 0.18609346449375153 -0.1529359668493271 0.9705564379692078
vn 0.18609347939491272 -0.1529359668493271 0.9705564379692078
vn 0.5295617580413818 0.8448119163513184 -0.07653241604566574
vn 0.3410100042819977 0.938947319984436 -0.04571783170104027
vn 0.5574215650558472 0.8239511251449585 -0.10191034525632858
vn 0.06710684299468994 0.9972493648529053 0.03147030621767044
vn -0.1999935656785965 0.9739327430725098 0.1070399358868599
vn -0.24109743535518646 0.9606044888496399 0.13824251294136047
vn 0.15242071449756622 -0.9494994878768921 -0.27426010370254517
vn 0.16933618485927582 -0.9433209300041199 -0.28543099761009216
vn -0.07625701278448105 -0.9659854769706726 -0.24709711968898773
vn -0.36249446868896484 -0.9167875647544861 -0.16762541234493256
vn -0.5949220657348633 -0.799440324306488 -0.08344369381666183
vn -0.6349156498908997 -0.7713318467140198 -0.04392338544130325
vn -0.8994250297546387 0.24550916254520416 -0.36160731315612793
vn -0.9332407116889954 0.1806291788816452 0.31053972244262695
vn -0.7715020179748535 0.624500036239624 -0.12159112095832825
vn -0.9309967160224915 -0.20656746625900269 -0.3009568154811859
vn -0.8801333904266357 -0.45505490899086 0.13524119555950165
vn -0.6907297372817993 -0.3415529429912567 0.6373648643493652
vn -0.5264209508895874 0.07687146961688995 0.8467418551445007
vn -0.4749903678894043 0.4731065332889557 0.7419934868812561
vn -0.6283493638038635 0.6944975852966309 0.3504999279975891
vt 0.8214539885520935 0.5075359344482422
vt 0.7959252595901489 0.538119375705719
vt 0.7959252595901489 0.5075359344482422
vt 0.8571518659591675 0.5600444078445435
vt 0.8226470351219177 0.5600444078445435
vt 0.8571518659591675 0.5337306261062622
vt 0.8226470351219177 0.5600444078445435
vt 0.7959252595901489 0.5600444078445435
vt 0.8571518659591675 0.5075359344482422
vt 0.8571518659591675 0.5075359344482422
vt 0.7959252595901489 0.538119375705719
vt 0.8214539885520935 0.5075359344482422
vt 0.8571518659591675 0.5075359344482422
vt 0.7959252595901489 0.5600444078445435
vt 0.7959252595901489 0.538119375705719
vt 0.8571518659591675 0.5337306261062622
vt 0.8226470351219177 0.5600444078445435
vt 0.8571518659591675 0.5075359344482422
vt 0.24931666254997253 0.8620256185531616
vt 0.4918983578681946 0.8620256185531616
vt 0.4918983578681946 0.7633665204048157
vt 0.24931666254997253 0.7633665204048157
vt 0.9810818433761597 0.7458019256591797
vt 0.981042742729187 0.8259672522544861
vt 0.788378894329071 0.7456238269805908
vt 0.7883104681968689 0.9100144505500793
vt 0.9810016751289368 0.9102252721786499
vt 0.9801334142684937 0.9100391864776611
vt 0.7890577912330627 0.9099193811416626
vt 0.9801632761955261 0.8428844213485718
vt 0.7891201376914978 0.7458003759384155
vt 0.9802064299583435 0.7459014654159546
vt 0.8568710684776306 0.5064756870269775
vt 0.7526050806045532 0.5064756870269775
vt 0.8568710684776306 0.6189154982566833
vt 0.7526050806045532 0.6189154982566833
vt 0.8568710684776306 0.6189154982566833
vt 0.7526050806045532 0.6189154982566833
vt 0.8568710684776306 0.5064756870269775
vt 0.7526050806045532 0.5064756870269775
vt 0.8128480911254883 0.684982180595398
vt 0.7696836590766907 0.6849822402000427
vt 0.8128480911254883 0.6290540099143982
vt 0.7696836590766907 0.629054069519043
vt 0.7970345616340637 0.6849822998046875
vt 0.7970345616340637 0.6290541291236877
vt 0.8529627323150635 0.6849822998046875
vt 0.8529627323150635 0.6290541291236877
vt 0.8129233717918396 0.6290541887283325
vt 0.7694073915481567 0.6290541291236877
vt 0.8129233717918396 0.6849823594093323
vt 0.7694073915481567 0.6849822998046875
vt 0.772879958152771 0.5690402984619141
vt 0.772879958152771 0.5131120681762695
vt 0.8288081288337708 0.5690402984619141
vt 0.8288081288337708 0.5131120681762695
vt 0.7970345616340637 0.6849822998046875
vt 0.7970345616340637 0.6290541291236877
vt 0.8529627323150635 0.6849822998046875
vt 0.8529627323150635 0.6290541291236877
vt 0.7970345616340637 0.6290541291236877
vt 0.8529627323150635 0.6290541291236877
vt 0.7970345616340637 0.6849822998046875
vt 0.8529627323150635 0.6849822998046875
vt 0.9099220633506775 0.6223713755607605
vt 0.9940388798713684 0.6223714351654053
vt 0.9940388798713684 0.5057165622711182
vt 0.9099220633506775 0.5057165622711182
vt 0.49091827869415283 0.7567353248596191
vt 0.4909183979034424 0.868657112121582
vt 0.24828976392745972 0.868657112121582
vt 0.24828976392745972 0.7567353248596191
vt 0.9099220633506775 0.6223713755607605
vt 0.9940388798713684 0.6223714351654053
vt 0.9940388798713684 0.5057165622711182
vt 0.9099220633506775 0.5057165622711182
vt 0.24828985333442688 0.7567353248596191
vt 0.24828976392745972 0.868657112121582
vt 0.4909183979034424 0.868657112121582
vt 0.4909183979034424 0.7567353248596191
vt 0.4909183979034424 0.868657112121582
vt 0.4909183979034424 0.7567353248596191
vt 0.24828985333442688 0.7567353248596191
vt 0.24828976392745972 0.868657112121582
vt 0.788378894329071 0.9101928472518921
vt 0.9810386300086975 0.8214402794837952
vt 0.9810818433761597 0.9100147485733032
vt 0.7883104681968689 0.7458022236824036
vt 0.9810016751289368 0.745591402053833
vt 0.7568804025650024 0.5437013506889343
vt 0.8063810467720032 0.5056440830230713
vt 0.7568804025650024 0.5700536966323853
vt 0.7568804025650024 0.5056440830230713
vt 0.8487698435783386 0.5700538158416748
vt 0.7974867224693298 0.57005375623703
vt 0.8487698435783386 0.5386505722999573
vt 0.8487698435783386 0.5056440830230713
vt 0.7883104681968689 0.9100144505500793
vt 0.9810464382171631 0.8184612393379211
vt 0.9810016751289368 0.9102252721786499
vt 0.788378894329071 0.7456238269805908
vt 0.9810818433761597 0.7458019256591797
vt 0.8131871819496155 0.6384574174880981
vt 0.8501609563827515 0.6384574174880981
vt 0.8131871819496155 0.6603614687919617
vt 0.8131871819496155 0.6783297061920166
vt 0.8501609563827515 0.6574321985244751
vt 0.8501609563827515 0.6783297061920166
vt 0.7526050806045532 0.5064756870269775
vt 0.8006402254104614 0.5064756870269775
vt 0.7526050806045532 0.6189154982566833
vt 0.8022240996360779 0.6189154982566833
vt 0.8568710684776306 0.5064756870269775
vt 0.8568710684776306 0.6189154982566833
vt 0.8559958934783936 0.507297933101654
vt 0.8559958934783936 0.6195023059844971
vt 0.8045281767845154 0.507297933101654
vt 0.799623966217041 0.6195023059844971
vt 0.7533811330795288 0.507297933101654
vt 0.7533811330795288 0.6195023059844971
vt 0.8638849258422852 0.6262489557266235
vt 0.8618350625038147 0.5143859386444092
vt 0.7990495562553406 0.6256885528564453
vt 0.8059708476066589 0.625715970993042
vt 0.7483189702033997 0.6251854300498962
vt 0.8152969479560852 0.6259129047393799
vt 0.8631951212882996 0.6264331340789795
vt 0.7965885400772095 0.6257466673851013
vt 0.7488388419151306 0.6252545118331909
g Geoset0
s 1
usemtl 197645
f 1/1/1 2/2/2 3/3/3
f 4/4/4 5/5/5 6/6/6
f 7/7/7 8/8/8 9/9/9
f 10/10/10 11/11/11 12/12/12
f 13/13/13 14/14/14 15/15/15
f 16/16/16 17/17/17 18/18/18
f 19/19/19 20/20/20 21/21/21
f 21/21/21 22/22/22 19/19/19
f 23/23/23 24/24/24 25/25/25
f 24/24/24 26/26/26 25/25/25
f 26/26/26 24/24/24 27/27/27
f 28/28/28 29/29/29 30/30/30
f 31/31/31 30/30/30 29/29/29
f 30/30/30 31/31/31 32/32/32
f 33/33/33 34/34/34 35/35/35
f 36/36/36 35/35/35 34/34/34
f 37/37/37 38/38/38 39/39/39
f 40/40/40 39/39/39 38/38/38
f 41/41/41 42/42/42 43/43/43
f 44/44/44 43/43/43 42/42/42
f 45/45/45 46/46/46 47/47/47
f 48/48/48 47/47/47 46/46/46
f 49/49/49 50/50/50 51/51/51
f 52/52/52 51/51/51 50/50/50
f 53/53/53 54/54/54 55/55/55
f 56/56/56 55/55/55 54/54/54
f 57/57/57 58/58/58 59/59/59
f 60/60/60 59/59/59 58/58/58
f 61/61/61 62/62/62 63/63/63
f 64/64/64 63/63/63 62/62/62
f 65/65/65 66/66/66 67/67/67
f 67/67/67 68/68/68 65/65/65
f 69/69/69 70/70/70 71/71/71
f 71/71/71 72/72/72 69/69/69
f 73/73/73 74/74/74 75/75/75
f 75/75/75 76/76/76 73/73/73
f 77/77/77 78/78/78 79/79/79
f 79/79/79 80/80/80 77/77/77
f 81/81/81 82/82/82 83/83/83
f 83/83/83 84/84/84 81/81/81
f 85/85/85 86/86/86 87/87/87
f 86/86/86 85/85/85 88/88/88
f 89/89/89 86/86/86 88/88/88
f 90/90/90 91/91/91 92/92/92
f 93/93/93 91/91/91 90/90/90
f 94/94/94 95/95/95 96/96/96
f 95/95/95 92/92/92 96/96/96
f 96/96/96 92/92/92 97/97/97
f 91/91/91 97/97/97 92/92/92
f 98/98/98 99/99/99 100/100/100
f 99/99/99 98/98/98 101/101/101
f 102/102/102 99/99/99 101/101/101
f 103/103/103 104/104/104 105/105/105
f 105/105/105 104/104/104 106/106/106
f 107/107/107 106/106/106 104/104/104
f 108/108/108 106/106/106 107/107/107
f 109/109/109 110/110/110 111/111/111
f 110/110/110 112/112/112 111/111/111
f 112/112/112 110/110/110 113/113/113
f 114/114/114 112/112/112 113/113/113
f 115/115/115 116/116/116 117/117/117
f 118/118/118 117/117/117 116/116/116
f 117/117/117 118/118/118 119/119/119
f 120/120/120 119/119/119 118/118/118
f 121/121/121 122/122/122 123/123/123
f 121/121/121 124/124/124 122/122/122
f 124/124/124 125/125/125 122/122/122
f 122/122/122 125/125/125 126/126/126
f 122/122/122 126/126/126 127/127/127
f 127/127/127 128/128/128 122/122/122
f 128/128/128 129/129/129 122/122/122
f 123/123/123 122/122/122 129/129/129