# Exported using wow.export v0.1.9
o DeadMineCargoNetHangShort
mtllib deadminecargonethangshort.mtl
v -0.6925092339515686 4.515203952789307 -0.7721923589706421
v 0.30891913175582886 4.074828624725342 -0.7024437785148621
v 0.6498810648918152 4.976855278015137 0.09730607271194458
v 0.6727291941642761 5.09960412979126 1.358588695526123
v -0.6569589376449585 5.593034267425537 0.6461776494979858
v -0.6309534311294556 5.041025161743164 1.3607807159423828
v 0.6467235684394836 5.651613712310791 0.6439854502677917
v 0.30891913175582886 4.074828624725342 -0.7024437785148621
v -0.4352359473705292 4.996840476989746 -1.425108551979065
v 0.5661924481391907 4.556465148925781 -1.355359673500061
v -0.6925092339515686 4.515203952789307 -0.7721923589706421
v 1.4019907712936401 5.945743083953857 0.23946097493171692
v 0.4792840778827667 6.350635528564453 0.4119354784488678
v 0.7857574820518494 5.722699165344238 0.5628432035446167
v 1.0955175161361694 6.5736799240112305 0.08855316787958145
v 0.0838387981057167 11.191262245178223 -0.027910888195037842
v -0.04257353022694588 8.349453926086426 -0.10089507699012756
v -0.04257353022694588 11.191262245178223 -0.10089507699012756
v 0.0838387981057167 8.349453926086426 -0.027910888195037842
v -0.042573507875204086 11.191262245178223 0.045073285698890686
v 0.0838387981057167 8.349453926086426 -0.027910888195037842
v 0.0838387981057167 11.191262245178223 -0.027910888195037842
v -0.042573507875204086 8.349453926086426 0.045073285698890686
v -0.04257353022694588 11.191262245178223 -0.10089507699012756
v -0.042573507875204086 8.349453926086426 0.045073285698890686
v -0.042573507875204086 11.191262245178223 0.045073285698890686
v -0.04257353022694588 8.349453926086426 -0.10089507699012756
v 0.7285290956497192 3.820732593536377 0.36866840720176697
v -0.6011590361595154 4.314161777496338 -0.3437425196170807
v 0.7025235891342163 4.372740268707275 -0.34593498706817627
v -0.28355279564857483 3.762153148651123 0.3142726719379425
v -0.28355279564857483 3.762153148651123 0.3142726719379425
v 0.6727291941642761 5.09960412979126 1.358588695526123
v -0.6309534311294556 5.041025161743164 1.3607807159423828
v 0.7285290956497192 3.820732593536377 0.36866840720176697
v -0.6011590361595154 4.314161777496338 -0.3437425196170807
v -0.6309534311294556 5.041025161743164 1.3607807159423828
v -0.6569589376449585 5.593034267425537 0.6461776494979858
v -0.28355279564857483 3.762153148651123 0.3142726719379425
v 0.7025235891342163 4.372740268707275 -0.34593498706817627
v -0.6569589376449585 5.593034267425537 0.6461776494979858
v 0.6467235684394836 5.651613712310791 0.6439854502677917
v -0.6011590361595154 4.314161777496338 -0.3437425196170807
v 0.7285290956497192 3.820732593536377 0.36866840720176697
v 0.6467235684394836 5.651613712310791 0.6439854502677917
v 0.6727291941642761 5.09960412979126 1.358588695526123
v 0.7025235891342163 4.372740268707275 -0.34593498706817627
v -0.4352359473705292 4.996840476989746 -1.425108551979065
v -0.35154739022254944 5.41723108291626 0.02755746804177761
v -0.09427400678396225 5.898867607116699 -0.6253584027290344
v -0.6925092339515686 4.515203952789307 -0.7721923589706421
v 0.5661924481391907 4.556465148925781 -1.355359673500061
v -0.09427400678396225 5.898867607116699 -0.6253584027290344
v 0.907154381275177 5.458492755889893 -0.5556098818778992
v -0.4352359473705292 4.996840476989746 -1.425108551979065
v 0.6498810648918152 4.976855278015137 0.09730607271194458
v -0.09427400678396225 5.898867607116699 -0.6253584027290344
v -0.35154739022254944 5.41723108291626 0.02755746804177761
v 0.907154381275177 5.458492755889893 -0.5556098818778992
v 1.080373764038086 5.581034183502197 -0.6249563097953796
v 0.1576673537492752 5.985927581787109 -0.45248186588287354
v 0.7739008069038391 6.208971977233887 -0.7758641839027405
v 0.4641406834125519 5.35798978805542 -0.30157405138015747
v 0.4641406834125519 5.35798978805542 -0.30157405138015747
v 1.4019907712936401 5.945743083953857 0.23946097493171692
v 0.7857574820518494 5.722699165344238 0.5628432035446167
v 1.080373764038086 5.581034183502197 -0.6249563097953796
v 0.1576673537492752 5.985927581787109 -0.45248186588287354
v 0.7857574820518494 5.722699165344238 0.5628432035446167
v 0.4792840778827667 6.350635528564453 0.4119354784488678
v 0.4641406834125519 5.35798978805542 -0.30157405138015747
v 0.7739008069038391 6.208971977233887 -0.7758641839027405
v 0.4792840778827667 6.350635528564453 0.4119354784488678
v 1.0955175161361694 6.5736799240112305 0.08855316787958145
v 0.1576673537492752 5.985927581787109 -0.45248186588287354
v 1.080373764038086 5.581034183502197 -0.6249563097953796
v 1.0955175161361694 6.5736799240112305 0.08855316787958145
v 1.4019907712936401 5.945743083953857 0.23946097493171692
v 0.7739008069038391 6.208971977233887 -0.7758641839027405
v 0.0014876143541187048 3.635606050491333 -0.036731310188770294
v -0.8671996593475342 3.968255043029785 -0.5569477081298828
v 0.001487615518271923 3.9682552814483643 -1.217882513999939
v 0.14212216436862946 4.775206089019775 -1.4950296878814697
v -0.8999295830726624 4.81657075881958 -0.6233462691307068
v 0.9604628086090088 3.9682552814483643 0.5538442134857178
v 0.001487615518271923 3.9682552814483643 1.14441978931427
v 0.0667136088013649 5.060311317443848 1.5660005807876587
v 1.1049245595932007 4.974425315856934 0.7070144414901733
v 0.0014876143541187048 3.635606050491333 -0.036731310188770294
v 0.733170747756958 4.0883026123046875 -0.7976092100143433
v 0.9604628086090088 3.9682552814483643 0.5538442134857178
v 1.1049245595932007 4.974425315856934 0.7070144414901733
v 1.1776689291000366 5.768772125244141 -0.5898844599723816
v -0.6658867597579956 3.9219157695770264 0.4972560703754425
v -0.8671996593475342 3.968255043029785 -0.5569477081298828
v -0.8999295830726624 4.81657075881958 -0.6233462691307068
v -0.9371740818023682 5.240008354187012 0.36363232135772705
v 0.733170747756958 4.0883026123046875 -0.7976092100143433
v 0.14212216436862946 4.775206089019775 -1.4950296878814697
v 1.1776689291000366 5.768772125244141 -0.5898844599723816
v 0.001487615518271923 3.9682552814483643 -1.217882513999939
v 0.0014876143541187048 3.635606050491333 -0.036731310188770294
v -0.6658867597579956 3.9219157695770264 0.4972560703754425
v 0.0667136088013649 5.060311317443848 1.5660005807876587
v -0.9371740818023682 5.240008354187012 0.36363232135772705
v 0.001487615518271923 3.9682552814483643 1.14441978931427
v 0.907154381275177 5.458492755889893 -0.5556098818778992
v 0.6498810648918152 4.976855278015137 0.09730607271194458
v 0.5661924481391907 4.556465148925781 -1.355359673500061
v -0.35154739022254944 5.41723108291626 0.02755746804177761
v -0.8999297022819519 4.816572666168213 -0.6233462691307068
v 0.14212216436862946 4.775207996368408 -1.4950298070907593
v 0.0004049437411595136 8.715852737426758 -0.037417441606521606
v 0.14212216436862946 4.775207996368408 -1.4950298070907593
v 1.1776689291000366 5.768774509429932 -0.589884340763092
v 0.0004049437411595136 8.715852737426758 -0.037417441606521606
v 1.1776689291000366 5.768774509429932 -0.589884340763092
v 1.1049247980117798 4.974426746368408 0.7070144414901733
v 0.0004049437411595136 8.715852737426758 -0.037417441606521606
v 1.1049247980117798 4.974426746368408 0.7070144414901733
v 0.0667136088013649 5.060312747955322 1.5660003423690796
v 0.0004049437411595136 8.715852737426758 -0.037417441606521606
v 0.0667136088013649 5.060312747955322 1.5660003423690796
v -0.9371740818023682 5.240011215209961 0.36363232135772705
v 0.0004049437411595136 8.715852737426758 -0.037417441606521606
v -0.9371740818023682 5.240011215209961 0.36363232135772705
v -0.8999297022819519 4.816572666168213 -0.6233462691307068
v 0.0004049437411595136 8.715852737426758 -0.037417441606521606
vn -0.7308599948883057 -0.5919623970985413 0.33974137902259827
vn 0.3268357515335083 -0.9364461898803711 -0.12746334075927734
vn 0.28444555401802063 -0.031145982444286346 0.958186149597168
vn 0.32037970423698425 0.1295015662908554 0.9383955597877502
vn -0.3751773536205292 0.9192850589752197 -0.11898276209831238
vn -0.7789066433906555 -0.09987129271030426 0.6191366314888
vn 0.7898423075675964 0.6087589263916016 -0.07457634061574936
vn 0.3268357515335083 -0.9364461898803711 -0.12746334075927734
vn -0.6897154450416565 -0.023565586656332016 -0.7236969470977783
vn 0.5086422562599182 0.0040777819231152534 -0.860968291759491
vn -0.7308599948883057 -0.5919623970985413 0.33974137902259827
vn 0.7830784320831299 -0.23873087763786316 0.5742784738540649
vn -0.35071051120758057 0.7290298938751221 0.5878074169158936
vn -0.38108354806900024 -0.4576919674873352 0.8033015727996826
vn 0.6458536982536316 0.757937490940094 -0.09167212247848511
vn 0.8660253882408142 0 -0.5
vn 0 0 -1
vn -0.8660255074501038 0 -0.4999998211860657
vn 0.8660253882408142 0 0.5
vn 0 0 1
vn 0.8660253882408142 0 0.5
vn 0.8660253882408142 0 -0.5
vn -0.8660253286361694 0 0.5000001192092896
vn -0.8660255074501038 0 -0.4999998211860657
vn -0.8660253286361694 0 0.5000001192092896
vn 0 0 1
vn 0 0 -1
vn 0.7053802609443665 -0.6897537708282471 -0.16333524882793427
vn -0.6169955134391785 -0.4480321407318115 -0.6469805240631104
vn 0.39840859174728394 0.19461791217327118 -0.8963227272033691
vn -0.30377715826034546 -0.8705722093582153 0.3870703876018524
vn -0.30377715826034546 -0.8705722093582153 0.3870703876018524
vn 0.32037970423698425 0.1295015662908554 0.9383955597877502
vn -0.7789066433906555 -0.09987129271030426 0.6191366314888
vn 0.7053802609443665 -0.6897537708282471 -0.16333524882793427
vn -0.6169955134391785 -0.4480321407318115 -0.6469805240631104
vn -0.7789066433906555 -0.09987129271030426 0.6191366314888
vn -0.3751773536205292 0.9192850589752197 -0.11898276209831238
vn -0.30377715826034546 -0.8705722093582153 0.3870703876018524
vn 0.39840859174728394 0.19461791217327118 -0.8963227272033691
vn -0.3751773536205292 0.9192850589752197 -0.11898276209831238
vn 0.7898423075675964 0.6087589263916016 -0.07457634061574936
vn -0.6169955134391785 -0.4480321407318115 -0.6469805240631104
vn 0.7053802609443665 -0.6897537708282471 -0.16333524882793427
vn 0.7898423075675964 0.6087589263916016 -0.07457634061574936
vn 0.32037970423698425 0.1295015662908554 0.9383955597877502
vn 0.39840859174728394 0.19461791217327118 -0.8963227272033691
vn -0.6897154450416565 -0.023565586656332016 -0.7236969470977783
vn -0.7581967711448669 0.3909399211406708 0.521827220916748
vn 0.07843434065580368 0.9911576509475708 -0.10702598839998245
vn -0.7308599948883057 -0.5919623970985413 0.33974137902259827
vn 0.5086422562599182 0.0040777819231152534 -0.860968291759491
vn 0.07843434065580368 0.9911576509475708 -0.10702598839998245
vn 0.9804144501686096 0.19694456458091736 -0.0006000883877277374
vn -0.6897154450416565 -0.023565586656332016 -0.7236969470977783
vn 0.28444555401802063 -0.031145982444286346 0.958186149597168
vn 0.07843434065580368 0.9911576509475708 -0.10702598839998245
vn -0.7581967711448669 0.3909399211406708 0.521827220916748
vn 0.9804144501686096 0.19694456458091736 -0.0006000883877277374
vn 0.4888789653778076 -0.3344864845275879 -0.8056774735450745
vn -0.9212468862533569 -0.1558123230934143 -0.35640811920166016
vn -0.13819073140621185 0.6917073726654053 -0.7088329792022705
vn -0.1265793740749359 -0.9919525384902954 -0.0027956750709563494
vn -0.1265793740749359 -0.9919525384902954 -0.0027956750709563494
vn 0.7830784320831299 -0.23873087763786316 0.5742784738540649
vn -0.38108354806900024 -0.4576919674873352 0.8033015727996826
vn 0.4888789653778076 -0.3344864845275879 -0.8056774735450745
vn -0.9212468862533569 -0.1558123230934143 -0.35640811920166016
vn -0.38108354806900024 -0.4576919674873352 0.8033015727996826
vn -0.35071051120758057 0.7290298938751221 0.5878074169158936
vn -0.1265793740749359 -0.9919525384902954 -0.0027956750709563494
vn -0.13819073140621185 0.6917073726654053 -0.7088329792022705
vn -0.35071051120758057 0.7290298938751221 0.5878074169158936
vn 0.6458536982536316 0.757937490940094 -0.09167212247848511
vn -0.9212468862533569 -0.1558123230934143 -0.35640811920166016
vn 0.4888789653778076 -0.3344864845275879 -0.8056774735450745
vn 0.6458536982536316 0.757937490940094 -0.09167212247848511
vn 0.7830784320831299 -0.23873087763786316 0.5742784738540649
vn -0.13819073140621185 0.6917073726654053 -0.7088329792022705
vn 0.01799418404698372 -0.9996498823165894 -0.019400201737880707
vn -0.7229438424110413 -0.5541394352912903 -0.41265201568603516
vn 0.0027314776089042425 -0.7516328692436218 -0.6595760583877563
vn -0.007091119885444641 -0.2276470810174942 -0.9737178683280945
vn -0.9736136794090271 -0.11389482766389847 -0.19774828851222992
vn 0.671735942363739 -0.6348909139633179 0.38168618083000183
vn -0.0633021891117096 -0.7687862515449524 0.6363650560379028
vn -0.1091538816690445 -0.28584054112434387 0.9520402550697327
vn 0.9598644375801086 -0.21080896258354187 0.18498599529266357
vn 0.01799418404698372 -0.9996498823165894 -0.019400201737880707
vn 0.7499217987060547 -0.5118535161018372 -0.41907432675361633
vn 0.671735942363739 -0.6348909139633179 0.38168618083000183
vn 0.9598644375801086 -0.21080896258354187 0.18498599529266357
vn 0.8881593346595764 -0.18281009793281555 -0.42160817980766296
vn -0.7922272086143494 -0.4831656515598297 0.37272909283638
vn -0.7229438424110413 -0.5541394352912903 -0.41265201568603516
vn -0.9736136794090271 -0.11389482766389847 -0.19774828851222992
vn -0.9215975999832153 -0.15354202687740326 0.35648661851882935
vn 0.7499217987060547 -0.5118535161018372 -0.41907432675361633
vn -0.007091119885444641 -0.2276470810174942 -0.9737178683280945
vn 0.8881593346595764 -0.18281009793281555 -0.42160817980766296
vn 0.0027314776089042425 -0.7516328692436218 -0.6595760583877563
vn 0.01799418404698372 -0.9996498823165894 -0.019400201737880707
vn -0.7922272086143494 -0.4831656515598297 0.37272909283638
vn -0.1091538816690445 -0.28584054112434387 0.9520402550697327
vn -0.9215975999832153 -0.15354202687740326 0.35648661851882935
vn -0.0633021891117096 -0.7687862515449524 0.6363650560379028
vn 0.9804144501686096 0.19694456458091736 -0.0006000883877277374
vn 0.28444555401802063 -0.031145982444286346 0.958186149597168
vn 0.5086422562599182 0.0040777819231152534 -0.860968291759491
vn -0.7581967711448669 0.3909399211406708 0.521827220916748
vn 0.840053379535675 -0.26509106159210205 0.4733255207538605
vn 0.11191544681787491 -0.34119734168052673 0.933305561542511
vn 0.18972739577293396 -0.9791513085365295 0.07256877422332764
vn 0.11191544681787491 -0.34119734168052673 0.933305561542511
vn -0.8354573249816895 -0.4036494493484497 0.37293195724487305
vn 0.18972739577293396 -0.9791513085365295 0.07256877422332764
vn -0.8354573249816895 -0.4036494493484497 0.37293195724487305
vn -0.7980891466140747 -0.3352264165878296 -0.5006765127182007
vn 0.18972739577293396 -0.9791513085365295 0.07256877422332764
vn -0.7980891466140747 -0.3352264165878296 -0.5006765127182007
vn 0.06793206185102463 -0.39972323179244995 -0.9141151905059814
vn 0.18972739577293396 -0.9791513085365295 0.07256877422332764
vn 0.06793206185102463 -0.39972323179244995 -0.9141151905059814
vn 0.9200779795646667 -0.27981558442115784 -0.2741527855396271
vn 0.18972739577293396 -0.9791513085365295 0.07256877422332764
vn 0.9200779795646667 -0.27981558442115784 -0.2741527855396271
vn 0.840053379535675 -0.26509106159210205 0.4733255207538605
vn 0.18972739577293396 -0.9791513085365295 0.07256877422332764
vt 0.12644919753074646 0.988661527633667
vt 0.12554752826690674 0.7776181697845459
vt 0.4939885139465332 0.7778950929641724
vt 0.12428514659404755 0.7788634300231934
vt 0.49039897322654724 0.9902738928794861
vt 0.12300212681293488 0.9899760484695435
vt 0.4916820228099823 0.7745480537414551
vt 0.12838542461395264 0.775373101234436
vt 0.49199411273002625 0.9864629507064819
vt 0.49122074246406555 0.7753689289093018
vt 0.12915873527526855 0.9864671230316162
vt 0.12963205575942993 0.7695938348770142
vt 0.4936715066432953 0.9874537587165833
vt 0.1297565996646881 0.9882831573486328
vt 0.49392202496528625 0.7711799144744873
vt 0.05724906921386719 0.999500572681427
vt 0.11883139610290527 -0.4471092224121094
vt 0.11883139610290527 0.999500572681427
vt 0.05724906921386719 -0.4471092224121094
vt 0.0043284595012664795 0.9995006918907166
vt 0.05026012286543846 -0.4444763660430908
vt 0.05026056244969368 0.9995006918907166
vt 0.00432802177965641 -0.4444763660430908
vt 0.04362163692712784 -0.3964812755584717
vt 0.10893416404724121 0.9811431169509888
vt 0.10893401503562927 -0.4584376811981201
vt 0.04362178593873978 1.0430996417999268
vt 0.12324655055999756 0.7755353450775146
vt 0.4912450909614563 0.9869458079338074
vt 0.49064353108406067 0.775833249092102
vt 0.12304729223251343 0.9886026382446289
vt 0.12722612917423248 0.9920918345451355
vt 0.49863994121551514 0.7648027539253235
vt 0.4987621307373047 0.9918774366378784
vt 0.12678517401218414 0.7667450904846191
vt 0.4918389320373535 0.7725581526756287
vt 0.12861645221710205 0.9925801753997803
vt 0.49186408519744873 0.9917404055595398
vt 0.12809398770332336 0.7737228274345398
vt 0.12635214626789093 0.764818549156189
vt 0.4986979365348816 0.9923189282417297
vt 0.49893736839294434 0.7652916312217712
vt 0.1280866414308548 0.9918931126594543
vt 0.12767139077186584 0.7738780975341797
vt 0.4929182529449463 0.9922211170196533
vt 0.12769678235054016 0.9930605888366699
vt 0.49289292097091675 0.7730385661125183
vt 0.49606236815452576 0.7766803503036499
vt 0.1257430911064148 0.99848872423172
vt 0.4958163797855377 0.9982210993766785
vt 0.12401551008224487 0.7769479751586914
vt 0.12642332911491394 0.7772451639175415
vt 0.49379247426986694 0.9885652661323547
vt 0.494864284992218 0.777522087097168
vt 0.12535148859024048 0.9882885217666626
vt 0.12983262538909912 0.7751796245574951
vt 0.4914678633213043 0.9862693548202515
vt 0.12863248586654663 0.9862736463546753
vt 0.49069443345069885 0.7751754522323608
vt 0.1297251135110855 0.7717398405075073
vt 0.4937652051448822 0.9895995259284973
vt 0.49401572346687317 0.7709101438522339
vt 0.12985019385814667 0.9880133867263794
vt 0.4916439652442932 0.989730715751648
vt 0.1325816810131073 0.7808060646057129
vt 0.13282442092895508 0.9896830320358276
vt 0.4914013147354126 0.7808537483215332
vt 0.49209851026535034 0.9876008629798889
vt 0.13234567642211914 0.7742507457733154
vt 0.1332249641418457 0.9893621802330017
vt 0.49121910333633423 0.7749049067497253
vt 0.49220019578933716 0.7799305319786072
vt 0.13164973258972168 0.9887599945068359
vt 0.13140705227851868 0.7798829078674316
vt 0.4924428462982178 0.9888075590133667
vt 0.4913654923439026 0.7728599905967712
vt 0.13337111473083496 0.9873179793357849
vt 0.13249176740646362 0.7746219038963318
vt 0.49224478006362915 0.98797208070755
vt 0.7395499348640442 0.0004995465278625488
vt 0.9800208210945129 0.37524181604385376
vt 0.5164396166801453 0.3752419352531433
vt 0.51643967628479 0.9995006322860718
vt 0.9807124137878418 0.9995004534721375
vt 0.9734820127487183 0.3752419352531433
vt 0.51643967628479 0.37524181604385376
vt 0.5164397358894348 0.9995004534721375
vt 0.9727905988693237 0.9995006322860718
vt 0.7461811900138855 0.0004995465278625488
vt 0.9899672269821167 0.24792301654815674
vt 0.5023948550224304 0.24792301654815674
vt 0.5019797086715698 0.9995006322860718
vt 0.9903823137283325 0.9995006322860718
vt 0.5023951530456543 0.24792301654815674
vt 0.9899675250053406 0.24792301654815674
vt 0.9903826713562012 0.9995005130767822
vt 0.5019800662994385 0.9995005130767822
vt 0.5213297605514526 0.4074585437774658
vt 0.9931195378303528 0.999500572681427
vt 0.5221621990203857 0.9995006322860718
vt 0.9935815334320068 0.4074585437774658
vt 0.7616198062896729 0.0004995465278625488
vt 0.9019412398338318 0.29812192916870117
vt 0.5216120481491089 0.9995005130767822
vt 0.994696319103241 0.9995005130767822
vt 0.5211500525474548 0.29812198877334595
vt 0.4954436719417572 0.9982213973999023
vt 0.1253703534603119 0.9984890222549438
vt 0.49568960070610046 0.7766807079315186
vt 0.4948902130126953 0.9889383316040039
vt 0.02274690382182598 0.05605506896972656
vt 0.9833249449729919 0.05605512857437134
vt 0.4984820485115051 0.9995006322860718
vt 0.9795068502426147 0.007745802402496338
vt 0.019695710390806198 0.007745862007141113
vt 0.4922969937324524 0.9995003938674927
vt 0.9995005130767822 0.007745862007141113
vt 0.0004995167255401611 0.007745862007141113
vt 0.5004105567932129 0.9995003938674927
vt 0.01028580591082573 0.0077460408210754395
vt 0.9889167547225952 0.007745921611785889
vt 0.48045557737350464 0.9995006322860718
vt 0.010293496772646904 0.00533062219619751
vt 0.9897064566612244 0.005330562591552734
vt 0.486791729927063 0.9995006322860718
vt 0.0004995167255401611 0.007745921611785889
vt 0.9995005130767822 0.007745921611785889
vt 0.5004101395606995 0.9995006322860718
g Geoset0
s 1
usemtl 197764
f 1/1/1 2/2/2 3/3/3
f 4/4/4 5/5/5 6/6/6
f 4/4/4 7/7/7 5/5/5
f 8/8/8 9/9/9 10/10/10
f 8/8/8 11/11/11 9/9/9
f 12/12/12 13/13/13 14/14/14
f 12/12/12 15/15/15 13/13/13
f 16/16/16 17/17/17 18/18/18
f 16/16/16 19/19/19 17/17/17
f 20/20/20 21/21/21 22/22/22
f 20/20/20 23/23/23 21/21/21
f 24/24/24 25/25/25 26/26/26
f 24/24/24 27/27/27 25/25/25
f 28/28/28 29/29/29 30/30/30
f 28/28/28 31/31/31 29/29/29
f 32/32/32 33/33/33 34/34/34
f 32/32/32 35/35/35 33/33/33
f 36/36/36 37/37/37 38/38/38
f 36/36/36 39/39/39 37/37/37
f 40/40/40 41/41/41 42/42/42
f 40/40/40 43/43/43 41/41/41
f 44/44/44 45/45/45 46/46/46
f 44/44/44 47/47/47 45/45/45
f 48/48/48 49/49/49 50/50/50
f 48/48/48 51/51/51 49/49/49
f 52/52/52 53/53/53 54/54/54
f 52/52/52 55/55/55 53/53/53
f 56/56/56 57/57/57 58/58/58
f 56/56/56 59/59/59 57/57/57
f 60/60/60 61/61/61 62/62/62
f 60/60/60 63/63/63 61/61/61
f 64/64/64 65/65/65 66/66/66
f 64/64/64 67/67/67 65/65/65
f 68/68/68 69/69/69 70/70/70
f 68/68/68 71/71/71 69/69/69
f 72/72/72 73/73/73 74/74/74
f 72/72/72 75/75/75 73/73/73
f 76/76/76 77/77/77 78/78/78
f 76/76/76 79/79/79 77/77/77
f 80/80/80 81/81/81 82/82/82
f 81/81/81 83/83/83 82/82/82
f 83/83/83 81/81/81 84/84/84
f 80/80/80 85/85/85 86/86/86
f 85/85/85 87/87/87 86/86/86
f 87/87/87 85/85/85 88/88/88
f 89/89/89 90/90/90 91/91/91
f 90/90/90 92/92/92 91/91/91
f 92/92/92 90/90/90 93/93/93
f 89/89/89 94/94/94 95/95/95
f 94/94/94 96/96/96 95/95/95
f 96/96/96 94/94/94 97/97/97
f 98/98/98 99/99/99 100/100/100
f 98/98/98 101/101/101 99/99/99
f 102/102/102 101/101/101 98/98/98
f 103/103/103 104/104/104 105/105/105
f 104/104/104 103/103/103 106/106/106
f 102/102/102 106/106/106 103/103/103
f 2/2/2 107/107/107 108/108/108
f 2/2/2 109/109/109 107/107/107
f 1/1/1 3/3/3 110/110/110
g Geoset1
s 1
usemtl 198092
f 111/111/111 112/112/112 113/113/113
f 114/114/114 115/115/115 116/116/116
f 117/117/117 118/118/118 119/119/119
f 120/120/120 121/121/121 122/122/122
f 123/123/123 124/124/124 125/125/125
f 126/126/126 127/127/127 128/128/128