# Exported using wow.export v0.1.9
o DurotarBush02
mtllib durotarbush02.mtl
v -0.7106515169143677 1.3822237253189087 -0.2847137749195099
v -0.1133287325501442 2.9590468406677246 0.22951330244541168
v -2.3306519985198975 3.1385273933410645 -1.3417179584503174
v -0.038825709372758865 1.0663560628890991 -0.6080572605133057
v -0.7106515169143677 1.3822237253189087 -0.2847137749195099
v -0.1133287325501442 2.9590468406677246 0.22951330244541168
v -0.42370787262916565 -0.1091974601149559 -0.20358121395111084
v -0.012891569174826145 -0.1091974601149559 -0.33403101563453674
v -0.03794461488723755 1.0425031185150146 0.9583267569541931
v -0.006667628418654203 0.1874963939189911 2.3006985187530518
v -0.012891526333987713 -0.1091974601149559 0.5079734921455383
v -0.006667649373412132 2.644956111907959 2.3006985187530518
v 0.5568418502807617 1.447114109992981 -0.30832967162132263
v 2.3306517601013184 3.1385276317596436 -1.3526463508605957
v 2.3306517601013184 -0.1091974601149559 -1.3526463508605957
v 0.3979246914386749 -0.1091974601149559 -0.2035812884569168
v -0.007107309997081757 3.676968812942505 -2.3006985187530518
v -0.038825709372758865 1.0663560628890991 -0.6080572605133057
v -0.007107348181307316 -0.1091974601149559 -2.3006985187530518
v 0.5568418502807617 1.447114109992981 -0.30832967162132263
v 0.6737657189369202 1.2019927501678467 0.49725449085235596
v 2.3306522369384766 -0.1091974601149559 1.3219839334487915
v 0.3979247808456421 -0.1091974601149559 0.2707885503768921
v 2.3306522369384766 2.644956111907959 1.3219839334487915
v -0.03794461488723755 1.0425031185150146 0.9583267569541931
v -0.8917208909988403 1.1626845598220825 0.5123169422149658
v -0.4797429144382477 -0.1091974601149559 0.31011685729026794
v -1.654274344444275 -0.1091974601149559 0.9570491909980774
v -0.7106515169143677 1.3822237253189087 -0.2847137749195099
v -1.654274344444275 2.826665163040161 0.9570491909980774
v -0.42370787262916565 -0.1091974601149559 -0.20358121395111084
v -2.3306519985198975 -0.1091974601149559 -1.3417179584503174
vn -0.9929078221321106 0.07803376764059067 0.0896926149725914
vn 0.734049916267395 0.5664067268371582 0.37463873624801636
vn -0.5634989142417908 -0.022770151495933533 0.8258029222488403
vn 0.5274224281311035 0.05563480034470558 -0.8477796316146851
vn -0.9929078221321106 0.07803376764059067 0.0896926149725914
vn 0.734049916267395 0.5664067268371582 0.37463873624801636
vn -0.8946577310562134 -0.2536103427410126 -0.3677898645401001
vn 0.4889586269855499 -0.15134750306606293 -0.8590770363807678
vn 0.7014821767807007 0.015295677818357944 0.7125228643417358
vn 0.999804675579071 0.0123521089553833 -0.015427726320922375
vn 0.3252183496952057 -0.29945674538612366 0.8969719409942627
vn 0.9993049502372742 0.010466272011399269 -0.03577767312526703
vn 0.9943659901618958 0.0829407274723053 -0.0660083070397377
vn 0.5267507433891296 -0.027872076258063316 0.8495627045631409
vn 0.509188711643219 0.002835322404280305 0.8606502413749695
vn 0.9849797487258911 -0.14461472630500793 -0.0943475067615509
vn 0.999414324760437 0.0092229088768363 0.03295280784368515
vn 0.5274224281311035 0.05563480034470558 -0.8477796316146851
vn 0.9998766183853149 0.011371498927474022 0.010839063674211502
vn 0.9943659901618958 0.0829407274723053 -0.0660083070397377
vn 0.9971612691879272 -0.003085087053477764 -0.07523232698440552
vn 0.4616151750087738 0.025585100054740906 -0.8867112398147583
vn 0.9790626764297485 -0.20264893770217896 -0.019227158278226852
vn 0.42928627133369446 0.023110218346118927 -0.9028727412223816
vn 0.7014821767807007 0.015295677818357944 0.7125228643417358
vn -0.48751866817474365 -0.07629279792308807 0.8697729110717773
vn -0.43578365445137024 -0.277283638715744 0.8562747240066528
vn 0.4931456446647644 0.008510959334671497 0.8699051141738892
vn -0.9929078221321106 0.07803376764059067 0.0896926149725914
vn 0.4672307074069977 -0.022110924124717712 0.8838589191436768
vn -0.8946577310562134 -0.2536103427410126 -0.3677898645401001
vn -0.5294097065925598 -0.025924207642674446 0.8479700684547424
vt 0.007874015718698502 0.41582465171813965
vt 0.007874015718698502 0.9921259880065918
vt 0.9921259880065918 0.9921259880065918
vt 0.18883296847343445 0.3968542218208313
vt 0.00023797850008122623 0.47612273693084717
vt 0.0004995763301849365 0.9995005130767822
vt 0 0
vt 0.30708661675453186 0.007874011993408203
vt 0.007874015718698502 0.34051668643951416
vt 0.9921259880065918 0.007874011993408203
vt 0.007874015718698502 0.007874011993408203
vt 0.9921259880065918 0.9921259880065918
vt 0.007874015718698502 0.44489777088165283
vt 0.9921259880065918 0.9921259880065918
vt 0.9921259880065918 0.007874011993408203
vt 0.007874015718698502 0.007874011993408203
vt 0.9921259880065918 0.9921259880065918
vt 0.1884465515613556 0.3981373906135559
vt 0.9921259880065918 0.007874011993408203
vt 0.007874015718698502 0.5136904716491699
vt 0.31996119022369385 0.3729053735733032
vt 0.9921259880065918 0.007874011993408203
vt 0.5039370059967041 0.007874011993408203
vt 0.9921259880065918 0.9921259880065918
vt 0.007874015718698502 0.3926101326942444
vt 0.3015352785587311 0.43594932556152344
vt 0.5275590419769287 0.007874011993408203
vt 0.9921259880065918 0.007874011993408203
vt 0.007874015718698502 0.4767329692840576
vt 0.9921259880065918 0.9921259880065918
vt 0.007874015718698502 0.007874011993408203
vt 0.9921259880065918 0.007874011993408203
g Geoset0
s 1
usemtl 131997
f 1/1/1 2/2/2 3/3/3
f 4/4/4 5/5/5 6/6/6
f 4/4/4 7/7/7 5/5/5
f 8/8/8 7/7/7 4/4/4
f 9/9/9 10/10/10 11/11/11
f 10/10/10 9/9/9 12/12/12
f 9/9/9 2/2/2 12/12/12
f 13/13/13 14/14/14 2/2/2
f 14/14/14 13/13/13 15/15/15
f 13/13/13 16/16/16 15/15/15
f 17/17/17 18/18/18 19/19/19
f 18/18/18 8/8/8 19/19/19
f 18/18/18 17/17/17 2/2/2
f 20/20/20 18/18/18 2/2/2
f 20/20/20 8/8/8 18/18/18
f 16/16/16 8/8/8 20/20/20
f 21/21/21 22/22/22 23/23/23
f 22/22/22 21/21/21 24/24/24
f 2/2/2 24/24/24 21/21/21
f 25/25/25 11/11/11 21/21/21
f 11/11/11 23/23/23 21/21/21
f 23/23/23 16/16/16 21/21/21
f 21/21/21 16/16/16 20/20/20
f 21/21/21 20/20/20 2/2/2
f 25/25/25 21/21/21 2/2/2
f 26/26/26 25/25/25 2/2/2
f 26/26/26 11/11/11 25/25/25
f 27/27/27 11/11/11 26/26/26
f 26/26/26 28/28/28 27/27/27
f 29/29/29 26/26/26 2/2/2
f 2/2/2 30/30/30 26/26/26
f 28/28/28 26/26/26 30/30/30
f 29/29/29 31/31/31 26/26/26
f 31/31/31 27/27/27 26/26/26
f 1/1/1 32/32/32 31/31/31
f 32/32/32 1/1/1 3/3/3