# Exported using wow.export v0.1.9
o DurotarBush01
mtllib durotarbush01.mtl
v -1.4844331741333008 0.7936822175979614 -0.6543977856636047
v 0.031475529074668884 1.2322126626968384 -0.04442458972334862
v 0.003872242756187916 -0.148021399974823 0.0008835286716930568
v 0.031475529074668884 1.2322126626968384 -0.04442458972334862
v 0.003872242756187916 -0.148021399974823 0.0008835286716930568
v -0.48039188981056213 1.3614710569381714 -1.068407416343689
v -0.666641116142273 2.8018126487731934 -0.5586687922477722
v 0.003871029010042548 3.2720205783843994 0.3207469582557678
v 1.0564814805984497 0.9443111419677734 -0.5569913983345032
v 0.7283496260643005 2.4201135635375977 -0.43177762627601624
v 0.4178575277328491 2.1428616046905518 0.8094872832298279
v 0.5439602136611938 1.3636040687561035 0.9805538654327393
v -0.6958484053611755 1.8605153560638428 0.43944984674453735
v -0.9935882687568665 0.9194129109382629 0.46803608536720276
v -0.4241100549697876 0.2894662618637085 1.1030250787734985
v -0.6813111305236816 1.3017151355743408 1.4912726879119873
v 0.417209655046463 0.02915114536881447 -0.9884862899780273
v 0.5081994533538818 1.282242774963379 -1.612208604812622
v 1.0018166303634644 0.2931534945964813 0.4671534597873688
v 1.3687926530838013 1.3718584775924683 0.48858028650283813
v -1.0982719659805298 0.29191461205482483 -0.35367098450660706
vn 0.2519303262233734 -0.2520085573196411 -0.9343568682670593
vn 0.5858218669891357 0.04837910085916519 -0.8089945316314697
vn 0.839719295501709 -0.0741000846028328 -0.5379410982131958
vn 0.5858218669891357 0.04837910085916519 -0.8089945316314697
vn 0.839719295501709 -0.0741000846028328 -0.5379410982131958
vn 0.8943492770195007 0.11344977468252182 -0.4327453374862671
vn 0.8254126310348511 0.19335287809371948 -0.5303853750228882
vn 0.18277409672737122 0.17564857006072998 -0.9673371911048889
vn -0.45222386717796326 -0.02264297381043434 -0.8916170001029968
vn -0.5509144067764282 0.05157484486699104 -0.8329666256904602
vn 0.877120852470398 0.07296339422464371 -0.47469496726989746
vn 0.8940860033035278 0.006331479176878929 -0.4478505551815033
vn -0.46375027298927307 0.13723528385162354 -0.8752726316452026
vn -0.45910343527793884 0.05151919648051262 -0.8868877291679382
vn 0.9405699372291565 0.11666179448366165 0.3189329206943512
vn 0.9268142580986023 0.05635926499962807 0.371266633272171
vn 0.905522882938385 0.13454194366931915 0.40240126848220825
vn 0.9353617429733276 0.0627559944987297 0.34808051586151123
vn 0.4700259268283844 -0.142600879073143 -0.8710571527481079
vn 0.42294594645500183 -0.09051292389631271 -0.9016230702400208
vn 0.10553847253322601 -0.45019152760505676 -0.886673092842102
vt 1 0.5
vt 0.5 0.5
vt 0.5 0
vt 0.004371980670839548 0.5
vt 0.004371980670839548 0
vt 0.5 0.5
vt 0.5 1
vt 0.004371980670839548 1
vt 0.5 0.5
vt 0.5 1
vt 0.5 1
vt 0.5 0.5
vt 0.5 1
vt 0.5 0.5
vt 1 0
vt 1 0.5
vt 1 0
vt 1 0.5
vt 1 0
vt 1 0.5
vt 1 0
g Geoset0
s 1
usemtl 201773
f 1/1/1 2/2/2 3/3/3
f 4/4/4 5/5/5 6/6/6
f 6/6/6 7/7/7 4/4/4
f 7/7/7 8/8/8 4/4/4
f 9/9/9 4/4/4 10/10/10
f 4/4/4 8/8/8 10/10/10
f 8/8/8 11/11/11 4/4/4
f 4/4/4 11/11/11 12/12/12
f 13/13/13 8/8/8 4/4/4
f 4/4/4 12/12/12 5/5/5
f 14/14/14 13/13/13 4/4/4
f 4/4/4 5/5/5 14/14/14
f 4/4/4 9/9/9 5/5/5
f 15/15/15 3/3/3 16/16/16
f 16/16/16 3/3/3 2/2/2
f 2/2/2 16/16/16 3/3/3
f 3/3/3 17/17/17 18/18/18
f 18/18/18 2/2/2 3/3/3
f 18/18/18 3/3/3 17/17/17
f 3/3/3 18/18/18 2/2/2
f 19/19/19 3/3/3 20/20/20
f 20/20/20 3/3/3 2/2/2
f 20/20/20 19/19/19 3/3/3
f 2/2/2 20/20/20 3/3/3
f 3/3/3 21/21/21 1/1/1