# Exported using wow.export v0.1.9
o TaurenLogChair01
mtllib taurenlogchair01.mtl
v -0.6299291849136353 0.13490433990955353 -3.7282931804656982
v -0.7232909202575684 0.5017074346542358 -3.7282931804656982
v -0.6056204438209534 0.5017074346542358 -3.7282931804656982
v -0.7232909202575684 0.5017074346542358 3.6593034267425537
v -0.6299291849136353 0.13490433990955353 3.6593034267425537
v -0.026429301127791405 -0.23189878463745117 3.6593034267425537
v -0.37486013770103455 -0.1336141675710678 3.6593034267425537
v 0.5770705342292786 0.13490422070026398 3.6593034267425537
v 0.6704323291778564 0.5017073154449463 3.6593034267425537
v 0.5426481366157532 0.5017073154449463 3.6589720249176025
v -0.5670953392982483 0.5017073750495911 3.657697916030884
v 0.3220014274120331 -0.13361425697803497 3.6593034267425537
v 0.6704323291778564 0.5017073154449463 -3.7282931804656982
v 0.5601763725280762 0.5017073154449463 -3.7282931804656982
v 0.5514122843742371 0.5017073154449463 -0.03466063737869263
v -0.6056204438209534 0.5017074346542358 -3.7282931804656982
v -0.5863578915596008 0.5017073750495911 -0.035297997295856476
v -0.7232909202575684 0.5017074346542358 -3.7282931804656982
v -0.7232909202575684 0.5017074346542358 -0.034494925290346146
v 0.6704323291778564 0.5017073154449463 -0.034494925290346146
v 0.6704323291778564 0.5017073154449463 3.6593034267425537
v -0.7232909202575684 0.5017074346542358 3.6593034267425537
v -0.5670953392982483 0.5017073750495911 3.657697916030884
v 0.5426481366157532 0.5017073154449463 3.6589720249176025
v -0.37486013770103455 -0.1336141675710678 -0.034494925290346146
v -0.6299291849136353 0.13490433990955353 -0.034494925290346146
v -0.6299291849136353 0.13490433990955353 -3.7282931804656982
v -0.37486013770103455 -0.1336141675710678 -3.7282931804656982
v -0.026429301127791405 -0.23189878463745117 -0.034494925290346146
v -0.026429301127791405 -0.23189878463745117 -3.7282931804656982
v 0.3220014274120331 -0.13361425697803497 -0.034494925290346146
v 0.3220014274120331 -0.13361425697803497 -3.7282931804656982
v 0.5770705342292786 0.13490422070026398 -0.034494925290346146
v 0.5770705342292786 0.13490422070026398 -3.7282931804656982
v 0.6704323291778564 0.5017073154449463 -0.034494925290346146
v 0.6704323291778564 0.5017073154449463 -3.7282931804656982
v -0.7232909202575684 0.5017074346542358 -0.034494925290346146
v -0.7232909202575684 0.5017074346542358 -3.7282931804656982
v -0.7232909202575684 0.5017074346542358 3.6593034267425537
v -0.6299291849136353 0.13490433990955353 3.6593034267425537
v -0.37486013770103455 -0.1336141675710678 3.6593034267425537
v -0.026429301127791405 -0.23189878463745117 3.6593034267425537
v 0.3220014274120331 -0.13361425697803497 3.6593034267425537
v 0.5770705342292786 0.13490422070026398 3.6593034267425537
v 0.6704323291778564 0.5017073154449463 3.6593034267425537
v 0.6704323291778564 0.5017073154449463 -3.7282931804656982
v 0.5770705342292786 0.13490422070026398 -3.7282931804656982
v -0.026429301127791405 -0.23189878463745117 -3.7282931804656982
v 0.3220014274120331 -0.13361425697803497 -3.7282931804656982
v -0.37486013770103455 -0.1336141675710678 -3.7282931804656982
v 0.5601763725280762 0.5017073154449463 -3.7282931804656982
vn -0.503367006778717 -0.7405075430870056 -0.4452754557132721
vn -0.5079399943351746 0.8157098889350891 -0.2767930030822754
vn 3.469180853699072e-8 0.8305104970932007 -0.5570030212402344
vn -0.4562841057777405 0.7370569705963135 0.49854975938796997
vn -0.503367006778717 -0.7405075430870056 0.4452754557132721
vn 0.032784171402454376 -0.7541578412055969 0.6558743715286255
vn -0.2128405123949051 -0.9598069190979004 0.18294689059257507
vn 0.6224752068519592 -0.604624330997467 0.4969446659088135
vn 0.24644029140472412 0.9310977458953857 0.26893162727355957
vn -0.00038389675319194794 0.7052875757217407 0.7089212536811829
vn 0.0006578447064384818 0.9482906460762024 0.31740257143974304
vn 0.2955310642719269 -0.8799195289611816 0.37202557921409607
vn 0.22369705140590668 0.8439234495162964 -0.48759910464286804
vn 3.731673459128615e-8 0.8933502435684204 -0.44936108589172363
vn 4.1771667014245395e-8 1 2.5563591990988713e-16
vn 3.469180853699072e-8 0.8305104970932007 -0.5570030212402344
vn 4.177167411967275e-8 1 -1.0448043540029918e-16
vn -0.5079399943351746 0.8157098889350891 -0.2767930030822754
vn -0.5285923480987549 0.8488758206367493 0
vn 0.8862838745117188 0.46314236521720886 0
vn 0.24644029140472412 0.9310977458953857 0.26893162727355957
vn -0.4562841057777405 0.7370569705963135 0.49854975938796997
vn 0.0006578447064384818 0.9482906460762024 0.31740257143974304
vn -0.00038389675319194794 0.7052875757217407 0.7089212536811829
vn -0.31838327646255493 -0.9479620456695557 0
vn -0.7173235416412354 -0.6967402100563049 0
vn -0.503367006778717 -0.7405075430870056 -0.4452754557132721
vn -0.20289777219295502 -0.9149700403213501 -0.34880122542381287
vn -0.04263768717646599 -0.9990906119346619 0
vn 0.03221341595053673 -0.7548292279243469 -0.6551298499107361
vn 0.21649427711963654 -0.9762839078903198 0
vn 0.31218016147613525 -0.9294929504394531 -0.19643430411815643
vn 0.5621738433837891 -0.8270190954208374 0
vn 0.6225754618644714 -0.6047111749649048 -0.49671342968940735
vn 0.8862838745117188 0.46314236521720886 0
vn 0.22369705140590668 0.8439234495162964 -0.48759910464286804
vn -0.5285923480987549 0.8488758206367493 0
vn -0.5079399943351746 0.8157098889350891 -0.2767930030822754
vn -0.4562841057777405 0.7370569705963135 0.49854975938796997
vn -0.503367006778717 -0.7405075430870056 0.4452754557132721
vn -0.2128405123949051 -0.9598069190979004 0.18294689059257507
vn 0.032784171402454376 -0.7541578412055969 0.6558743715286255
vn 0.2955310642719269 -0.8799195289611816 0.37202557921409607
vn 0.6224752068519592 -0.604624330997467 0.4969446659088135
vn 0.24644029140472412 0.9310977458953857 0.26893162727355957
vn 0.22369705140590668 0.8439234495162964 -0.48759910464286804
vn 0.6225754618644714 -0.6047111749649048 -0.49671342968940735
vn 0.03221341595053673 -0.7548292279243469 -0.6551298499107361
vn 0.31218016147613525 -0.9294929504394531 -0.19643430411815643
vn -0.20289777219295502 -0.9149700403213501 -0.34880122542381287
vn 3.731673459128615e-8 0.8933502435684204 -0.44936108589172363
vt 0.1327427476644516 0.6000987887382507
vt 0.26244813203811646 0.5722951889038086
vt 0.26244813203811646 0.607338011264801
vt 0.26244813203811646 0.5722951889038086
vt 0.1327427476644516 0.6000987887382507
vt 0.0030374228954315186 0.7894856929779053
vt 0.03779188543558121 0.6857213377952576
vt 0.13274283707141876 0.969210684299469
vt 0.2624480724334717 0.9970142245292664
vt 0.2624480724334717 0.9580367803573608
vt 0.26244813203811646 0.6198833584785461
vt 0.03779187053442001 0.8932499289512634
vt 0.9939583539962769 0.9995004534721375
vt 0.9939583539962769 0.9663985371589661
vt 0.36793264746665955 0.9637672901153564
vt 0.9939582943916321 0.6067322492599487
vt 0.367788702249527 0.6125205159187317
vt 0.9939583539962769 0.5714042782783508
vt 0.3679492175579071 0.5714042782783508
vt 0.3679492175579071 0.9995004534721375
vt 0.995563268661499 0.9995004534721375
vt 0.995563268661499 0.5714042782783508
vt 0.9952423572540283 0.6183087825775146
vt 0.9955301284790039 0.9611361026763916
vt 0.9952676892280579 0.07951343059539795
vt 0.9952676892280579 0.28652703762054443
vt 1.9270027875900269 0.2865270972251892
vt 1.9270027875900269 0.07951343059539795
vt 0.9952676892280579 0.003741145133972168
vt 1.9270027875900269 0.0037412047386169434
vt 0.9952676892280579 0.07951349020004272
vt 1.9270027875900269 0.0795135498046875
vt 0.9952676892280579 0.28652727603912354
vt 1.9270027875900269 0.28652727603912354
vt 0.9952676892280579 0.5596513152122498
vt 1.9270027875900269 0.5596513748168945
vt 0.9952676892280579 0.5596511960029602
vt 1.9270027875900269 0.559651255607605
vt -0.0020048096776008606 0.5596511363983154
vt -0.0020047761499881744 0.28652697801589966
vt -0.0020047761499881744 0.07951337099075317
vt -0.0020047761499881744 0.0037410855293273926
vt -0.0020047761499881744 0.07951343059539795
vt -0.0020047761499881744 0.28652721643447876
vt -0.0020048096776008606 0.559651255607605
vt 0.2624480724334717 0.9970142245292664
vt 0.13274283707141876 0.969210684299469
vt 0.0030374228954315186 0.7894856929779053
vt 0.03779187053442001 0.8932499289512634
vt 0.03779188543558121 0.6857213377952576
vt 0.2624480724334717 0.964179515838623
g Geoset0
s 1
usemtl 200392
f 1/1/1 2/2/2 3/3/3
f 4/4/4 5/5/5 6/6/6
f 5/5/5 7/7/7 6/6/6
f 8/8/8 9/9/9 10/10/10
f 11/11/11 4/4/4 6/6/6
f 6/6/6 10/10/10 11/11/11
f 6/6/6 12/12/12 10/10/10
f 12/12/12 8/8/8 10/10/10
f 13/13/13 14/14/14 15/15/15
f 15/15/15 14/14/14 16/16/16
f 16/16/16 17/17/17 15/15/15
f 17/17/17 16/16/16 18/18/18
f 18/18/18 19/19/19 17/17/17
f 15/15/15 20/20/20 13/13/13
f 21/21/21 20/20/20 15/15/15
f 17/17/17 19/19/19 22/22/22
f 22/22/22 23/23/23 17/17/17
f 15/15/15 17/17/17 23/23/23
f 23/23/23 24/24/24 15/15/15
f 15/15/15 24/24/24 21/21/21
f 25/25/25 26/26/26 27/27/27
f 27/27/27 28/28/28 25/25/25
f 29/29/29 25/25/25 28/28/28
f 28/28/28 30/30/30 29/29/29
f 31/31/31 29/29/29 30/30/30
f 30/30/30 32/32/32 31/31/31
f 33/33/33 31/31/31 32/32/32
f 32/32/32 34/34/34 33/33/33
f 35/35/35 33/33/33 34/34/34
f 34/34/34 36/36/36 35/35/35
f 26/26/26 37/37/37 38/38/38
f 38/38/38 27/27/27 26/26/26
f 39/39/39 37/37/37 26/26/26
f 26/26/26 40/40/40 39/39/39
f 40/40/40 26/26/26 25/25/25
f 25/25/25 41/41/41 40/40/40
f 41/41/41 25/25/25 29/29/29
f 29/29/29 42/42/42 41/41/41
f 42/42/42 29/29/29 31/31/31
f 31/31/31 43/43/43 42/42/42
f 43/43/43 31/31/31 33/33/33
f 33/33/33 44/44/44 43/43/43
f 44/44/44 33/33/33 35/35/35
f 35/35/35 45/45/45 44/44/44
f 46/46/46 47/47/47 48/48/48
f 47/47/47 49/49/49 48/48/48
f 50/50/50 1/1/1 3/3/3
f 48/48/48 50/50/50 3/3/3
f 3/3/3 51/51/51 48/48/48
f 51/51/51 46/46/46 48/48/48