# Exported using wow.export v0.1.9
o OrcSpear01
mtllib orcspear01.mtl
v -0.024752499535679817 2.0831298828125 -0.011282499879598618
v -0.03910670056939125 0.8303830027580261 -0.011282499879598618
v -0.00008333330333698541 0.8302890062332153 0.036979399621486664
v -0.00008333330333698541 2.0831298828125 0.01934029906988144
v -0.00008333330333698541 2.2739200592041016 0.10987000167369843
v -0.024752499535679817 2.0831298828125 -0.011282499879598618
v 0.02455330081284046 2.0831298828125 -0.011282499879598618
v -0.00008333330333698541 3.2900099754333496 -0.011282499879598618
v -0.00008333330333698541 2.2739200592041016 -0.13243600726127625
v -0.00008333330333698541 2.0831298828125 -0.041905298829078674
v -0.00008333330333698541 0.7269250154495239 0.06588499993085861
v -0.00008333330333698541 0.8302890062332153 0.036979399621486664
v -0.03910670056939125 0.8303830027580261 -0.011282499879598618
v 0.03890720009803772 0.8303830027580261 -0.011282499879598618
v -0.00008333330333698541 0.0797325000166893 -0.011282499879598618
v -0.00008333330333698541 0.7269250154495239 -0.08844999969005585
v -0.00008333330333698541 0.8302890062332153 -0.059544701129198074
v -0.00008333330333698541 2.0831298828125 0.01934029906988144
v 0.02455330081284046 2.0831298828125 -0.011282499879598618
v 0.03890720009803772 0.8303830027580261 -0.011282499879598618
v -0.00008333330333698541 0.8302890062332153 -0.059544701129198074
v -0.00008333330333698541 2.0831298828125 -0.041905298829078674
vn -0.9971920251846313 -0.07488639652729034 -4.966860274180362e-7
vn -0.9394339919090271 -0.3427309989929199 8.621120173302188e-7
vn -2.0097300534871465e-7 -0.41095998883247375 0.9116529822349548
vn -3.077799988204788e-7 -0.219417005777359 0.9756309986114502
vn -2.9281500246725045e-7 -0.3255540132522583 0.9455239772796631
vn -0.9971920251846313 -0.07488639652729034 -4.966860274180362e-7
vn 0.9971920251846313 -0.07488639652729034 -1.264290006020019e-7
vn -2.382499969202532e-15 1 -0.0000016655800436637946
vn 1.8300900705980894e-7 -0.3255540132522583 -0.9455239772796631
vn 2.6042900458378426e-7 -0.219417005777359 -0.9756309986114502
vn -8.735020173844532e-8 0.12020000070333481 0.9927499890327454
vn -2.0097300534871465e-7 -0.41095998883247375 0.9116529822349548
vn -0.9394339919090271 -0.3427309989929199 8.621120173302188e-7
vn 0.9394339919090271 -0.3427309989929199 0.000001140840026891965
vn 3.1316199056163896e-7 -1 -0.00000234871004067827
vn 1.1646699960010665e-7 0.12020000070333481 -0.9927499890327454
vn 1.674780065741288e-7 -0.41095900535583496 -0.911653995513916
vn -3.077799988204788e-7 -0.219417005777359 0.9756309986114502
vn 0.9971920251846313 -0.07488639652729034 -1.264290006020019e-7
vn 0.9394339919090271 -0.3427309989929199 0.000001140840026891965
vn 1.674780065741288e-7 -0.41095900535583496 -0.911653995513916
vn 2.6042900458378426e-7 -0.219417005777359 -0.9756309986114502
vt 0.75 0.9995005130185746
vt 0.75 0.0006510019302368164
vt 0.5 0.0004990100860595703
vt 0.15142300724983215 0.9370507970452309
vt 0.4621089994907379 0.827454999089241
vt 0.03969249874353409 0.9370507970452309
vt 0.03969249874353409 0.9370507970452309
vt 0.03969170153141022 0.11123502254486084
vt 0.4621089994907379 0.827454999089241
vt 0.15142300724983215 0.9370507970452309
vt 0.4621089994907379 0.827454999089241
vt 0.15142300724983215 0.9370507970452309
vt 0.03969249874353409 0.9370507970452309
vt 0.03969249874353409 0.9370507970452309
vt 0.03969170153141022 0.11123502254486084
vt 0.4621089994907379 0.827454999089241
vt 0.15142300724983215 0.9370507970452309
vt 0.5 0.9995005729724653
vt 0.75 0.9995005130185746
vt 0.75 0.0006510019302368164
vt 1 0.0004990100860595703
vt 1 0.9995005729724653
g Geoset0
s 1
usemtl 199435
f 1/1/1 2/2/2 3/3/3
f 4/4/4 5/5/5 6/6/6
f 5/5/5 4/4/4 7/7/7
f 7/7/7 8/8/8 5/5/5
f 8/8/8 7/7/7 9/9/9
f 10/10/10 9/9/9 7/7/7
f 9/9/9 10/10/10 6/6/6
f 6/6/6 8/8/8 9/9/9
f 8/8/8 6/6/6 5/5/5
f 11/11/11 12/12/12 13/13/13
f 12/12/12 11/11/11 14/14/14
f 15/15/15 14/14/14 11/11/11
f 14/14/14 15/15/15 16/16/16
f 16/16/16 17/17/17 14/14/14
f 17/17/17 16/16/16 13/13/13
f 15/15/15 13/13/13 16/16/16
f 13/13/13 15/15/15 11/11/11
f 3/3/3 18/18/18 1/1/1
f 18/18/18 3/3/3 19/19/19
f 20/20/20 19/19/19 3/3/3
f 19/19/19 20/20/20 21/21/21
f 21/21/21 22/22/22 19/19/19
f 22/22/22 21/21/21 1/1/1
f 2/2/2 1/1/1 21/21/21