# Exported using wow.export v0.1.9
o RedRidgeFallenTree02Moss
mtllib redridgefallentree02moss.mtl
v 0.8894976377487183 1.4626439809799194 1.7385958433151245
v 1.0466458797454834 1.0762499570846558 0.6144102811813354
v 1.5776011943817139 2.1315181255340576 1.9728338718414307
v 1.4743314981460571 2.628248453140259 3.9086313247680664
v 1.36260986328125 2.630068778991699 3.925457000732422
v 1.0485012531280518 1.9274033308029175 2.1897542476654053
v 1.5130163431167603 1.9250733852386475 2.277338743209839
v 0.3207169771194458 1.6432749032974243 1.8447233438491821
v 0.8894976377487183 1.4626439809799194 1.7385958433151245
v 0.8894976377487183 1.4626439809799194 1.7385958433151245
v 1.0002171993255615 1.371459722518921 5.076920032501221
v 1.2399890422821045 0.7320681214332581 5.464154243469238
v 0.3207169771194458 1.6432749032974243 1.8447233438491821
v 0.36082571744918823 1.6112316846847534 4.6133341789245605
v 0.3207169771194458 1.6432749032974243 1.8447233438491821
v -0.22844572365283966 1.5885082483291626 0.5832576155662537
v -0.2785656452178955 1.3714598417282104 4.818668365478516
v -0.5382877588272095 0.6558542251586914 -6.350643388941535e-8
v -0.5183377861976624 0.7320683598518372 5.223108768463135
v 0.3579656481742859 -0.053688548505306244 -7.2359137535095215
v 1.159909963607788 0.3108313977718353 -7.065074443817139
v 0.7350765466690063 0.06751827150583267 0.1595674753189087
v 1.316390872001648 0.7141774296760559 -6.350643388941535e-8
v 1.5244300365447998 1.1127758026123047 -7.063447952270508
v 1.0466458797454834 1.0762499570846558 0.6144102811813354
v 1.1599100828170776 1.9147201776504517 -6.863758087158203
v 0.4182131886482239 1.6123548746109009 -6.350643388941535e-8
v 0.35796570777893066 2.279240608215332 -6.683033466339111
v -0.44397857785224915 1.9147201776504517 -6.91924524307251
v -0.8084986209869385 1.1127758026123047 -7.14885950088501
v -0.268543004989624 0.027421187609434128 -6.350643388941535e-8
v -0.44397878646850586 0.31083133816719055 -7.465997695922852
v 0.3598898649215698 -0.24232350289821625 -6.350643388941535e-8
v -0.27856579422950745 0.09267676621675491 5.408305644989014
v 0.3608255088329315 -0.14709506928920746 5.408305644989014
v 1.000217080116272 0.09267667680978775 5.595527648925781
v 1.3909907341003418 2.85290265083313 3.845242500305176
v 1.502120852470398 2.769972085952759 3.847913980484009
v 1.5776011943817139 2.1315181255340576 1.9728338718414307
v 1.5130163431167603 1.9250733852386475 2.277338743209839
v 0.8894976377487183 1.4626439809799194 1.7385958433151245
v 1.053562045097351 2.3032405376434326 1.961006999015808
v 1.0485012531280518 1.9274033308029175 2.1897542476654053
v 1.36260986328125 2.630068778991699 3.925457000732422
v -0.22844572365283966 1.5885082483291626 0.5832576155662537
v 0.3207169771194458 1.6432749032974243 1.8447233438491821
v 1.3193269968032837 2.5055158138275146 1.8373184204101562
v 1.0466458797454834 1.0762499570846558 0.6144102811813354
v 1.3909907341003418 2.85290265083313 3.845242500305176
v 0.4182131886482239 1.6123548746109009 -6.350643388941535e-8
v -0.22844572365283966 1.5885082483291626 0.5832576155662537
v 1.2766376733779907 2.773298978805542 3.842885732650757
v 1.3909907341003418 2.85290265083313 3.845242500305176
v 1.4743314981460571 2.628248453140259 3.9086313247680664
v 1.159909963607788 0.3108313977718353 -7.065074443817139
v 0.3579656481742859 -0.053688548505306244 -7.2359137535095215
v 0.359266072511673 0.1760905385017395 -7.346903324127197
v 0.3608255088329315 -0.14709506928920746 5.408305644989014
v 1.000217080116272 0.09267667680978775 5.595527648925781
v 0.9021569490432739 0.20114876329898834 5.678769588470459
v 0.36998194456100464 0.0015832767821848392 5.49154806137085
v 0.7558948993682861 0.34827011823654175 5.286373615264893
v 0.37942710518836975 0.2070947140455246 5.286373615264893
v 0.3853053152561188 0.7077902555465698 4.732284069061279
v 0.0029593263752758503 0.3482699990272522 5.286373615264893
v -0.13821609318256378 0.7247379422187805 4.810652256011963
v 1.1017227172851562 0.7333235740661621 5.5473952293396
v 1.2399890422821045 0.7320681214332581 5.464154243469238
v 0.9021571278572083 1.2654988765716553 5.16016149520874
v 1.0002171993255615 1.371459722518921 5.076920032501221
v 0.8970703482627869 0.7247379422187805 5.196107864379883
v 0.7558948993682861 1.101205825805664 4.680023670196533
v 0.37942713499069214 1.2423813343048096 4.134164333343506
v 0.002959262114018202 1.101205587387085 4.517378330230713
v 0.3699820637702942 1.4650640487670898 4.69657564163208
v -0.16219261288642883 1.2654982805252075 4.901909828186035
v -0.361758291721344 0.7333237528800964 5.306349277496338
v -0.1621927171945572 0.20114870369434357 5.49154806137085
v 0.36082571744918823 1.6112316846847534 4.6133341789245605
v -0.2785656452178955 1.3714598417282104 4.818668365478516
v -0.5183377861976624 0.7320683598518372 5.223108768463135
v -0.27856579422950745 0.09267676621675491 5.408305644989014
v 1.5244300365447998 1.1127758026123047 -7.063447952270508
v 1.0045595169067383 0.4694056510925293 -7.176064491271973
v 1.2978748083114624 1.1146992444992065 -7.174437522888184
v 1.1599100828170776 1.9147201776504517 -6.863758087158203
v 1.004559874534607 1.759993076324463 -6.974748611450195
v 0.35796570777893066 2.279240608215332 -6.683033466339111
v -0.2860274314880371 1.7599928379058838 -7.030235290527344
v 0.35926616191864014 2.0533080101013184 -6.794023513793945
v 0.3810378611087799 1.750637412071228 -6.618161201477051
v 0.8190839290618896 1.5515258312225342 -6.671004772186279
v 1.0181951522827148 1.1134802103042603 -6.780669212341309
v 0.8190837502479553 0.6754345297813416 -6.953943729400635
v 0.38103821873664856 0.4763229787349701 -7.003897666931152
v -0.05700746551156044 0.6754344701766968 -7.071173191070557
v 0.36708730459213257 1.0975526571273804 -6.63947868347168
v -0.057007450610399246 1.551525592803955 -6.687229156494141
v -0.2561189532279968 1.1134800910949707 -7.001344203948975
v -0.28602761030197144 0.46940550208091736 -7.576988220214844
v -0.5793426632881165 1.114699363708496 -7.259848594665527
v -0.44397857785224915 1.9147201776504517 -6.91924524307251
v -0.8084986209869385 1.1127758026123047 -7.14885950088501
v -0.44397878646850586 0.31083133816719055 -7.465997695922852
vn 0.9800803661346436 -0.14560838043689728 0.13505806028842926
vn 0.9213050603866577 0.3857020139694214 -0.04930495098233223
vn 0.9949455261230469 0.023569665849208832 -0.09761090576648712
vn 0.5504751801490784 -0.4710859954357147 0.6892423629760742
vn -0.7519641518592834 -0.16039782762527466 0.6393922567367554
vn -0.791924774646759 -0.3959900736808777 0.46480855345726013
vn 0.5451183915138245 -0.7947283983230591 0.26693207025527954
vn -0.07140808552503586 0.9045090675354004 0.4204334318637848
vn 0.9800803661346436 -0.14560838043689728 0.13505806028842926
vn 0.9800803661346436 -0.14560838043689728 0.13505806028842926
vn 0.18876022100448608 0.923582136631012 0.33371490240097046
vn 0.8492769598960876 0.43044933676719666 0.30568286776542664
vn -0.07140808552503586 0.9045090675354004 0.4204334318637848
vn -0.08775896579027176 0.9311047196388245 0.35403725504875183
vn -0.07140808552503586 0.9045090675354004 0.4204334318637848
vn -0.5381032824516296 0.841332733631134 0.05102981999516487
vn -0.54361891746521 0.7766835689544678 0.31818410754203796
vn -0.9948604106903076 0.10053344815969467 0.012073686346411705
vn -0.9287146925926208 0.11185791343450546 0.3535206615924835
vn 0.2537130117416382 -0.8898555636405945 -0.3791922330856323
vn 0.6973148584365845 -0.6063195466995239 -0.38226771354675293
vn 0.5986050367355347 -0.8010365962982178 -0.0035145441070199013
vn 0.9812602400779724 -0.19253242015838623 0.007720744237303734
vn 0.9098439812660217 0.10376283526420593 -0.4017675220966339
vn 0.9213050603866577 0.3857020139694214 -0.04930495098233223
vn 0.5583257675170898 0.7523482441902161 -0.34963473677635193
vn 0.2105162888765335 0.9751206040382385 -0.06944594532251358
vn 0.029483264312148094 0.9297013878822327 -0.3671322762966156
vn -0.5343694686889648 0.7440195679664612 -0.4011037051677704
vn -0.8937254548072815 0.19585160911083221 -0.4036049246788025
vn -0.7967286109924316 -0.6043362021446228 0.001149394316598773
vn -0.6962347626686096 -0.5580200552940369 -0.45152050256729126
vn -0.05213451012969017 -0.9986353516578674 -0.003079699818044901
vn -0.5938369631767273 -0.6983767151832581 0.3995342552661896
vn 0.047782983630895615 -0.9307065010070801 0.36263224482536316
vn 0.7233999967575073 -0.5709183216094971 0.38825851678848267
vn 0.2578439712524414 0.8703702092170715 0.41949033737182617
vn 0.9352799654006958 0.2936812937259674 0.19749104976654053
vn 0.9949455261230469 0.023569665849208832 -0.09761090576648712
vn 0.5451183915138245 -0.7947283983230591 0.26693207025527954
vn 0.9800803661346436 -0.14560838043689728 0.13505806028842926
vn -0.8564221858978271 0.5133103728294373 0.05525846406817436
vn -0.791924774646759 -0.3959900736808777 0.46480855345726013
vn -0.7519641518592834 -0.16039782762527466 0.6393922567367554
vn -0.5381032824516296 0.841332733631134 0.05102981999516487
vn -0.07140808552503586 0.9045090675354004 0.4204334318637848
vn 0.18001742660999298 0.9547103047370911 -0.23690076172351837
vn 0.9213050603866577 0.3857020139694214 -0.04930495098233223
vn 0.2578439712524414 0.8703702092170715 0.41949033737182617
vn 0.2105162888765335 0.9751206040382385 -0.06944594532251358
vn -0.5381032824516296 0.841332733631134 0.05102981999516487
vn -0.8161149621009827 0.5410689115524292 0.20297986268997192
vn 0.2578439712524414 0.8703702092170715 0.41949033737182617
vn 0.5504751801490784 -0.4710859954357147 0.6892423629760742
vn 0.6973148584365845 -0.6063195466995239 -0.38226771354675293
vn 0.2537130117416382 -0.8898555636405945 -0.3791922330856323
vn 0.5169990658760071 0.26781874895095825 -0.8130098581314087
vn 0.047782983630895615 -0.9307065010070801 0.36263224482536316
vn 0.7233999967575073 -0.5709183216094971 0.38825851678848267
vn -0.5420974493026733 0.10684020817279816 0.8334959745407104
vn -0.33933335542678833 0.19131667912006378 0.9210053086280823
vn -0.5746414065361023 0.7188547253608704 0.3911970257759094
vn 0.0639389157295227 0.8796655535697937 0.4712751805782318
vn -0.1846541464328766 0.8573282957077026 0.48051121830940247
vn 0.44601407647132874 0.7976309061050415 0.40602511167526245
vn 0.7394527196884155 0.5480912327766418 0.3909037113189697
vn -0.3129023015499115 0.4801713228225708 0.8194679021835327
vn 0.8492769598960876 0.43044933676719666 0.30568286776542664
vn -0.7005804777145386 0.25671645998954773 0.6657955050468445
vn 0.18876022100448608 0.923582136631012 0.33371490240097046
vn -0.8084895610809326 0.4859183132648468 0.3320060968399048
vn -0.9129098653793335 0.24420535564422607 0.32704639434814453
vn -0.5590869188308716 -0.37575212121009827 0.7390751838684082
vn 0.8507469892501831 -0.03711731731891632 0.5242631435394287
vn -0.03495869040489197 -0.18636088073253632 0.9818592071533203
vn 0.6929364204406738 0.3313193917274475 0.640364408493042
vn 0.31941989064216614 0.7019227147102356 0.6366124749183655
vn -0.09527616202831268 0.47095322608947754 0.8769980072975159
vn -0.08775896579027176 0.9311047196388245 0.35403725504875183
vn -0.54361891746521 0.7766835689544678 0.31818410754203796
vn -0.9287146925926208 0.11185791343450546 0.3535206615924835
vn -0.5938369631767273 -0.6983767151832581 0.3995342552661896
vn 0.9098439812660217 0.10376283526420593 -0.4017675220966339
vn 0.11903656274080276 0.31142425537109375 -0.9427858591079712
vn -0.2909337878227234 0.41032910346984863 -0.8642843961715698
vn 0.5583257675170898 0.7523482441902161 -0.34963473677635193
vn -0.5369049310684204 0.1733705848455429 -0.8256365656852722
vn 0.029483264312148094 0.9297013878822327 -0.3671322762966156
vn 0.345618337392807 0.11404282599687576 -0.9314194321632385
vn -0.09102875739336014 0.025199491530656815 -0.9955293536186218
vn 0.1928245574235916 -0.49563324451446533 -0.8468567728996277
vn -0.5803562998771667 -0.32860374450683594 -0.7451215386390686
vn -0.771212637424469 0.22150543332099915 -0.5967967510223389
vn -0.4918907880783081 0.6503588557243347 -0.5788581967353821
vn 0.06440740078687668 0.8251237869262695 -0.5612685680389404
vn 0.6103519797325134 0.6486884355545044 -0.4546138644218445
vn 0.15673750638961792 0.49099716544151306 -0.8569452166557312
vn 0.7371333241462708 -0.0258156880736351 -0.6752540469169617
vn 0.7129678130149841 0.49182549118995667 -0.49978458881378174
vn 0.42616552114486694 0.23036818206310272 -0.8748219609260559
vn 0.11931011825799942 0.4847273528575897 -0.8664897680282593
vn -0.5343694686889648 0.7440195679664612 -0.4011037051677704
vn -0.8937254548072815 0.19585160911083221 -0.4036049246788025
vn -0.6962347626686096 -0.5580200552940369 -0.45152050256729126
vt 0.014102526009082794 0.9970906376838684
vt 0.21266673505306244 0.9836708307266235
vt 0.16178841888904572 0.6949992179870605
vt 0.012425586581230164 0.44525033235549927
vt 0.08419186621904373 0.4477574825286865
vt 0.15690332651138306 0.7574610114097595
vt 0.01588766649365425 0.6906649470329285
vt 0.21516066789627075 0.9973145723342896
vt 0.013078171759843826 0.9946752190589905
vt 0.16707441210746765 0.8242822885513306
vt 0.24783600866794586 0.012206494808197021
vt 0.47950834035873413 0.012658417224884033
vt 0.010114800184965134 0.8015623688697815
vt 0.010278690606355667 0.011758863925933838
vt 0.0099249966442585 0.8027271628379822
vt 0.24786515533924103 0.9941965937614441
vt 0.24719476699829102 0.012194812297821045
vt 0.4777982234954834 0.995027482509613
vt 0.4777640700340271 0.012195408344268799
vt 0.9852806329727173 0.011154234409332275
vt 0.7408530116081238 0.011154472827911377
vt 0.7407973408699036 0.9950281977653503
vt 0.47966134548187256 0.9949738383293152
vt 0.4797871708869934 0.010823249816894531
vt 0.24783997237682343 0.9941913485527039
vt 0.24785307049751282 0.01115274429321289
vt 0.009660754352807999 0.9950222373008728
vt 0.009633954614400864 0.011150658130645752
vt 0.24719831347465515 0.011149704456329346
vt 0.47778981924057007 0.011152088642120361
vt 0.7431949377059937 0.9950267672538757
vt 0.7430915832519531 0.01114886999130249
vt 0.9852796792984009 0.9950245022773743
vt 0.7433728575706482 0.012204945087432861
vt 0.9852923154830933 0.012208044528961182
vt 0.7407786846160889 0.012190043926239014
vt 0.07005254924297333 0.44068408012390137
vt 0.018425151705741882 0.36362528800964355
vt 0.1727185696363449 0.6931775212287903
vt 0.018539398908615112 0.6930803656578064
vt 0.01893344521522522 0.9946752190589905
vt 0.2525958716869354 0.6930264830589294
vt 0.017822325229644775 0.6931080222129822
vt 0.2062738686800003 0.3656318187713623
vt 0.2525942325592041 0.9946766495704651
vt 0.012947440147399902 0.9948990941047668
vt 0.01163849700242281 0.6931597590446472
vt 0.200306698679924 0.9946413636207581
vt 0.01843656599521637 0.36372876167297363
vt 0.011445085518062115 0.9948624968528748
vt 0.25272607803344727 0.9949355721473694
vt 0.12428976595401764 0.318831205368042
vt 0.01836957037448883 0.3638136386871338
vt 0.1524362713098526 0.44283485412597656
vt 0.29689618945121765 0.10938405990600586
vt 0.9877164959907532 0.006193637847900391
vt 0.9807336926460266 0.049810051918029785
vt 0.9877163767814636 0.0065653324127197266
vt 0.2968955338001251 0.10938376188278198
vt 0.3709263503551483 0.15057975053787231
vt 0.9807320237159729 0.050570785999298096
vt 0.4574850797653198 0.19967901706695557
vt 0.9769097566604614 0.10269170999526978
vt 0.9585533142089844 0.5047165155410767
vt 0.4573695659637451 0.19982540607452393
vt 0.19678422808647156 0.4869328737258911
vt 0.11191698908805847 0.4862580895423889
vt 0.01033024676144123 0.48308396339416504
vt 0.3681541383266449 0.856853723526001
vt 0.27626773715019226 0.9136700630187988
vt 0.19872581958770752 0.48755359649658203
vt 0.4483051300048828 0.7941327095031738
vt 0.98359614610672 0.8782634139060974
vt 0.449832022190094 0.7944909334182739
vt 0.9867678880691528 0.9406453371047974
vt 0.3684951961040497 0.8572413921356201
vt 0.11205324530601501 0.4860219359397888
vt 0.3711903691291809 0.15077459812164307
vt 0.9837689399719238 0.9960623979568481
vt 0.2767539620399475 0.9137846827507019
vt 0.009969072416424751 0.4828840494155884
vt 0.2969108521938324 0.10940569639205933
vt 0.01028636284172535 0.48308396339416504
vt 0.370900422334671 0.1506018042564392
vt 0.11190444231033325 0.48625826835632324
vt 0.276268869638443 0.9136694073677063
vt 0.36814630031585693 0.8568649291992188
vt 0.9837689399719238 0.9967032670974731
vt 0.3684951663017273 0.8572455048561096
vt 0.9867678880691528 0.9407556056976318
vt 0.9835966229438782 0.8785629272460938
vt 0.44829535484313965 0.7941679954528809
vt 0.19860729575157166 0.4875573515892029
vt 0.4574848413467407 0.19968092441558838
vt 0.9769103527069092 0.10288679599761963
vt 0.45736998319625854 0.19982588291168213
vt 0.9585533142089844 0.5047165155410767
vt 0.4498801529407501 0.7945194244384766
vt 0.19676506519317627 0.48694002628326416
vt 0.37119075655937195 0.15080612897872925
vt 0.11203750967979431 0.4860222339630127
vt 0.2767549753189087 0.9137841463088989
vt 0.009887339547276497 0.48288393020629883
vt 0.2969124913215637 0.10940665006637573
g Geoset0
s 1
usemtl 190139
f 1/1/1 2/2/2 3/3/3
f 4/4/4 5/5/5 6/6/6
f 6/6/6 7/7/7 4/4/4
f 7/7/7 6/6/6 8/8/8
f 8/8/8 9/9/9 7/7/7
f 10/10/10 11/11/11 12/12/12
f 10/10/10 13/13/13 11/11/11
f 13/13/13 14/14/14 11/11/11
f 15/15/15 16/16/16 14/14/14
f 16/16/16 17/17/17 14/14/14
f 16/16/16 18/18/18 17/17/17
f 18/18/18 19/19/19 17/17/17
f 20/20/20 21/21/21 22/22/22
f 21/21/21 23/23/23 22/22/22
f 21/21/21 24/24/24 23/23/23
f 24/24/24 25/25/25 23/23/23
f 24/24/24 26/26/26 25/25/25
f 26/26/26 27/27/27 25/25/25
f 26/26/26 28/28/28 27/27/27
f 28/28/28 16/16/16 27/27/27
f 28/28/28 29/29/29 16/16/16
f 29/29/29 18/18/18 16/16/16
f 29/29/29 30/30/30 18/18/18
f 30/30/30 31/31/31 18/18/18
f 30/30/30 32/32/32 31/31/31
f 32/32/32 33/33/33 31/31/31
f 20/20/20 22/22/22 33/33/33
f 32/32/32 20/20/20 33/33/33
f 18/18/18 31/31/31 19/19/19
f 31/31/31 34/34/34 19/19/19
f 31/31/31 33/33/33 34/34/34
f 33/33/33 35/35/35 34/34/34
f 33/33/33 22/22/22 35/35/35
f 22/22/22 36/36/36 35/35/35
f 22/22/22 23/23/23 36/36/36
f 23/23/23 12/12/12 36/36/36
f 23/23/23 25/25/25 12/12/12
f 25/25/25 10/10/10 12/12/12
f 37/37/37 38/38/38 39/39/39
f 39/39/39 40/40/40 41/41/41
f 42/42/42 43/43/43 44/44/44
f 43/43/43 42/42/42 45/45/45
f 45/45/45 46/46/46 43/43/43
f 47/47/47 39/39/39 48/48/48
f 39/39/39 47/47/47 49/49/49
f 50/50/50 51/51/51 42/42/42
f 52/52/52 53/53/53 47/47/47
f 48/48/48 50/50/50 47/47/47
f 42/42/42 47/47/47 50/50/50
f 47/47/47 42/42/42 52/52/52
f 44/44/44 52/52/52 42/42/42
f 37/37/37 52/52/52 44/44/44
f 54/54/54 37/37/37 44/44/44
f 38/38/38 37/37/37 54/54/54
f 38/38/38 54/54/54 40/40/40
f 40/40/40 3/3/3 38/38/38
g Geoset1
s 1
usemtl 190140
f 55/55/55 56/56/56 57/57/57
f 58/58/58 59/59/59 60/60/60
f 60/60/60 61/61/61 58/58/58
f 61/61/61 60/60/60 62/62/62
f 62/62/62 63/63/63 61/61/61
f 64/64/64 63/63/63 62/62/62
f 64/64/64 65/65/65 63/63/63
f 64/64/64 66/66/66 65/65/65
f 67/67/67 60/60/60 59/59/59
f 59/59/59 68/68/68 67/67/67
f 69/69/69 67/67/67 68/68/68
f 68/68/68 70/70/70 69/69/69
f 71/71/71 62/62/62 60/60/60
f 60/60/60 67/67/67 71/71/71
f 72/72/72 71/71/71 67/67/67
f 67/67/67 69/69/69 72/72/72
f 64/64/64 71/71/71 72/72/72
f 64/64/64 62/62/62 71/71/71
f 64/64/64 72/72/72 73/73/73
f 64/64/64 74/74/74 66/66/66
f 64/64/64 73/73/73 74/74/74
f 73/73/73 72/72/72 69/69/69
f 69/69/69 75/75/75 73/73/73
f 74/74/74 73/73/73 75/75/75
f 75/75/75 76/76/76 74/74/74
f 66/66/66 74/74/74 76/76/76
f 76/76/76 77/77/77 66/66/66
f 65/65/65 66/66/66 77/77/77
f 77/77/77 78/78/78 65/65/65
f 63/63/63 65/65/65 78/78/78
f 78/78/78 61/61/61 63/63/63
f 75/75/75 69/69/69 70/70/70
f 70/70/70 79/79/79 75/75/75
f 76/76/76 75/75/75 79/79/79
f 79/79/79 80/80/80 76/76/76
f 77/77/77 76/76/76 80/80/80
f 80/80/80 81/81/81 77/77/77
f 78/78/78 77/77/77 81/81/81
f 81/81/81 82/82/82 78/78/78
f 61/61/61 78/78/78 82/82/82
f 82/82/82 58/58/58 61/61/61
f 83/83/83 55/55/55 84/84/84
f 57/57/57 84/84/84 55/55/55
f 84/84/84 85/85/85 83/83/83
f 86/86/86 83/83/83 85/85/85
f 85/85/85 87/87/87 86/86/86
f 88/88/88 86/86/86 87/87/87
f 89/89/89 90/90/90 91/91/91
f 92/92/92 91/91/91 90/90/90
f 90/90/90 87/87/87 92/92/92
f 93/93/93 92/92/92 87/87/87
f 87/87/87 85/85/85 93/93/93
f 94/94/94 93/93/93 85/85/85
f 85/85/85 84/84/84 94/94/94
f 95/95/95 94/94/94 84/84/84
f 84/84/84 57/57/57 95/95/95
f 96/96/96 95/95/95 57/57/57
f 97/97/97 94/94/94 95/95/95
f 97/97/97 95/95/95 96/96/96
f 93/93/93 94/94/94 97/97/97
f 92/92/92 93/93/93 97/97/97
f 97/97/97 91/91/91 92/92/92
f 97/97/97 98/98/98 91/91/91
f 97/97/97 99/99/99 98/98/98
f 97/97/97 96/96/96 99/99/99
f 99/99/99 96/96/96 100/100/100
f 57/57/57 100/100/100 96/96/96
f 100/100/100 101/101/101 99/99/99
f 98/98/98 99/99/99 101/101/101
f 101/101/101 89/89/89 98/98/98
f 91/91/91 98/98/98 89/89/89
f 87/87/87 90/90/90 88/88/88
f 102/102/102 88/88/88 90/90/90
f 90/90/90 89/89/89 102/102/102
f 103/103/103 102/102/102 89/89/89
f 89/89/89 101/101/101 103/103/103
f 104/104/104 103/103/103 101/101/101
f 101/101/101 100/100/100 104/104/104
f 56/56/56 104/104/104 100/100/100
f 100/100/100 57/57/57 56/56/56