# Exported using wow.export v0.1.9
o OrcFencePost
mtllib orcfencepost.mtl
v 0.430802583694458 -0.2608844041824341 -0.14544180035591125
v -0.2983604967594147 -0.2608844041824341 -0.8189694285392761
v -0.2469518482685089 1.446928858757019 -0.6705209016799927
v -0.2983604967594147 -0.2608844041824341 -0.8189694285392761
v -0.7359289526939392 1.5170879364013672 -0.09513548016548157
v -0.2469518482685089 1.446928858757019 -0.6705209016799927
v -0.923840343952179 -0.2608844041824341 -0.08629661053419113
v -0.19866424798965454 1.446928858757019 0.43544313311576843
v -0.23883411288261414 -0.2608844041824341 0.5444021224975586
v -0.19866424798965454 1.446928858757019 0.43544313311576843
v 0.8551434278488159 3.518223524093628 -0.01714950241148472
v 0.6056588888168335 3.674424886703491 0.23086877167224884
v 0.4527870714664459 1.3466382026672363 -0.1470361351966858
v 1.5307399034500122 4.685710430145264 0.03258080035448074
v 0.5807167887687683 3.646845579147339 -0.2614971697330475
v -0.2469518482685089 1.446928858757019 -0.6705209016799927
v 0.4099351465702057 3.7602603435516357 -0.014029926620423794
v 0.6056588888168335 3.674424886703491 0.23086877167224884
v 0.5807167887687683 3.646845579147339 -0.2614971697330475
v -0.2469518482685089 1.446928858757019 -0.6705209016799927
v -0.7359289526939392 1.5170879364013672 -0.09513548016548157
v -0.19866424798965454 1.446928858757019 0.43544313311576843
v -0.23883411288261414 -0.2608844041824341 0.5444021224975586
v 0.4527870714664459 1.3466382026672363 -0.1470361351966858
v -0.19866424798965454 1.446928858757019 0.43544313311576843
vn 0.9216881394386292 0.011691498570144176 -0.387755423784256
vn -0.37855327129364014 0.09048006683588028 -0.9211464524269104
vn -0.05714945122599602 0.18131543695926666 -0.9817630052566528
vn -0.37855327129364014 0.09048006683588028 -0.9211464524269104
vn -0.9597005248069763 0.2791002094745636 0.03283235803246498
vn -0.05714945122599602 0.18131543695926666 -0.9817630052566528
vn -0.9317343235015869 0.09481232613325119 0.35054492950439453
vn -0.015341405756771564 0.03266257792711258 0.9993487000465393
vn 0.31047704815864563 0.03726666793227196 0.9498500823974609
vn -0.015341405756771564 0.03266257792711258 0.9993487000465393
vn 0.9229874610900879 -0.31590625643730164 0.21976670622825623
vn -0.18249623477458954 0.1948772668838501 0.9637001752853394
vn 0.9959874153137207 -0.07656794786453247 -0.04632960632443428
vn 0.17185141146183014 0.984893798828125 -0.021243982017040253
vn 0.17088663578033447 0.15020357072353363 -0.9737744331359863
vn -0.05714945122599602 0.18131543695926666 -0.9817630052566528
vn -0.7901026010513306 0.5924531817436218 -0.1572803407907486
vn -0.18249623477458954 0.1948772668838501 0.9637001752853394
vn 0.17088663578033447 0.15020357072353363 -0.9737744331359863
vn -0.05714945122599602 0.18131543695926666 -0.9817630052566528
vn -0.9597005248069763 0.2791002094745636 0.03283235803246498
vn -0.015341405756771564 0.03266257792711258 0.9993487000465393
vn 0.31047704815864563 0.03726666793227196 0.9498500823974609
vn 0.9959874153137207 -0.07656794786453247 -0.04632960632443428
vn -0.015341405756771564 0.03266257792711258 0.9993487000465393
vt 0.17499999701976776 0
vt 0.25 0
vt 0.25 0.5350241661071777
vt 0.08500000089406967 0
vt 0.17499999701976776 0.5350241661071777
vt 0.08500000089406967 0.5350241661071777
vt 0.17499999701976776 0
vt 0.25 0.5350241661071777
vt 0.25 0
vt 0.08500000089406967 0.7922704815864563
vt 0.17499999701976776 0.945652186870575
vt 0.08500000089406967 0.945652186870575
vt 0.17499999701976776 0.7922704815864563
vt 0.125 0.9995005130767822
vt 0.25 0.945652186870575
vt 0.25 0.7922704815864563
vt 0.17499999701976776 0.945652186870575
vt 0.25 0.945652186870575
vt 0.08500000089406967 0.945652186870575
vt 0.08500000089406967 0.7922704815864563
vt 0.17499999701976776 0.7922704815864563
vt 0.25 0.7922704815864563
vt 0.08500000089406967 0
vt 0.17499999701976776 0.5350241661071777
vt 0.08500000089406967 0.5350241661071777
g Geoset0
s 1
usemtl 129353
f 1/1/1 2/2/2 3/3/3
f 4/4/4 5/5/5 6/6/6
f 4/4/4 7/7/7 5/5/5
f 7/7/7 8/8/8 5/5/5
f 7/7/7 9/9/9 8/8/8
f 10/10/10 11/11/11 12/12/12
f 10/10/10 13/13/13 11/11/11
f 12/12/12 11/11/11 14/14/14
f 11/11/11 15/15/15 14/14/14
f 13/13/13 15/15/15 11/11/11
f 13/13/13 16/16/16 15/15/15
f 17/17/17 18/18/18 14/14/14
f 19/19/19 17/17/17 14/14/14
f 20/20/20 17/17/17 19/19/19
f 20/20/20 21/21/21 17/17/17
f 21/21/21 18/18/18 17/17/17
f 21/21/21 22/22/22 18/18/18
f 23/23/23 24/24/24 25/25/25
f 23/23/23 1/1/1 24/24/24
f 1/1/1 3/3/3 24/24/24