# Exported using wow.export v0.1.9
o OrcFence
mtllib orcfence.mtl
v 0.8176290988922119 3.3950297832489014 0.9755900502204895
v 0.35744044184684753 3.4678070545196533 0.9351686835289001
v 0.38145124912261963 3.4855384826660156 1.3374661207199097
v 0.31980687379837036 2.8484504222869873 -0.8889842629432678
v 0.7634468674659729 2.77706241607666 -1.0141047239303589
v 0.6056195497512817 2.801679849624634 -1.3841780424118042
v 0.16197964549064636 2.8730671405792236 -1.259058952331543
v 0.3676547110080719 1.4697002172470093 -3.036714792251587
v 0.4404276907444 1.6175637245178223 3.012657642364502
v 0.1685953140258789 1.1964274644851685 3.0565669536590576
v 0.0958222821354866 1.048563838005066 -2.9928066730499268
v 0.04189636930823326 1.876619577407837 3.0300581455230713
v -0.030876530334353447 1.728756070137024 -3.0193142890930176
v 0.04189636930823326 1.876619577407837 3.0300581455230713
v -0.030876530334353447 1.728756070137024 -3.0193142890930176
v -0.3027089536190033 1.3076200485229492 -2.9754066467285156
v -0.22993595898151398 1.455483317375183 3.0739669799804688
v 0.0958222821354866 1.048563838005066 -2.9928066730499268
v 0.1685953140258789 1.1964274644851685 3.0565669536590576
v -0.2983604967594147 -0.2608844041824341 -3.7357029914855957
v -0.7359289526939392 1.5170879364013672 -3.011869192123413
v -0.2469518482685089 1.446928858757019 -3.587254524230957
v -0.923840343952179 -0.2608844041824341 -3.0030300617218018
v -0.19866424798965454 1.446928858757019 -2.481290578842163
v -0.23883411288261414 -0.2608844041824341 -2.372331380844116
v -0.23883411288261414 -0.2608844041824341 -2.372331380844116
v 0.4527870714664459 1.3466382026672363 -3.063769817352295
v -0.19866424798965454 1.446928858757019 -2.481290578842163
v 0.430802583694458 -0.2608844041824341 -3.0621752738952637
v -0.2469518482685089 1.446928858757019 -3.587254524230957
v -0.2983604967594147 -0.2608844041824341 -3.7357029914855957
v 0.35744044184684753 3.4678070545196533 0.9351686835289001
v -0.23518064618110657 -0.3243124186992645 1.0804979801177979
v -0.2111690789461136 -0.30658045411109924 1.4827953577041626
v 0.8176290988922119 3.3950297832489014 0.9755900502204895
v 0.22500868141651154 -0.3970898687839508 1.1209193468093872
v 0.22500868141651154 -0.3970898687839508 1.1209193468093872
v 0.8176290988922119 3.3950297832489014 0.9755900502204895
v 0.8416403532028198 3.4127609729766846 1.377887487411499
v 0.38145124912261963 3.4855384826660156 1.3374661207199097
v 0.24901968240737915 -0.37935787439346313 1.5232168436050415
v -0.19866424798965454 1.446928858757019 -2.481290578842163
v 0.8551434278488159 3.518223524093628 -2.9338831901550293
v 0.6056589484214783 3.674424886703491 -2.6858646869659424
v 0.4527870714664459 1.3466382026672363 -3.063769817352295
v 1.5307399034500122 4.685710430145264 -2.88415265083313
v 0.5807167887687683 3.646845579147339 -3.1782307624816895
v -0.2469518482685089 1.446928858757019 -3.587254524230957
v 0.4099351465702057 3.7602603435516357 -2.9307637214660645
v 0.6056589484214783 3.674424886703491 -2.6858646869659424
v 0.5807167887687683 3.646845579147339 -3.1782307624816895
v -0.2469518482685089 1.446928858757019 -3.587254524230957
v -0.7359289526939392 1.5170879364013672 -3.011869192123413
v -0.19866424798965454 1.446928858757019 -2.481290578842163
v -0.03170474246144295 -0.37376871705055237 -0.9250721335411072
v 0.4119354486465454 -0.4451565146446228 -1.0501914024353027
v 0.7634468674659729 2.77706241607666 -1.0141047239303589
v 0.31980687379837036 2.8484504222869873 -0.8889842629432678
v 0.16197964549064636 2.8730671405792236 -1.259058952331543
v -0.18953223526477814 -0.3491514027118683 -1.2951456308364868
v 0.6056195497512817 2.801679849624634 -1.3841780424118042
v 0.2541079521179199 -0.4205394387245178 -1.4202659130096436
v 0.7634468674659729 2.77706241607666 -1.0141047239303589
v 0.4119354486465454 -0.4451565146446228 -1.0501914024353027
v 0.8416403532028198 3.4127609729766846 1.377887487411499
vn 0.47064945101737976 0.5501273274421692 -0.6898180842399597
vn -0.7421969175338745 0.5342660546302795 -0.404602974653244
vn -0.2994787096977234 0.8757745027542114 0.37859147787094116
vn -0.1344992220401764 0.8241145014762878 0.5502229332923889
vn 0.8824276924133301 0.25168073177337646 0.39746472239494324
vn 0.22414544224739075 0.6277564167976379 -0.7454399466514587
vn -0.8437988758087158 0.5312930345535278 -0.0757041648030281
vn 0.977669894695282 0.2094673365354538 -0.016881180927157402
vn 0.977669894695282 0.209467351436615 -0.016881180927157402
vn 0.5088241696357727 -0.8607411980628967 0.014917833730578423
vn -0.11084886640310287 -0.9935070276260376 0.025617556646466255
vn -0.20980201661586761 0.9775103330612183 -0.021369190886616707
vn -0.20980195701122284 0.9775103330612183 -0.021369200199842453
vn -0.20980201661586761 0.9775103330612183 -0.021369190886616707
vn -0.20980195701122284 0.9775103330612183 -0.021369200199842453
vn -0.993923544883728 0.10968131572008133 0.009275811724364758
vn -0.8615202307701111 -0.50721275806427 0.02276163548231125
vn -0.11084886640310287 -0.9935070276260376 0.025617556646466255
vn 0.5088241696357727 -0.8607411980628967 0.014917833730578423
vn -0.37855327129364014 0.09048006683588028 -0.9211464524269104
vn -0.9597005248069763 0.2791002094745636 0.03283235803246498
vn -0.05714945122599602 0.18131543695926666 -0.9817630052566528
vn -0.9317343235015869 0.09481232613325119 0.35054492950439453
vn -0.015341405756771564 0.03266257792711258 0.9993487000465393
vn 0.31047704815864563 0.03726666793227196 0.9498500823974609
vn 0.31047704815864563 0.03726666793227196 0.9498500823974609
vn 0.9959874153137207 -0.07656795531511307 -0.04632960632443428
vn -0.015341405756771564 0.03266257792711258 0.9993487000465393
vn 0.9216881394386292 0.011691492050886154 -0.387755423784256
vn -0.05714945122599602 0.18131543695926666 -0.9817630052566528
vn -0.37855327129364014 0.09048006683588028 -0.9211464524269104
vn -0.7421969175338745 0.5342660546302795 -0.404602974653244
vn -0.39234957098960876 0.026078330352902412 -0.9194464087486267
vn -0.7064668536186218 0.13701501488685608 0.6943568587303162
vn 0.47064945101737976 0.5501273274421692 -0.6898180842399597
vn 0.8709390759468079 -0.15399110317230225 -0.4666388928890228
vn 0.8709390759468079 -0.15399110317230225 -0.4666388928890228
vn 0.47064945101737976 0.5501273274421692 -0.6898180842399597
vn 0.7041480541229248 0.27621081471443176 0.6541277170181274
vn -0.2994787096977234 0.8757745027542114 0.37859147787094116
vn 0.6907229423522949 -0.08040305227041245 0.718635618686676
vn -0.015341405756771564 0.03266257792711258 0.9993487000465393
vn 0.9229874610900879 -0.31590622663497925 0.21976669132709503
vn -0.18249619007110596 0.1948772817850113 0.9637001752853394
vn 0.9959874153137207 -0.07656795531511307 -0.04632960632443428
vn 0.1718512922525406 0.984893798828125 -0.021243879571557045
vn 0.17088660597801208 0.15020360052585602 -0.9737744331359863
vn -0.05714945122599602 0.18131543695926666 -0.9817630052566528
vn -0.7901026010513306 0.5924531817436218 -0.15728029608726501
vn -0.18249619007110596 0.1948772817850113 0.9637001752853394
vn 0.17088660597801208 0.15020360052585602 -0.9737744331359863
vn -0.05714945122599602 0.18131543695926666 -0.9817630052566528
vn -0.9597005248069763 0.2791002094745636 0.03283235803246498
vn -0.015341405756771564 0.03266257792711258 0.9993487000465393
vn -0.4300866723060608 0.03681579977273941 0.9020366072654724
vn 0.8962509036064148 -0.10260456800460815 0.4315166175365448
vn 0.8824276924133301 0.25168073177337646 0.39746472239494324
vn -0.1344992220401764 0.8241145014762878 0.5502229332923889
vn -0.8437988758087158 0.5312930345535278 -0.0757041648030281
vn -0.6838132739067078 0.08271633833646774 -0.7249534130096436
vn 0.22414544224739075 0.6277564167976379 -0.7454399466514587
vn 0.6633254289627075 -0.06401178985834122 -0.7455883026123047
vn 0.8824276924133301 0.25168073177337646 0.39746472239494324
vn 0.8962509036064148 -0.10260456800460815 0.4315166175365448
vn 0.7041480541229248 0.27621081471443176 0.6541277170181274
vt 0.3172247111797333 0.7584257125854492
vt 0.4380545914173126 0.7584257125854492
vt 0.4380545914173126 0.8792555332183838
vt 0.4158278703689575 0.8961352705955505
vt 0.3236629366874695 0.8961352705955505
vt 0.3236629366874695 0.7632850408554077
vt 0.4158278703689575 0.7632850408554077
vt 0.625 1.7698163986206055
vt 0.625 -0.43961358070373535
vt 0.5 -0.43961358070373535
vt 0.5 1.7698163986206055
vt 0.75 -0.43961358070373535
vt 0.75 1.7698163986206055
vt 0.75 -0.4385749101638794
vt 0.75 1.7774395942687988
vt 0.625 1.7774395942687988
vt 0.625 -0.4385749101638794
vt 0.5 1.7774395942687988
vt 0.5 -0.4385749101638794
vt 0.08500000089406967 0
vt 0.17499999701976776 0.5350241661071777
vt 0.08500000089406967 0.5350241661071777
vt 0.17499999701976776 0
vt 0.25 0.5350241661071777
vt 0.25 0
vt 0.08500000089406967 0
vt 0.17499999701976776 0.5350241661071777
vt 0.08500000089406967 0.5350241661071777
vt 0.17499999701976776 0
vt 0.25 0.5350241661071777
vt 0.25 0
vt 0.31168216466903687 1
vt 0.31168216466903687 0.060386478900909424
vt 0.37188252806663513 0.060386478900909424
vt 0.2514818012714386 1
vt 0.2514818012714386 0.060386478900909424
vt 0.4922832250595093 0.060386478900909424
vt 0.4922832250595093 1
vt 0.432082861661911 1
vt 0.37188252806663513 1
vt 0.432082861661911 0.060386478900909424
vt 0.08500000089406967 0.7922704815864563
vt 0.17499999701976776 0.945652186870575
vt 0.08500000089406967 0.945652186870575
vt 0.17499999701976776 0.7922704815864563
vt 0.125 0.9995005130767822
vt 0.25 0.945652186870575
vt 0.25 0.7922704815864563
vt 0.17499999701976776 0.945652186870575
vt 0.25 0.945652186870575
vt 0.08500000089406967 0.945652186870575
vt 0.08500000089406967 0.7922704815864563
vt 0.17499999701976776 0.7922704815864563
vt 0.25 0.7922704815864563
vt 0.4370281398296356 0
vt 0.4977077543735504 0
vt 0.4977077543735504 0.8587481379508972
vt 0.4370281398296356 0.8587481379508972
vt 0.3763485550880432 0.8587481379508972
vt 0.3763485550880432 0
vt 0.3156689405441284 0.8587481379508972
vt 0.3156689405441284 0
vt 0.2549893260002136 0.8587481379508972
vt 0.2549893260002136 0
vt 0.3172247111797333 0.8792555332183838
g Geoset0
s 1
usemtl 129353
f 1/1/1 2/2/2 3/3/3
f 4/4/4 5/5/5 6/6/6
f 6/6/6 7/7/7 4/4/4
f 8/8/8 9/9/9 10/10/10
f 10/10/10 11/11/11 8/8/8
f 12/12/12 9/9/9 8/8/8
f 8/8/8 13/13/13 12/12/12
f 14/14/14 15/15/15 16/16/16
f 16/16/16 17/17/17 14/14/14
f 17/17/17 16/16/16 18/18/18
f 18/18/18 19/19/19 17/17/17
f 20/20/20 21/21/21 22/22/22
f 20/20/20 23/23/23 21/21/21
f 23/23/23 24/24/24 21/21/21
f 23/23/23 25/25/25 24/24/24
f 26/26/26 27/27/27 28/28/28
f 26/26/26 29/29/29 27/27/27
f 29/29/29 30/30/30 27/27/27
f 29/29/29 31/31/31 30/30/30
f 32/32/32 33/33/33 34/34/34
f 33/33/33 32/32/32 35/35/35
f 35/35/35 36/36/36 33/33/33
f 37/37/37 38/38/38 39/39/39
f 34/34/34 40/40/40 32/32/32
f 39/39/39 40/40/40 34/34/34
f 34/34/34 41/41/41 39/39/39
f 39/39/39 41/41/41 37/37/37
f 42/42/42 43/43/43 44/44/44
f 42/42/42 45/45/45 43/43/43
f 44/44/44 43/43/43 46/46/46
f 43/43/43 47/47/47 46/46/46
f 45/45/45 47/47/47 43/43/43
f 45/45/45 48/48/48 47/47/47
f 49/49/49 50/50/50 46/46/46
f 51/51/51 49/49/49 46/46/46
f 52/52/52 49/49/49 51/51/51
f 52/52/52 53/53/53 49/49/49
f 53/53/53 50/50/50 49/49/49
f 53/53/53 54/54/54 50/50/50
f 55/55/55 56/56/56 57/57/57
f 57/57/57 58/58/58 55/55/55
f 55/55/55 58/58/58 59/59/59
f 59/59/59 60/60/60 55/55/55
f 60/60/60 59/59/59 61/61/61
f 61/61/61 62/62/62 60/60/60
f 62/62/62 61/61/61 63/63/63
f 63/63/63 64/64/64 62/62/62
f 3/3/3 65/65/65 1/1/1