# Exported using wow.export v0.1.9
o GnomeChair02
mtllib gnomechair02.mtl
v 0.3020017147064209 -0.010338139720261097 0.3946227431297302
v 0.30780965089797974 -0.010338123887777328 0.19110557436943054
v 0.5008338093757629 -0.010338096879422665 0.225916787981987
v 0.0731230154633522 -0.013888469897210598 -0.3478923439979553
v -0.11855700612068176 -0.013888522982597351 -0.17110241949558258
v -0.12958501279354095 -0.013888482935726643 -0.36693018674850464
v 0.09579489380121231 -0.013888481073081493 -0.1660967469215393
v 0.3020016551017761 -0.010338139720261097 -0.41592341661453247
v 0.5008337497711182 -0.010338100604712963 -0.24721738696098328
v 0.30780959129333496 -0.010338139720261097 -0.21240617334842682
v 0.4796792268753052 -0.01033809594810009 -0.46058163046836853
v -0.20672132074832916 0.48913246393203735 -0.028881413862109184
v -0.1645643413066864 0.5284574627876282 -0.009754398837685585
v -0.0688733458518982 0.32361871004104614 -0.06758955866098404
v -0.1341349184513092 0.29143616557121277 0.10111643373966217
v -0.2085040956735611 0.4891324043273926 0.0829411968588829
v -0.13089025020599365 0.2914361357688904 -0.10240072011947632
v -0.17105787992477417 0.5284574627876282 0.10747864842414856
v -0.08069155365228653 0.32361873984336853 0.1457746922969818
v -0.0688733458518982 0.32361871004104614 -0.06758955866098404
v -0.1645643413066864 0.5284574627876282 -0.009754398837685585
v -0.1341349184513092 0.29143616557121277 0.10111643373966217
v -0.08069155365228653 0.32361873984336853 0.1457746922969818
v -0.17105787992477417 0.5284574627876282 0.10747864842414856
v -0.2085040956735611 0.4891324043273926 0.0829411968588829
v 0.34825599193573 0.36826130747795105 -0.231247216463089
v 0.3020016551017761 -0.010338139720261097 -0.41592341661453247
v 0.30780959129333496 -0.010338139720261097 -0.21240617334842682
v 0.5008337497711182 -0.010338100604712963 -0.24721738696098328
v 0.4543132185935974 0.36826127767562866 -0.2503742575645447
v 0.34506481885910034 0.36826130747795105 -0.3430699110031128
v 0.5008337497711182 -0.010338100604712963 -0.24721738696098328
v 0.44268983602523804 0.36826130747795105 -0.36760735511779785
v 0.4796792268753052 -0.01033809594810009 -0.46058163046836853
v 0.3020016551017761 -0.010338139720261097 -0.41592341661453247
v 0.07312300056219101 -0.013888499699532986 0.32659170031547546
v -0.11855704337358475 -0.013888499699532986 0.1498018056154251
v 0.09579490125179291 -0.013888483867049217 0.14479613304138184
v -0.12958499789237976 -0.013888494111597538 0.34562960267066956
v 0.07312300056219101 -0.013888499699532986 0.32659170031547546
v 0.06515614688396454 0.3647109568119049 0.29272812604904175
v -0.04622187092900276 0.3647109270095825 0.3031885027885437
v -0.12958499789237976 -0.013888494111597538 0.34562960267066956
v -0.11855704337358475 -0.013888499699532986 0.1498018056154251
v -0.04016254469752312 0.3647109270095825 0.1955908089876175
v 0.0776132345199585 0.3647109270095825 0.19284041225910187
v 0.07312300056219101 -0.013888499699532986 0.32659170031547546
v -0.11855704337358475 -0.013888499699532986 0.1498018056154251
v 0.09579490125179291 -0.013888483867049217 0.14479613304138184
v -0.046221889555454254 0.3647109270095825 -0.3244890868663788
v 0.0731230154633522 -0.013888469897210598 -0.3478923439979553
v -0.12958501279354095 -0.013888482935726643 -0.36693018674850464
v -0.11855700612068176 -0.013888522982597351 -0.17110241949558258
v -0.040162552148103714 0.36471089720726013 -0.21689140796661377
v 0.06515616923570633 0.36471089720726013 -0.3140287399291992
v -0.11855700612068176 -0.013888522982597351 -0.17110241949558258
v 0.07761327177286148 0.36471089720726013 -0.21414102613925934
v 0.09579489380121231 -0.013888481073081493 -0.1660967469215393
v 0.0731230154633522 -0.013888469897210598 -0.3478923439979553
v 0.3020017147064209 -0.010338139720261097 0.3946227431297302
v 0.3450648784637451 0.3682612478733063 0.32176923751831055
v 0.34825605154037476 0.36826127767562866 0.2099466323852539
v 0.30780965089797974 -0.010338123887777328 0.19110557436943054
v 0.5008338093757629 -0.010338096879422665 0.225916787981987
v 0.4543132781982422 0.36826127767562866 0.2290736585855484
v 0.4426899254322052 0.36826127767562866 0.3463067412376404
v 0.3020017147064209 -0.010338139720261097 0.3946227431297302
v 0.5008338093757629 -0.010338096879422665 0.225916787981987
v 0.4796792268753052 -0.01033810991793871 0.43928098678588867
v 0.45303234457969666 0.3360036313533783 0.4119608998298645
v 0.4762282967567444 0.2888137400150299 0.014965127222239971
v 0.5837439894676208 0.2889518737792969 0.013782870955765247
v 0.5433694124221802 0.41361090540885925 0.03702046722173691
v 0.5179579257965088 0.5004868507385254 0.380582720041275
v 0.43642693758010864 0.4134727716445923 0.03780483081936836
v 0.45583608746528625 0.48490890860557556 -0.35398292541503906
v 0.5000499486923218 0.3364960551261902 -0.39273801445961
v -0.07063445448875427 0.48490890860557556 -0.317995548248291
v -0.1154446080327034 0.3364960253238678 -0.3476685583591461
v -0.09352672845125198 0.4134728014469147 0.05050986260175705
v -0.1761384755373001 0.23299935460090637 0.0304717980325222
v -0.05505196750164032 0.3360036015510559 0.3824717402458191
v 0.4197055697441101 0.5003488063812256 0.3753349184989929
v 0.5503919720649719 0.3361417353153229 0.4178283214569092
v -0.02230408415198326 0.5003487467765808 0.35269391536712646
v -0.6070325970649719 1.0988705158233643 0.4605817198753357
v -0.4454602599143982 1.1247057914733887 0.38604092597961426
v -0.4578568637371063 1.1597124338150024 0.22786977887153625
v -0.26693710684776306 0.9199873805046082 0.18223890662193298
v -0.481709748506546 1.2055336236953735 -0.1709485948085785
v -0.2604498267173767 0.9075254797935486 -0.1709485948085785
v -0.31318172812461853 1.0156081914901733 -0.3594493567943573
v -0.37356534600257874 0.9513642191886902 -0.40220406651496887
v -0.6308854818344116 1.1446914672851562 -0.40220406651496887
v -0.15574660897254944 0.5483919382095337 0.20874343812465668
v -0.14416146278381348 0.4914490282535553 -0.19019950926303864
v -0.3783724308013916 0.7828363180160522 -0.21433301270008087
v -0.27969804406166077 0.3537128269672394 -0.23454649746418
v -0.2865171730518341 0.38722988963127136 0.27859625220298767
v -0.37399670481681824 0.774430513381958 0.2510608434677124
v -0.2893836498260498 0.9698925018310547 0.3909429609775543
v -0.4085882306098938 0.863486111164093 0.4605816900730133
v -0.63045334815979 1.1172798871994019 0.2727107107639313
v -0.6543062329292297 1.1631009578704834 -0.21433304250240326
v -0.4740981459617615 1.1797186136245728 -0.3594493865966797
v 0.4796792268753052 -0.01033810991793871 0.43928098678588867
vn -0.7323402166366577 -0.4058499336242676 0.5467756390571594
vn -0.523230791091919 -0.5527324080467224 -0.6486265659332275
vn 0.6885654330253601 -0.5019370317459106 -0.5233897566795349
vn 0.6073834300041199 -0.4912129342556 -0.6243358254432678
vn -0.6272786855697632 -0.4182046055793762 0.6569827795028687
vn -0.60267174243927 -0.4779743552207947 -0.6390048861503601
vn 0.6248335838317871 -0.5439823865890503 0.5600590705871582
vn -0.7323399782180786 -0.40584996342658997 -0.5467759966850281
vn 0.6885654926300049 -0.5019370317459106 0.5233897566795349
vn -0.5232307314872742 -0.552732527256012 0.6486265063285828
vn 0.5165895819664001 -0.46167802810668945 -0.7211023569107056
vn -0.6280843019485474 0.017162997275590897 -0.7779560089111328
vn 0.6682170033454895 0.47404980659484863 -0.5733784437179565
vn 0.6905474662780762 0.4900578558444977 -0.5319657325744629
vn -0.8422977328300476 -0.2630409598350525 0.470472127199173
vn -0.8229076862335205 -0.2632713317871094 0.503498911857605
vn -0.6039393544197083 0.06379349529743195 -0.7944731712341309
vn 0.3726327121257782 0.3023853302001953 0.8773300051689148
vn 0.3312405049800873 0.3125714957714081 0.8902689218521118
vn 0.6905474662780762 0.4900578558444977 -0.5319657325744629
vn 0.6682170033454895 0.47404980659484863 -0.5733784437179565
vn -0.8422977328300476 -0.2630409598350525 0.470472127199173
vn 0.3312405049800873 0.3125714957714081 0.8902689218521118
vn 0.3726327121257782 0.3023853302001953 0.8773300051689148
vn -0.8229076862335205 -0.2632713317871094 0.503498911857605
vn -0.6243724822998047 0.10522135347127914 0.7740074396133423
vn -0.7323399782180786 -0.40584996342658997 -0.5467759966850281
vn -0.5232307314872742 -0.552732527256012 0.6486265063285828
vn 0.6885654926300049 -0.5019370317459106 0.5233897566795349
vn 0.7919384837150574 0.10232905298471451 0.6019652485847473
vn -0.7847795486450195 0.2020130306482315 -0.5859281420707703
vn 0.6885654926300049 -0.5019370317459106 0.5233897566795349
vn 0.5641039609909058 0.24848507344722748 -0.7874273657798767
vn 0.5165895819664001 -0.46167802810668945 -0.7211023569107056
vn -0.7323399782180786 -0.40584996342658997 -0.5467759966850281
vn 0.6073834300041199 -0.49121296405792236 0.624335765838623
vn -0.6272788047790527 -0.41820451617240906 -0.6569827198982239
vn 0.6248335838317871 -0.5439823269844055 -0.5600590705871582
vn -0.60267174243927 -0.47797438502311707 0.6390049457550049
vn 0.6073834300041199 -0.49121296405792236 0.624335765838623
vn 0.6951546669006348 0.0785411149263382 0.7145566940307617
vn -0.6682783365249634 0.2265775054693222 0.7085666656494141
vn -0.60267174243927 -0.47797438502311707 0.6390049457550049
vn -0.6272788047790527 -0.41820451617240906 -0.6569827198982239
vn -0.6729273200035095 0.22457920014858246 -0.7047929167747498
vn 0.7393056154251099 0.11959614604711533 -0.6626642942428589
vn 0.6073834300041199 -0.49121296405792236 0.624335765838623
vn -0.6272788047790527 -0.41820451617240906 -0.6569827198982239
vn 0.6248335838317871 -0.5439823269844055 -0.5600590705871582
vn -0.6682783961296082 0.2265775501728058 -0.7085666060447693
vn 0.6073834300041199 -0.4912129342556 -0.6243358254432678
vn -0.60267174243927 -0.4779743552207947 -0.6390048861503601
vn -0.6272786855697632 -0.4182046055793762 0.6569827795028687
vn -0.6729273200035095 0.2245791107416153 0.7047929167747498
vn 0.6951545476913452 0.07854117453098297 -0.7145568132400513
vn -0.6272786855697632 -0.4182046055793762 0.6569827795028687
vn 0.7393056154251099 0.11959613114595413 0.6626642942428589
vn 0.6248335838317871 -0.5439823865890503 0.5600590705871582
vn 0.6073834300041199 -0.4912129342556 -0.6243358254432678
vn -0.7323402166366577 -0.4058499336242676 0.5467756390571594
vn -0.7847797870635986 0.2020130157470703 0.5859278440475464
vn -0.6243724226951599 0.10522135347127914 -0.7740074992179871
vn -0.523230791091919 -0.5527324080467224 -0.6486265659332275
vn 0.6885654330253601 -0.5019370317459106 -0.5233897566795349
vn 0.7919384241104126 0.10232897102832794 -0.6019653677940369
vn 0.564103901386261 0.2484850287437439 0.7874274849891663
vn -0.7323402166366577 -0.4058499336242676 0.5467756390571594
vn 0.6885654330253601 -0.5019370317459106 -0.5233897566795349
vn 0.5165895223617554 -0.4616781175136566 0.7211023569107056
vn -0.010959171690046787 -0.8048245310783386 0.5934116840362549
vn 0.4972165822982788 -0.7342373728752136 -0.46224579215049744
vn 0.7931646704673767 -0.5352012515068054 -0.29060184955596924
vn 0.31923702359199524 0.5621786117553711 -0.7629173398017883
vn 0.5699912905693054 0.8058119416236877 0.16055239737033844
vn 0.14914095401763916 0.9608027935028076 -0.2336985319852829
vn 0.7057175040245056 0.6704224944114685 -0.22912120819091797
vn 0.37829580903053284 -0.129966601729393 -0.9165156483650208
vn -0.32554197311401367 0.8168764114379883 -0.47616738080978394
vn -0.7354227304458618 -0.4067685902118683 -0.5419342517852783
vn -0.7515983581542969 0.6578471660614014 0.04834230616688728
vn -0.6152552962303162 -0.7792828679084778 0.11907601356506348
vn -0.6064000725746155 0.014423420652747154 0.7950288653373718
vn -0.044202741235494614 0.6264215111732483 0.7782301902770996
vn 0.3702520728111267 -0.15978673100471497 0.9150855541229248
vn -0.3837643563747406 0.8925573825836182 0.2367831915616989
vn -0.3111533224582672 0.7481433749198914 0.5860589742660522
vn 0.5057621002197266 0.7097489237785339 0.49036839604377747
vn 0.15927749872207642 0.9789230227470398 0.1278296560049057
vn 0.886297881603241 0.4210447371006012 0.19286635518074036
vn 0.5100175142288208 0.860103964805603 0.010165608488023281
vn 0.8825681209564209 0.1613265722990036 -0.44164153933525085
vn 0.7186010479927063 0.370439738035202 -0.5885464549064636
vn 0.42724016308784485 -0.4156056344509125 -0.802955687046051
vn -0.3567429184913635 0.1081024557352066 -0.9279268980026245
vn 0.8643335103988647 0.06905665993690491 0.4981553256511688
vn 0.9069478511810303 -0.31673938035964966 -0.27770811319351196
vn -0.7077606320381165 -0.5983029007911682 -0.37564414739608765
vn 0.0923227071762085 -0.35954707860946655 -0.9285485744476318
vn -0.06460100412368774 -0.8227608799934387 0.5647045373916626
vn -0.0952065959572792 -0.6484749913215637 0.7552587985992432
vn 0.8747018575668335 -0.0294252447783947 0.4837673306465149
vn -0.07547932863235474 -0.46380531787872314 0.8827160000801086
vn -0.9860200881958008 -0.1339651644229889 0.09908444434404373
vn -0.677314817905426 0.7352755069732666 -0.02479088306427002
vn 0.16942787170410156 0.8990640640258789 -0.4037054181098938
vn 0.5165895223617554 -0.4616781175136566 0.7211023569107056
vt 0.21473664045333862 0.4293045401573181
vt 0.19763138890266418 0.34018802642822266
vt 0.42507660388946533 0.3342996835708618
vt 0.21473664045333862 0.4293045401573181
vt 0.42507660388946533 0.3342996835708618
vt 0.19763138890266418 0.34018802642822266
vt 0.4364539384841919 0.42918139696121216
vt 0.21473664045333862 0.4293045401573181
vt 0.42507660388946533 0.3342996835708618
vt 0.19763138890266418 0.34018802642822266
vt 0.4364539384841919 0.42918139696121216
vt 0.17671799659729004 0.4601283073425293
vt 0.39497047662734985 0.45972180366516113
vt 0.4034872353076935 0.5992814302444458
vt 0.40535715222358704 0.5993466973304749
vt 0.3968403935432434 0.45978713035583496
vt 0.18523485958576202 0.5996880531311035
vt 0.17671799659729004 0.4601283073425293
vt 0.18523485958576202 0.5996880531311035
vt 0.40535715222358704 0.5993466973304749
vt 0.3968403935432434 0.45978713035583496
vt 0.4083181321620941 0.5992814898490906
vt 0.18523485958576202 0.6021035313606262
vt 0.17671805620193481 0.45771288871765137
vt 0.3998013734817505 0.4548908472061157
vt 0.5001305937767029 0.24349814653396606
vt 0.24733686447143555 0.007661402225494385
vt 0.4916137456893921 0.009735524654388428
vt 0.2492067813873291 0.0077266693115234375
vt 0.2577235698699951 0.2414892315864563
vt 0.2558535933494568 0.24142390489578247
vt 0.26526057720184326 0.007661402225494385
vt 0.012466847896575928 0.24349814653396606
vt 0.020983656868338585 0.009735524654388428
vt 0.26339060068130493 0.0077266693115234375
vt 0.21473664045333862 0.4293045401573181
vt 0.42507660388946533 0.3342996835708618
vt 0.4364539384841919 0.42918139696121216
vt 0.19763138890266418 0.34018802642822266
vt 0.265463650226593 0.015415668487548828
vt 0.25674381852149963 0.24142390489578247
vt 0.012466847896575928 0.24349814653396606
vt 0.02118672989308834 0.017489850521087646
vt 0.2635936737060547 0.015480995178222656
vt 0.2548738420009613 0.2414892315864563
vt 0.5001305937767029 0.24349814653396606
vt 0.24900376796722412 0.015480995178222656
vt 0.24713373184204102 0.015415668487548828
vt 0.49141067266464233 0.017489850521087646
vt 0.012466847896575928 0.24349814653396606
vt 0.265463650226593 0.015415668487548828
vt 0.02118672989308834 0.017489850521087646
vt 0.2635936737060547 0.015480995178222656
vt 0.2548738420009613 0.2414892315864563
vt 0.25674381852149963 0.24142390489578247
vt 0.24713373184204102 0.015415668487548828
vt 0.5001305937767029 0.24349814653396606
vt 0.49141067266464233 0.017489850521087646
vt 0.24900376796722412 0.015480995178222656
vt 0.24733686447143555 0.007661402225494385
vt 0.2558535933494568 0.24142390489578247
vt 0.5001305937767029 0.24349814653396606
vt 0.4916137456893921 0.009735524654388428
vt 0.2492067813873291 0.0077266693115234375
vt 0.2577235698699951 0.2414892315864563
vt 0.012466847896575928 0.24349814653396606
vt 0.26339060068130493 0.0077266693115234375
vt 0.26526057720184326 0.007661402225494385
vt 0.020983656868338585 0.009735524654388428
vt 0.006475155241787434 0.7230662107467651
vt 0.565739095211029 0.6222628951072693
vt 0.5429872870445251 0.5365254878997803
vt 0.45966076850891113 0.571179986000061
vt 0.07762522995471954 0.584470808506012
vt 0.46894779801368713 0.6658599972724915
vt 0.9202492237091064 0.6797023415565491
vt 0.9914247989654541 0.6345288157463074
vt 0.9305103421211243 0.9660935997962952
vt 0.9993107318878174 0.988585352897644
vt 0.4776175618171692 0.9565587639808655
vt 0.49387800693511963 0.998524010181427
vt 0.015585476532578468 0.9959196448326111
vt 0.056943513453006744 0.7321809530258179
vt 0.01653333008289337 0.5433129072189331
vt 0.05889333039522171 0.9744821190834045
vt 0.9783823490142822 0.6181698441505432
vt 0.9338472485542297 0.5820413827896118
vt 0.9294549226760864 0.45386600494384766
vt 0.6147543787956238 0.4880583882331848
vt 0.9078169465065002 0.310407817363739
vt 0.6003085374832153 0.29581040143966675
vt 0.6483656764030457 0.2283487319946289
vt 0.5587390065193176 0.1818038821220398
vt 0.9971286058425903 0.17563730478286743
vt 0.08567313849925995 0.4748978614807129
vt 0.09614726901054382 0.30135905742645264
vt 0.5451459884643555 0.25920557975769043
vt 0.0027726460248231888 0.2570713758468628
vt 0.017476528882980347 0.5326434969902039
vt 0.5662392973899841 0.5194079279899597
vt 0.6405339241027832 0.5872179269790649
vt 0.5897549390792847 0.6173050403594971
vt 0.9831534624099731 0.4940711259841919
vt 0.9893220067024231 0.2767364978790283
vt 0.9306960105895996 0.2226313352584839
vt 0.4364539384841919 0.42918139696121216
g Geoset0
s 1
usemtl 197666
f 1/1/1 2/2/2 3/3/3
f 4/4/4 5/5/5 6/6/6
f 4/4/4 7/7/7 5/5/5
f 8/8/8 9/9/9 10/10/10
f 8/8/8 11/11/11 9/9/9
f 12/12/12 13/13/13 14/14/14
f 15/15/15 16/16/16 12/12/12
f 12/12/12 17/17/17 15/15/15
f 14/14/14 17/17/17 12/12/12
f 18/18/18 19/19/19 20/20/20
f 20/20/20 21/21/21 18/18/18
f 22/22/22 23/23/23 24/24/24
f 24/24/24 25/25/25 22/22/22
f 26/26/26 27/27/27 28/28/28
f 29/29/29 26/26/26 28/28/28
f 26/26/26 29/29/29 30/30/30
f 27/27/27 26/26/26 31/31/31
f 32/32/32 33/33/33 30/30/30
f 33/33/33 32/32/32 34/34/34
f 35/35/35 33/33/33 34/34/34
f 33/33/33 35/35/35 31/31/31
f 36/36/36 37/37/37 38/38/38
f 36/36/36 39/39/39 37/37/37
f 40/40/40 41/41/41 42/42/42
f 42/42/42 43/43/43 40/40/40
f 44/44/44 43/43/43 42/42/42
f 42/42/42 45/45/45 44/44/44
f 46/46/46 41/41/41 47/47/47
f 48/48/48 45/45/45 46/46/46
f 46/46/46 49/49/49 48/48/48
f 47/47/47 49/49/49 46/46/46
f 50/50/50 51/51/51 52/52/52
f 53/53/53 50/50/50 52/52/52
f 50/50/50 53/53/53 54/54/54
f 51/51/51 50/50/50 55/55/55
f 56/56/56 57/57/57 54/54/54
f 57/57/57 56/56/56 58/58/58
f 59/59/59 57/57/57 58/58/58
f 57/57/57 59/59/59 55/55/55
f 60/60/60 61/61/61 62/62/62
f 62/62/62 63/63/63 60/60/60
f 64/64/64 63/63/63 62/62/62
f 62/62/62 65/65/65 64/64/64
f 66/66/66 61/61/61 67/67/67
f 68/68/68 65/65/65 66/66/66
f 66/66/66 69/69/69 68/68/68
f 67/67/67 69/69/69 66/66/66
f 70/70/70 71/71/71 72/72/72
f 73/73/73 72/72/72 71/71/71
f 72/72/72 73/73/73 74/74/74
f 74/74/74 73/73/73 75/75/75
f 71/71/71 75/75/75 73/73/73
f 76/76/76 75/75/75 71/71/71
f 71/71/71 77/77/77 76/76/76
f 78/78/78 76/76/76 77/77/77
f 77/77/77 79/79/79 78/78/78
f 80/80/80 78/78/78 79/79/79
f 79/79/79 81/81/81 80/80/80
f 80/80/80 81/81/81 82/82/82
f 83/83/83 70/70/70 84/84/84
f 72/72/72 84/84/84 70/70/70
f 74/74/74 84/84/84 72/72/72
f 84/84/84 74/74/74 83/83/83
f 75/75/75 83/83/83 74/74/74
f 75/75/75 76/76/76 78/78/78
f 82/82/82 85/85/85 80/80/80
f 78/78/78 80/80/80 75/75/75
f 75/75/75 80/80/80 85/85/85
f 85/85/85 83/83/83 75/75/75
f 83/83/83 85/85/85 82/82/82
f 82/82/82 70/70/70 83/83/83
f 70/70/70 82/82/82 81/81/81
f 81/81/81 71/71/71 70/70/70
f 71/71/71 81/81/81 79/79/79
f 79/79/79 77/77/77 71/71/71
f 86/86/86 87/87/87 88/88/88
f 89/89/89 88/88/88 87/87/87
f 90/90/90 88/88/88 89/89/89
f 89/89/89 91/91/91 90/90/90
f 90/90/90 91/91/91 92/92/92
f 93/93/93 92/92/92 91/91/91
f 92/92/92 93/93/93 94/94/94
f 91/91/91 89/89/89 95/95/95
f 95/95/95 96/96/96 91/91/91
f 94/94/94 93/93/93 97/97/97
f 91/91/91 97/97/97 93/93/93
f 98/98/98 97/97/97 91/91/91
f 91/91/91 96/96/96 98/98/98
f 99/99/99 98/98/98 96/96/96
f 96/96/96 95/95/95 99/99/99
f 100/100/100 99/99/99 95/95/95
f 95/95/95 89/89/89 100/100/100
f 97/97/97 98/98/98 99/99/99
f 99/99/99 100/100/100 97/97/97
f 101/101/101 102/102/102 100/100/100
f 103/103/103 100/100/100 102/102/102
f 97/97/97 100/100/100 103/103/103
f 103/103/103 104/104/104 97/97/97
f 97/97/97 104/104/104 94/94/94
f 105/105/105 94/94/94 104/104/104
f 94/94/94 105/105/105 92/92/92
f 100/100/100 89/89/89 101/101/101
f 87/87/87 101/101/101 89/89/89
f 102/102/102 101/101/101 87/87/87
f 87/87/87 86/86/86 102/102/102
f 102/102/102 86/86/86 103/103/103
f 88/88/88 103/103/103 86/86/86
f 104/104/104 103/103/103 88/88/88
f 88/88/88 90/90/90 104/104/104
f 104/104/104 90/90/90 105/105/105
f 92/92/92 105/105/105 90/90/90
f 1/1/1 3/3/3 106/106/106