# Exported using wow.export v0.1.9
o GnomeChair03
mtllib gnomechair03.mtl
v 0.14116767048835754 0.1081124097108841 0.18491439521312714
v 0.2572716772556305 -0.13527809083461761 0.250976026058197
v 0.24296613037586212 0.09564357995986938 0.18404246866703033
v 0.14116767048835754 0.1081124097108841 0.18491439521312714
v 0.09188976138830185 -0.13497395813465118 0.2523925304412842
v 0.2572716772556305 -0.13527809083461761 0.250976026058197
v 0.16358837485313416 0.07390083372592926 0.11660788208246231
v 0.13687455654144287 0.32202357053756714 0.14535298943519592
v 0.12991781532764435 0.3257272243499756 -0.05809451639652252
v 0.1603972166776657 0.07682806253433228 0.004823687020689249
v 0.16358837485313416 0.07390083372592926 0.11660788208246231
v 0.2696455717086792 0.07440148293972015 0.0974874272942543
v 0.32352226972579956 0.3712351322174072 0.11055377870798111
v 0.13687455654144287 0.32202357053756714 0.14535298943519592
v 0.2580222189426422 0.0774703398346901 -0.01970546506345272
v 0.30164310336112976 0.3713458180427551 -0.10273745656013489
v 0.32352226972579956 0.3712351322174072 0.11055377870798111
v 0.2696455717086792 0.07440148293972015 0.0974874272942543
v 0.2580222189426422 0.0774703398346901 -0.01970546506345272
v 0.1603972166776657 0.07682806253433228 0.004823687020689249
v 0.12991781532764435 0.3257272243499756 -0.05809451639652252
v 0.30164310336112976 0.3713458180427551 -0.10273745656013489
v 0.5265809893608093 0.40452441573143005 -0.3882319927215576
v 0.461941659450531 0.5081866383552551 -0.31439247727394104
v 0.4619418680667877 0.4535169005393982 0.269029825925827
v 0.5265811085700989 0.34744852781295776 0.3654565215110779
v 0.1824156939983368 0.5122693181037903 -0.33059456944465637
v -0.0954451858997345 0.5028262138366699 -0.2764657437801361
v -0.06621668487787247 0.4769148826599121 0.3170003294944763
v 0.21164429187774658 0.5019606947898865 0.3746081590652466
v 0.461941659450531 0.5081866383552551 -0.31439247727394104
v 0.4619418680667877 0.4535169005393982 0.269029825925827
v -0.0954451858997345 0.5028262138366699 -0.2764657437801361
v -0.156142920255661 0.3610491156578064 -0.3410395681858063
v -0.12691430747509003 0.32969537377357483 0.3770783841609955
v -0.06621668487787247 0.4769148826599121 0.3170003294944763
v -0.02505291998386383 -0.13446106016635895 -0.030357887968420982
v 0.09188969433307648 -0.1345527023077011 -0.148893341422081
v 0.2572716474533081 -0.13485682010650635 -0.15030987560749054
v 0.3742142915725708 -0.13519522547721863 -0.03377755731344223
v 0.09188976138830185 -0.13497395813465118 0.2523925304412842
v -0.025052938610315323 -0.1346355527639389 0.13586026430130005
v 0.2572716772556305 -0.13527809083461761 0.250976026058197
v 0.37421438097953796 -0.13536971807479858 0.1324405074119568
v 0.21334417164325714 0.3344566524028778 -0.41914522647857666
v 0.5265809893608093 0.40452441573143005 -0.3882319927215576
v 0.5265811085700989 0.34744852781295776 0.3654565215110779
v 0.24257265031337738 0.32197305560112 0.43484920263290405
v -0.156142920255661 0.3610491156578064 -0.3410395681858063
v -0.12691430747509003 0.32969537377357483 0.3770783841609955
v 0.1824156939983368 0.5122693181037903 -0.33059456944465637
v 0.461941659450531 0.5081866383552551 -0.31439247727394104
v 0.5265809893608093 0.40452441573143005 -0.3882319927215576
v 0.21334417164325714 0.3344566524028778 -0.41914522647857666
v -0.0954451858997345 0.5028262138366699 -0.2764657437801361
v -0.156142920255661 0.3610491156578064 -0.3410395681858063
v -0.06621668487787247 0.4769148826599121 0.3170003294944763
v -0.12691430747509003 0.32969537377357483 0.3770783841609955
v 0.24257265031337738 0.32197305560112 0.43484920263290405
v 0.21164429187774658 0.5019606947898865 0.3746081590652466
v 0.5265811085700989 0.34744852781295776 0.3654565215110779
v 0.4619418680667877 0.4535169005393982 0.269029825925827
v 0.14116767048835754 0.12538473308086395 -0.06209132447838783
v 0.14116767048835754 0.1081124097108841 0.18491439521312714
v 0.24296613037586212 0.09564357995986938 0.18404246866703033
v 0.06918530911207199 0.12198814004659653 0.1131846010684967
v 0.0691852942109108 0.12914256751537323 0.010871569626033306
v 0.3149484395980835 0.099040187895298 0.00876658409833908
v 0.24296613037586212 0.11291591078042984 -0.06296316534280777
v 0.3149484694004059 0.09188574552536011 0.11107967048883438
v 0.2572716772556305 -0.13527809083461761 0.250976026058197
v 0.3149484694004059 0.09188574552536011 0.11107967048883438
v 0.24296613037586212 0.09564357995986938 0.18404246866703033
v 0.37421438097953796 -0.13536971807479858 0.1324405074119568
v 0.3149484395980835 0.099040187895298 0.00876658409833908
v 0.3742142915725708 -0.13519522547721863 -0.03377755731344223
v 0.24296613037586212 0.11291591078042984 -0.06296316534280777
v 0.2572716474533081 -0.13485682010650635 -0.15030987560749054
v 0.14116767048835754 0.12538473308086395 -0.06209132447838783
v 0.09188969433307648 -0.1345527023077011 -0.148893341422081
v 0.0691852942109108 0.12914256751537323 0.010871569626033306
v -0.02505291998386383 -0.13446106016635895 -0.030357887968420982
v 0.06918530911207199 0.12198814004659653 0.1131846010684967
v -0.025052938610315323 -0.1346355527639389 0.13586026430130005
v 0.14116767048835754 0.1081124097108841 0.18491439521312714
v 0.09188976138830185 -0.13497395813465118 0.2523925304412842
vn 0.04257948696613312 0.28057509660720825 0.9588871598243713
vn 0.04257948696613312 0.28057509660720825 0.9588871598243713
vn 0.04257948696613312 0.28057509660720825 0.9588871598243713
vn 0.00874527171254158 0.2658184766769409 0.963983416557312
vn 0.00874527171254158 0.2658184766769409 0.963983416557312
vn 0.00874527171254158 0.2658184766769409 0.963983416557312
vn -0.6159601807594299 -0.15056833624839783 0.7732543349266052
vn -0.6088668704032898 -0.15566694736480713 0.7778489589691162
vn -0.7729905843734741 -0.23574607074260712 -0.5889901518821716
vn -0.7791913747787476 -0.24161472916603088 -0.5783451795578003
vn -0.6159601807594299 -0.15056833624839783 0.7732543349266052
vn 0.784636914730072 -0.16867569088935852 0.5965680480003357
vn 0.7884753346443176 -0.17279532551765442 0.5902951955795288
vn -0.6088668704032898 -0.15566694736480713 0.7778489589691162
vn 0.5640007257461548 -0.3123336434364319 -0.764428436756134
vn 0.5751521587371826 -0.3003602623939514 -0.7609097957611084
vn 0.7884753346443176 -0.17279532551765442 0.5902951955795288
vn 0.784636914730072 -0.16867569088935852 0.5965680480003357
vn 0.5640007257461548 -0.3123336434364319 -0.764428436756134
vn -0.7791913747787476 -0.24161472916603088 -0.5783451795578003
vn -0.7729905843734741 -0.23574607074260712 -0.5889901518821716
vn 0.5751521587371826 -0.3003602623939514 -0.7609097957611084
vn 0.8494613170623779 0.5257838368415833 0.04434901848435402
vn 0.8623611927032471 0.50408536195755 0.04723508283495903
vn 0.8494613170623779 0.5257838368415833 0.04434901848435402
vn 0.8360130786895752 0.5471429228782654 0.041434336453676224
vn -0.03502548113465309 0.9990533590316772 0.02580002136528492
vn -0.025204002857208252 0.9986760020256042 0.04484444484114647
vn -0.059415966272354126 0.9977312088012695 0.03165780007839203
vn 0.049234118312597275 0.9979240894317627 0.041515231132507324
vn 0.12070326507091522 0.991283118724823 0.052805930376052856
vn 0.22604772448539734 0.9698675274848938 0.09088153392076492
vn -0.9201602339744568 0.3871830701828003 0.05826186016201973
vn -0.9266127943992615 0.3721247911453247 0.05396205931901932
vn -0.9201602339744568 0.3871830701828003 0.05826186016201973
vn -0.9134436845779419 0.4021303057670593 0.06254494935274124
vn -0.0018477682024240494 -0.9999977350234985 -0.0010497660841792822
vn -0.0018478474812582135 -0.9999977350234985 -0.0010498634073883295
vn -0.0018478176789358258 -0.9999977350234985 -0.0010497849434614182
vn -0.0018477857811376452 -0.9999977350234985 -0.001049688900820911
vn -0.0018477552803233266 -0.9999977350234985 -0.0010497479233890772
vn -0.0018476106924936175 -0.9999977350234985 -0.0010497989133000374
vn -0.0018478014972060919 -0.9999977350234985 -0.0010497876210138202
vn -0.001847740146331489 -0.9999977350234985 -0.001049777609296143
vn 0.07909289747476578 -0.9962652325630188 -0.034638915210962296
vn 0.2246132493019104 -0.9716657996177673 -0.07358307391405106
vn 0.1553034484386444 -0.9868109226226807 -0.04566171392798424
vn -0.0011255460558459163 -0.9997056126594543 -0.024237388744950294
vn -0.044255331158638 -0.998640239238739 -0.027552464976906776
vn -0.014149139635264874 -0.9989731311798096 -0.04304024949669838
vn -0.04837799072265625 0.4906511902809143 -0.8700120449066162
vn 0.054971493780612946 0.6018077731132507 -0.7967468500137329
vn 0.022114934399724007 0.5255853533744812 -0.8504533767700195
vn -0.11705204844474792 0.44086122512817383 -0.8899102210998535
vn -0.16963136196136475 0.4373093843460083 -0.8831679821014404
vn -0.1513558030128479 0.46265366673469543 -0.8735233545303345
vn -0.17589737474918365 0.3494308292865753 0.9203033447265625
vn -0.13156461715698242 0.4205687940120697 0.8976706862449646
vn -0.05306343361735344 0.35208290815353394 0.9344634413719177
vn 0.12670700252056122 0.48553264141082764 0.8649874925613403
vn 0.29854321479797363 0.5628589987754822 0.7707539796829224
vn 0.3784176707267761 0.738242506980896 0.5583888292312622
vn 0.12186921387910843 0.9901283979415894 0.06923659145832062
vn 0.12186924368143082 0.9901283979415894 0.06923650950193405
vn 0.12186925858259201 0.9901283979415894 0.06923652440309525
vn 0.12186921387910843 0.9901283979415894 0.06923650950193405
vn 0.12186921387910843 0.9901283979415894 0.06923650950193405
vn 0.12186917662620544 0.9901283979415894 0.06923666596412659
vn 0.12186913192272186 0.9901283383369446 0.06923682987689972
vn 0.12186923623085022 0.9901283979415894 0.06923653930425644
vn 0.6939092874526978 0.24156160652637482 0.678334653377533
vn 0.8337434530258179 0.2609308063983917 0.4866075813770294
vn 0.6973615884780884 0.23904961347579956 0.6756789684295654
vn 0.9321672916412354 0.26371461153030396 0.24802973866462708
vn 0.9334901571273804 0.281036376953125 -0.22274357080459595
vn 0.8331735730171204 0.290507972240448 -0.4705601632595062
vn 0.5005640983581543 0.3216147720813751 -0.803740918636322
vn 0.249284029006958 0.32979926466941833 -0.9105437397956848
vn -0.2246699333190918 0.3547559976577759 -0.9075635671615601
vn -0.47260570526123047 0.3569377660751343 -0.8057538270950317
vn -0.8075384497642517 0.3640933632850647 -0.46402332186698914
vn -0.904471218585968 0.361920028924942 -0.2257116287946701
vn -0.9006872177124023 0.34838801622390747 0.25959259271621704
vn -0.8012788891792297 0.3436248004436493 0.48976951837539673
vn -0.6561728119850159 0.31031081080436707 0.6878550052642822
vn -0.6678736805915833 0.32169660925865173 0.6711602210998535
vt 0.2626536190509796 0.29605352878570557
vt 0.11216887831687927 0
vt 0.10000607371330261 0.29605352878570557
vt 0.2626536190509796 0.29605352878570557
vt 0.2624570429325104 0
vt 0.11216887831687927 0
vt 0.5234873294830322 0.04792332649230957
vt 0.9440804123878479 0.04604315757751465
vt 0.947834849357605 0.1668165922164917
vt 0.5310225486755371 0.1674365997314453
vt 0.5283182263374329 0.16673201322555542
vt 0.5261263251304626 0.04908871650695801
vt 0.9429386854171753 0.04487776756286621
vt 0.9489112496376038 0.16378122568130493
vt 0.5234873294830322 0.04792332649230957
vt 0.9440804123878479 0.04604315757751465
vt 0.947834849357605 0.1668165922164917
vt 0.5310225486755371 0.1674365997314453
vt 0.5283182263374329 0.16673201322555542
vt 0.5261263251304626 0.04908871650695801
vt 0.9429386854171753 0.04487776756286621
vt 0.9489112496376038 0.16378122568130493
vt 0.9894100427627563 0.9866101145744324
vt 0.9309941530227661 0.9665914177894592
vt 0.9286149740219116 0.667885959148407
vt 0.9896197319030762 0.6422607898712158
vt 0.4592761695384979 0.9222133755683899
vt 0.9332267642021179 0.9636224508285522
vt 0.9279916286468506 0.667056679725647
vt 0.48826733231544495 0.6917232871055603
vt 0.9309941530227661 0.9665914177894592
vt 0.9286149740219116 0.667885959148407
vt 0.9332267642021179 0.9636224508285522
vt 0.9825726747512817 0.984554648399353
vt 0.9871070981025696 0.6403608918190002
vt 0.9279916286468506 0.667056679725647
vt 0.34072989225387573 0.4380277395248413
vt 0.39650148153305054 0.4057943820953369
vt 0.39664721488952637 0.36051344871520996
vt 0.34108179807662964 0.32871007919311523
vt 0.206437349319458 0.4065283536911011
vt 0.26200273633003235 0.4383317232131958
vt 0.20658311247825623 0.3612474203109741
vt 0.26235470175743103 0.3290140628814697
vt 0.4668079912662506 0.9894480109214783
vt 0.9894100427627563 0.9866101145744324
vt 0.9896197319030762 0.6422607898712158
vt 0.6024071574211121 0.6238239407539368
vt 0.9825726747512817 0.984554648399353
vt 0.9871070981025696 0.6403608918190002
vt 0.4592761695384979 0.9222133755683899
vt 0.9309941530227661 0.9665914177894592
vt 0.9894100427627563 0.9866101145744324
vt 0.4668079912662506 0.9894480109214783
vt 0.9332267642021179 0.9636224508285522
vt 0.9825726747512817 0.984554648399353
vt 0.9279916286468506 0.667056679725647
vt 0.9871070981025696 0.6403608918190002
vt 0.6024071574211121 0.6238239407539368
vt 0.48826733231544495 0.6917232871055603
vt 0.9896197319030762 0.6422607898712158
vt 0.9286149740219116 0.667885959148407
vt 0.39636313915252686 0.40473484992980957
vt 0.2137823849916458 0.4054577350616455
vt 0.2138686329126358 0.3619905710220337
vt 0.2671981155872345 0.4359818696975708
vt 0.3428255319595337 0.4356825351715088
vt 0.3430336117744446 0.3307434320449829
vt 0.39644932746887207 0.36126768589019775
vt 0.2674062252044678 0.3310428261756897
vt 0.11216887831687927 0
vt 0 0.29605352878570557
vt 0.10000607371330261 0.29605352878570557
vt 0 0
vt 0.12465476989746094 0.29605352878570557
vt 0.14323431253433228 0
vt 0.2623976469039917 0.29605352878570557
vt 0.2625960409641266 0
vt 0.11351451277732849 0.29605352878570557
vt 0.12169542908668518 0
vt 0 0.29605352878570557
vt 0 0
vt 0.13273704051971436 0.29605352878570557
vt 0.13339412212371826 0
vt 0.2626536190509796 0.29605352878570557
vt 0.2624570429325104 0
g Geoset0
s 1
usemtl 197666
f 1/1/1 2/2/2 3/3/3
f 4/4/4 5/5/5 6/6/6
f 7/7/7 8/8/8 9/9/9
f 9/9/9 10/10/10 7/7/7
f 11/11/11 12/12/12 13/13/13
f 13/13/13 14/14/14 11/11/11
f 15/15/15 16/16/16 17/17/17
f 17/17/17 18/18/18 15/15/15
f 19/19/19 20/20/20 21/21/21
f 21/21/21 22/22/22 19/19/19
f 23/23/23 24/24/24 25/25/25
f 25/25/25 26/26/26 23/23/23
f 27/27/27 28/28/28 29/29/29
f 29/29/29 30/30/30 27/27/27
f 31/31/31 27/27/27 30/30/30
f 30/30/30 32/32/32 31/31/31
f 33/33/33 34/34/34 35/35/35
f 35/35/35 36/36/36 33/33/33
f 37/37/37 38/38/38 39/39/39
f 37/37/37 39/39/39 40/40/40
f 37/37/37 41/41/41 42/42/42
f 37/37/37 43/43/43 41/41/41
f 37/37/37 44/44/44 43/43/43
f 37/37/37 40/40/40 44/44/44
f 45/45/45 46/46/46 47/47/47
f 47/47/47 48/48/48 45/45/45
f 49/49/49 45/45/45 48/48/48
f 48/48/48 50/50/50 49/49/49
f 51/51/51 52/52/52 53/53/53
f 53/53/53 54/54/54 51/51/51
f 55/55/55 51/51/51 54/54/54
f 54/54/54 56/56/56 55/55/55
f 57/57/57 58/58/58 59/59/59
f 59/59/59 60/60/60 57/57/57
f 60/60/60 59/59/59 61/61/61
f 61/61/61 62/62/62 60/60/60
f 63/63/63 64/64/64 65/65/65
f 63/63/63 66/66/66 64/64/64
f 63/63/63 67/67/67 66/66/66
f 63/63/63 68/68/68 69/69/69
f 63/63/63 70/70/70 68/68/68
f 63/63/63 65/65/65 70/70/70
f 71/71/71 72/72/72 73/73/73
f 71/71/71 74/74/74 72/72/72
f 74/74/74 75/75/75 72/72/72
f 74/74/74 76/76/76 75/75/75
f 76/76/76 77/77/77 75/75/75
f 76/76/76 78/78/78 77/77/77
f 78/78/78 79/79/79 77/77/77
f 78/78/78 80/80/80 79/79/79
f 80/80/80 81/81/81 79/79/79
f 80/80/80 82/82/82 81/81/81
f 82/82/82 83/83/83 81/81/81
f 82/82/82 84/84/84 83/83/83
f 84/84/84 85/85/85 83/83/83
f 84/84/84 86/86/86 85/85/85