# Exported using wow.export v0.1.9
o GnomeTable02
mtllib gnometable02.mtl
v -0.9974079132080078 -0.01641070656478405 -0.0005950104678049684
v -0.6775673627853394 0.26146018505096436 0.4865858256816864
v -0.8890507817268372 0.26146018505096436 -0.0005950104678049684
v 0.4125525653362274 0.5609302520751953 -0.21509574353694916
v -0.4473170340061188 0.8621317744255066 -0.313368022441864
v 0.469290167093277 0.8621317744255066 -0.313368022441864
v -0.3905794620513916 0.5609302520751953 -0.21509574353694916
v 0.5169495940208435 0.2275598794221878 -0.358605295419693
v -0.3905794620513916 0.5609302520751953 -0.21509574353694916
v 0.4125525653362274 0.5609302520751953 -0.21509574353694916
v -0.4949968159198761 0.2275598794221878 -0.358605295419693
v -0.4949968159198761 0.2275598794221878 0.35741525888442993
v 0.4125525653362274 0.5609302520751953 0.2121751308441162
v -0.3905794620513916 0.5609302520751953 0.2121751308441162
v 0.5169495940208435 0.2275598794221878 0.35741525888442993
v 0.7823451161384583 -0.01641070656478405 -0.5464173555374146
v -0.6775673627853394 0.26146018505096436 -0.48777517676353455
v 0.6994889974594116 0.26146018505096436 -0.48777517676353455
v -0.760467529296875 -0.01641070656478405 -0.5464173555374146
v 1.0192856788635254 -0.01641070656478405 -0.0005950104678049684
v 0.6994889974594116 0.26146018505096436 -0.48777517676353455
v 0.9109730124473572 0.26146018505096436 -0.0005950104678049684
v 0.7823451161384583 -0.01641070656478405 -0.5464173555374146
v 0.7823451161384583 -0.01641070656478405 0.5452269911766052
v 0.6994889974594116 0.26146018505096436 0.4865858256816864
v 1.0192856788635254 -0.01641070656478405 -0.0005950104678049684
v -0.760467529296875 -0.01641070656478405 0.5452269911766052
v 0.6994889974594116 0.26146018505096436 0.4865858256816864
v -0.6775673627853394 0.26146018505096436 0.4865858256816864
v 0.7823451161384583 -0.01641070656478405 0.5452269911766052
v -0.3905794620513916 0.5609302520751953 0.2121751308441162
v 0.469290167093277 0.8621317744255066 0.31044742465019226
v -0.4473170340061188 0.8621317744255066 0.31044742465019226
v 0.4125525653362274 0.5609302520751953 0.2121751308441162
v -0.3905794620513916 0.5609302520751953 -0.21509574353694916
v -0.6273967027664185 0.8621317744255066 -0.0014603027375414968
v -0.4473170340061188 0.8621317744255066 -0.313368022441864
v -0.4949968159198761 0.2275598794221878 -0.358605295419693
v -0.5139215588569641 0.5609302520751953 -0.0014603027375414968
v -0.4473170340061188 0.8621317744255066 0.31044742465019226
v -0.6504074931144714 0.2275598794221878 -0.0005950104678049684
v -0.4949968159198761 0.2275598794221878 0.35741525888442993
v -0.3905794620513916 0.5609302520751953 0.2121751308441162
v 1.6847224235534668 0.7821413278579712 0.33725929260253906
v 1.0354864597320557 0.7821412682533264 -0.6284345984458923
v 1.6847224235534668 0.7821412682533264 -0.3372603952884674
v 1.0354864597320557 0.7821412682533264 0.6284348964691162
v -1.0221914052963257 0.7821412682533264 0.7666900157928467
v -1.684720754623413 0.7821413278579712 -0.4114571809768677
v -1.0221914052963257 0.7821412682533264 -0.7666900753974915
v -1.684720754623413 0.7821412682533264 0.4114570915699005
v 0.991073489189148 1.0869029760360718 -0.6001074910163879
v 1.6049902439117432 1.0869030952453613 0.32205742597579956
v 1.6049902439117432 1.0869030952453613 -0.322057843208313
v 0.9910728931427002 1.0869029760360718 0.6001070141792297
v -1.6068086624145508 1.0869030952453613 -0.3929102420806885
v -0.9741432666778564 1.0869029760360718 0.7321311235427856
v -0.9741432666778564 1.0869029760360718 -0.7321308255195618
v -1.6068086624145508 1.0869030952453613 0.39291051030158997
v -0.8052941560745239 1.0869029760360718 -1.0715736150741577
v 0.9313216805458069 1.0869029760360718 -0.8783391714096069
v 0.9732178449630737 0.7821413278579712 -0.9198001027107239
v -0.8453724980354309 0.7821412086486816 -1.1221556663513184
v 0.991073489189148 1.0869029760360718 -0.6001074910163879
v 1.0354864597320557 0.7821412682533264 -0.6284345984458923
v 0.9732178449630737 0.7821413278579712 -0.9198001027107239
v -0.6775673627853394 0.26146018505096436 -0.48777517676353455
v 0.011839653365314007 0.30387333035469055 -0.05638875439763069
v 0.6994889974594116 0.26146018505096436 -0.48777517676353455
v 0.9109730124473572 0.26146018505096436 -0.0005950104678049684
v 0.6994889974594116 0.26146018505096436 0.4865858256816864
v -0.8890507817268372 0.26146018505096436 -0.0005950104678049684
v -0.6775673627853394 0.26146018505096436 0.4865858256816864
v 0.011839653365314007 -0.01641070656478405 -0.0005950104678049684
v -0.760467529296875 -0.01641070656478405 -0.5464173555374146
v 0.7823451161384583 -0.01641070656478405 -0.5464173555374146
v 1.0192856788635254 -0.01641070656478405 -0.0005950104678049684
v 0.7823451161384583 -0.01641070656478405 0.5452269911766052
v -0.9974079132080078 -0.01641070656478405 -0.0005950104678049684
v -0.760467529296875 -0.01641070656478405 0.5452269911766052
v 0.4125525653362274 0.5609302520751953 0.2121751308441162
v 0.6493697762489319 0.8621317744255066 -0.0014603027375414968
v 0.469290167093277 0.8621317744255066 0.31044742465019226
v 0.5358952879905701 0.5609302520751953 -0.0014603027375414968
v 0.469290167093277 0.8621317744255066 -0.313368022441864
v 0.5169495940208435 0.2275598794221878 0.35741525888442993
v 0.6723602414131165 0.2275598794221878 -0.0005950104678049684
v 0.5169495940208435 0.2275598794221878 -0.358605295419693
v 0.4125525653362274 0.5609302520751953 -0.21509574353694916
v -0.8453724980354309 0.7821412086486816 1.1221561431884766
v -1.0221914052963257 0.7821412682533264 0.7666900157928467
v 0.9732178449630737 0.7821413278579712 0.9197996854782104
v 1.0354864597320557 0.7821412682533264 0.6284348964691162
v 1.0354864597320557 0.7821412682533264 -0.6284345984458923
v -1.0221914052963257 0.7821412682533264 -0.7666900753974915
v 0.9732178449630737 0.7821413278579712 -0.9198001027107239
v -0.8453724980354309 0.7821412086486816 -1.1221556663513184
v -0.9741432666778564 1.0869029760360718 0.7321311235427856
v -0.8052941560745239 1.0869029760360718 1.0715738534927368
v 0.9313216805458069 1.0869029760360718 0.8783387541770935
v -0.9741432666778564 1.0869029760360718 -0.7321308255195618
v 0.9313216805458069 1.0869029760360718 -0.8783391714096069
v -0.8052941560745239 1.0869029760360718 -1.0715736150741577
v 0.991073489189148 1.0869029760360718 -0.6001074910163879
v 0.9910728931427002 1.0869029760360718 0.6001070141792297
v -0.8052941560745239 1.0869029760360718 1.0715738534927368
v -0.9741432666778564 1.0869029760360718 0.7321311235427856
v -1.0221914052963257 0.7821412682533264 0.7666900157928467
v -0.8453724980354309 0.7821412086486816 1.1221561431884766
v 0.9313216805458069 1.0869029760360718 0.8783387541770935
v 0.9732178449630737 0.7821413278579712 0.9197996854782104
v 0.9910728931427002 1.0869029760360718 0.6001070141792297
v 1.0354864597320557 0.7821412682533264 0.6284348964691162
v -0.9741432666778564 1.0869029760360718 -0.7321308255195618
v -0.8052941560745239 1.0869029760360718 -1.0715736150741577
v -0.8453724980354309 0.7821412086486816 -1.1221556663513184
v -1.0221914052963257 0.7821412682533264 -0.7666900753974915
v -1.684720754623413 0.7821412682533264 0.4114570915699005
v -1.0221914052963257 0.7821412682533264 0.7666900157928467
v -0.9741432666778564 1.0869029760360718 0.7321311235427856
v -1.6068086624145508 1.0869030952453613 0.39291051030158997
v -1.684720754623413 0.7821413278579712 -0.4114571809768677
v -1.6068086624145508 1.0869030952453613 -0.3929102420806885
v -0.9741432666778564 1.0869029760360718 -0.7321308255195618
v 1.6847224235534668 0.7821412682533264 -0.3372603952884674
v 1.0354864597320557 0.7821412682533264 -0.6284345984458923
v 0.991073489189148 1.0869029760360718 -0.6001074910163879
v 1.6049902439117432 1.0869030952453613 -0.322057843208313
v 1.6847224235534668 0.7821413278579712 0.33725929260253906
v 1.6049902439117432 1.0869030952453613 0.32205742597579956
v 1.0354864597320557 0.7821412682533264 0.6284348964691162
v 0.9910728931427002 1.0869029760360718 0.6001070141792297
v -0.760467529296875 -0.01641070656478405 -0.5464173555374146
v -0.9974079132080078 -0.01641070656478405 -0.0005950104678049684
v -0.6775673627853394 0.26146018505096436 -0.48777517676353455
v -0.760467529296875 -0.01641070656478405 0.5452269911766052
vn -0.9233165979385376 0.3600509762763977 0.13360297679901123
vn -0.6650981903076172 0.33886101841926575 0.6654454469680786
vn -0.9233164191246033 0.36005130410194397 -0.13360346853733063
vn 0.5134515762329102 0.04459107294678688 -0.8569592237472534
vn -0.3069922924041748 -0.3469699025154114 -0.8862096667289734
vn 0.6139842867851257 -0.34696948528289795 -0.708967924118042
vn -0.5002080202102661 0.06140630692243576 -0.8637251853942871
vn 0.31538257002830505 0.45682573318481445 -0.8317716717720032
vn -0.5002080202102661 0.06140630692243576 -0.8637251853942871
vn 0.5134515762329102 0.04459107294678688 -0.8569592237472534
vn -0.6140274405479431 0.4437468945980072 -0.6527319550514221
vn -0.3150012791156769 0.46027666330337524 0.830011785030365
vn 0.5003729462623596 0.06348352879285812 0.8634794354438782
vn -0.513428807258606 0.04623812064528465 0.856885552406311
vn 0.6133086085319519 0.44640597701072693 0.6515936255455017
vn 0.3325650095939636 0.2886424660682678 -0.897822916507721
vn -0.332549124956131 0.2886885106563568 -0.8978140354156494
vn 0.665130078792572 0.3387692868709564 -0.6654602885246277
vn -0.6650978326797485 0.3388625979423523 -0.6654449701309204
vn 0.9233654737472534 0.3599228262901306 -0.13361036777496338
vn 0.665130078792572 0.3387692868709564 -0.6654602885246277
vn 0.9233656525611877 0.3599223494529724 0.13361035287380219
vn 0.3325650095939636 0.2886424660682678 -0.897822916507721
vn 0.6651304960250854 0.3387675881385803 0.6654607057571411
vn 0.3325653672218323 0.28863945603370667 0.8978237509727478
vn 0.9233654737472534 0.3599228262901306 -0.13361036777496338
vn -0.3325490951538086 0.2886854410171509 0.8978150486946106
vn 0.3325653672218323 0.28863945603370667 0.8978237509727478
vn -0.6650981903076172 0.33886101841926575 0.6654454469680786
vn 0.6651304960250854 0.3387675881385803 0.6654607057571411
vn -0.513428807258606 0.04623812064528465 0.856885552406311
vn 0.3069922924041748 -0.3469699025154114 0.8862096667289734
vn -0.6139847040176392 -0.3469700217247009 0.7089672684669495
vn 0.5003729462623596 0.06348352879285812 0.8634794354438782
vn -0.5002080202102661 0.06140630692243576 -0.8637251853942871
vn -0.9209762811660767 -0.3469700217247009 -0.17724141478538513
vn -0.3069922924041748 -0.3469699025154114 -0.8862096667289734
vn -0.6140274405479431 0.4437468945980072 -0.6527319550514221
vn -0.9989174604415894 0.03914344310760498 0.025133751332759857
vn -0.6139847040176392 -0.3469700217247009 0.7089672684669495
vn -0.9025698304176331 0.3974757790565491 0.1654711216688156
vn -0.3150012791156769 0.46027666330337524 0.830011785030365
vn -0.513428807258606 0.04623812064528465 0.856885552406311
vn 0.8224934339523315 -0.4721611440181732 0.31712520122528076
vn 0.443193644285202 -0.8608998656272888 -0.2498617023229599
vn 0.6915816068649292 -0.1757192611694336 -0.7005980610847473
vn 0.4807046353816986 -0.6882737874984741 0.5433251857757568
vn -0.362215131521225 -0.8878211379051208 0.2838553190231323
vn -0.8338872194290161 -0.46246686577796936 -0.30125823616981506
vn -0.4045009911060333 -0.7748968601226807 -0.4857095181941986
vn -0.7290167212486267 -0.15680091083049774 0.6662943363189697
vn 0.2924675941467285 0.8972512483596802 -0.33076104521751404
vn 0.49547091126441956 0.7089194059371948 0.5019380450248718
vn 0.7788536548614502 0.5511599779129028 -0.29934871196746826
vn 0.5337452292442322 0.7905908226966858 0.3001369535923004
vn -0.5201725959777832 0.7095052599906921 -0.47541847825050354
vn -0.2543278932571411 0.917635977268219 0.30538758635520935
vn -0.4153749644756317 0.8494136929512024 -0.3255150020122528
vn -0.7876695394515991 0.5464444756507874 0.28456127643585205
vn -0.22768855094909668 0.512061595916748 -0.8282214999198914
vn 0.5837669372558594 0.7067544460296631 -0.3996427655220032
vn 0.4061785638332367 -0.5289524793624878 -0.7451363801956177
vn -0.6521312594413757 -0.1877281218767166 -0.7344950437545776
vn 0.2924675941467285 0.8972512483596802 -0.33076104521751404
vn 0.443193644285202 -0.8608998656272888 -0.2498617023229599
vn 0.4061785638332367 -0.5289524793624878 -0.7451363801956177
vn -0.024181287735700607 0.9979371428489685 -0.05947079136967659
vn 0.000030678176699439064 0.9999931454658508 -0.0037024097982794046
vn 0.02422972396016121 0.9979346990585327 -0.05949186906218529
vn 0.04715277627110481 0.9988875389099121 -0.0005499302642419934
vn 0.022953856736421585 0.9985384941101074 0.04892851784825325
vn -0.047060880810022354 0.9988918900489807 -0.0005477900849655271
vn -0.022910362109541893 0.9985404014587402 0.048909593373537064
vn 0 -1 0
vn 0 -1 0
vn 0 -1 0
vn 0 -1 0
vn 0 -1 0
vn 0 -1 0
vn 0 -1 0
vn 0.5003729462623596 0.06348352879285812 0.8634794354438782
vn 0.9209765791893005 -0.34696874022483826 0.1772422343492508
vn 0.3069922924041748 -0.3469699025154114 0.8862096667289734
vn 0.9989014267921448 0.03940771520137787 -0.02535799704492092
vn 0.6139842867851257 -0.34696948528289795 -0.708967924118042
vn 0.6133086085319519 0.44640597701072693 0.6515936255455017
vn 0.902850866317749 0.39669689536094666 -0.16580678522586823
vn 0.31538257002830505 0.45682573318481445 -0.8317716717720032
vn 0.5134515762329102 0.04459107294678688 -0.8569592237472534
vn -0.25960835814476013 -0.20210054516792297 0.9443298578262329
vn -0.362215131521225 -0.8878211379051208 0.2838553190231323
vn 0.7015595436096191 -0.5264432430267334 0.4802829325199127
vn 0.4807046353816986 -0.6882737874984741 0.5433251857757568
vn 0.443193644285202 -0.8608998656272888 -0.2498617023229599
vn -0.4045009911060333 -0.7748968601226807 -0.4857095181941986
vn 0.4061785638332367 -0.5289524793624878 -0.7451363801956177
vn -0.6521312594413757 -0.1877281218767166 -0.7344950437545776
vn -0.2543278932571411 0.917635977268219 0.30538758635520935
vn -0.5658018589019775 0.5232258439064026 0.6372621059417725
vn 0.33936670422554016 0.7048057317733765 0.6229599714279175
vn -0.4153749644756317 0.8494136929512024 -0.3255150020122528
vn 0.5837669372558594 0.7067544460296631 -0.3996427655220032
vn -0.22768855094909668 0.512061595916748 -0.8282214999198914
vn 0.2924675941467285 0.8972512483596802 -0.33076104521751404
vn 0.5337452292442322 0.7905908226966858 0.3001369535923004
vn -0.5658018589019775 0.5232258439064026 0.6372621059417725
vn -0.2543278932571411 0.917635977268219 0.30538758635520935
vn -0.362215131521225 -0.8878211379051208 0.2838553190231323
vn -0.25960835814476013 -0.20210054516792297 0.9443298578262329
vn 0.33936670422554016 0.7048057317733765 0.6229599714279175
vn 0.7015595436096191 -0.5264432430267334 0.4802829325199127
vn 0.5337452292442322 0.7905908226966858 0.3001369535923004
vn 0.4807046353816986 -0.6882737874984741 0.5433251857757568
vn -0.4153749644756317 0.8494136929512024 -0.3255150020122528
vn -0.22768855094909668 0.512061595916748 -0.8282214999198914
vn -0.6521312594413757 -0.1877281218767166 -0.7344950437545776
vn -0.4045009911060333 -0.7748968601226807 -0.4857095181941986
vn -0.7290167212486267 -0.15680091083049774 0.6662943363189697
vn -0.362215131521225 -0.8878211379051208 0.2838553190231323
vn -0.2543278932571411 0.917635977268219 0.30538758635520935
vn -0.7876695394515991 0.5464444756507874 0.28456127643585205
vn -0.8338872194290161 -0.46246686577796936 -0.30125823616981506
vn -0.5201725959777832 0.7095052599906921 -0.47541847825050354
vn -0.4153749644756317 0.8494136929512024 -0.3255150020122528
vn 0.6915816068649292 -0.1757192611694336 -0.7005980610847473
vn 0.443193644285202 -0.8608998656272888 -0.2498617023229599
vn 0.2924675941467285 0.8972512483596802 -0.33076104521751404
vn 0.7788536548614502 0.5511599779129028 -0.29934871196746826
vn 0.8224934339523315 -0.4721611440181732 0.31712520122528076
vn 0.49547091126441956 0.7089194059371948 0.5019380450248718
vn 0.4807046353816986 -0.6882737874984741 0.5433251857757568
vn 0.5337452292442322 0.7905908226966858 0.3001369535923004
vn -0.6650978326797485 0.3388625979423523 -0.6654449701309204
vn -0.9233165979385376 0.3600509762763977 0.13360297679901123
vn -0.332549124956131 0.2886885106563568 -0.8978140354156494
vn -0.3325490951538086 0.2886854410171509 0.8978150486946106
vt 0.9937105774879456 0.39087170362472534
vt 0.9101532697677612 0.0007328987121582031
vt 0.9067596197128296 0.38960713148117065
vt 0.8536981344223022 0.9681358337402344
vt 0.4737393260002136 0.820360541343689
vt 0.871671199798584 0.820360541343689
vt 0.4868813157081604 0.9681358337402344
vt 0.8509631752967834 0.4514883756637573
vt 0.4844658672809601 0.6150464415550232
vt 0.8512826561927795 0.6150464415550232
vt 0.4847855567932129 0.4514883756637573
vt 0.4847854971885681 0.4514883756637573
vt 0.8512826561927795 0.6150464415550232
vt 0.4844658672809601 0.6150464415550232
vt 0.8509631752967834 0.4514883756637573
vt 1 0.5913547873497009
vt 0.9088314771652222 0.0007328987121582031
vt 0.9054378271102905 0.5900900363922119
vt 1 0.0019975900650024414
vt 0.9937105774879456 0.39087170362472534
vt 0.9100849628448486 0.0002573728561401367
vt 0.9066871404647827 0.3896063566207886
vt 0.9971083402633667 0.0015227198600769043
vt 0.9961897134780884 0.0005879998207092285
vt 0.9091663360595703 -0.0006773471832275391
vt 0.9946353435516357 0.3910989761352539
vt 0.9948416948318481 0.5913547873497009
vt 0.9036731719970703 0.0007328987121582031
vt 0.9002795219421387 0.5900900363922119
vt 0.9948416948318481 0.0019975900650024414
vt 0.4868813157081604 0.9681358337402344
vt 0.871671199798584 0.820360541343689
vt 0.47373926639556885 0.820360541343689
vt 0.8536981344223022 0.9681358337402344
vt 0.9062077403068542 0.7688848376274109
vt 0.9974271655082703 0.9950312972068787
vt 0.8956414461135864 0.9950312972068787
vt 0.9100679159164429 0.6251808404922485
vt 0.9924835562705994 0.789783775806427
vt 0.895641565322876 0.9950312972068787
vt 0.9953129887580872 0.6251808404922485
vt 0.9100679159164429 0.6251808404922485
vt 0.9062077403068542 0.7688848376274109
vt 0.5732299089431763 0.956670343875885
vt 0.8723544478416443 0.8380635380744934
vt 0.8070498704910278 0.9594676494598389
vt 0.4642537534236908 0.832206666469574
vt 0.4623611271381378 0.8312950730323792
vt 0.8140656352043152 0.9567427039146423
vt 0.8720604181289673 0.8374285697937012
vt 0.5755863785743713 0.9600328803062439
vt 0.8715100884437561 0.8148530721664429
vt 0.5704055428504944 0.9621869325637817
vt 0.8136451244354248 0.9604448676109314
vt 0.4728546440601349 0.8093875646591187
vt 0.8133417963981628 0.9601309895515442
vt 0.4734158515930176 0.8094133138656616
vt 0.8737409114837646 0.8148213028907776
vt 0.570955216884613 0.9618310928344727
vt 0.3765709400177002 0.9684424996376038
vt 0.88140469789505 0.9691237211227417
vt 0.8762784004211426 0.8180745244026184
vt 0.3840930461883545 0.8148194551467896
vt 0.7804067730903625 0.9671934843063354
vt 0.7864909172058105 0.8152052760124207
vt 0.8763973116874695 0.8165197968482971
vt 0.5210959911346436 0.4492562413215637
vt 0.6628769040107727 0.4019065499305725
vt 0.7358942031860352 0.546026885509491
vt 0.8178449273109436 0.4791964292526245
vt 0.8289492130279541 0.37638843059539795
vt 0.5154122114181519 0.336117148399353
vt 0.5844489932060242 0.26153838634490967
vt 0.6628769040107727 0.4019065499305725
vt 0.5210959911346436 0.4492562413215637
vt 0.7358942031860352 0.546026885509491
vt 0.8178449273109436 0.4791964292526245
vt 0.8289492130279541 0.37638843059539795
vt 0.5154122114181519 0.336117148399353
vt 0.5844489932060242 0.26153838634490967
vt 0.9092536568641663 0.7696358561515808
vt 0.9963648319244385 0.9947057962417603
vt 0.8958257436752319 0.9947057962417603
vt 0.9966073036193848 0.7889595031738281
vt 0.8958257436752319 0.9947057962417603
vt 0.9089342355728149 0.625401496887207
vt 0.9959501624107361 0.625401496887207
vt 0.8992723822593689 0.6254014372825623
vt 0.9092536568641663 0.7696358561515808
vt 0.38728606700897217 0.6644953489303589
vt 0.4647766053676605 0.6742902398109436
vt 0.42257627844810486 0.23843538761138916
vt 0.4811619520187378 0.23558831214904785
vt 0.8095524907112122 0.23419880867004395
vt 0.8358285427093506 0.687670111656189
vt 0.8553668856620789 0.2447599172592163
vt 0.8964066505432129 0.6744788289070129
vt 0.3900546431541443 0.7745757699012756
vt 0.5528760552406311 0.717216432094574
vt 0.5791268944740295 0.025893688201904297
vt 0.882012665271759 0.764100968837738
vt 0.7437111735343933 0.03850150108337402
vt 0.7097412347793579 0.7205497026443481
vt 0.8617709875106812 0.010947227478027344
vt 0.3947576880455017 0.01924079656600952
vt 0.778811514377594 0.9619788527488708
vt 0.8795531988143921 0.9692338109016418
vt 0.8843632936477661 0.8155534863471985
vt 0.7827140688896179 0.8179912567138672
vt 0.45691633224487305 0.9635664820671082
vt 0.4651298224925995 0.8167337775230408
vt 0.3798006474971771 0.9599579572677612
vt 0.3836631774902344 0.8189257979393005
vt 0.7923219799995422 0.9668603539466858
vt 0.882158100605011 0.968941330909729
vt 0.8754724860191345 0.8184688687324524
vt 0.7823470830917358 0.8152953386306763
vt 0.38107213377952576 0.812999427318573
vt 0.5626567602157593 0.8154547810554504
vt 0.5578465461730957 0.9610263705253601
vt 0.38448598980903625 0.9629567861557007
vt 0.6479637026786804 0.818692684173584
vt 0.6374796628952026 0.9636343717575073
vt 0.7909253239631653 0.969002902507782
vt 0.7199961543083191 0.8112475872039795
vt 0.8104354739189148 0.8120546936988831
vt 0.7860778570175171 0.9659332633018494
vt 0.715361475944519 0.9676167368888855
vt 0.4606255888938904 0.814924955368042
vt 0.47026556730270386 0.9644719362258911
vt 0.37871497869491577 0.8169134855270386
vt 0.38369667530059814 0.9609165191650391
vt 0.9971042275428772 0.001997709274291992
vt 0.9937105774879456 0.39087188243865967
vt 0.9101532697677612 0.0007330179214477539
vt 0.9971042275428772 0.0019975900650024414
g Geoset0
s 1
usemtl 197670
f 1/1/1 2/2/2 3/3/3
f 4/4/4 5/5/5 6/6/6
f 4/4/4 7/7/7 5/5/5
f 8/8/8 9/9/9 10/10/10
f 8/8/8 11/11/11 9/9/9
f 12/12/12 13/13/13 14/14/14
f 12/12/12 15/15/15 13/13/13
f 16/16/16 17/17/17 18/18/18
f 16/16/16 19/19/19 17/17/17
f 20/20/20 21/21/21 22/22/22
f 20/20/20 23/23/23 21/21/21
f 24/24/24 22/22/22 25/25/25
f 24/24/24 26/26/26 22/22/22
f 27/27/27 28/28/28 29/29/29
f 27/27/27 30/30/30 28/28/28
f 31/31/31 32/32/32 33/33/33
f 31/31/31 34/34/34 32/32/32
f 35/35/35 36/36/36 37/37/37
f 38/38/38 39/39/39 35/35/35
f 35/35/35 39/39/39 36/36/36
f 39/39/39 40/40/40 36/36/36
f 41/41/41 42/42/42 43/43/43
f 38/38/38 41/41/41 39/39/39
f 41/41/41 43/43/43 39/39/39
f 39/39/39 43/43/43 40/40/40
f 44/44/44 45/45/45 46/46/46
f 47/47/47 45/45/45 44/44/44
f 48/48/48 49/49/49 50/50/50
f 51/51/51 49/49/49 48/48/48
f 52/52/52 53/53/53 54/54/54
f 52/52/52 55/55/55 53/53/53
f 56/56/56 57/57/57 58/58/58
f 56/56/56 59/59/59 57/57/57
f 60/60/60 61/61/61 62/62/62
f 62/62/62 63/63/63 60/60/60
f 61/61/61 64/64/64 65/65/65
f 65/65/65 66/66/66 61/61/61
f 67/67/67 68/68/68 69/69/69
f 69/69/69 68/68/68 70/70/70
f 70/70/70 68/68/68 71/71/71
f 72/72/72 68/68/68 67/67/67
f 73/73/73 68/68/68 72/72/72
f 71/71/71 68/68/68 73/73/73
f 74/74/74 75/75/75 76/76/76
f 74/74/74 76/76/76 77/77/77
f 74/74/74 77/77/77 78/78/78
f 74/74/74 79/79/79 75/75/75
f 74/74/74 80/80/80 79/79/79
f 74/74/74 78/78/78 80/80/80
f 81/81/81 82/82/82 83/83/83
f 84/84/84 85/85/85 82/82/82
f 81/81/81 84/84/84 82/82/82
f 86/86/86 84/84/84 81/81/81
f 87/87/87 88/88/88 89/89/89
f 86/86/86 87/87/87 84/84/84
f 87/87/87 89/89/89 84/84/84
f 84/84/84 89/89/89 85/85/85
f 90/90/90 91/91/91 92/92/92
f 92/92/92 91/91/91 93/93/93
f 93/93/93 91/91/91 94/94/94
f 91/91/91 95/95/95 94/94/94
f 94/94/94 95/95/95 96/96/96
f 96/96/96 95/95/95 97/97/97
f 98/98/98 99/99/99 100/100/100
f 101/101/101 102/102/102 103/103/103
f 101/101/101 104/104/104 102/102/102
f 101/101/101 98/98/98 104/104/104
f 98/98/98 105/105/105 104/104/104
f 98/98/98 100/100/100 105/105/105
f 106/106/106 107/107/107 108/108/108
f 108/108/108 109/109/109 106/106/106
f 110/110/110 106/106/106 109/109/109
f 109/109/109 111/111/111 110/110/110
f 112/112/112 110/110/110 111/111/111
f 111/111/111 113/113/113 112/112/112
f 114/114/114 115/115/115 116/116/116
f 116/116/116 117/117/117 114/114/114
f 118/118/118 119/119/119 120/120/120
f 120/120/120 121/121/121 118/118/118
f 122/122/122 118/118/118 121/121/121
f 121/121/121 123/123/123 122/122/122
f 117/117/117 122/122/122 123/123/123
f 123/123/123 124/124/124 117/117/117
f 125/125/125 126/126/126 127/127/127
f 127/127/127 128/128/128 125/125/125
f 129/129/129 125/125/125 128/128/128
f 128/128/128 130/130/130 129/129/129
f 131/131/131 129/129/129 130/130/130
f 130/130/130 132/132/132 131/131/131
f 133/133/133 134/134/134 3/3/3
f 133/133/133 3/3/3 135/135/135
f 1/1/1 136/136/136 2/2/2